<?xml version="1.0" encoding="utf-8"?>
<!-- Generator: Adobe Illustrator 26.3.0, SVG Export Plug-In . SVG Version: 6.00 Build 0)  -->
<svg version="1.1" id="Layer_1" xmlns="http://www.w3.org/2000/svg" xmlns:xlink="http://www.w3.org/1999/xlink" x="0px" y="0px"
	 viewBox="0 0 64 64" style="enable-background:new 0 0 64 64;" xml:space="preserve">
<style type="text/css">
	.st0{opacity:0.74;}
	.st1{fill:url(#SVGID_1_);}
	.st2{fill:url(#SVGID_00000099642361114874144730000006439555747540138882_);}
	.st3{opacity:0.63;fill:url(#SVGID_00000163777529288506555160000017701045783921067194_);}
	.st4{opacity:0.22;}
	.st5{fill:url(#SVGID_00000131350853047006845400000010522202675175890572_);}
	.st6{fill:url(#SVGID_00000015339183728340328290000002744933747695627180_);}
	.st7{fill:#3E8E28;stroke:#397F28;stroke-width:3;stroke-miterlimit:10;}
</style>
<g class="st0">
	
		<radialGradient id="SVGID_1_" cx="29.5435" cy="35.0501" r="31.1134" fx="4.1007" fy="17.1418" gradientTransform="matrix(0.9947 -0.103 0.103 0.9947 -4.1718 2.75)" gradientUnits="userSpaceOnUse">
		<stop  offset="0.1374" style="stop-color:#4C962A"/>
		<stop  offset="0.9609" style="stop-color:#40872E"/>
	</radialGradient>
	<path class="st1" d="M53.65,49.48L7.58,54.25c-1.54,0.16-2.91-0.96-3.07-2.49l-3-29.02C1.34,21.2,2.46,19.82,4,19.67l46.08-4.77
		c1.54-0.16,2.91,0.96,3.07,2.49l3,29.02C56.3,47.94,55.19,49.32,53.65,49.48z"/>
	
		<radialGradient id="SVGID_00000011731286769401716160000002605774572722751121_" cx="29.3027" cy="34.654" r="29.9016" fx="3.5948" fy="19.383" gradientTransform="matrix(0.9947 -0.103 0.1014 0.9791 -4.0751 3.6846)" gradientUnits="userSpaceOnUse">
		<stop  offset="0.1374" style="stop-color:#5CB836"/>
		<stop  offset="0.9274" style="stop-color:#3D872E"/>
	</radialGradient>
	<path style="fill:url(#SVGID_00000011731286769401716160000002605774572722751121_);" d="M52.18,48.6L8.36,53.14
		c-1.54,0.16-2.91-0.96-3.07-2.49L2.5,23.66c-0.16-1.54,0.96-2.91,2.49-3.07l43.81-4.54c1.54-0.16,2.91,0.96,3.07,2.49l2.79,26.99
		C54.83,47.07,53.71,48.44,52.18,48.6z"/>
</g>
<linearGradient id="SVGID_00000118384585294441716180000012646731807116744084_" gradientUnits="userSpaceOnUse" x1="38.5373" y1="36.2739" x2="28.0288" y2="7.4022">
	<stop  offset="0.0112" style="stop-color:#006A18"/>
	<stop  offset="0.1514" style="stop-color:#248423"/>
	<stop  offset="0.3907" style="stop-color:#5AAB34"/>
	<stop  offset="0.5973" style="stop-color:#82C840"/>
	<stop  offset="0.7606" style="stop-color:#9BD947"/>
	<stop  offset="0.8603" style="stop-color:#A4E04A"/>
</linearGradient>
<path style="opacity:0.63;fill:url(#SVGID_00000118384585294441716180000012646731807116744084_);" d="M57.62,29.33L18.5,42.57
	c-1.51,0.51-3.15-0.3-3.66-1.81l-7.7-22.75c-0.51-1.51,0.3-3.15,1.81-3.66L48.07,1.1c1.51-0.51,3.15,0.3,3.66,1.81l7.7,22.75
	C59.94,27.17,59.13,28.82,57.62,29.33z"/>
<rect x="7.69" y="11.39" transform="matrix(0.9472 -0.3206 0.3206 0.9472 -3.4165 10.8202)" class="st4" width="46.92" height="8.78"/>
<g>
	
		<radialGradient id="SVGID_00000005980785984573164520000016977250805684608656_" cx="32.2857" cy="40.1852" r="36.9159" fx="2.0979" fy="18.9372" gradientUnits="userSpaceOnUse">
		<stop  offset="0.1374" style="stop-color:#4C962A"/>
		<stop  offset="0.9609" style="stop-color:#40872E"/>
	</radialGradient>
	<path style="fill:url(#SVGID_00000005980785984573164520000016977250805684608656_);" d="M60.29,60.81h-56
		c-1.54,0-2.8-1.25-2.8-2.8V22.36c0-1.54,1.25-2.8,2.8-2.8h56c1.54,0,2.8,1.25,2.8,2.8v35.66C63.08,59.56,61.83,60.81,60.29,60.81z"
		/>
	
		<radialGradient id="SVGID_00000178912958203020099380000013083998485754487740_" cx="32" cy="39.871" r="35.478" fx="1.4977" fy="21.7519" gradientTransform="matrix(1 0 0 0.9843 0 0.9396)" gradientUnits="userSpaceOnUse">
		<stop  offset="0.1374" style="stop-color:#5CB836"/>
		<stop  offset="0.9274" style="stop-color:#3D872E"/>
	</radialGradient>
	<path style="fill:url(#SVGID_00000178912958203020099380000013083998485754487740_);" d="M58.65,59.6H5.35
		c-1.54,0-2.8-1.25-2.8-2.8V23.57c0-1.54,1.25-2.8,2.8-2.8h53.31c1.54,0,2.8,1.25,2.8,2.8V56.8C61.45,58.35,60.2,59.6,58.65,59.6z"
		/>
</g>
<circle class="st7" cx="59.2" cy="40.52" r="3.25"/>
</svg>
