<?xml version="1.0" encoding="utf-8"?>
<!-- Generator: Adobe Illustrator 25.1.0, SVG Export Plug-In . SVG Version: 6.00 Build 0)  -->
<svg version="1.1" id="Layer_1" xmlns="http://www.w3.org/2000/svg" xmlns:xlink="http://www.w3.org/1999/xlink" x="0px" y="0px"
	 viewBox="0 0 256 256" style="enable-background:new 0 0 256 256;" xml:space="preserve">
<style type="text/css">
	.st0{fill-rule:evenodd;clip-rule:evenodd;fill:#FFFFFF;}
</style>
<path class="st0" d="M126,12L25.6,112.4c-9,9-9,22.6,0,31.7L126,244.4c9,9,21.1,10.6,30.2,1.5l3.8-3c7.5-8.3,9-18.1,1.5-24.9
	c-24.9-24.9-49.8-49.8-74.7-73.9c-8.3-9-8.3-22.6,0-31.7c24.9-24.9,49.8-49,74.7-73.9c7.5-7.5,6-16.6-1.5-24.9l-3.8-3.8
	C147.1,0.7,135,3,126,12L126,12z"/>
</svg>
