<?xml version="1.0" encoding="utf-8"?>
<!-- Generator: Adobe Illustrator 26.3.0, SVG Export Plug-In . SVG Version: 6.00 Build 0)  -->
<svg version="1.1" id="Layer_1" xmlns="http://www.w3.org/2000/svg" xmlns:xlink="http://www.w3.org/1999/xlink" x="0px" y="0px"
	 viewBox="0 0 256 256" style="enable-background:new 0 0 256 256;" xml:space="preserve">
<style type="text/css">
	.st0{fill:#030303;}
	.st1{fill:#E7333E;}
</style>
<g>
	<path class="st0" d="M188.5,57c-0.7,0.4-1.5,0.8-2.9,1.6c11.2,0,21.7,0,32.1,0c2.1,0,4.2-0.1,6.3,0.5c5.3,1.6,9.3,6.6,9.4,12.2
		c0.1,9.8,0.2,19.7,0,29.5c-0.1,5.2-2.8,9.1-7.5,11.5c-1.1,0.5-1.6,1.1-1.6,2.4c0,16.8,0,33.6,0,50.4c0,0.4,0.1,0.8,0.2,1.5
		c1.5-0.8,2.9-1.4,4.2-2.2c9.7-6.1,18.9-0.9,23,7.1c1,1.9,1.2,4,2.3,5.7c0,2.3,0,4.6,0,6.9c-1.7,5.6-6,8.8-10.7,11.8
		c-23.3,14.8-46.6,29.7-69.9,44.6c-5,3.2-10.2,4.7-16.2,4.7c-24.8-0.1-49.5-0.2-74.3,0c-7.1,0.1-14-0.7-20.6-3.5
		c-2.7-1.1-5.6-1.8-8.3-2.9c-2.9-1.2-5.5-2.1-8,1.2c-1.3,1.7-3.8,2.1-6.1,2.1c-9.2,0-18.4,0-27.5,0c-6,0-10.3-4.4-10.3-10.4
		c0-21.9,0-43.8,0-65.7c0-6.2,4.3-10.4,10.5-10.4c8.8,0,17.5,0,26.3,0c3.6,0,6.6,0.9,8.9,3.7c0.7,0.9,1.3,0.9,2.3,0.5
		c2.5-1.1,5.1-2.2,7.7-3.1c1.2-0.4,1.4-1.1,1.4-2.2c0-13.3,0-26.6,0-39.8c0-1.1-0.3-1.7-1.4-2.2c-5.1-2.5-7.6-6.7-7.7-12.4
		c0-9.3,0-18.5,0-27.8c0-7.9,5.6-13.6,13.6-13.6c9.2,0,18.4,0,27.8,0c-0.6-1-1.6-1.2-2.3-1.6 M117.8,236.7c13.5,0,27.1,0,40.6,0
		c3.6,0,6.8-0.9,9.7-2.8c24.8-15.9,49.6-31.7,74.4-47.5c1.2-0.8,2.2-1.6,2.8-3c1.4-3.3-0.2-8.5-3.6-11.5c-2.7-2.4-4.8-2.5-8.9-0.3
		c-17.5,9.5-35,19-52.5,28.6c-4.1,2.2-8.3,4-13,4c-18.6,0.1-37.2,0.1-55.8,0.1c-0.3,0-0.7,0-1,0c-1.7-0.3-2.8-1.3-3.3-2.9
		c-0.5-1.5-0.1-2.9,1-4.1c1.1-1.1,2.5-1.4,4-1.4c8.6,0,17.2,0.1,25.8,0c13.2-0.1,9.4,1.2,21.4-6.5c3.6-2.3,4.9-5.4,3.9-8.9
		c-1.1-3.9-3.9-5.8-8.3-5.8c-11.6,0-23.1-0.1-34.7,0c-4.5,0-8.5-1-12.4-3.1c-7.3-3.9-14.7-7.8-22-11.8c-3.8-2-7.6-2.4-11.6-0.8
		c-7.5,3-15,6.1-22.5,9c-1,0.4-1.4,0.9-1.4,1.9c0,19.1,0,38.2,0,57.3c0,1.2,0.4,1.7,1.5,2c5.3,1.7,10.5,3.5,15.7,5.4
		c4.1,1.5,8.3,2.1,12.7,2.1C92.9,236.7,105.4,236.7,117.8,236.7z M165.2,195.8c4.2,0.3,7.6-1,10.8-2.8c12.8-6.9,25.5-13.9,38.3-20.8
		c1.3-0.7,1.8-1.5,1.8-3c-0.1-17.7-0.1-35.4,0-53.1c0-1.8-0.3-2.5-2.4-2.5c-22.7,0.1-45.4,0.1-68.1,0c-1.8,0-2.5,0.3-2.5,2.4
		c0.1,16,0.1,32,0,47.9c0,1.9,0.4,2.5,2.4,2.4c4.3-0.1,8.8-0.4,13,0.2c6.6,1,11.1,5.2,12.8,11.7C173.3,185.2,171,190.9,165.2,195.8z
		 M67.9,152.5c0.7-0.2,1.2-0.3,1.6-0.5c7.6-3.6,14.8-2.8,22,1.3c6.6,3.8,13.5,7.2,20.3,10.9c2.2,1.2,4.4,2.1,6.9,2.1
		c4.8,0,9.7,0,14.5,0c1.4,0,1.8-0.4,1.8-1.8c0-16.4,0-32.8,0-49.1c0-1.4-0.4-1.8-1.8-1.8c-21.1,0-42.3,0-63.4,0
		c-1.5,0-1.9,0.4-1.9,1.9C67.9,127.8,67.9,140,67.9,152.5z M145.2,68c-1.6-0.7-2.1-0.4-2,1.4c0.1,11.3,0.1,22.6,0,33.9
		c0,1.7,0.5,2,2.1,2c24.7,0,49.3,0,74,0c4,0,5.9-1.9,5.9-5.8c0-8.8,0-17.5,0-26.3c0-4.6-1.6-6.2-6.2-6.2c-19.3,0-38.7,0-58,0
		c-0.7,0-1.4,0-2.7,0 M119.9,67c-19.1,0-37.6,0-56,0c-3.2,0-5,2-5,5.4c0,9,0,18,0,27c0,4.1,1.8,5.9,6,5.9c22.6,0,45.2,0,67.9,0
		c1.9,0,2.3-0.5,2.3-2.3c-0.1-11.3,0-22.6-0.1-33.9c0-0.5,0.3-1.1-0.4-1.6 M42.1,198.8c0-10.7,0-21.3,0-32c0-2.2-0.8-3-3-3
		c-8.5,0.1-17,0.1-25.6,0c-2.3,0-2.9,0.9-2.9,3.1c0.1,21.2,0.1,42.4,0,63.7c0,2.3,0.8,3.2,3.1,3.2c8.4-0.1,16.7,0,25.1,0
		c3,0,3.3-0.3,3.3-3.4C42.1,219.8,42.1,209.3,42.1,198.8z M144.8,58.2c6.6-0.2,12.7-1,18.7-2.1 M133.2,58.3"/>
</g>
<g>
	<path class="st1" d="M92.1,58.4c-0.6-1-1.6-1.2-2.3-1.6c-7.6-4.4-13.6-10.2-15.6-19.2C70.9,22.4,84,9,99.2,11.9
		c9,1.7,16.1,6.6,22.4,12.8c6.9,6.8,12.4,14.6,16.6,23.2c0.3,0.6,0.6,1.1,1,1.9c1.8-3.2,3.3-6.3,5.1-9.3
		c6.3-10.1,13.8-18.9,24.3-24.8c6.5-3.7,13.4-5.3,20.8-3.3c13.9,3.8,19.7,19.9,12,32.7c-3.1,5.1-7.5,8.8-12.7,11.7
		c-0.7,0.4-1.5,0.8-2.9,1.6l-27.4,8.4c7.7,7.6,12.4,17.1,20.3,23.9c1.8,1.5,1.8,4,0.4,5.7c-1.4,1.7-3.9,2-5.7,0.6
		c-1.6-1.2-3-2.6-4.4-4c-4.5-4.7-8.1-9.3-12.2-14.4c-3.2-4-6.6-8.7-11.5-10.7c-1.6-0.7-6.2-4.6-6.2-2.8l-4.5,2.3
		c-2.8,0.8-5.2,2.2-7.4,4.1c-4.7,4.1-8.1,9.2-11.8,14.1c-3.1,4-6.2,8-10.2,11.2c-2,1.6-4.5,1.4-6-0.4c-1.5-1.7-1.5-4.1,0.4-5.7
		c7.9-6.8,12.6-16.3,20.3-23.9 M144.9,58c6.6-0.2,12.7-1,18.7-2.1c7.5-1.4,15.1-3,21.8-6.9c4.5-2.6,8.2-6,10-11
		c3-8.2-1.6-16.5-10.1-17.8c-4.6-0.7-8.8,0.6-12.7,2.9C159.2,31,151.2,43.5,144.9,58z M133.4,58c-4.7-11.9-11.3-21.8-20.6-30
		c-3.7-3.3-7.8-5.9-12.6-7.3c-8.3-2.5-16,1.3-17.8,9c-1.2,5.1,0.4,9.7,3.8,13.6c2.9,3.4,6.5,5.8,10.5,7.4
		C108.3,55.6,120.6,57.1,133.4,58z"/>
</g>
</svg>
