<?xml version="1.0" encoding="utf-8"?>
<!-- Generator: Adobe Illustrator 25.1.0, SVG Export Plug-In . SVG Version: 6.00 Build 0)  -->
<svg version="1.1" id="Layer_1" xmlns="http://www.w3.org/2000/svg" xmlns:xlink="http://www.w3.org/1999/xlink" x="0px" y="0px"
	 viewBox="0 0 256 256" style="enable-background:new 0 0 256 256;" xml:space="preserve">
<style type="text/css">
	.st0{fill:#060606;}
	.st1{fill:#54E737;}
</style>
<g>
	<path class="st0" d="M137.53,166.88c0.93,1.09,2.2,0.66,3.33,0.66c9.39,0.02,18.78,0.04,28.17,0c6.29-0.02,11.68,2.02,15.57,7.07
		c1.37,1.78,1.88,1.08,2.93-0.13c10.78-12.49,21.62-24.92,32.41-37.41c7.54-8.72,17.11-12.73,28.53-12.54
		c4.03,0.07,5.74,2.65,4.11,6.37c-9.9,22.57-19.64,45.22-29.86,67.65c-7.3,16.02-20.06,25.69-37.11,29.97
		c-8.44,2.12-16.25,6.05-24.32,9.24c-9.46,3.73-18.83,7.6-29.22,8.12c-10.57,0.53-20.6-1.36-30.3-5.5
		c-14.6-6.23-29.01-12.95-43.8-18.74c-13.43-5.26-27.44-7.99-41.76-9.3c-2.26-0.21-4.53-0.4-6.78-0.65
		c-3.46-0.39-4.72-1.73-4.73-5.18c-0.02-12.55,0-25.1-0.02-37.65c0-1.33,0.22-2.57,1.1-3.59c13.3-15.42,29.39-25.31,50.5-23.69
		c12.4,0.95,23.99,5.44,35.29,10.54c6.85,3.09,13.21,7.08,19.87,10.52c5.77,2.98,11.91,4.69,18.45,4.71
		C132.52,168.34,135,167.21,137.53,166.88z M242.8,133.03c-6.9,1.21-12.2,4.11-16.24,8.76c-12.18,14.03-24.34,28.07-36.51,42.11
		c-0.7,0.81-1.32,1.57-1.5,2.78c-1.69,11.93-8.53,17.77-20.68,17.77c-16.51,0.01-33.02,0.01-49.53-0.01
		c-5.76-0.01-11.45,0.44-17.04,1.88c-5.24,1.35-5.12,1.28-6.96-3.74c-0.81-2.21-0.12-2.75,1.89-3.33
		c7.19-2.05,14.49-2.97,21.94-2.96c17.1,0.02,34.2,0.02,51.31-0.01c5.99-0.01,10.4-3.77,10.89-9.13c0.59-6.5-3.87-11.41-10.62-11.45
		c-13.05-0.08-26.1,0.02-39.15-0.08c-9.17-0.08-17.75-2.55-25.66-7.19c-5.96-3.5-11.99-6.87-18.32-9.65
		c-9.89-4.35-20.01-8.24-30.82-9.1c-17.25-1.38-30.58,6.73-42.04,18.72c-0.96,1-0.91,2.1-0.91,3.28c0,9.79,0.07,19.57-0.05,29.36
		c-0.03,2.25,0.54,2.95,2.87,3.14c17.02,1.39,33.61,4.8,49.39,11.52c12.89,5.49,25.8,10.95,38.58,16.67
		c15.96,7.14,31.81,7.16,47.98,0.57c11.68-4.75,23.2-9.93,35.42-13.35c14.02-3.92,23.53-13.19,29.33-26.41
		c3.49-7.95,6.98-15.89,10.47-23.84C232.1,157.36,237.37,145.38,242.8,133.03z"/>
	<path class="st1" d="M137.53,166.88c-2.53,0.34-5.01,1.46-7.63,0.47c2.14-18.51,2.1-51.51-4.79-77.92
		c-1.71-6.31-4.15-12.34-6.95-18.24c-0.87-1.84-1.75-2.54-4.05-2.02c-9.54,2.14-19.05,2.14-28.2-1.85
		C75.13,62.62,69.22,53.81,65.84,43c-3.01-9.67-3.34-19.63-3.02-29.65c0.08-2.57,1.47-4.22,3.99-4.28
		c14.63-0.37,29.12,0.64,42.6,6.98c16.4,7.71,22.72,21.41,16.81,38.61c-2.35,6.82-1.49,11.92,1.42,18.1
		c6.94,14.72,9.69,30.61,11.07,46.75c0.09,1.05,0.18,2.1,0.59,3.2c1.12-2.55,3-4.46,1.89-8.03c-3.6-11.48-3.96-23.04,2.53-33.78
		c5.97-9.86,15.61-14.09,26.44-16.23c6.94-1.37,13.94-1.35,20.97-1.15c2.65,0.07,4.53,1.23,4.59,3.98
		c0.32,13.96-0.88,27.71-7.46,40.35c-7.32,14.05-19.83,18.94-35.23,13.84c-2.87-0.95-3.85-0.31-4.94,2.29
		c-5.3,12.59-8.45,25.66-9.44,39.28C138.58,164.48,139.27,166.1,137.53,166.88z M111.9,61.04c-0.28-0.43-0.51-0.84-0.79-1.21
		c-5.41-7.11-12.01-12.76-20.12-16.62c-3.35-1.59-4.41-3.59-3.38-5.89c1.13-2.53,3.45-3,6.82-1.42c4.86,2.27,9.26,5.22,13.37,8.66
		c3.63,3.04,6.65,6.65,10.03,10.56c1.6-5,2.75-9.53,2.21-14.35c-0.93-8.33-6.01-13.53-13.16-16.95
		c-10.82-5.17-22.43-6.63-34.27-6.76c-1.39-0.02-1.92,0.4-1.88,1.85c0.24,9.11,1,18.11,4.66,26.64
		C81.99,60.93,97.78,64.87,111.9,61.04z M147.75,106.99c1.4-1.96,2.52-3.57,3.68-5.14c4.5-6.06,9.6-11.54,15.97-15.69
		c2.56-1.67,4.81-1.31,6.2,0.82c1.32,2.05,0.71,4.08-1.92,5.99c-6.89,5.01-12.32,11.33-16.91,18.45c-0.85,1.32-1.12,2.02,0.81,2.68
		c11.34,3.87,20.72,0.01,25.87-10.71c4.58-9.56,5.83-19.79,6.35-30.2c0.09-1.87-0.97-1.8-2.23-1.79
		c-6.74,0.07-13.41,0.65-19.88,2.69C150.81,78.77,144.74,91.02,147.75,106.99z"/>
</g>
</svg>
