<?xml version="1.0" encoding="utf-8"?>
<!-- Generator: Adobe Illustrator 25.1.0, SVG Export Plug-In . SVG Version: 6.00 Build 0)  -->
<svg version="1.1" id="Layer_1" xmlns="http://www.w3.org/2000/svg" xmlns:xlink="http://www.w3.org/1999/xlink" x="0px" y="0px"
	 viewBox="0 0 256 256" style="enable-background:new 0 0 256 256;" xml:space="preserve">
<style type="text/css">
	.st0{fill:#040404;}
	.st1{fill:#080808;}
	.st2{fill:#E3323D;}
</style>
<g>
	<path class="st0" d="M68.87,161.95c-12.99-11.77-25.26-22.89-37.52-34c-3.05-2.77-6.15-5.48-9.12-8.33
		C7.02,104.98,10,80.49,28.32,70.04c1.62-0.92,2.28-1.99,2.64-3.68c5.92-27.52,30.14-47.91,58.22-49.04
		c5.18-0.21,6.44,0.71,7.82,5.71c0.57,2.09,1.14,4.18,1.72,6.26c4.38,15.92,18.67,24.42,34.81,20.7
		c13.26-3.06,23.62,2.34,28.6,14.98c2.94,7.44,5.79,14.92,8.67,22.38c6.54,16.95,13.08,33.9,19.6,50.85
		c3.75,9.75,10.61,16.11,20.59,19.19c5.37,1.66,10.91,2.9,15.94,5.49c15.77,8.13,24.39,21.12,25.13,38.85
		c0.65,15.54-11.04,27.38-26.6,27.42c-21.25,0.06-42.5,0.01-63.74-0.01c-27.53-0.02-55.07-0.06-82.6-0.09
		c-0.87,0-1.74,0.06-2.6-0.02c-2.92-0.26-5.02-2.37-5.02-4.99c0-2.67,2.02-4.69,5.08-4.82c3.03-0.13,6.07-0.05,9.1-0.05
		c15.29,0,30.57,0,45.86-0.01c1.01,0,2.03-0.09,3.41-0.16c-19.99-13.07-35.71-30.36-53.25-45.55c-1.51-1.31-3-1.79-4.96-1.78
		c-17.78,0.06-35.56,0.04-53.34,0.03c-1.19,0-2.4,0.03-3.56-0.17c-2.62-0.45-4-2.17-3.98-4.75c0.01-2.6,1.47-4.25,4.06-4.7
		c1.06-0.19,2.16-0.14,3.24-0.14c13.88-0.01,27.75-0.01,41.63-0.01C65.84,161.95,66.9,161.95,68.87,161.95z M63.41,35.55
		c0.19,0.32,0.22,0.44,0.3,0.5c21.01,15.71,24.52,45.07,8.35,64.79c-1.07,1.3-0.61,1.97,0.29,2.94c3.4,3.64,6.75,7.34,10.11,11.02
		c2.71,2.96,5.47,5.86,8.08,8.91c2.03,2.37,1.85,5.08-0.2,6.97c-2,1.84-4.75,1.68-6.99-0.44c-0.63-0.59-1.18-1.27-1.76-1.91
		c-14.84-16.23-29.73-32.43-44.48-48.75c-1.7-1.89-2.87-1.82-4.83-0.63c-11.43,6.99-13.52,23.29-4.02,32.9
		c3.35,3.39,7,6.47,10.54,9.67c29.15,26.41,58.22,52.92,87.52,79.17c12.5,11.2,27.45,17.34,44.23,18.18
		c18.62,0.93,37.28,0.46,55.92,0.41c6.18-0.02,10.88-3.15,14.01-8.57c1.23-2.13,1.05-2.89-1.69-2.86
		c-10.3,0.12-20.6,0.14-30.89,0.03c-32.18-0.34-60.06-11.54-83.63-33.41c-3.88-3.6-7.43-7.59-10.98-11.53
		c-2.07-2.29-1.87-5.12,0.15-6.98c2.04-1.87,4.76-1.73,6.98,0.39c0.7,0.67,1.33,1.42,1.98,2.15c5.15,5.73,10.63,11.11,16.67,15.92
		c1.35,1.07,2.43,1.34,4.04,0.56c4.97-2.39,9.96-4.75,15.05-6.87c2.57-1.07,2.63-2.03,1.26-4.37
		c-13.77-23.53-27.41-47.13-41.04-70.73c-5.38-9.31-5.77-18.87-1.09-28.58c0.67-1.39,1.47-2.71,2.27-4.16
		c-1.66-0.44-3.04-0.74-4.37-1.18c-14.17-4.65-22.84-14.36-26.28-28.77c-0.55-2.31-1.34-3.18-3.88-2.79
		C77.35,28.73,70.17,31.21,63.41,35.55z M140.2,58.79c-2.15-0.1-4.07,0.62-5.9,1.59c-9.99,5.27-13.34,17.43-7.49,27.69
		c6.75,11.83,13.66,23.57,20.49,35.35c6.99,12.06,13.96,24.14,20.99,36.18c0.52,0.89,0.62,2.84,2.67,1.47
		c4.58-3.08,9.22-6.05,13.87-9.03c1.04-0.67,1.22-1.23,0.48-2.32c-2.45-3.61-3.92-7.69-5.43-11.74c-0.57-1.52-0.81-3.55-1.92-4.37
		c-1.42-1.04-2.98,0.85-4.55,1.27c-2.63,0.71-4.8,0.07-6.02-2.44c-1.21-2.49-0.44-4.57,1.76-6.24c1.57-1.19,4.6-0.9,4.78-3.13
		c0.14-1.85-1.29-3.82-2.03-5.73c-0.27-0.71-0.56-1.4-0.84-2.11c-0.87-2.21-1.15-5.31-2.77-6.38c-1.8-1.2-4.09,1.51-6.31,2.1
		c-0.1,0.03-0.21,0.07-0.31,0.1c-2.7,0.94-5.2,0.04-6.34-2.27c-1.22-2.48-0.25-5,2.37-6.58c2.23-1.34,6.09-1.33,6.52-3.89
		c0.38-2.31-1.62-5.01-2.57-7.54c-0.11-0.3-0.27-0.59-0.38-0.89c-2.24-5.85-2.24-5.85-7.96-3.54c-3.1,1.25-5.72,0.44-6.94-2.13
		c-1.2-2.54-0.07-5.13,2.76-6.7c2.02-1.12,5.4-1.23,5.82-3.39c0.38-1.97-1.44-4.38-2.31-6.59c-0.24-0.6-0.48-1.21-0.8-1.77
		C149.29,61.23,145.39,58.92,140.2,58.79z M219.58,198.62c6.28,0,12.56-0.01,18.84,0c4.49,0.01,4.68-0.34,3.44-4.78
		c-3.57-12.84-11.79-21.04-24.44-24.99c-8.25-2.58-16.83-4.47-23.56-10.48c-0.91-0.82-1.64-0.53-2.57,0.12
		c-12.4,8.67-25.3,16.46-39.25,22.41c-0.67,0.29-1.34,0.57-1.32,1.59c0.03,1.04,0.84,1.19,1.44,1.53
		c10.73,6.02,22.14,10.14,34.19,12.66C197.37,198.99,208.47,198.59,219.58,198.62z M73.19,72.11c0.31-1.36-0.33-2.92-0.54-4.51
		c-1.37-10.45-6.28-18.75-15.04-24.76c-1.86-1.28-3.21-1.25-4.76,0.43c-5.72,6.17-9.69,13.27-12.15,21.33
		c-1.01,3.32-0.41,5.63,1.96,8.13c6.6,6.95,12.97,14.12,19.39,21.23c1.71,1.89,3.17,1.56,4.46-0.35
		C70.85,87.21,72.91,80.08,73.19,72.11z"/>
	<path class="st1" d="M34.24,219.17c5.41,0,10.82-0.04,16.22,0.02c3.73,0.04,5.97,1.99,5.9,4.98c-0.07,2.94-2.4,4.88-6.07,4.89
		c-10.6,0.03-21.2,0.03-31.8,0c-3.7-0.01-5.98-1.93-6.04-4.91c-0.06-3.03,2.11-4.92,5.89-4.96
		C23.64,219.12,28.94,219.17,34.24,219.17z"/>
	<path class="st1" d="M59.26,200.37c-4.87,0-9.75,0.05-14.62-0.02c-3.57-0.05-5.71-1.91-5.78-4.8c-0.07-3.05,2.12-4.96,5.89-4.97
		c9.75-0.03,19.49-0.03,29.24,0c3.54,0.01,5.72,1.87,5.79,4.75c0.07,2.99-2.19,4.97-5.9,5.02
		C69.01,200.41,64.14,200.37,59.26,200.37z"/>
	<path class="st1" d="M14.1,190.58c2.16,0,4.32-0.09,6.48,0.02c2.88,0.14,4.81,2.01,4.95,4.58c0.14,2.68-1.8,4.98-4.75,5.09
		c-4.53,0.17-9.07,0.17-13.6,0.01c-2.97-0.11-4.89-2.37-4.77-5.07c0.12-2.59,2.02-4.47,4.89-4.61
		C9.56,190.5,11.83,190.59,14.1,190.58z"/>
	<path class="st2" d="M219.58,198.62c-11.1-0.03-22.21,0.37-33.21-1.94c-12.05-2.52-23.46-6.64-34.19-12.66
		c-0.6-0.34-1.41-0.49-1.44-1.53c-0.03-1.02,0.65-1.3,1.32-1.59c13.95-5.95,26.85-13.75,39.25-22.41c0.93-0.65,1.65-0.93,2.57-0.12
		c6.73,6.01,15.3,7.9,23.56,10.48c12.65,3.95,20.87,12.16,24.44,24.99c1.23,4.44,1.04,4.79-3.44,4.78
		C232.14,198.61,225.86,198.62,219.58,198.62z"/>
	<path class="st2" d="M73.19,72.11c-0.28,7.97-2.34,15.1-6.67,21.5c-1.29,1.91-2.75,2.24-4.46,0.35
		c-6.42-7.11-12.79-14.28-19.39-21.23c-2.37-2.5-2.98-4.82-1.96-8.13c2.46-8.06,6.43-15.16,12.15-21.33
		c1.55-1.68,2.9-1.71,4.76-0.43c8.76,6.01,13.67,14.31,15.04,24.76C72.87,69.19,73.5,70.75,73.19,72.11z"/>
	<path class="st1" d="M106.8,143.35c-0.02,2.62-2.09,4.71-4.74,4.77c-2.8,0.06-5-2.08-4.97-4.84c0.03-2.55,2.2-4.79,4.72-4.87
		C104.44,138.33,106.81,140.69,106.8,143.35z"/>
</g>
</svg>
