<?xml version="1.0" encoding="utf-8"?>
<!-- Generator: Adobe Illustrator 25.1.0, SVG Export Plug-In . SVG Version: 6.00 Build 0)  -->
<svg version="1.1" id="Layer_1" xmlns="http://www.w3.org/2000/svg" xmlns:xlink="http://www.w3.org/1999/xlink" x="0px" y="0px"
	 viewBox="0 0 256 256" style="enable-background:new 0 0 256 256;" xml:space="preserve">
<style type="text/css">
	.st0{fill:#FEB52E;}
	.st1{fill:#FCCA03;}
	.st2{fill:#FE6200;}
	.st3{fill:#FC7D21;}
	.st4{fill:#EC3901;}
</style>
<g>
	<path class="st0" d="M126.47,12.79c5.41-4.63,11.67-7.81,18.17-10.59c0.74-0.32,1.58-0.45,2.12-1.15c0.16,0,0.33,0,0.49,0
		c6.51,26.7,21.23,49.07,37.44,70.65c6.53,8.68,14.14,16.46,20.93,24.92c10.22,12.73,17.73,26.84,20.86,43
		c2.6,13.43,1.51,26.77-2.47,39.68c-12.17,39.48-38.71,63.65-79.14,72.47c-6.02,1.31-12.19,1.85-18.39,1.62c0-4.9,0-9.79-0.01-14.69
		c10.85-0.08,21.37-1.95,31.45-5.98c20.08-8.02,35.18-21.61,45.3-40.71c4.93-9.3,7.84-19.24,9.13-29.63
		c0.77-6.18,1.01-12.41-0.1-18.6c-2.68-14.83-9.62-27.64-19.21-39.03c-9.82-11.65-19.94-23.05-28.7-35.56
		c-9.77-13.95-18.34-28.57-25-44.26c-1.07-2.53-1.15-2.58-3.38-0.94c-3.45,2.54-6.24,5.81-9.46,8.6
		C126.5,25.99,126.48,19.39,126.47,12.79z"/>
	<path class="st1" d="M126.48,238.69c0,4.9,0,9.79,0.01,14.69c-22.62-0.01-43.09-6.68-61.07-20.35
		c-21.65-16.46-34.83-38.25-38.96-65.09c-3.98-25.88,1.33-49.97,15.97-71.78c5.95-8.86,12.45-17.35,18.61-26.07
		c1.08-1.53,1.67-1.39,2.87-0.15c4.12,4.25,8.39,8.35,12.53,12.59c3.72,3.81,8.11,5.07,13.04,3.15c5-1.94,7.22-6.03,7.24-11.26
		c0.03-10.18,1.31-20.15,5.1-29.65c5.17-12.97,13.53-23.54,24.65-31.97c0.01,6.6,0.03,13.2,0.04,19.8
		c-0.02,0.16-0.03,0.32-0.04,0.48c-6.28,6.62-10.37,14.42-12.84,23.17C111.57,63.51,112,71,111.2,78.38
		c-1.48,13.64-14.66,25.61-31.34,22.42c-5.63-1.08-10.19-4.04-14.15-7.96c-1.49-1.47-2.19-1.02-3.16,0.43
		c-2.2,3.26-4.5,6.46-6.78,9.66c-9.76,13.65-14.7,28.96-15.66,45.59c-0.31,5.48,0.12,10.95,0.88,16.4
		c1.37,9.85,4.41,19.16,9.04,27.89c5.19,9.79,12.09,18.28,20.63,25.44c16.17,13.55,34.84,20.17,55.87,20.39
		C126.52,238.64,126.48,238.69,126.48,238.69z"/>
	<path class="st2" d="M126.47,33.07c0.01-0.16,0.02-0.32,0.04-0.48c3.22-2.79,6.01-6.06,9.46-8.6c2.23-1.64,2.31-1.59,3.38,0.94
		c6.66,15.69,15.22,30.31,25,44.26c8.76,12.51,18.88,23.9,28.7,35.56c9.59,11.39,16.53,24.2,19.21,39.03
		c1.12,6.18,0.87,12.42,0.1,18.6c-1.29,10.39-4.2,20.33-9.13,29.63c-10.12,19.1-25.22,32.69-45.3,40.71
		c-10.08,4.03-20.6,5.9-31.45,5.98c0,0,0.04-0.05,0.04-0.05c-0.01-6.72-0.02-13.45-0.04-20.17c31.62,0.39,59.09-26.54,57.93-59.98
		c-1.04-29.86-25.66-55.57-57.91-55.88C126.49,79.43,126.48,56.25,126.47,33.07z"/>
	<path class="st3" d="M126.47,33.07c0.01,23.18,0.02,46.36,0.03,69.54l0,0c-32.06,0.26-56.95,26-57.96,56.13
		c-1.11,33.17,26.54,60.18,57.94,59.73c0,0,0,0,0,0c0.01,6.72,0.02,13.45,0.04,20.17c-21.03-0.22-39.7-6.84-55.87-20.39
		c-8.54-7.16-15.44-15.64-20.63-25.44c-4.63-8.74-7.67-18.05-9.04-27.89c-0.76-5.46-1.19-10.93-0.88-16.4
		c0.95-16.64,5.89-31.95,15.66-45.59c2.29-3.2,4.58-6.4,6.78-9.66c0.97-1.44,1.67-1.9,3.16-0.43c3.97,3.92,8.52,6.89,14.15,7.96
		c16.68,3.19,29.86-8.78,31.34-22.42c0.8-7.38,0.37-14.87,2.43-22.14C116.1,47.49,120.2,39.69,126.47,33.07z"/>
	<path class="st4" d="M126.5,102.61c32.26,0.31,56.87,26.02,57.91,55.88c1.17,33.44-26.31,60.37-57.93,59.98c0,0,0,0,0,0
		c-0.02-15.16-0.05-30.32-0.07-45.47c0.41-0.7,0.77-1.44,1.23-2.11c9.54-13.96,19.09-27.91,28.63-41.87
		c0.45-0.65,1.09-1.21,1.21-2.31c-4.56,0-9.05,0.08-13.53-0.04c-1.75-0.05-2.79,0.46-3.79,1.96c-4.43,6.61-9.01,13.11-13.54,19.65
		C126.57,133.05,126.54,117.83,126.5,102.61C126.5,102.61,126.5,102.61,126.5,102.61z M169.48,174.96
		c-0.1-5.24-2.18-11.34-8.65-14.85c-6.37-3.46-12.99-3.34-19.3,0.3c-6.17,3.55-9.25,11.67-7.88,19.86
		c1.02,6.13,3.84,10.97,9.73,13.58C153.42,198.29,169.42,194.58,169.48,174.96z"/>
	<path class="st2" d="M126.5,102.61c0.03,15.22,0.07,30.44,0.1,45.67c-0.19,0.36-0.34,0.74-0.57,1.07
		c-9.81,14.34-19.63,28.67-29.44,43.01c-0.43,0.63-1.17,1.16-0.99,2.27c4.52,0,9.02-0.07,13.52,0.04c1.66,0.04,2.66-0.47,3.61-1.87
		c4.49-6.64,9.11-13.2,13.68-19.79c0.02,15.16,0.05,30.32,0.07,45.47c-31.4,0.45-59.05-26.56-57.94-59.73
		C69.55,128.61,94.44,102.86,126.5,102.61z M83.5,144.62c0.01,13.11,9.97,21.26,22.53,18.41c6.7-1.52,11.12-5.62,12.75-12.26
		c1.84-7.46,1.24-14.71-4.65-20.32c-5.84-5.56-12.95-6.01-20.21-3.25C87.17,129.77,83.5,136.22,83.5,144.62z"/>
	<path class="st4" d="M155.71,176.63c0.02,2.05-0.09,4.09-0.97,6c-0.67,1.44-1.64,2.44-3.36,2.41c-1.61-0.02-2.63-0.95-3.15-2.33
		c-1.53-4.05-1.54-8.15,0.01-12.2c0.53-1.37,1.58-2.32,3.16-2.33c1.7-0.02,2.67,1.03,3.34,2.46
		C155.63,172.55,155.73,174.58,155.71,176.63z"/>
	<path class="st2" d="M97.31,144.49c-0.04-2.15,0.11-4.27,1.12-6.22c0.64-1.24,1.6-2.1,3.08-2.12c1.48-0.02,2.57,0.8,3.1,2.07
		c1.75,4.2,1.71,8.47,0.04,12.68c-0.51,1.28-1.57,2.08-3.08,2.08c-1.61,0.01-2.58-0.91-3.23-2.25
		C97.38,148.76,97.27,146.64,97.31,144.49z"/>
</g>
</svg>
