<?xml version="1.0" encoding="utf-8"?>
<!-- Generator: Adobe Illustrator 26.3.0, SVG Export Plug-In . SVG Version: 6.00 Build 0)  -->
<svg version="1.1" id="Layer_1" xmlns="http://www.w3.org/2000/svg" xmlns:xlink="http://www.w3.org/1999/xlink" x="0px" y="0px"
	 viewBox="0 0 400 200" style="enable-background:new 0 0 400 200;" xml:space="preserve">
<style type="text/css">
	.st0{fill:#3F3F3F;}
	.st1{fill:#E6333E;}
	.st2{fill:#DADADA;}
</style>
<g>
	<g>
		<path class="st0" d="M67.1,139.7v13.6c0,3.2-0.6,6.2-1.9,9.1c-1.3,2.8-3,5.3-5.1,7.4c-2.1,2.1-4.6,3.8-7.5,5
			c-2.9,1.2-5.9,1.8-9,1.8H23.2c-3.2,0-6.2-0.6-9.1-1.8c-2.8-1.2-5.3-2.9-7.4-5c-2.1-2.1-3.8-4.6-5-7.4c-1.2-2.8-1.8-5.8-1.8-9.1
			v-20.4c0-3.1,0.6-6.1,1.8-9c1.2-2.9,2.9-5.4,5-7.5c2.1-2.1,4.6-3.8,7.4-5.1c2.8-1.3,5.8-1.9,9.1-1.9h20.4c3.1,0,6.1,0.6,9,1.9
			c2.9,1.3,5.4,3,7.5,5.1c2.1,2.1,3.8,4.6,5.1,7.5c1.3,2.9,1.9,5.9,1.9,9H53.8c0-1.4-0.3-2.7-0.8-3.9c-0.5-1.2-1.3-2.3-2.2-3.3
			s-2-1.7-3.3-2.2c-1.2-0.5-2.5-0.8-3.9-0.8H23.2c-1.3,0-2.6,0.3-3.8,0.8c-1.2,0.5-2.3,1.3-3.3,2.2c-0.9,0.9-1.7,2-2.2,3.3
			c-0.5,1.2-0.8,2.5-0.8,3.9v20.4c0,1.4,0.3,2.7,0.8,3.9c0.5,1.2,1.3,2.2,2.2,3.2c0.9,0.9,2,1.6,3.3,2.1c1.2,0.5,2.5,0.8,3.8,0.8
			h20.4c1.4,0,2.7-0.3,3.9-0.8c1.2-0.5,2.3-1.2,3.3-2.1c0.9-0.9,1.7-2,2.2-3.2c0.5-1.2,0.8-2.5,0.8-3.9H33.4v-13.6H67.1z"/>
		<path class="st0" d="M124.4,109.6h17l-26.8,35.4v31.8h-13.4v-31.8l-26.6-35.4h16.9l16.7,21.9L124.4,109.6z"/>
		<path class="st0" d="M203.8,109.6h13.5v67h-13.5v-48l-10.7,10.6h0.3l-9.6,9.4l-20.3-20v48h-13.2v-67h13.5l20,20.1L203.8,109.6z"/>
		<path class="st0" d="M290.7,116.5c2.1,2.2,3.8,4.7,5,7.5c1.2,2.8,1.8,5.9,1.8,9.1c0,3.2-0.6,6.2-1.8,9.1c-1.2,2.8-2.9,5.3-5,7.4
			c-2.1,2.1-4.6,3.8-7.4,5c-2.9,1.2-5.9,1.8-9.2,1.8h-30.2v20.1h-13.3v-66.9H274c3.3,0,6.3,0.6,9.1,1.8
			C285.9,112.7,288.5,114.4,290.7,116.5z M281.1,140.3c1.9-1.9,2.8-4.2,2.8-7.1c0-1.5-0.3-2.9-0.8-4.1c-0.5-1.2-1.3-2.3-2.2-3.2
			c-0.9-0.9-2-1.6-3.2-2.1c-1.2-0.5-2.5-0.8-3.8-0.8h-30.2v20.1H274C276.9,143.1,279.2,142.2,281.1,140.3z"/>
		<path class="st0" d="M305.9,176.7v-67.1h13.3v67.1H305.9z"/>
		<path class="st0" d="M341.2,109.6h4.5l40.4,23.2v-23.2h13.5v67h-13.5v-28.5L345.7,125v51.7h-13.5v-67H341.2z"/>
	</g>
	<g>
		<rect x="0.5" y="9.8" class="st1" width="9.9" height="9.9"/>
		<rect x="117" y="67.1" class="st1" width="9.9" height="10"/>
		<rect x="126.7" y="67.1" class="st1" width="9.9" height="10"/>
		<rect x="154.7" y="67.6" class="st1" width="8.9" height="9"/>
		<rect x="158.8" y="77.5" class="st1" width="9" height="8.9"/>
		<rect x="163.1" y="67.6" class="st1" width="9" height="9"/>
		<rect x="260.3" y="67.1" class="st1" width="9.9" height="10"/>
		<rect x="270" y="67.1" class="st1" width="9.9" height="10"/>
		<g>
			<path class="st1" d="M52.3,46V9.6h-9.9v51.7c0,3.9-2.3,5.8-6.9,5.8H17.2c-4.5,0-6.8-2.1-6.8-6.3V27.1h-10V60
				c0,11.4,6,17.1,17.9,17.1H36c4.9,0,9-1.7,12.3-5.1c2.7-2.9,4-7.5,4-13.8v-2.3h125.6V9.6h-10.2V46h-20h-0.6V9.6h-9.9V46H52.3z"/>
			<path class="st1" d="M234.7,65.8c7.5,0,13-3.3,16.3-9.9h148.7v-29c0-4.9-1.8-9-5.3-12.3c-3.5-3.3-7.8-5-13-5h-17.9v10h19
				c4.8,0,7.1,2.4,7.1,7.2V46H285.9V9.6h-9.9V46h-22.3h-0.7V9.6h-14.6c-5.1,0-9.4,1.7-12.8,5c-3.5,3.4-5.3,7.5-5.3,12.3v3.8h-16.5
				V77h10.2V40.6h6.3l0.2,25.1L234.7,65.8z M242.8,48.5c0,2-0.7,3.7-2.1,5.2c-1.4,1.5-3,2.2-4.8,2.2h-5.7V26.8
				c0-4.8,2.4-7.2,7.1-7.2h5.6V48.5z"/>
		</g>
		<rect x="372.6" y="67.1" class="st1" width="10.1" height="10"/>
	</g>
	<rect x="0.2" y="93.3" class="st2" width="399" height="6.3"/>
</g>
</svg>
