<?xml version="1.0" encoding="utf-8"?>
<!-- Generator: Adobe Illustrator 26.3.0, SVG Export Plug-In . SVG Version: 6.00 Build 0)  -->
<svg height="25" width="25" version="1.1" id="Layer_1" xmlns="http://www.w3.org/2000/svg" xmlns:xlink="http://www.w3.org/1999/xlink" x="0px" y="0px"
	 viewBox="0 0 69.8 70.4" style="enable-background:new 0 0 69.8 70.4;" xml:space="preserve">
<style type="text/css">
	.st0{fill:#3f3f3f;}
</style>
<g>
	<path class="st0" d="M65.6,69.5c-0.9-0.4-1.6-1.1-2.3-1.8c-2.9-2.9-5.9-5.7-8.8-8.6c-0.3-0.3-0.5-0.4-0.9-0.1
		c-4.6,3.4-9.8,5.5-15.5,6.3c-15.9,2-30.9-7.4-35.6-22.6c-4-13.1,1.3-27.8,12.9-35.4c6-3.9,12.6-5.8,19.8-5.5
		C49.4,2.2,61.9,11.7,65.5,26c1.4,5.7,1.2,11.3-0.5,16.9c-0.5,1.5-2,2.3-3.5,1.9c-1.5-0.4-2.3-1.9-1.8-3.4c0.8-2.8,1.3-5.7,1.1-8.6
		c-0.8-11.2-6.3-19.1-16.6-23.5C31,3.6,15.5,9.6,9.3,22.6c-4.4,9.2-2.8,20.7,4,28.3c6,6.6,13.5,9.7,22.4,9.2
		c6.3-0.4,11.8-2.7,16.5-6.9c0.8-0.8,1.8-1.2,2.9-0.9c0.5,0.2,1,0.5,1.3,0.9c0.7,0.8,1.4,1.5,2.2,2.2c2.8,2.8,5.6,5.5,8.5,8.3
		c0.8,0.7,1.5,1.5,1.9,2.5c0,0.5,0,1,0,1.5c-0.5,0.9-1.1,1.5-2.1,1.9C66.4,69.5,66,69.5,65.6,69.5z"/>
</g>
</svg>
