<svg xmlns="http://www.w3.org/2000/svg" viewBox="0 0 698.59 384.75" width="694px">
  <path d="M0,131.7c0-32.4,46.5-32.7,50.7-24a27.44,27.44,0,0,1,15.6-4.8c1.5,0,3,.3,4.2.3a37.47,37.47,0,0,1,67.8-7.5,63.34,63.34,0,0,1,7.8-.6,47.87,47.87,0,0,1,23.4,6.3,25.55,25.55,0,0,1,15-4.8A31.17,31.17,0,0,1,195,98.7a39,39,0,0,1,28.2-12.3,63.16,63.16,0,0,1,7.5.6,24.32,24.32,0,0,1,21.6-13.2,26.33,26.33,0,0,1,11.1,2.7A53.61,53.61,0,0,1,333.3,63,82.31,82.31,0,0,1,345,60.3a32.53,32.53,0,0,1,32.4-29.1A29.21,29.21,0,0,1,387.6,33,54.27,54.27,0,0,1,436.2,2.7,53.13,53.13,0,0,1,476.7,21a37.27,37.27,0,0,1,70.8,16.2h0a65.89,65.89,0,0,1,44.1,19.5,48,48,0,0,1,18.6-3.9c6.3,0,59.8-.5,84.6,78.9v253H-3.79Z" transform="translate(3.79)" fill="#ff6213"/>
</svg>
