<svg version="1.1" id="Layer_1" xmlns="http://www.w3.org/2000/svg" xmlns:xlink="http://www.w3.org/1999/xlink" x="0px" y="0px"
     width="712.7px" height="580.6px" viewBox="-245.9 -193.3 712.7 580.6" style="enable-background:new -245.9 -193.3 712.7 580.6;"
     xml:space="preserve">
<style type="text/css">
<![CDATA[
    .st0{fill:#E23353;}
    .st1{fill:#E6E7E8;}
    .st2{fill:#EF4653;}
    .st3{fill:#F1F2F2;}
    .st4{fill:#F7921E;}
    .st5{fill:#FDC694;}
    .st6{fill:#FFFFFF;stroke:#FFDF49;stroke-width:2;stroke-miterlimit:10;}
    .st7{fill:#FFC40C;}
    .st8{fill:#FFCF22;}
    .st9{fill:#FFDF49;}
    .st10{fill:#FFFFFF;}
    .st11{fill:#62CCEE;}
    .st12{fill:#D1D3D4;}
    .st13{fill:#A7A9AC;}
    .st14{fill:#414042;}
]]>
</style>
<g>
    <polygon class="st6" points="222.9,386.3 271.8,386.3 256.8,167.6 237.6,167.6    "/>
    <polygon class="st6" points="193.8,325.7 218.1,325.7 210.6,106.7 201,106.7  "/>
    <polygon class="st6" points="277.2,325.7 301.5,325.7 294,106.7 284.4,106.7  "/>
    <g>
        <g>
            <g>
                <g>
                    <path class="st0" d="M278.5,30.2c0,6.3,5.1,11.7,11.4,11.7l0,0c6.3,0,11.4-5.1,11.4-11.7V15.5c0-6.3-5.1-11.4-11.4-11.4l0,0
                        c-6.3,0-11.4,5.1-11.4,11.4V30.2z"/>
                    <rect x="278.5" y="-30.7" class="st4" width="23.1" height="50.4"/>
                    <rect x="278.5" y="19.7" class="st13" width="23.1" height="6.3"/>
                    <rect x="278.5" y="21.5" class="st12" width="23.1" height="2.7"/>
                    <rect x="284.8" y="-30.7" class="st7" width="10.2" height="50.4"/>
                    <polygon class="st5" points="301.6,-30.7 289.9,-50.5 278.5,-30.7                    "/>
                    <g>
                        <polygon class="st14" points="289.9,-50.5 294.7,-42.4 285.4,-42.4                       "/>
                    </g>
                </g>
                <g>
                    <g>
                        <path class="st2" d="M287.8,41.9h2.1h2.1c0,0,22.8,8.1,12.3,51.9l-3.9-1.8c0,0-0.3,14.4-10.5,33.9v0.3l0,0l0,0v-0.3
                            C279.7,106.7,279.4,92,279.4,92l-3.9,1.8C265,50,287.8,41.9,287.8,41.9z"/>
                        <path class="st9" d="M288.4,43.7h1.5h1.5c0,0,17.1,6,9.3,39l-3-1.2c0,0,0,10.8-7.8,25.5l0,0l0,0l0,0l0,0
                            c-7.8-14.4-7.8-25.5-7.8-25.5l-3,1.2C271.3,49.7,288.4,43.7,288.4,43.7z"/>
                        <path class="st10" d="M288.4,44h1.8h1.8c0,0,10.8,10.2,6.3,28.5l-3.6-1.8c0,0,1.2,8.1-4.5,22.2l0,0l0,0l0,0l0,0
                            c-5.7-14.4-4.5-22.2-4.5-22.2l-3.6,1.8C277.3,54.5,288.4,44,288.4,44z"/>
                    </g>
                </g>
            </g>
            <g>
                <g>
                    <path class="st0" d="M195.1,30.2c0,6.3,5.1,11.7,11.4,11.7l0,0c6.3,0,11.4-5.1,11.4-11.7V15.5c0-6.3-5.1-11.4-11.4-11.4l0,0
                        c-6.3,0-11.4,5.1-11.4,11.4V30.2z"/>
                    <rect x="195.1" y="-30.7" class="st4" width="23.1" height="50.4"/>
                    <rect x="195.1" y="19.7" class="st13" width="23.1" height="6.3"/>
                    <rect x="195.1" y="21.5" class="st12" width="23.1" height="2.7"/>
                    <rect x="201.4" y="-30.7" class="st7" width="10.2" height="50.4"/>
                    <polygon class="st5" points="218.2,-30.7 206.5,-50.5 195.1,-30.7                    "/>
                    <g>
                        <polygon class="st14" points="206.5,-50.5 211.3,-42.4 202,-42.4                         "/>
                    </g>
                </g>
                <g>
                    <g>
                        <path class="st2" d="M204.4,41.9h2.1h2.1c0,0,22.8,8.1,12.3,51.9L217,92c0,0-0.3,14.4-10.5,33.9v0.3l0,0l0,0v-0.3
                            C196.3,106.7,196,92,196,92l-3.9,1.8C181.6,50,204.4,41.9,204.4,41.9z"/>
                        <path class="st9" d="M205,43.7h1.5h1.5c0,0,17.1,6,9.3,39l-3-1.2c0,0,0,10.8-7.8,25.5l0,0l0,0l0,0l0,0
                            c-7.8-14.4-7.8-25.5-7.8-25.5l-3,1.2C187.9,49.7,205,43.7,205,43.7z"/>
                        <path class="st10" d="M205,44h1.5h1.8c0,0,10.8,10.2,6.3,28.5l-3.6-1.8c0,0,1.2,8.1-4.5,22.2l0,0l0,0l0,0l0,0
                            c-5.7-14.4-4.5-22.2-4.5-22.2l-3.6,1.8C193.9,54.5,205,44,205,44z"/>
                    </g>
                </g>
            </g>
        </g>
        <g>
            <path class="st12" d="M237.7-1.6c0,4.5,4.5,8.1,10.2,8.1c5.7,0,10.2-3.6,10.2-8.1s-4.5-8.1-10.2-8.1
                C242.5-10,237.7-6.1,237.7-1.6z"/>
            <path class="st8" d="M247.9-193.3c33.3,0,61.8,32.7,60,63c-0.9,15.6-6,24-10.2,30.9c-5.4,9.3-14.4,23.4-15.9,28.5
                c-2.4,7.5-1.2,12.9-1.5,18.3c0,6.3-2.4,10.2-6,12c-6,4.2-14.7,6.9-26.7,6.9s-20.7-2.7-26.7-6.9c-3.6-1.8-6-5.7-6-12
                c0-5.4,0.9-10.8-1.5-18.3c-1.5-5.1-10.5-19.2-15.9-28.5c-4.2-6.9-9.3-15-10.2-30.9C186.4-160.6,214.9-193.3,247.9-193.3z"/>
            <path class="st10" d="M218.8-84.4c4.2,5.7,5.7,10.5,6.6,13.2c1.8,5.7,1.5,9.9,1.2,14.1c-3,0-5.1,0-7.5-0.6c0-3.9,0-8.1-1.5-13.5
                c-1.8-6.3-10.5-19.2-15.9-28.5c-1.8-2.7-3.3-5.4-5.1-9C203.5-95.5,209.5-97.3,218.8-84.4z"/>
            <path class="st3" d="M215.2-56.5h0.3c0,1.2,14.7,2.1,32.4,2.1c18,0,32.7-0.9,32.7-2.1h0.3l1.8,3.3c0,0-3,8.4-34.5,8.4
                s-34.8-8.4-34.8-8.4L215.2-56.5z"/>
            <path class="st1" d="M213.4-53.2c4.2,1.5,18,2.7,34.5,2.7s30.3-1.2,34.5-2.7c-6.6,17.7-2.7,28.5-4.8,35.4
                C272.8-7.3,258.4-1,258.4-1s-5.4,1.5-10.8,1.5c-5.1,0-10.8-1.5-10.8-1.5s-14.4-6.3-19.2-16.8C216.1-24.4,220-35.2,213.4-53.2z"/>
            <path class="st10" d="M247.9-169c8.7,0.3,17.1,3.6,23.7,9.3c-2.4,3.3-4.5,6-6.9,8.7c-0.9,1.2-2.1,2.7-3.3,3.9
                c-3.9-2.7-8.7-4.5-13.8-4.5V-169H247.9z"/>
            <path class="st10" d="M247.9-187.6c11.4,0.3,22.2,4.5,31.2,11.4c-1.2,4.8-3,9-4.8,12.3c-7.5-6-16.5-9.9-26.4-10.2V-187.6
                L247.9-187.6z"/>
            <path class="st10" d="M274.6-127.9c-1.2-6-4.5-12-9.6-16.5c0.9-1.2,1.8-2.1,2.4-3c2.4-2.7,4.8-5.7,7.2-9.3
                c6,5.7,10.2,13.2,12,20.7C282.4-133.9,278.2-131.2,274.6-127.9z"/>
            <path class="st10" d="M291.1-137.8c-2.1-8.7-6.9-16.8-13.5-23.4c1.8-3.6,3.3-7.5,4.5-12.6c9.9,8.7,16.8,20.4,19.2,32.7
                C297.7-140.2,294.4-139.3,291.1-137.8z"/>
            <path class="st10" d="M216.7-58c0,0,1.5-10.2-3.9-19.8c0,0,5.7,6.3,5.4,20.1L216.7-58z"/>
            <g>
                <path class="st13" d="M226.9-120.1c0-11.7,9.6-21.3,21.3-21.3c11.7,0,21.3,9.6,21.3,21.3c0,11.7-9.6,21.3-21.3,21.3
                    C236.2-98.8,226.9-108.4,226.9-120.1z"/>
                <path class="st1" d="M230.2-120.1c0-9.9,7.8-17.7,17.7-17.7c9.9,0,17.7,7.8,17.7,17.7c0,9.9-7.8,17.7-17.7,17.7
                    C238.3-102.4,230.2-110.2,230.2-120.1z"/>
                <path class="st11" d="M234.7-120.1c0-7.5,6-13.5,13.5-13.5s13.5,6,13.5,13.5s-6,13.5-13.5,13.5S234.7-112.6,234.7-120.1z"/>
                <circle class="st10" cx="254.8" cy="-126.4" r="3"/>
                <path class="st10" d="M249.4-109.6c2.4,0,4.8-0.9,6.3-2.7c1.8-1.8,2.7-3.9,2.7-6.3c0-1.2-1.2-2.4-2.4-2.4l0,0
                    c-1.2,0-2.4,1.2-2.4,2.4c0,1.2-0.6,2.4-1.2,3c-0.9,0.9-1.8,1.2-3,1.2l0,0l0,0c-1.2,0-2.4,1.2-2.4,2.4
                    C247.3-110.5,248.2-109.6,249.4-109.6L249.4-109.6z"/>
            </g>
            <g>
                <path class="st13" d="M235.9-78.1c0-6.9,5.4-12.3,12.3-12.3c6.9,0,12.3,5.4,12.3,12.3c0,6.9-5.4,12.3-12.3,12.3
                    C241.3-65.8,235.9-71.5,235.9-78.1z"/>
                <path class="st1" d="M237.7-78.1c0-5.7,4.5-10.2,10.2-10.2c5.7,0,10.2,4.5,10.2,10.2c0,5.7-4.5,10.2-10.2,10.2
                    C242.5-67.9,237.7-72.4,237.7-78.1z"/>
                <path class="st11" d="M240.4-78.1c0-4.2,3.6-7.8,7.8-7.8c4.2,0,7.8,3.6,7.8,7.8c0,4.2-3.6,7.8-7.8,7.8
                    C243.7-70.3,240.4-73.9,240.4-78.1z"/>
                <circle class="st10" cx="251.8" cy="-81.7" r="1.8"/>
                <path class="st10" d="M248.8-72.1c1.5,0,2.7-0.6,3.6-1.5c0.9-0.9,1.5-2.4,1.5-3.6c0-0.9-0.6-1.5-1.5-1.5l0,0
                    c-0.9,0-1.5,0.6-1.5,1.5c0,0.6-0.3,1.2-0.6,1.8c-0.6,0.6-1.2,0.6-1.8,0.6l0,0l0,0c-0.9,0-1.5,0.6-1.5,1.5
                    C247.6-72.7,248.2-72.1,248.8-72.1L248.8-72.1z"/>
            </g>
        </g>
        <g>
            <g>
                <path class="st0" d="M232,55.4c0,9,7.2,16.2,16.2,16.2l0,0c9,0,16.2-7.2,16.2-16.2V25.7c0-9-7.2-9.6-16.2-9.6l0,0
                    c-9,0-16.2,0.6-16.2,9.6V55.4z"/>
                <rect x="232" y="-32.8" class="st4" width="32.4" height="73.2"/>
                <rect x="232" y="40.4" class="st13" width="32.4" height="8.7"/>
                <rect x="232" y="42.8" class="st12" width="32.4" height="3.6"/>
                <rect x="241" y="-32.8" class="st7" width="14.1" height="73.2"/>
                <polygon class="st5" points="264.1,-32.8 247.9,-61 232,-32.8                "/>
                <g>
                    <polygon class="st14" points="247.9,-61 254.5,-49.6 241.6,-49.6                     "/>
                </g>
            </g>
            <g>
                <g>
                    <path class="st2" d="M244.3,71.6l3.9-0.3l3.9,0.3c0,0,41.7,13.2,22.5,85.2l-7.2-2.7c0,0-0.3,23.7-18.9,55.5v0.3l0,0l0,0v-0.3
                        c-18.6-31.8-18.9-55.5-18.9-55.5l-7.2,3C202.6,84.8,244.3,71.6,244.3,71.6z"/>
                    <path class="st9" d="M245.2,74.3l2.7-0.3l2.7,0.3c0,0,31.2,9.9,16.8,63.9l-5.4-2.1c0,0-0.3,18-14.1,41.7v0.3l0,0l0,0v-0.3
                        c-14.1-23.7-14.1-41.7-14.1-41.7l-5.4,2.1C214,84.2,245.2,74.3,245.2,74.3z"/>
                    <path class="st10" d="M244.9,75.2h3h3c0,0,19.8,16.8,11.4,46.5l-6.3-3c0,0,2.4,13.2-8.1,36.6l0,0l0,0l0,0l0,0
                        c-10.5-23.4-8.1-36.6-8.1-36.6l-6.3,3C225.1,92,244.9,75.2,244.9,75.2z"/>
                </g>
            </g>
        </g>
    </g>
</g>
</svg>