<svg version="1.1" id="Layer_1" xmlns="http://www.w3.org/2000/svg" xmlns:xlink="http://www.w3.org/1999/xlink" x="0px" y="0px"
     width="693.7px" height="180px" viewBox="0 0 693.7 180" style="enable-background:new 0 0 693.7 180;" xml:space="preserve">
<style type="text/css">
<![CDATA[
    .st0{fill:#B73800;}
]]>
</style>
<path class="st0" d="M29.1,180l-27.7-0.9C-9.9,97.2,49.7,99.6,51.8,99.6c6.9,0,13.2,2.7,18.3,6.9c5.1-5.7,13.2-9,21.3-7.2
    c6.3-10.5,12-18.6,30.6-18.6c8.7,0,16.5,3,22.2,7.8c0.3,0.3,0.6,0.3,0.9,0.6c9.6-7.8,21.9-12.6,35.4-12.6c10.5,0,20.1,3,28.5,7.8
    C222.5,60.9,247.7,45,276.8,45c14.4,0,27.9,3.9,39.3,10.8c7.5-9,18.9-14.7,31.5-14.7c4.8,0,9.3,0.9,13.5,2.4
    C369.8,18,394.1,0,422.3,0c24.9,0,46.5,14.1,57.3,34.5c7.5-16.5,24.3-28.2,43.8-28.2c17.1,0,32.1,9,40.8,22.2
    c2.4-0.9,4.8-1.5,7.5-1.5c6.3,0,12,3,15.9,7.5c8.7-9.6,21.3-15.9,35.4-15.9c8.4,0,98.2,5.3,62.2,161.4l-39.1-0.3h-10.5
    c-14.7-14.1-305.4,22.2-305.4,0.3c0-3.9,17.9-57.9,18.5-61.8c-1.9-17.8,40.1,16.1,33.2,7.1c-3.3,2.4-7.5,3.9-12,3.9
    c-6.9,0-13.2-3.6-16.8-8.7c-8.7,7.8,144.4-39.1,170.3-17.9c12.3,10.1,9,12,0,0c-7.8,27-71.7,27-101.4,27c-17.7,0-68.6,6.9-45.6-18.6
    c-5.7,6,10.4,19.1-21.9,11.4c0,0.3,0,0.6,0,0.9c0,22.2-9.3,42.3-24.3,56.7h-0.9H45.8H29.1z"/>
</svg>