<?xml version="1.0" encoding="utf-8"?>
<!-- Generator: Adobe Illustrator 26.3.0, SVG Export Plug-In . SVG Version: 6.00 Build 0)  -->
<svg version="1.1" id="OBJECTS" xmlns="http://www.w3.org/2000/svg" xmlns:xlink="http://www.w3.org/1999/xlink" x="0px" y="0px"
	 viewBox="0 0 339.6 179.3" style="enable-background:new 0 0 339.6 179.3;" xml:space="preserve">
<style type="text/css">
	.st0{fill:#EF9926;}
	.st1{fill:#FFEB97;}
	.st2{fill:#EA3F3F;}
	.st3{fill:#FFAE1F;}
	.st4{fill:#FFD522;}
	.st5{fill:#E54242;}
	.st6{fill:#FFC91F;}
	.st7{fill:#EF4B4B;}
	.st8{fill:#FFE669;}
	.st9{fill:#CC3232;}
	.st10{opacity:0.2;fill:#FFAE1F;}
	.st11{fill:#C13838;}
	.st12{opacity:0.17;fill:#EF9926;}
	.st13{fill:#D33C3C;}
	.st14{fill:#FFE424;}
	.st15{opacity:0.18;fill:#FFBB24;}
	.st16{opacity:0.48;fill:#FFE424;}
	.st17{opacity:0.45;fill:#FFC91F;}
	.st18{opacity:0.51;fill:#FFAE1F;}
</style>
<g>
	<g>
		<path class="st0" d="M86.3,125.8c-5.5,0-10-4.5-10-10c0-5.5,4.5-10,10-10c5.5,0,10,4.5,10,10C96.3,121.3,91.8,125.8,86.3,125.8z
			 M86.3,108.8c-3.9,0-7,3.1-7,7c0,3.9,3.1,7,7,7c3.9,0,7-3.1,7-7C93.3,111.9,90.1,108.8,86.3,108.8z"/>
		<path class="st1" d="M303.1,70.7c-1.9,0-3.5-1.6-3.5-3.5c0-1.9,1.6-3.5,3.5-3.5c1.9,0,3.5,1.6,3.5,3.5
			C306.6,69.1,305,70.7,303.1,70.7z M303.1,64.7c-1.4,0-2.5,1.1-2.5,2.5c0,1.4,1.1,2.5,2.5,2.5s2.5-1.1,2.5-2.5
			C305.6,65.8,304.5,64.7,303.1,64.7z"/>
		<path class="st2" d="M120.3,162.7c-2.3,0-4.1-1.8-4.1-4.1c0-2.3,1.8-4.1,4.1-4.1c2.3,0,4.1,1.8,4.1,4.1
			C124.4,160.8,122.6,162.7,120.3,162.7z M120.3,155.7c-1.6,0-2.9,1.3-2.9,2.9c0,1.6,1.3,2.9,2.9,2.9c1.6,0,2.9-1.3,2.9-2.9
			C123.2,157,121.9,155.7,120.3,155.7z"/>
		<circle class="st3" cx="264.7" cy="108" r="4.5"/>
		<circle class="st3" cx="78.4" cy="57.6" r="3.5"/>
		<circle class="st4" cx="230.3" cy="36" r="4"/>
		<circle class="st4" cx="24.2" cy="136.7" r="4"/>
		<circle class="st4" cx="305.7" cy="144.3" r="3"/>
		<circle class="st5" cx="103.7" cy="94.4" r="4.5"/>
		<circle class="st5" cx="203.6" cy="13.6" r="1.5"/>
		<circle class="st5" cx="45" cy="127" r="1.5"/>
		<circle class="st5" cx="116.8" cy="117.8" r="1.5"/>
		<circle class="st3" cx="234.8" cy="101.2" r="1.5"/>
		<circle class="st6" cx="119.8" cy="22.5" r="1.5"/>
		<circle class="st7" cx="175.1" cy="32.9" r="2.5"/>
		<circle class="st7" cx="316.4" cy="120.3" r="2.5"/>
		<circle class="st5" cx="252.4" cy="89.1" r="2.5"/>
		<polygon class="st3" points="280.7,146.5 270.5,135.8 260.1,141.4 258.7,138.8 271.1,132 280.8,142.2 297.1,127.2 299.1,129.4 		
			"/>
		<polygon class="st7" points="266.6,68.8 265.3,54 280,54 275.5,38 292.4,37 287.8,25.2 291.6,23.8 298.2,40.7 280.7,41.7 
			285.3,57.9 269.7,58 270.6,68.4 		"/>
		<polygon class="st3" points="104,64.1 101.2,63.2 106.2,47.7 92.5,41.6 98.3,27.1 81.9,23.1 82.6,20.2 102.3,25 96.3,40.1 
			109.9,46 		"/>
		<polygon class="st8" points="33.9,107.1 25.6,89.6 15.3,104.7 12,102.4 26.2,81.6 35,100 44.1,90 52.5,103.9 49.1,106 43.5,96.7 
					"/>
		<path class="st3" d="M56.5,65.6c-8.8-5.8-5.9-17.8-5.8-18.3l2.9,0.7c0,0.1-2.4,10.4,4.6,15.1L56.5,65.6z"/>
		<path class="st3" d="M307,99.2l-2.6-1.5c5.3-9.1,17.4-6.9,17.9-6.8l-0.5,2.9C321.7,93.8,311.3,92,307,99.2z"/>
		<path class="st3" d="M95.4,144.7l-2.8-1c0-0.1,4-10.4,16.2-9.1l-0.3,3C98.6,136.5,95.4,144.7,95.4,144.7z"/>
		<path class="st9" d="M233.7,164.6l-2.8-1.1c1.3-3.1,1.4-5.8,0.3-8.1c-1.6-3.3-5.2-4.6-5.2-4.6l0.9-2.9c0.2,0.1,4.9,1.6,7,6.2
			C235.4,157.2,235.3,160.7,233.7,164.6z"/>
		<path class="st9" d="M129.7,35.2l-1.4-2.6c2.9-1.6,4.7-3.6,5.4-6c0.9-3.5-1.1-6.8-1.2-6.9l2.5-1.6c0.1,0.2,2.8,4.4,1.5,9.2
			C135.7,30.5,133.4,33.2,129.7,35.2z"/>
		<path class="st7" d="M255.2,129.7c-12.8-2.4-15.9-14.1-16-14.6l2.9-0.7l-1.5,0.4l1.5-0.4c0.1,0.4,2.8,10.4,13.6,12.4L255.2,129.7z
			"/>
		<path class="st3" d="M235.2,52.8c-1.7,1.1,17.4-1.5,25.8-24.2c0.7-1.9-8-8-10.1-5.5C248.9,25.6,255,39.4,235.2,52.8z"/>
	</g>
	<g>
		<path class="st5" d="M124.4,78.1c0,0,0.1,59.2,1.4,61.3c1.3,2.2,49.9,24.4,51.6,23.9l-0.3-63.3L124.4,78.1z"/>
		<path class="st3" d="M142.8,148.4c0,0,4.3,6.4,13.7,6.4V95.1l-13.7-6.3V148.4z"/>
		<path class="st10" d="M156.5,105.1v-10l-13.7-6.3v12.3C147.4,102.7,151.9,104,156.5,105.1z"/>
		<path class="st11" d="M176.7,100.3l0.8,63c0,0,47.1-22.8,47.5-25.3c0.5-2.4,1.7-62.4,1.7-62.4L176.7,100.3z"/>
		<path class="st0" d="M198.9,152.8c0,0,8.3-1,12.4-6.4l1.4-59.2l-14.1,4.3L198.9,152.8z"/>
		<path class="st12" d="M212.3,104.3l0.4-17.1l-14.1,4.3l0.1,17.7C203.3,107.7,207.8,106.1,212.3,104.3z"/>
		<path class="st7" d="M119.8,69.8c0,0-0.4,13.4,0.1,15.2c0.5,1.8,58.6,25.8,59.9,26.2c0,0-0.4-16.3-0.4-16.9
			C179.4,93.6,119.8,69.8,119.8,69.8z"/>
		<path class="st13" d="M179.4,94.4l0.4,16.9c0,0,49.7-20.2,50.4-22.6c0.4-1.2,1.5-16.5-0.4-16.4L179.4,94.4z"/>
		<path class="st5" d="M179.4,94.4l50.4-22.1c0,0-53-20.4-55.5-20.4c-2.5,0.1-54.6,17.9-54.6,17.9L179.4,94.4z"/>
		<path class="st3" d="M144.5,61.4l58.3,22.7l1.1,17.1c0,0,7.7,0.8,11.6-5.1l-1-17.2l-58.8-21.3C155.8,57.6,147.6,57.7,144.5,61.4z"
			/>
		<path class="st6" d="M192.9,58.3c0,0,8.3-0.1,12.4,4.6l-50.9,21.2l-0.2,16.5c0,0-11.3-1.2-14.6-6.2l0.4-16.2L192.9,58.3z"/>
		<path class="st14" d="M213.4,38.9c-21.1-22.5-40.3,26.2-35.7,30.9C184,76.2,235.8,62.8,213.4,38.9z M179.2,68.6
			c-0.8-1.1,16.4-43,29.8-25.5C224.5,63.6,180.5,70.4,179.2,68.6z"/>
		<path class="st15" d="M215.7,41.7c0,0.5-0.1,0.9-0.2,1.4c-0.5,3.8-1.9,6.9-3.4,10.2c-0.3,1.5-1,2.9-1.9,4.1
			c-0.2,0.5-0.5,0.8-0.9,1c-6.9,7.5-23.7,10.6-28.8,10.5c-1.1,0.2-2.1,0.2-3.2,0.3c0.1,0.3,0.2,0.5,0.4,0.7
			C183.8,76,231.8,63.8,215.7,41.7z"/>
		<path class="st14" d="M177.9,68.2c3.2-1.4,3.4-29.3-11.5-22.3C150.6,53.2,173.5,70.1,177.9,68.2z M167.8,48.8
			c10.1-6,10.3,18.1,9.7,18.5C176.4,67.9,156,55.9,167.8,48.8z"/>
		<path class="st15" d="M164.7,46.8c-0.1,0.2-0.1,0.5-0.2,0.7c-0.5,2-0.4,3.8-0.3,5.7c-0.2,0.8-0.1,1.6,0.1,2.4
			c0,0.3,0.1,0.5,0.2,0.7c1.9,5,9.6,9.9,12.1,10.9c0.5,0.3,1,0.5,1.5,0.8c-0.1,0.1-0.2,0.2-0.3,0.3C173.7,70,152.4,54.5,164.7,46.8z
			"/>
		<path class="st14" d="M178.1,69.7c4.6-4.7-14.6-53.4-35.7-30.9C120,62.7,171.8,76.1,178.1,69.7z M146.9,43.1
			c13.4-17.6,30.6,24.3,29.8,25.5C175.3,70.3,131.3,63.6,146.9,43.1z"/>
		<path class="st15" d="M140.1,41.6c0,0.5,0.1,0.9,0.2,1.4c0.5,3.8,1.9,6.9,3.4,10.2c0.3,1.5,1,2.9,1.9,4.1c0.2,0.5,0.5,0.8,0.9,1
			c6.9,7.5,23.7,10.6,28.8,10.5c1.1,0.2,2.1,0.2,3.2,0.3c-0.1,0.3-0.2,0.5-0.4,0.7C172,75.9,124,63.7,140.1,41.6z"/>
		<path class="st14" d="M191.1,55.9c-9-7.5-13.9,11.8-11.9,13.4C181.9,71.3,200.7,63.8,191.1,55.9z M179.7,68.7
			c-0.4-0.4,4.1-17,10-11C196.5,64.6,180.2,69.3,179.7,68.7z"/>
		<path class="st15" d="M192.1,56.8c0,0.2,0,0.3,0,0.5c0,1.5-0.4,2.7-0.8,4c0,0.6-0.2,1.1-0.5,1.6c-0.1,0.2-0.2,0.3-0.3,0.4
			c-2.2,3.1-8.4,5.1-10.3,5.4c-0.4,0.1-0.8,0.2-1.2,0.3c0.1,0.1,0.1,0.2,0.2,0.2C181.8,71.3,199.3,64.3,192.1,56.8z"/>
		<path class="st16" d="M148.7,79.6c3.8-1.8,7.6-3.3,11.7-4.4c1.9-0.5,1.1-3.4-0.8-2.9c-4.3,1.2-8.4,2.8-12.4,4.7
			C145.4,77.8,146.9,80.4,148.7,79.6L148.7,79.6z"/>
		<path class="st16" d="M143,83.2c-0.2,2.1-0.3,4.3-0.5,6.4c-0.1,1.9,2.9,1.9,3,0c0.2-2.1,0.3-4.3,0.5-6.4
			C146.1,81.3,143.1,81.3,143,83.2L143,83.2z"/>
		<path class="st17" d="M193.4,76.4c4.5,1.5,9,3,13.5,4.5c1.8,0.6,2.6-2.3,0.8-2.9c-4.5-1.5-9-3-13.5-4.5
			C192.4,72.9,191.6,75.8,193.4,76.4L193.4,76.4z"/>
		<path class="st17" d="M209.7,83.3c0,2.1,0,4.3-0.1,6.4c-0.1,1.9,2.9,1.9,3,0c0.1-2.1,0.2-4.2,0.1-6.4
			C212.6,81.4,209.6,81.4,209.7,83.3L209.7,83.3z"/>
		<path class="st17" d="M145.6,132.2c0,2.5,0,5,0.1,7.6c0,1.9,3,1.9,3,0c0-2.5,0-5-0.1-7.6C148.5,130.3,145.5,130.3,145.6,132.2
			L145.6,132.2z"/>
		<path class="st17" d="M145.6,114.7c0,4.1,0.1,8.2,0.1,12.4c0,1.9,3,1.9,3,0c0-4.1-0.1-8.2-0.1-12.4
			C148.6,112.7,145.6,112.7,145.6,114.7L145.6,114.7z"/>
		<path class="st18" d="M207.1,109.3c-0.1,5.9-0.2,11.9-0.2,17.8c0,1.9,3,1.9,3,0c0-5.9,0-11.9,0.2-17.8
			C210.1,107.3,207.1,107.3,207.1,109.3L207.1,109.3z"/>
		<path class="st18" d="M207,132.8c-0.2,2.6-0.2,5.2,0.2,7.8c0.2,1.9,3.2,1.9,3,0c-0.3-2.6-0.4-5.2-0.2-7.8
			C210.1,130.8,207.1,130.8,207,132.8L207,132.8z"/>
		<path class="st7" d="M130.4,71.5c3.9-1.2,7.8-2.5,11.6-3.9c1.8-0.7,1-3.6-0.8-2.9c-3.8,1.4-7.7,2.7-11.6,3.9
			C127.8,69.2,128.6,72.1,130.4,71.5L130.4,71.5z"/>
		<path class="st7" d="M127.1,94.8c-0.2,7.1-0.2,14.3,0,21.4c0.1,1.9,3.1,1.9,3,0c-0.2-7.1-0.2-14.3,0-21.4
			C130.1,92.9,127.1,92.9,127.1,94.8L127.1,94.8z"/>
		<path class="st7" d="M127.2,121.2c-0.1,2.4-0.1,4.8,0,7.3c0,1.9,3,1.9,3,0c0-2.4,0-4.8,0-7.3C130.3,119.3,127.3,119.3,127.2,121.2
			L127.2,121.2z"/>
	</g>
</g>
</svg>
