<?xml version="1.0" encoding="utf-8"?>
<!-- Generator: Adobe Illustrator 26.3.0, SVG Export Plug-In . SVG Version: 6.00 Build 0)  -->
<svg version="1.0" id="Layer_1" xmlns="http://www.w3.org/2000/svg" xmlns:xlink="http://www.w3.org/1999/xlink" x="0px" y="0px"
	 viewBox="0 0 256 256" style="enable-background:new 0 0 256 256;" xml:space="preserve">
<style type="text/css">
	.st0{fill:#FEFEFE;}
	.st1{opacity:0.3;fill:#FEFEFE;}
</style>
<path class="st0" d="M251,151.9l-1-1c-4.2-4.2-11.1-4.2-15.3,0l-81.4,81.4c-4.2,4.2-4.2,11.1,0,15.3l1,1c4.2,4.2,11.1,4.2,15.3,0
	l81.4-81.4C255.2,163,255.2,156.1,251,151.9z"/>
<circle class="st0" cx="235.2" cy="234.5" r="17.4"/>
<circle class="st0" cx="166.9" cy="165.9" r="17.1"/>
<path class="st1" d="M223.4,119.1c4.1-6.8,6.4-14.7,6.4-23.2V47.3c0-24.8-20.1-44.9-44.9-44.9l-48.6,0c-4.3,0-8.5,0.6-12.5,1.8
	c-7.7,1.9-15.1,5.8-21.1,11.9L15,103.7c-17.5,17.5-17.5,46,0,63.5l49.6,49.6c17.5,17.5,46,17.5,63.5,0l87.7-87.7
	C218.9,126.2,221.4,122.7,223.4,119.1z M156.5,75.4c-8.8-8.8-8.8-23.1,0-31.9c8.8-8.8,23.1-8.8,31.9,0c8.8,8.8,8.8,23.1,0,31.9
	C179.6,84.2,165.3,84.2,156.5,75.4z"/>
</svg>
