<?xml version="1.0" encoding="utf-8"?>
<!-- Generator: Adobe Illustrator 26.3.0, SVG Export Plug-In . SVG Version: 6.00 Build 0)  -->
<svg version="1.1" id="Layer_1" xmlns="http://www.w3.org/2000/svg" xmlns:xlink="http://www.w3.org/1999/xlink" x="0px" y="0px"
	 viewBox="0 0 314.4 240.2" style="enable-background:new 0 0 314.4 240.2;" xml:space="preserve">
<style type="text/css">
	.st0{fill:#cccccc;}
	.st1{fill:none;stroke:#cccccc;stroke-width:8;stroke-miterlimit:10;}
</style>
<g>
	<path class="st0" d="M187.5,122.8c-9.5-2.3-19.1-1-27-1.4c-8.1,0-14.4-0.1-20.8,0c-21.6,0.3-40.7,16.2-44.9,37.5
		c-2,10.2-0.8,20.7-1.1,31c0,1.6,38.3,19.4,79.8,10.2l6.2,14c-6.6,3.2-66.3,3.9-90.4-11.2c-5.7-2.6-8.4-5.8-7.8-12.5
		c1-10.7-0.8-21.5,1.1-32.1c2.5-14.2,9.4-25.9,20.4-35.1c2.6-2.1,2-3.1-0.1-4.8c-6.2-5-13.2-7.9-21.2-7.9
		c-10.9-0.1-21.7-0.9-32.5,0.5c-15.6,1.9-27.6,14.9-28.3,30.6c-0.2,5.4,0,10.8-0.2,16.2c-0.1,2.1,0.7,3.1,2.5,3.9
		c9,4,18.4,6.9,28.1,8.4c4.8,0.7,7.2,3.9,6.1,7.9c-0.9,3.2-3.8,4.6-8.2,3.9c-11.6-1.9-22.6-5.7-33.4-10.4c-5.6-2.4-7.7-5.7-7.2-11.7
		c0.7-8.4-0.8-17,1.2-25.4c3.8-15.9,13.4-27,28.5-33.2c1-0.4,2-0.8,3.3-1.3c-6-5.8-10.2-12.5-12-20.5c-4.8-21.2,9.1-42.3,30.8-46.9
		c20.3-4.3,41.6,10,45.6,30.6c0.4,1.8,0.6,3.7,0.9,5.5c0.3,12.3-4.1,22.6-13,31.2c8.4,2.7,15.4,7,21.1,13.3c0.7,0.8,1.3,1.3,2.5,0.8
		c3.2-1.3,6.6-2.4,10.1-3.7c-12.9-10.8-19.5-24.3-19.5-40.9c2.1-25.5,18.8-44.2,43.2-48.2c25.7-4.3,52.4,15.1,56.5,41.2
		c0.4,2.3,0.6,4.7,0.9,7c0,16.7-6.7,30.2-19.5,41c3.5,1.2,6.7,2.2,9.8,3.5c1.3,0.5,2,0.3,2.9-0.6c5.7-6.4,12.7-10.6,21-13.3
		c-8.9-8.6-13.3-18.9-13-31.2c2.3-22.1,19.6-37.8,40.9-36.8c16.2,0.8,27.7,9.3,34.1,24c6.3,14.6,3.6,28.3-6.5,40.5
		c-0.9,1.1-2,2.2-3.2,3.5c11.5,3.8,20.4,10.6,26.5,20.9c4.1,7,6.3,14.6,6.3,22.8c0,6.6-0.1,13.2,0,19.9c0.1,3-1.3,4-3.9,5.2
		c-8.8,4.4-13.9,6-21.5,8.6c-3.9,1.3-7.9-0.6-7.9-4.7l0,0c0-2.5,1.5-3.7,3.8-4.6c6.3-2.4,18.6-6,18.5-7.8
		c-0.4-6.3-0.5-15.7-1.7-22.1c-2.8-15.9-16.1-27.5-32.4-27.8c-10.8-0.2-21.7-0.8-32.5,0.4c-6.8,0.7-12.5,3.8-17.6,8.3
		c-1.3,1.2-2.5,8.5-0.7,9.9 M120.3,71.1c0,20.7,17.4,38.2,38.1,38.2c20.7,0,38.2-17.4,38.3-38.1c0.1-20.9-17.4-38.5-38.3-38.4
		C137.7,32.9,120.3,50.4,120.3,71.1z M67.9,98.1c14.9-0.1,27-12.1,27-27C95,56.3,82.7,44,67.9,44c-15.6,0-28.4,13.5-27,29.4
		C42,87.3,54,98.2,67.9,98.1z M249,98.1c15,0,27.1-12,27.2-26.9c0.1-14.8-12.2-27.2-27-27.2c-14.8,0-27.2,12.2-27.2,27
		C222,85.9,234.1,98.1,249,98.1z"/>
</g>
<circle class="st1" cx="217.9" cy="175.8" r="51"/>
<path class="st0" d="M245.6,182.8h-55c-3,0-5.5-2.5-5.5-5.5v0c0-3,2.5-5.5,5.5-5.5h55c3,0,5.5,2.5,5.5,5.5v0
	C251.1,180.4,248.6,182.8,245.6,182.8z"/>
</svg>
