<?xml version="1.0" encoding="utf-8"?>
<!-- Generator: Adobe Illustrator 26.3.0, SVG Export Plug-In . SVG Version: 6.00 Build 0)  -->
<svg version="1.1" id="Layer_1" xmlns="http://www.w3.org/2000/svg" xmlns:xlink="http://www.w3.org/1999/xlink" x="0px" y="0px"
	 viewBox="0 0 384 384" style="enable-background:new 0 0 384 384;" xml:space="preserve">
<style type="text/css">
	.st0{fill:#cccccc;}
</style>
<g>
	<path class="st0" d="M189.5,38.9c-11,0.4-24-0.6-36.9,1.6c-40.1,6.7-74.4,40-82.2,80.2c-0.5,2.6-1,5.1-1.3,7.7
		c-0.6,5.1-1.5,9.6,4.4,13.3c6,3.7,7.7,10.7,7.7,17.8c-0.1,12.7,0,25.5,0,38.2c0,11,0,22,0,33c-0.1,15.2-9.4,24.6-24.5,24.5
		c-7.5,0-15,0.8-22.4-1c-16.2-3.8-28-18.1-28.2-34.8c-0.2-16-0.2-32,0-48c0.3-19.6,15.8-35.2,35.4-35.9c4.1-0.1,8.2-0.3,12.3,0
		c3.3,0.3,4.2-0.8,4.4-4c1.4-18.5,7.1-35.7,17.3-51.1c22.1-33.1,53.1-50.7,92.9-52c16.1-0.5,32.2-0.4,48.3,0
		c51.6,1.2,97.4,40.7,106.5,91.6c0.7,4.1,1.5,8.1,1.6,12.2c0,2.5,1,3.3,3.6,3.3c6.6,0,13.2-0.7,19.8,0.8
		c16.4,3.6,28.5,17.9,28.8,34.7c0.3,16.2,0.3,32.5,0,48.7c-0.3,18.7-15.4,34.1-34,35.3c-4.6,0.3-9.2,0.4-13.8,0.1
		c-3.3-0.2-3.8,1-3.8,3.9c0.1,10.1,0.5,20.2-2,30.2c-7.4,29.1-33.5,49.9-63.5,50.3c-11.5,0.1-22.9,0.1-34.4,0
		c-2.2,0-3.1,0.5-3.8,2.7c-2.6,8.2-9.3,13.1-17.9,13.2c-8.1,0.1-16.2,0.1-24.3,0c-10.1-0.2-17.6-7.2-18.8-17.3
		c-1.5-12.3,3.6-21.4,13.6-24.4c2.4-0.7,4.9-0.8,7.4-0.8c6.6,0,13.2,0,19.8,0c11,0.1,16.8,4.1,20.6,14.4c0.4,1,0.6,1.8,1.9,1.7
		c15.5-0.6,31.2,1.7,46.6-1.5c25.5-5.2,43.7-27.5,44.3-53.6c0.1-6.1,0-12.2,0.1-18.4c0-1.8-0.5-2.8-2.1-3.8
		c-6.9-4.4-10.8-10.7-10.8-19c-0.1-25-0.1-50,0-75c0-8.2,3.9-14.6,10.8-19c1.7-1.1,2-2.1,1.8-3.9c-3.7-47.2-35.8-84.1-82-94.2
		c-7.3-1.6-14.8-2.1-22.3-2C204.1,38.9,197.8,38.9,189.5,38.9z M70.6,195.4c0-12.1,0.1-24.2,0-36.3c-0.1-8-5-12.8-12.8-12.9
		c-5.2,0-10.5-0.1-15.7,0c-13.9,0.3-25.2,11.4-25.4,25.3c-0.3,16-0.3,32,0,48c0.2,13.5,10.9,24.4,24.4,25.2
		c5.3,0.3,10.7,0.2,16.1,0.2c8.8-0.1,13.5-4.9,13.5-13.8C70.7,219.1,70.6,207.2,70.6,195.4z M312.6,195.4c0,12.1-0.1,24.2,0,36.3
		c0.1,8,4.8,12.8,12.8,13c5.6,0.1,11.2,0.2,16.8-0.2c13.4-0.8,24.1-11.7,24.4-25.2c0.3-16,0.3-32,0-48c-0.2-14-11.5-25-25.4-25.3
		c-5-0.1-10,0-15,0c-8.8,0-13.5,4.7-13.6,13.7C312.6,171.7,312.6,183.5,312.6,195.4z M191.5,345.1
		C191.5,345.1,191.5,345.1,191.5,345.1c4,0,8,0.1,12,0c5.2-0.2,8.3-3.2,8.7-8.4c0.1-1.7,0.1-3.5-0.1-5.2c-0.5-4.6-3.5-7.6-8.1-7.7
		c-8.2-0.2-16.4-0.2-24.7,0c-4.6,0.1-7.6,3.1-8.1,7.7c-0.2,1.8-0.2,3.7,0,5.6c0.5,4.7,3.6,7.7,8.4,7.9
		C183.5,345.2,187.5,345.1,191.5,345.1z"/>
	<path class="st0" d="M192.7,271.5c-15.6-0.2-29.8-2.5-43.4-8c-2-0.8-3.5-0.8-5.5,0.4c-12.1,7.6-24.4,15-36.6,22.5
		c-2.6,1.6-5.1,2.3-7.5,0c-2.4-2.3-1.9-4.8-0.4-7.5c5.8-10.4,11.4-21,17.3-31.4c1.3-2.2,1-3.5-0.8-5.3c-16-15.7-25.1-34.6-24.4-57.4
		c0.6-22.2,10.2-40.4,26.4-55.1c23.2-20.9,50.9-29,81.7-27.2c25,1.5,47.4,10,66,27.2c17.3,15.8,27.1,35.4,26.4,59.2
		c-0.8,24.9-12.5,44.3-31.5,59.5C240.3,264.3,217,271.1,192.7,271.5z M118.4,266.1c1.8,0.4,2.7-0.6,3.7-1.2
		c6.7-4.1,13.4-8.1,20.1-12.3c2.3-1.5,4.5-1.7,7-0.5c10.9,4.9,22.3,7.7,34.2,8.5c27.6,1.8,52.7-4.9,73.8-23.3
		c14.7-12.7,23.5-28.8,24-48.5c0.6-21.4-8.4-38.7-24.2-52.5c-16.6-14.6-36.4-21.8-58.2-23.2c-27.2-1.7-51.9,5.1-72.8,23.2
		c-15.2,13.1-24.1,29.8-24.2,50.3c-0.1,20.8,9.1,37.4,24.3,51c4.7,4.2,5,5.1,1.9,10.8C124.9,254.2,121.7,260.1,118.4,266.1z"/>
	<path class="st0" d="M186.6,208.6c-1.5-9.8,3.3-15.9,11.5-20.3c2-1,3.9-2.2,5.8-3.5c8.4-5.8,11.5-15.8,7.9-25.4
		c-3.3-8.9-12.7-14.8-21.8-13.8c-10.3,1.1-18,8.5-19.4,18.7c-0.1,1-0.2,2-0.3,3c-0.4,3.1-2.2,4.8-5.3,4.6c-3.1-0.2-4.7-2.3-4.6-5.3
		c0.3-9.9,4.2-18.1,12-24.3c10.1-8,24-8.9,35.1-2.5c11.2,6.5,17.2,19.2,15.5,32.1c-1.2,9.4-5.7,16.6-13.8,21.5
		c-0.4,0.3-0.8,0.6-1.3,0.8c-8.8,3.4-12.7,9.5-11.2,19.2c0.6,3.7-1.9,6.2-4.9,6.2c-3,0-5-2.3-5.1-6.1
		C186.5,211.9,186.6,210.3,186.6,208.6z"/>
	<path class="st0" d="M191.6,243c-3.6,0-6.7-3.1-6.7-6.7c0-3.6,3.1-6.7,6.7-6.7c3.6,0,6.7,3.1,6.7,6.7
		C198.3,240,195.2,243,191.6,243z"/>
</g>
</svg>
