<?xml version="1.0" encoding="utf-8"?>
<!-- Generator: Adobe Illustrator 26.3.0, SVG Export Plug-In . SVG Version: 6.00 Build 0)  -->
<svg version="1.1" id="Layer_1" xmlns="http://www.w3.org/2000/svg" xmlns:xlink="http://www.w3.org/1999/xlink" x="0px" y="0px"
	 width="64" height="64" viewBox="0 0 69.84 70.41" style="enable-background:new 0 0 69.84 70.41;" xml:space="preserve">
<style type="text/css">
	.st0{fill:url(#SVGID_1_);}
	.st1{fill:url(#SVGID_00000178164268076591695650000003144149520440131238_);}
	.st2{opacity:0.76;fill:url(#SVGID_00000030460964517745644710000011589296383848340099_);}
	.st3{opacity:0.75;}
	.st4{fill:url(#SVGID_00000119079481561323318690000017725042088607622581_);}
	.st5{fill:url(#SVGID_00000067940105793873971080000002906734179135837832_);}
	.st6{fill:#662A10;stroke:#441512;stroke-width:1.5;stroke-miterlimit:10;}
</style>
<g>

		<radialGradient id="SVGID_1_" cx="30.0317" cy="38.1683" r="31.2518" fx="4.4756" fy="20.1804" gradientTransform="matrix(0.9455 -0.3256 0.3256 0.9455 -10.5902 12.1587)" gradientUnits="userSpaceOnUse">
		<stop  offset="0.0592" style="stop-color:#A54528"/>
		<stop  offset="0.9274" style="stop-color:#511814"/>
	</radialGradient>
	<path class="st0" d="M57.93,47.4L13.91,62.56c-1.46,0.5-3.05-0.27-3.55-1.73L0.81,33.09c-0.5-1.46,0.27-3.05,1.73-3.55l44.02-15.16
		c1.46-0.5,3.05,0.27,3.55,1.73l9.55,27.73C60.16,45.3,59.39,46.9,57.93,47.4z"/>

		<radialGradient id="SVGID_00000171677279839781163040000006666301993422523533_" cx="29.7898" cy="37.7755" r="30.0346" fx="3.9675" fy="22.4365" gradientTransform="matrix(0.9455 -0.3256 0.3205 0.9307 -10.2694 13.0904)" gradientUnits="userSpaceOnUse">
		<stop  offset="0.0592" style="stop-color:#A54528"/>
		<stop  offset="0.9274" style="stop-color:#511814"/>
	</radialGradient>
	<path style="fill:url(#SVGID_00000171677279839781163040000006666301993422523533_);" d="M56.28,46.88L14.43,61.29
		c-1.46,0.5-3.05-0.27-3.55-1.73L1.99,33.77c-0.5-1.46,0.27-3.05,1.73-3.55L45.58,15.8c1.46-0.5,3.05,0.27,3.55,1.73l8.88,25.79
		C58.52,44.78,57.74,46.38,56.28,46.88z"/>
</g>
<linearGradient id="SVGID_00000056407093660176939810000004732059828145895310_" gradientUnits="userSpaceOnUse" x1="39.0889" y1="39.3918" x2="28.5335" y2="10.391" gradientTransform="matrix(0.974 -0.2265 0.2265 0.974 -6.8724 8.4106)">
	<stop  offset="0.0112" style="stop-color:#B8BFB9"/>
	<stop  offset="0.1897" style="stop-color:#ADB2AE"/>
	<stop  offset="0.6055" style="stop-color:#999A99"/>
	<stop  offset="0.8603" style="stop-color:#919191"/>
</linearGradient>
<path style="opacity:0.76;fill:url(#SVGID_00000056407093660176939810000004732059828145895310_);" d="M57.23,26.78L21.94,48.65
	c-1.36,0.84-3.14,0.42-3.98-0.93L5.24,27.19c-0.84-1.36-0.42-3.14,0.93-3.98L41.46,1.34c1.36-0.84,3.14-0.42,3.98,0.93L58.16,22.8
	C59,24.16,58.58,25.94,57.23,26.78z"/>
<rect x="3.95" y="15.35" transform="matrix(0.85 -0.5269 0.5269 0.85 -5.5692 17.2585)" class="st3" width="47.13" height="6.11"/>
<g>

		<radialGradient id="SVGID_00000104705794755231393710000000084680379353207690_" cx="32.8094" cy="43.3201" r="37.08" fx="2.4874" fy="21.9776" gradientTransform="matrix(0.974 -0.2265 0.2265 0.974 -6.8724 8.4106)" gradientUnits="userSpaceOnUse">
		<stop  offset="0.0592" style="stop-color:#8A4328"/>
		<stop  offset="0.9274" style="stop-color:#471814"/>
	</radialGradient>
	<path style="fill:url(#SVGID_00000104705794755231393710000000084680379353207690_);" d="M67,56.98L12.18,69.73
		c-1.5,0.35-3.01-0.59-3.36-2.09L0.71,32.73c-0.35-1.5,0.59-3.01,2.09-3.36l54.81-12.75c1.5-0.35,3.01,0.59,3.36,2.09l8.12,34.91
		C69.44,55.12,68.5,56.63,67,56.98z"/>

		<radialGradient id="SVGID_00000168833208270672274860000013177475925922910336_" cx="32.5372" cy="42.945" r="35.6358" fx="1.8992" fy="24.7455" gradientTransform="matrix(0.974 -0.2265 0.223 0.9587 -6.6492 9.3703)" gradientUnits="userSpaceOnUse">
		<stop  offset="0.0531" style="stop-color:#692C1B"/>
		<stop  offset="0.9274" style="stop-color:#511814"/>
	</radialGradient>
	<path style="fill:url(#SVGID_00000168833208270672274860000013177475925922910336_);" d="M65.12,56.1L12.95,68.23
		c-1.5,0.35-3.01-0.59-3.36-2.09L2.02,33.61c-0.35-1.5,0.59-3.01,2.09-3.36l52.18-12.13c1.5-0.35,3.01,0.59,3.36,2.09l7.57,32.54
		C67.56,54.25,66.63,55.75,65.12,56.1z"/>
</g>
<path class="st6" d="M65.31,37.37l-9.36,2.23c-2.6,0.6-5.21-1.03-5.82-3.62v0c-0.6-2.6,1.03-5.21,3.62-5.82l9.02-2.24"/>
<circle class="st6" cx="54.95" cy="34.84" r="4.45"/>
</svg>
