<?xml version="1.0" encoding="utf-8"?>
<!-- Generator: Adobe Illustrator 26.3.0, SVG Export Plug-In . SVG Version: 6.00 Build 0)  -->
<svg version="1.1" id="Layer_1" xmlns="http://www.w3.org/2000/svg" xmlns:xlink="http://www.w3.org/1999/xlink" x="0px" y="0px"
	 viewBox="0 0 388.6 397" style="enable-background:new 0 0 388.6 397;" xml:space="preserve">
<style type="text/css">
	.st0{fill:#040301;}
	.st1{fill:#FEB025;}
	.st2{fill:#FE6C3A;}
	.st3{fill:#76DB00;}
	.st4{fill:#A5E439;}
</style>
<g>
	<path class="st0" d="M346.04,387.92c-104.75,0-209.5,0-314.25,0c-0.37-1.22-1.58-1.05-2.43-1.37
		c-10.06-3.81-16.25-12.44-16.26-23.24c-0.04-62.08-0.04-124.15,0.01-186.23c0.01-8.44,3.58-15.37,10.69-19.86
		c2.93-1.85,3.53-3.77,3.52-6.83c0-9.56,6.35-16.87,15.78-18.4c4.58-0.74,9.21-0.34,13.81-0.26c2.31,0.04,2.97-0.76,3.18-2.92
		c2.48-25.84,5.15-51.67,7.52-77.52c1.21-13.18,9.22-19.9,22.29-18.54c26.64,2.78,53.29,5.38,79.95,8.01
		c4.83,0.48,5.96,1.34,7.11,6.05c-1.01,3.39-3.07,5.4-6.81,5.02c-15.62-1.56-31.23-3.17-46.86-4.72c-12.15-1.2-24.3-2.4-36.47-3.48
		c-4.96-0.44-7.41,1.71-8.03,6.68c-0.48,3.84-0.89,7.69-1.27,11.54c-2.88,29.32-5.75,58.64-8.63,87.96
		c-0.14,1.41-0.98,3.38,1.62,3.04c1.94-0.25,5.11,1.76,5.38-2.44c0.17-2.61,0.5-5.22,0.75-7.83c1.8-18.51,3.56-37.03,5.41-55.54
		c0.51-5.07,2.89-9.04,7.75-11.05c6.54-2.7,11.72-6.93,15.71-12.78c2.92-4.28,7.15-5.96,12.32-5.44c13.26,1.34,26.53,2.7,39.8,3.88
		c4.01,0.35,6.2,2.16,6.65,6.14c-1.85,4.44-3.19,5.2-7.97,4.72c-12.75-1.28-25.51-2.49-38.25-3.83c-2.13-0.22-3.45,0.41-4.65,2.19
		c-3.99,5.91-9.18,10.64-15.74,13.37c-3.69,1.53-4.88,3.79-5.21,7.49c-1.75,19.37-3.64,38.73-5.64,58.07
		c-0.25,2.41,0.24,3.04,2.59,3c6.72-0.12,13.45-0.17,20.17,0.02c2.68,0.08,4.27-0.82,5.77-3.04c17.72-26.23,35.54-52.39,53.33-78.58
		c0.69-1.01,1.65-1.91,1.61-3.29c5.6-6.15,9.68-13.37,14.21-20.26c5.85-8.47,11.7-16.94,17.55-25.41
		c4.73-6.86,8.59-14.53,16.78-18.18c2.74,0,5.49,0,8.23,0c3.74,1.3,7.08,3.31,10.34,5.54c35.06,23.99,70.15,47.93,105.22,71.89
		c11.27,7.7,13,17.14,5.3,28.47c-4.81,7.07-9.61,14.15-14.73,21.69c1.86,0,3.09-0.05,4.31,0.01c9.04,0.44,16.18,6.16,17.92,14.71
		c0.56,2.77,0.38,5.72,0.39,8.58c0,1.47,0.32,2.52,1.52,3.53c6.24,5.23,8.92,12.05,8.89,20.13c-0.06,15.37,0.08,30.73-0.1,46.1
		c-0.04,3.3,0.66,4.39,4.17,4.29c9.04-0.24,13.87,4.73,13.88,13.72c0.02,17.99,0.01,35.98,0,53.97c0,10.66-4.29,15.15-14.84,15.09
		c-2.69-0.02-3.23,0.79-3.21,3.32c0.12,16.12,0.13,32.23,0.03,48.35c-0.08,11.72-7.69,21.11-18.98,23.76
		C346.73,387.35,346.23,387.35,346.04,387.92z M58.96,342.93c-0.52,3.92-2.83,5.51-6.68,5.47c-8.35-0.08-16.71,0.05-25.06-0.07
		c-2.42-0.04-3.32,0.63-3.19,3.16c0.22,4.24,0.11,8.49,0.15,12.74c0.04,3.57,1.5,6.53,4,8.99c3.17,3.13,7.13,3.66,11.39,3.66
		c99.99-0.04,199.99-0.03,299.98-0.03c1,0,2,0.02,2.99-0.03c7.08-0.35,12.32-5.64,12.54-12.8c0.12-3.99-0.18-8.01,0.11-11.99
		c0.24-3.16-1.05-3.65-3.83-3.64c-16.46,0.1-32.92,0.01-49.37,0.01c-70.45-0.01-140.89,0-211.34-0.01c-5.51,0-6.29-0.55-7.95-5.42
		c1.68-4.83,2.48-5.39,7.97-5.39c76.8,0,153.6,0,230.4,0c10.22,0,20.45-0.14,30.67,0.04c2.92,0.05,3.56-0.88,3.47-3.61
		c-0.2-5.86-0.28-11.75,0.02-17.61c0.18-3.51-0.65-4.61-4.4-4.59c-17.32,0.08-34.68,0.82-51.97-0.34
		c-23.2-1.56-40.79-25.33-36.28-48.2c4.04-20.5,20.33-34.14,41.2-34.3c16.08-0.13,32.17-0.09,48.25-0.01
		c2.36,0.01,3.27-0.52,3.19-3.07c-0.19-5.74-0.06-11.49-0.06-17.24c0-5.22,0-5.22-5.03-5.22c-101.11-0.01-202.22-0.02-303.34-0.03
		c-6.61,0-13.22,0.1-19.82-0.05c-2.31-0.05-2.94,0.63-2.94,2.94c0.07,42.72,0.07,85.45,0,128.17c0,2.44,0.64,3.22,3.13,3.18
		c8.35-0.15,16.71,0.01,25.06-0.08C56.06,337.48,58.39,339.02,58.96,342.93z M189.26,192.31c43.76,0,87.52,0,131.27,0
		c10.22,0,20.45-0.21,30.66,0.05c3.49,0.09,4.26-1.07,3.98-4.2c-0.25-2.85-0.05-5.74-0.05-8.61c-0.02-10.85-4.89-15.69-15.8-15.69
		c-99.61-0.02-199.22-0.03-298.83-0.04c-1.12,0-2.25-0.03-3.37,0.01c-7.24,0.27-12.69,5.6-13,12.84c-0.16,3.74,0.21,7.52-0.13,11.23
		c-0.33,3.61,0.79,4.52,4.44,4.51C82.05,192.26,135.66,192.31,189.26,192.31z M148.84,152.79c7.76,0,15.44-0.14,23.11,0.07
		c3.08,0.09,3.92-1,4.31-3.96c2.79-21.53,23.42-38.88,45-38.07c22.9,0.86,40.45,16.55,43.86,39.42c0.33,2.22,1.22,2.61,3.11,2.57
		c4.36-0.1,8.73-0.15,13.08-0.03c1.99,0.06,3.16-0.65,4.26-2.28c6.17-9.23,12.41-18.41,18.71-27.54c1.12-1.62,1.42-2.94,0.44-4.76
		c-3.77-7-5.14-14.54-4.42-22.43c0.21-2.3-0.56-3.65-2.44-4.92c-18.05-12.23-36.07-24.52-54.04-36.89c-2.02-1.39-3.63-1.5-5.81-0.43
		c-6.48,3.2-13.41,4.76-20.62,3.95c-3.17-0.35-4.94,0.58-6.71,3.19c-19.91,29.44-39.94,58.8-59.92,88.2
		C150.04,149.97,148.94,150.91,148.84,152.79z M335.55,300.89c0,0.01,0,0.02,0,0.02c11.22,0,22.44-0.11,33.65,0.07
		c3.15,0.05,4.01-0.93,3.99-4.02c-0.13-17.61-0.16-35.22,0.02-52.83c0.04-3.55-1.09-4.38-4.45-4.36c-21.06,0.12-42.13,0-63.19,0.04
		c-2.85,0.01-5.77,0.14-8.55,0.74c-14.96,3.24-25.62,17.55-24.08,32.08c1.72,16.16,14.19,27.97,30.08,28.21
		C313.86,301.02,324.71,300.89,335.55,300.89z M127.08,152.67c4.67,0.82,8.12,0.3,11.15-4.45c8.78-13.77,18.24-27.11,27.42-40.62
		c12.34-18.15,24.71-36.29,37.01-54.47c3.03-4.48,7.01-7.21,12.51-6.62c6.92,0.75,13.38-0.38,19.54-3.53
		c4.47-2.29,8.98-2.26,13.13,0.55c19.4,13.15,38.75,26.36,58.05,39.63c4.14,2.85,5.89,7.05,5.31,12.04
		c-0.75,6.41,0.34,12.45,3.29,18.12c2.89,5.56,2.42,10.68-1.19,15.78c-4.83,6.82-9.45,13.78-14.1,20.72
		c-0.57,0.85-1.65,1.57-1.35,2.86c4.99,0.93,8.4-0.3,11.42-4.99c9.58-14.89,19.78-29.38,29.73-44.03c4.09-6.02,3.56-8.95-2.38-13.01
		c-35.71-24.4-71.43-48.78-107.15-73.16c-5.74-3.91-8.73-3.3-12.69,2.53c-29.4,43.2-58.8,86.4-88.19,129.61
		C128,150.53,127.06,151.28,127.08,152.67z M220.51,152.88c9.85,0,19.7,0,29.55,0c4.72,0,4.83-0.15,3.68-4.86
		c-3.85-15.82-17.95-26.59-34.31-26.21c-15.67,0.36-29.17,12.03-32.36,27.72c-0.57,2.8,0.07,3.43,2.78,3.4
		C200.06,152.8,210.28,152.88,220.51,152.88z M318.83,152.82c7.94,0,15-0.04,22.06,0.01c4.33,0.03,5.07-0.93,3.59-5.09
		c-0.74-2.09-2.1-3.77-4.25-4.39c-4.61-1.34-9.35-0.44-14.03-0.51c-0.44-0.01-1,0.65-1.33,1.12
		C322.98,146.69,321.13,149.44,318.83,152.82z M47.82,152.82c0.75,0,1.49,0,2.24,0c7.73,0,7.65-0.01,8.42-7.82
		c0.19-1.97-0.4-2.35-2.15-2.31c-3.61,0.1-7.22-0.06-10.83,0.08c-3.74,0.14-6.35,2.54-7.11,5.98c-0.66,2.99,0.05,4.49,3.45,4.1
		C43.81,152.63,45.83,152.82,47.82,152.82z"/>
	<path class="st1" d="M58.96,342.93c-0.57-3.91-2.9-5.45-6.74-5.41c-8.35,0.09-16.71-0.06-25.06,0.08
		c-2.49,0.04-3.14-0.74-3.13-3.18c0.07-42.72,0.07-85.45,0-128.17c0-2.31,0.63-2.99,2.94-2.94c6.6,0.15,13.21,0.05,19.82,0.05
		c101.11,0.01,202.22,0.02,303.34,0.03c5.03,0,5.03,0,5.03,5.22c0,5.75-0.13,11.5,0.06,17.24c0.08,2.56-0.83,3.09-3.19,3.07
		c-16.08-0.08-32.17-0.12-48.25,0.01c-20.87,0.16-37.16,13.8-41.2,34.3c-4.51,22.87,13.09,46.64,36.28,48.2
		c17.29,1.16,34.65,0.42,51.97,0.34c3.75-0.02,4.58,1.08,4.4,4.59c-0.3,5.86-0.22,11.74-0.02,17.61c0.09,2.72-0.55,3.66-3.47,3.61
		c-10.22-0.18-20.45-0.04-30.67-0.04c-76.8,0-153.6,0-230.4,0c-5.49,0-6.29,0.56-7.97,5.39C74.79,342.94,66.88,342.94,58.96,342.93z
		"/>
	<path class="st2" d="M58.96,342.93c7.92,0.01,15.83,0.01,23.75,0.02c1.66,4.87,2.44,5.42,7.95,5.42c70.45,0,140.89,0,211.34,0.01
		c16.46,0,32.92,0.09,49.37-0.01c2.79-0.02,4.07,0.48,3.83,3.64c-0.3,3.98,0.01,7.99-0.11,11.99c-0.22,7.15-5.46,12.45-12.54,12.8
		c-1,0.05-1.99,0.03-2.99,0.03c-99.99,0-199.99-0.01-299.98,0.03c-4.26,0-8.22-0.53-11.39-3.66c-2.5-2.46-3.96-5.42-4-8.99
		c-0.05-4.25,0.07-8.5-0.15-12.74c-0.13-2.52,0.76-3.19,3.19-3.16c8.35,0.13,16.71-0.01,25.06,0.07
		C56.13,348.44,58.44,346.85,58.96,342.93z"/>
	<path class="st2" d="M189.26,192.31c-53.61,0-107.21-0.04-160.82,0.09c-3.65,0.01-4.76-0.9-4.44-4.51
		c0.34-3.72-0.02-7.49,0.13-11.23c0.3-7.24,5.76-12.57,13-12.84c1.12-0.04,2.24-0.01,3.37-0.01c99.61,0.01,199.22,0.03,298.83,0.04
		c10.9,0,15.78,4.85,15.8,15.69c0,2.87-0.2,5.76,0.05,8.61c0.28,3.14-0.49,4.29-3.98,4.2c-10.22-0.26-20.44-0.06-30.66-0.05
		C276.78,192.31,233.02,192.31,189.26,192.31z"/>
	<path class="st3" d="M148.84,152.79c0.1-1.88,1.2-2.82,1.94-3.91c19.98-29.4,40.01-58.75,59.92-88.2c1.77-2.61,3.54-3.54,6.71-3.19
		c7.21,0.81,14.13-0.75,20.62-3.95c2.18-1.07,3.79-0.96,5.81,0.43c17.96,12.37,35.98,24.65,54.04,36.89
		c1.88,1.27,2.65,2.62,2.44,4.92c-0.72,7.89,0.65,15.43,4.42,22.43c0.98,1.82,0.68,3.13-0.44,4.76
		c-6.31,9.13-12.55,18.31-18.71,27.54c-1.09,1.64-2.27,2.34-4.26,2.28c-4.36-0.13-8.72-0.07-13.08,0.03
		c-1.89,0.04-2.78-0.35-3.11-2.57c-3.41-22.86-20.96-38.56-43.86-39.42c-21.59-0.81-42.21,16.54-45,38.07
		c-0.38,2.96-1.22,4.04-4.31,3.96C164.27,152.64,156.59,152.79,148.84,152.79z"/>
	<path class="st2" d="M335.55,300.89c-10.84,0-21.69,0.14-32.53-0.03c-15.89-0.25-28.36-12.05-30.08-28.21
		c-1.54-14.53,9.12-28.85,24.08-32.08c2.77-0.6,5.69-0.73,8.55-0.74c21.06-0.04,42.13,0.08,63.19-0.04
		c3.36-0.02,4.49,0.81,4.45,4.36c-0.18,17.61-0.15,35.22-0.02,52.83c0.02,3.09-0.84,4.07-3.99,4.02
		c-11.22-0.18-22.44-0.07-33.65-0.07C335.55,300.9,335.55,300.9,335.55,300.89z M305.09,248.3c-12.25-0.2-22.36,9.43-22.61,21.55
		c-0.26,12.3,9.66,22.62,21.89,22.77c12.12,0.15,22.19-9.71,22.33-21.86C326.85,258.37,317.35,248.5,305.09,248.3z"/>
	<path class="st3" d="M170.3,67.94c0.04,1.38-0.92,2.28-1.61,3.29c-17.78,26.19-35.61,52.35-53.33,78.58
		c-1.5,2.22-3.09,3.11-5.77,3.04c-6.72-0.19-13.45-0.14-20.17-0.02c-2.34,0.04-2.84-0.59-2.59-3c2-19.34,3.89-38.7,5.64-58.07
		c0.33-3.7,1.52-5.96,5.21-7.49c6.56-2.73,11.75-7.46,15.74-13.37c1.2-1.78,2.51-2.42,4.65-2.19c12.74,1.34,25.5,2.55,38.25,3.83
		c4.77,0.48,6.12-0.29,7.97-4.72C166.29,67.85,168.3,67.89,170.3,67.94z"/>
	<path class="st4" d="M127.08,152.67c-0.03-1.4,0.91-2.14,1.51-3.02c29.38-43.21,58.78-86.41,88.19-129.61
		c3.96-5.82,6.95-6.44,12.69-2.53c35.72,24.38,71.44,48.76,107.15,73.16c5.94,4.06,6.46,7,2.38,13.01
		c-9.95,14.65-20.15,29.14-29.73,44.03c-3.02,4.69-6.43,5.93-11.42,4.99c-0.3-1.3,0.78-2.01,1.35-2.86
		c4.65-6.94,9.27-13.91,14.1-20.72c3.62-5.11,4.08-10.23,1.19-15.78c-2.95-5.68-4.04-11.72-3.29-18.12
		c0.59-4.99-1.17-9.19-5.31-12.04c-19.31-13.27-38.66-26.49-58.05-39.63c-4.15-2.81-8.67-2.84-13.13-0.55
		c-6.16,3.16-12.63,4.28-19.54,3.53c-5.49-0.59-9.47,2.14-12.51,6.62c-12.3,18.18-24.66,36.32-37.01,54.47
		c-9.19,13.51-18.65,26.85-27.42,40.62C135.21,152.98,131.75,153.5,127.08,152.67z"/>
	<path class="st4" d="M170.3,67.94c-2-0.05-4-0.09-6.01-0.14c-0.45-3.97-2.64-5.78-6.65-6.14c-13.28-1.17-26.54-2.54-39.8-3.88
		c-5.17-0.52-9.39,1.16-12.32,5.44c-3.99,5.85-9.17,10.09-15.71,12.78c-4.86,2.01-7.24,5.97-7.75,11.05
		c-1.85,18.51-3.61,37.02-5.41,55.54c-0.25,2.61-0.58,5.21-0.75,7.83c-0.27,4.2-3.44,2.19-5.38,2.44c-2.6,0.33-1.76-1.64-1.62-3.04
		c2.88-29.32,5.74-58.64,8.63-87.96c0.38-3.85,0.79-7.7,1.27-11.54c0.62-4.97,3.07-7.12,8.03-6.68c12.16,1.08,24.31,2.27,36.47,3.48
		c15.62,1.55,31.24,3.16,46.86,4.72c3.75,0.37,5.8-1.64,6.81-5.02c2.52,0.28,5.03,0.57,7.55,0.85
		C179.98,54.57,175.89,61.79,170.3,67.94z"/>
	<path class="st4" d="M220.51,152.88c-10.22,0-20.45-0.07-30.67,0.05c-2.71,0.03-3.35-0.61-2.78-3.4
		c3.2-15.7,16.69-27.36,32.36-27.72c16.36-0.38,30.46,10.39,34.31,26.21c1.15,4.72,1.04,4.86-3.68,4.86
		C240.2,152.88,230.35,152.88,220.51,152.88z"/>
	<path class="st1" d="M318.83,152.82c2.3-3.39,4.15-6.14,6.04-8.85c0.33-0.47,0.89-1.13,1.33-1.12c4.68,0.07,9.42-0.82,14.03,0.51
		c2.15,0.62,3.5,2.3,4.25,4.39c1.48,4.16,0.74,5.13-3.59,5.09C333.83,152.79,326.77,152.82,318.83,152.82z"/>
	<path class="st1" d="M47.82,152.82c-1.99,0-4.01-0.19-5.97,0.04c-3.4,0.4-4.11-1.11-3.45-4.1c0.76-3.45,3.37-5.84,7.11-5.98
		c3.61-0.14,7.22,0.02,10.83-0.08c1.75-0.05,2.34,0.34,2.15,2.31c-0.77,7.81-0.69,7.82-8.42,7.82
		C49.31,152.82,48.57,152.82,47.82,152.82z"/>
	<path class="st0" d="M305.09,248.3c12.26,0.2,21.75,10.07,21.61,22.46c-0.14,12.16-10.21,22.02-22.33,21.86
		c-12.23-0.15-22.15-10.48-21.89-22.77C282.74,257.73,292.85,248.1,305.09,248.3z M293.53,270.55c0.07,6.2,5.06,11.05,11.28,10.98
		c6.11-0.07,11.19-5.26,11.06-11.31c-0.12-6.03-5.43-11.2-11.39-11.09C298.36,259.24,293.46,264.35,293.53,270.55z"/>
</g>
</svg>
