<?xml version="1.0" encoding="utf-8"?>
<!-- Generator: Adobe Illustrator 26.3.0, SVG Export Plug-In . SVG Version: 6.00 Build 0)  -->
<svg version="1.1" id="Layer_1" opacity="0.9" xmlns="http://www.w3.org/2000/svg" xmlns:xlink="http://www.w3.org/1999/xlink"
	 x="0px" y="0px" viewBox="0 0 64 64" style="enable-background:new 0 0 64 64;" xml:space="preserve">
<style type="text/css">
	.st0{opacity:0.48;fill:url(#SVGID_1_);enable-background:new    ;}
	.st1{fill-rule:evenodd;clip-rule:evenodd;fill:url(#SVGID_00000109001887863718875550000005719655743010516619_);}
	
		.st2{opacity:0.48;fill-rule:evenodd;clip-rule:evenodd;fill:url(#SVGID_00000119105303410832127240000008573039568622217395_);enable-background:new    ;}
	.st3{opacity:0.04;fill:none;stroke:#000000;enable-background:new    ;}
	.st4{fill:url(#SVGID_00000000214295533596881400000000734320109901252753_);}
	.st5{fill:url(#SVGID_00000096760715531488046880000001060488047732642751_);}
	.st6{fill:url(#SVGID_00000025415299971316856180000005543051449890210739_);}
	.st7{fill:url(#SVGID_00000058554809779975822760000000913004387214801579_);}
	.st8{fill:#FEFEFE;}
	.st9{fill:#515151;}
</style>
<linearGradient id="SVGID_1_" gradientUnits="userSpaceOnUse" x1="1.2191" y1="51.6852" x2="39.4229" y2="17.26" gradientTransform="matrix(1 0 0 -1 0 66)">
	<stop  offset="0" style="stop-color:#73BAFB"/>
	<stop  offset="1" style="stop-color:#1877F2"/>
</linearGradient>
<path class="st0" d="M33.46,23.97L33.46,23.97l0.11-0.4c1.08-4.81-1.85-9.62-6.62-10.9c-4.78-1.28-9.71,1.42-11.18,6.12
	c-0.06,0.13-0.1,0.26-0.11,0.4l2.62,0.7c0.06-0.13,0.1-0.26,0.11-0.4c0.92-3.42,4.44-5.44,7.87-4.52c3.43,0.92,5.47,4.43,4.55,7.85
	c-0.04,0.14-0.05,0.28-0.03,0.42l-15.26-4.09c-2.28-0.61-5.13,0.24-6.93,4.11L4.25,33.94c-3.31,7.8,0.33,10.95,5.78,12.41
	l14.78,3.96c5.44,1.46,10.27-0.39,11.19-7.86l1.59-11.41c0.22-4.16-1.71-6.42-3.96-7.02L33.46,23.97z"/>
<linearGradient id="SVGID_00000018935859253321105610000000032031919013946010_" gradientUnits="userSpaceOnUse" x1="15.1621" y1="50.0484" x2="61.8123" y2="8.8746" gradientTransform="matrix(1 0 0 -1 0 66)">
	<stop  offset="0" style="stop-color:#73BAFB"/>
	<stop  offset="1" style="stop-color:#1877F2"/>
</linearGradient>
<path style="fill-rule:evenodd;clip-rule:evenodd;fill:url(#SVGID_00000018935859253321105610000000032031919013946010_);" d="
	M46.34,18.81c-0.1-0.43-0.18-0.75-0.2-0.8l-0.14-0.52c-1.77-5.66-7.71-8.91-13.47-7.37s-9.27,7.33-7.97,13.12
	c0.01,0.06,0.15,0.64,0.34,1.35c-2.52,0.92-4.63,3.51-4.2,8.28L22.6,46.6c1.25,10.13,6.93,11.22,13.49,9.46l17.79-4.77
	c6.54-1.75,10.47-6.59,6.93-14.94L55.6,23.51c-2.28-4.47-5.64-5.66-8.36-4.94L46.34,18.81z M43.05,19.69L28.1,23.7
	c-0.19-0.7-0.35-1.26-0.37-1.31c-1.1-4.12,1.35-8.35,5.48-9.45s8.37,1.33,9.47,5.45l0.03,0.12C42.77,18.71,42.9,19.16,43.05,19.69z"
	/>
<linearGradient id="SVGID_00000100368328102735481140000006753951425416462991_" gradientUnits="userSpaceOnUse" x1="15.1621" y1="50.0484" x2="61.8123" y2="8.8746" gradientTransform="matrix(1 0 0 -1 0 66)">
	<stop  offset="0" style="stop-color:#1877F2"/>
	<stop  offset="1" style="stop-color:#0C44AE"/>
</linearGradient>
<path style="opacity:0.48;fill-rule:evenodd;clip-rule:evenodd;fill:url(#SVGID_00000100368328102735481140000006753951425416462991_);enable-background:new    ;" d="
	M46.34,18.81c-0.1-0.43-0.18-0.75-0.2-0.8l-0.14-0.52c-1.77-5.66-7.71-8.91-13.47-7.37s-9.27,7.33-7.97,13.12
	c0.01,0.06,0.15,0.64,0.34,1.35c-2.52,0.92-4.63,3.51-4.2,8.28L22.6,46.6c1.25,10.13,6.93,11.22,13.49,9.46l17.79-4.77
	c6.54-1.75,10.47-6.59,6.93-14.94L55.6,23.51c-2.28-4.47-5.64-5.66-8.36-4.94L46.34,18.81z M43.05,19.69L28.1,23.7
	c-0.19-0.7-0.35-1.26-0.37-1.31c-1.1-4.12,1.35-8.35,5.48-9.45s8.37,1.33,9.47,5.45l0.03,0.12C42.77,18.71,42.9,19.16,43.05,19.69z"
	/>
<path class="st3" d="M45.87,18.93l0.12,0.49l0.49-0.13l0.9-0.24c2.43-0.65,5.58,0.37,7.78,4.67l5.2,12.83v0l0,0.01
	c1.73,4.08,1.6,7.21,0.33,9.51c-1.27,2.31-3.75,3.9-6.94,4.76l-17.79,4.77c-3.25,0.87-6.15,1-8.37-0.23
	c-2.2-1.21-3.89-3.83-4.5-8.82l0,0l0-0.01L21.19,32.8c-0.2-2.3,0.21-4.03,0.93-5.28c0.73-1.25,1.79-2.06,2.95-2.48l0.42-0.15
	l-0.11-0.43c-0.09-0.35-0.18-0.67-0.24-0.91c-0.03-0.12-0.05-0.22-0.07-0.29c-0.01-0.06-0.02-0.08-0.02-0.08l0-0.02l-0.01-0.03
	c-1.24-5.53,2.12-11.06,7.62-12.53c5.49-1.47,11.17,1.63,12.86,7.04l0.14,0.51l0,0.01l0,0.01c0,0,0,0,0,0c0,0,0.01,0.02,0.02,0.06
	c0.01,0.04,0.02,0.1,0.04,0.17C45.77,18.52,45.81,18.71,45.87,18.93z M43.17,20.17l0.48-0.13l-0.14-0.48
	c-0.15-0.53-0.27-0.98-0.33-1.19l0,0l-0.03-0.12c0,0,0,0,0,0c-1.17-4.38-5.69-6.97-10.08-5.79c-4.39,1.18-7,5.68-5.83,10.06
	l0.01,0.04l0.01,0.02c0,0,0.01,0.02,0.02,0.08c0.02,0.07,0.05,0.16,0.08,0.28c0.07,0.23,0.15,0.54,0.25,0.89l0.13,0.47l0.47-0.13
	L43.17,20.17z"/>
<linearGradient id="SVGID_00000050640230399143490350000015971138950361865139_" gradientUnits="userSpaceOnUse" x1="31.1165" y1="35.0262" x2="39.2595" y2="27.1454" gradientTransform="matrix(1 0 0 -1 0 66)">
	<stop  offset="0" style="stop-color:#FFFFFF;stop-opacity:0.16"/>
	<stop  offset="1" style="stop-color:#FFFFFF;stop-opacity:0.64"/>
</linearGradient>
<path style="fill:url(#SVGID_00000050640230399143490350000015971138950361865139_);" d="M33,34.25c-1.05,0.28-2.13-0.37-2.42-1.44
	c-0.29-1.08,0.33-2.18,1.37-2.46c1.05-0.28,2.13,0.37,2.42,1.44C34.67,32.86,34.05,33.97,33,34.25z"/>
<linearGradient id="SVGID_00000176754991510227486890000017787264087874568888_" gradientUnits="userSpaceOnUse" x1="38.7881" y1="42.9532" x2="46.9311" y2="35.0724" gradientTransform="matrix(1 0 0 -1 0 66)">
	<stop  offset="0" style="stop-color:#FFFFFF;stop-opacity:0.16"/>
	<stop  offset="1" style="stop-color:#FFFFFF;stop-opacity:0.64"/>
</linearGradient>
<path style="fill:url(#SVGID_00000176754991510227486890000017787264087874568888_);" d="M43.01,29.47
	c0.29,1.08,1.37,1.72,2.42,1.44c1.05-0.28,1.66-1.38,1.37-2.46c-0.29-1.08-1.37-1.72-2.42-1.44C43.33,27.3,42.72,28.4,43.01,29.47z"
	/>
<g>
	
		<linearGradient id="SVGID_00000138543455729588837740000012255588680025346197_" gradientUnits="userSpaceOnUse" x1="38.8158" y1="37.0272" x2="28.3073" y2="8.1554">
		<stop  offset="0.0112" style="stop-color:#006A18"/>
		<stop  offset="0.1514" style="stop-color:#248423"/>
		<stop  offset="0.3907" style="stop-color:#5AAB34"/>
		<stop  offset="0.5973" style="stop-color:#82C840"/>
		<stop  offset="0.7606" style="stop-color:#9BD947"/>
		<stop  offset="0.8603" style="stop-color:#A4E04A"/>
	</linearGradient>
	<path style="fill:url(#SVGID_00000138543455729588837740000012255588680025346197_);" d="M57.9,30.08L18.78,43.32
		c-1.51,0.51-3.15-0.3-3.66-1.81l-7.7-22.75c-0.51-1.51,0.3-3.15,1.81-3.66L48.35,1.86c1.51-0.51,3.15,0.3,3.66,1.81l7.7,22.75
		C60.22,27.93,59.41,29.57,57.9,30.08z"/>
	
		<radialGradient id="SVGID_00000168836721487688769790000015939807285399858320_" cx="32.5642" cy="40.9385" r="37.1021" fx="32.1662" fy="11.2699" gradientUnits="userSpaceOnUse">
		<stop  offset="0.1374" style="stop-color:#5CB836"/>
		<stop  offset="0.3829" style="stop-color:#85C34C"/>
		<stop  offset="0.8799" style="stop-color:#BCF7CD"/>
	</radialGradient>
	<path style="fill:url(#SVGID_00000168836721487688769790000015939807285399858320_);" d="M60.57,61.56h-56
		c-1.54,0-2.8-1.25-2.8-2.8V23.11c0-1.54,1.25-2.8,2.8-2.8h56c1.54,0,2.8,1.25,2.8,2.8v35.66C63.36,60.31,62.11,61.56,60.57,61.56z"
		/>
	<path class="st8" d="M49.78,32.82c0.77,0.82,1.77,1.19,2.86,1.29c0.5,0.04,0.54,0.23,0.53,0.63c-0.01,3.37,0,6.74,0.01,10.12
		c0,0.39-0.02,0.79-0.01,1.18c0.01,0.25-0.1,0.36-0.33,0.38c-2.08,0.21-3.56,1.26-4.42,3.16c-0.21,0.47-0.37,0.95-0.38,1.47
		c-0.01,0.52-0.19,0.73-0.78,0.73c-9.35-0.02-18.71-0.02-28.06-0.02c-0.26,0-0.51-0.02-0.77,0.01c-0.44,0.05-0.56-0.15-0.59-0.55
		c-0.19-2.34-1.76-4.09-3.84-4.64c-0.26-0.07-0.54-0.16-0.8-0.15c-0.42,0.02-0.51-0.15-0.51-0.54c0.02-3.73,0.02-7.47,0.01-11.2
		c0-0.29,0.22-0.54,0.51-0.56c0.5-0.04,1.02-0.09,1.45-0.4c1.94-0.86,2.96-2.37,3.19-4.45c0.03-0.28,0.26-0.5,0.54-0.5
		c1.27,0.02,2.54-0.01,3.81-0.01c4.13,0.01,8.26,0.02,12.39,0.02c2.58,0,5.17-0.01,7.75-0.02c1.67,0.01,3.35,0.04,5.02,0.01
		c0.48-0.01,0.62,0.14,0.66,0.6C48.14,30.75,48.73,31.9,49.78,32.82z"/>
	<g>
		<path class="st9" d="M19.73,41.63c0.13-0.11,0.24-0.2,0.34-0.3c0.1-0.09,0.18-0.2,0.25-0.33c0.07-0.12,0.13-0.27,0.17-0.44
			c0.04-0.17,0.07-0.39,0.09-0.65l0.95,0.06c-0.02,0.32-0.06,0.6-0.12,0.83c-0.06,0.23-0.14,0.44-0.23,0.62s-0.22,0.35-0.36,0.5
			s-0.31,0.3-0.5,0.45L19.73,41.63z"/>
		<path class="st9" d="M22.98,41.1c-0.69,0-1.03-0.31-1.03-0.92v-2.31h0.95v1.96c0,0.06,0.02,0.13,0.05,0.21
			c0.04,0.08,0.11,0.11,0.22,0.11h0.08v0.95H22.98z"/>
		<path class="st9" d="M24.96,41.1c-0.28,0-0.49-0.05-0.64-0.14c-0.04-0.01-0.07-0.03-0.1-0.07c-0.03,0.03-0.06,0.05-0.09,0.07
			c-0.16,0.1-0.38,0.14-0.65,0.14h-0.22c-0.03,0-0.07-0.01-0.1-0.03c-0.04-0.02-0.05-0.04-0.05-0.05v-0.79
			c0-0.02,0.02-0.04,0.06-0.05s0.07-0.02,0.1-0.02h0.22c0.08,0,0.15-0.03,0.2-0.09c0.05-0.06,0.07-0.14,0.07-0.23v-0.36h0.94v0.36
			c0,0.08,0.02,0.15,0.07,0.22c0.04,0.07,0.11,0.1,0.21,0.1h0.22v0.95H24.96z M24.21,42.61c-0.16,0-0.3-0.05-0.41-0.16
			c-0.11-0.11-0.16-0.25-0.16-0.41c0-0.16,0.05-0.29,0.16-0.4c0.11-0.11,0.25-0.16,0.41-0.16c0.16,0,0.29,0.05,0.4,0.16
			c0.11,0.11,0.16,0.24,0.16,0.4c0,0.16-0.05,0.3-0.16,0.41C24.5,42.55,24.37,42.61,24.21,42.61z"/>
		<path class="st9" d="M26.9,41.1c-0.28,0-0.49-0.05-0.64-0.14c-0.04-0.01-0.07-0.03-0.1-0.07c-0.03,0.03-0.06,0.05-0.09,0.07
			c-0.16,0.1-0.38,0.14-0.65,0.14h-0.22c-0.03,0-0.07-0.01-0.1-0.03c-0.04-0.02-0.05-0.04-0.05-0.05v-0.79
			c0-0.02,0.02-0.04,0.06-0.05s0.07-0.02,0.1-0.02h0.22c0.08,0,0.15-0.03,0.2-0.09c0.05-0.06,0.07-0.14,0.07-0.23v-0.36h0.94v0.36
			c0,0.08,0.02,0.15,0.07,0.22c0.04,0.07,0.11,0.1,0.21,0.1h0.22v0.95H26.9z M25.3,37.99h1.68v0.81H25.3V37.99z"/>
		<path class="st9" d="M27.53,40.15c-0.05-0.21-0.04-0.42,0.02-0.62c0.06-0.2,0.18-0.38,0.34-0.52c0.34-0.31,0.81-0.44,1.4-0.38
			l-0.09,0.89c-0.17-0.01-0.31-0.01-0.42,0.01s-0.21,0.07-0.29,0.15c-0.07,0.07-0.11,0.15-0.1,0.25c0.01,0.1,0.04,0.17,0.1,0.23
			h0.91v0.95h-2.29c-0.03,0-0.07-0.01-0.1-0.03c-0.04-0.02-0.05-0.04-0.05-0.05v-0.79c0-0.02,0.02-0.04,0.06-0.05
			s0.07-0.02,0.1-0.02H27.53z"/>
		<path class="st9" d="M29.87,37.87h0.96v3.23h-0.96V37.87z"/>
		<path class="st9" d="M34.34,42.81c-0.38,0.2-0.75,0.29-1.12,0.29c-0.28,0-0.55-0.06-0.79-0.19c-0.2-0.1-0.36-0.24-0.49-0.42
			s-0.2-0.38-0.24-0.61c-0.03-0.22-0.02-0.43,0.04-0.64s0.16-0.39,0.3-0.56c0.04-0.05,0.08-0.09,0.13-0.13s0.09-0.08,0.14-0.12
			c-0.08-0.15-0.12-0.31-0.12-0.47s0.02-0.32,0.08-0.49c0.06-0.16,0.14-0.3,0.25-0.41c0.11-0.12,0.24-0.21,0.39-0.29
			s0.32-0.13,0.5-0.15c0.18-0.03,0.38-0.03,0.58,0l-0.12,0.94c-0.21-0.03-0.38-0.01-0.5,0.04c-0.12,0.06-0.2,0.13-0.23,0.21
			c-0.04,0.11,0,0.23,0.1,0.34h0.77v0.95h-0.46c-0.12,0-0.23,0.01-0.33,0.03s-0.19,0.04-0.28,0.07c-0.08,0.03-0.15,0.08-0.2,0.14
			c-0.05,0.06-0.09,0.15-0.11,0.25c-0.02,0.12-0.01,0.22,0.04,0.32c0.05,0.09,0.13,0.16,0.24,0.21s0.25,0.06,0.42,0.04
			c0.17-0.01,0.35-0.07,0.57-0.18L34.34,42.81z"/>
		<path class="st9" d="M36.66,41.1c-0.1,0.23-0.24,0.45-0.42,0.65c-0.18,0.2-0.41,0.38-0.69,0.54c-0.05-0.05-0.1-0.11-0.15-0.17
			c-0.05-0.06-0.11-0.13-0.16-0.19s-0.11-0.13-0.16-0.18c-0.05-0.06-0.1-0.11-0.14-0.16c0.12-0.06,0.24-0.13,0.35-0.2
			c0.11-0.07,0.2-0.17,0.29-0.28h-0.91c-0.03-0.05-0.07-0.14-0.11-0.28c-0.04-0.14-0.06-0.3-0.06-0.49c0-0.14,0.02-0.29,0.06-0.44
			c0.04-0.15,0.11-0.29,0.21-0.42c0.1-0.13,0.22-0.23,0.37-0.31c0.15-0.08,0.34-0.12,0.56-0.12c0.18,0,0.34,0.04,0.47,0.12
			s0.24,0.17,0.33,0.29c0.09,0.12,0.16,0.24,0.2,0.37c0.05,0.13,0.08,0.25,0.1,0.35h0.21v0.95H36.66z M35.93,40.15
			c0-0.08-0.03-0.16-0.1-0.22c-0.07-0.06-0.14-0.09-0.23-0.09c-0.08,0-0.15,0.03-0.22,0.09c-0.07,0.06-0.1,0.14-0.1,0.22H35.93z"/>
		<path class="st9" d="M39.61,41.1c-0.05,0.15-0.12,0.27-0.2,0.38c-0.08,0.11-0.18,0.2-0.29,0.28c-0.11,0.07-0.22,0.13-0.34,0.17
			c-0.12,0.04-0.24,0.05-0.37,0.05c-0.12,0-0.24-0.02-0.36-0.05c-0.12-0.04-0.23-0.09-0.33-0.17c-0.1-0.08-0.2-0.17-0.28-0.28
			c-0.08-0.11-0.15-0.24-0.19-0.38h-0.24c-0.03,0-0.07-0.01-0.1-0.03c-0.04-0.02-0.05-0.04-0.05-0.05v-0.79
			c0-0.02,0.02-0.04,0.06-0.05c0.04-0.01,0.07-0.02,0.1-0.02h0.38l1.06-1.22l1.04,1.22h0.64v0.95H39.61z M38.24,40.76
			c0,0.05,0.02,0.1,0.06,0.14c0.04,0.04,0.08,0.06,0.14,0.06c0.06,0,0.11-0.02,0.14-0.06c0.04-0.04,0.06-0.08,0.06-0.14
			c0-0.06-0.02-0.11-0.06-0.14s-0.08-0.06-0.14-0.06c-0.06,0-0.1,0.02-0.14,0.06S38.24,40.7,38.24,40.76z"/>
		<path class="st9" d="M40.13,41.1c-0.03,0-0.07-0.01-0.1-0.03c-0.04-0.02-0.05-0.04-0.05-0.05v-0.79c0-0.02,0.02-0.04,0.06-0.05
			c0.04-0.01,0.07-0.02,0.1-0.02h1.5c-0.01-0.13-0.04-0.22-0.09-0.28c-0.03-0.03-0.06-0.06-0.11-0.09c-0.05-0.03-0.1-0.04-0.16-0.04
			h-0.82v-0.91h1.06c0.13,0,0.26,0.02,0.37,0.07s0.22,0.11,0.31,0.19s0.17,0.17,0.24,0.29s0.11,0.23,0.13,0.36
			c0.01,0.07,0.03,0.13,0.05,0.18c0.02,0.05,0.05,0.09,0.08,0.12s0.08,0.06,0.13,0.08c0.05,0.02,0.12,0.03,0.21,0.03h0.14v0.95
			H40.13z M41.62,42.61c-0.16,0-0.3-0.05-0.41-0.16c-0.11-0.11-0.16-0.25-0.16-0.41c0-0.16,0.05-0.29,0.16-0.4
			c0.11-0.11,0.25-0.16,0.41-0.16c0.16,0,0.29,0.05,0.4,0.16c0.11,0.11,0.16,0.24,0.16,0.4c0,0.16-0.05,0.3-0.16,0.41
			C41.91,42.56,41.78,42.61,41.62,42.61z"/>
		<path class="st9" d="M43.58,40.15c0-0.06-0.01-0.12-0.01-0.2c0-0.07,0-0.15,0-0.23s0-0.15,0-0.21c0-0.06,0-0.12,0-0.16h2.58v0.46
			c0,0.39-0.06,0.71-0.16,0.94c-0.1,0.23-0.22,0.4-0.35,0.52c-0.14,0.12-0.28,0.2-0.42,0.23s-0.26,0.05-0.36,0.05
			c-0.06,0-0.13,0-0.21-0.02s-0.16-0.03-0.25-0.07c-0.08-0.03-0.17-0.08-0.26-0.14c-0.09-0.06-0.17-0.14-0.24-0.24h-0.71
			c-0.03,0-0.07-0.01-0.1-0.03c-0.04-0.02-0.05-0.04-0.05-0.05v-0.79c0-0.02,0.02-0.04,0.06-0.05c0.04-0.01,0.07-0.02,0.1-0.02
			H43.58z M44.86,40.66c0.1,0,0.18-0.04,0.23-0.11c0.05-0.07,0.08-0.15,0.09-0.24h-0.65c0.01,0.09,0.05,0.17,0.1,0.24
			C44.69,40.63,44.76,40.66,44.86,40.66z"/>
	</g>
</g>
</svg>
