<?xml version="1.0" encoding="utf-8"?>
<!-- Generator: Adobe Illustrator 26.3.0, SVG Export Plug-In . SVG Version: 6.00 Build 0)  -->
<svg version="1.1" id="Layer_1" xmlns="http://www.w3.org/2000/svg" xmlns:xlink="http://www.w3.org/1999/xlink" x="0px" y="0px"
	 viewBox="0 0 384 384" style="enable-background:new 0 0 384 384;" xml:space="preserve">
<style type="text/css">
	.st0{fill:#CCCCCC;}
</style>
<g>
	<path class="st0" d="M60.6,307.4c-14-6.6-23.7-15.8-30.2-28.3c-4.3-8.5-6.5-17.5-6.5-27c0-40.1-0.1-80.3,0-120.4
		C24.1,98.7,50.7,72,83.6,72c68.9-0.1,137.8-0.1,206.7,0c3.2,0,5.3-1,7.4-3.2c13.6-13.8,27.3-27.5,41-41.1c4-4,9.1-4.8,13.7-2.6
		c4.5,2.1,7.7,7,6.7,11.9c-0.7,3.1-2.4,6.4-4.6,8.6c-23.2,23.5-46.5,46.8-69.8,70.1C205.2,195.4,125.6,275.1,46,354.9
		c-3.6,3.6-7.4,6-12.6,4.8c-4.5-1-7.5-3.8-8.9-8.2c-1.4-4.6-0.3-8.7,3.1-12c9.7-9.8,19.4-19.5,29.1-29.2
		C57.7,309.3,58.9,308.6,60.6,307.4z M48.1,182.1c-0.1,0.8-0.2,1.2-0.2,1.7c0,29.8-0.1,39.5,0.1,69.3c0.1,16,12.2,30.5,27.8,34
		c2.4,0.5,4.1,0,5.9-1.8c40-40.2,80.1-80.3,120.1-120.5c0.7-0.7-18.3,18.5-17.3,17.3C132.2,182.1,100.2,182.1,48.1,182.1z
		 M48.1,137.8c1,0,1.7,0.1,2.4,0.1c58.5,0,117.1,0,175.6-0.1c1.6,0,3.5-1,4.7-2.2c12.4-12.2,24.6-24.5,36.9-36.8
		c0.7-0.7,1.4-1.6,2.6-2.9c-1.9,0-3.1,0-4.3,0c-59.9,0-119.8,0-179.7,0C61.9,95.9,46.2,113,48.1,137.8z"/>
	<path class="st0" d="M282.9,160.3c-0.2-12.3,9.7-22.4,22-22.4c10.4,0,21.3,0,26.4,0c1.2,0,2.5,0,3.8,0c1.2-8.5-1-16-4.2-23.4
		c-3.1-7.3,0.7-14.9,8.2-16.7c5.2-1.3,10.7,1.3,13.4,6.5c4.2,8,6.7,16.5,6.7,25.5c0.1,41.4,0.3,82.8,0,124.1
		c-0.3,31.4-27.1,57.8-58.6,57.9c-49.4,0.2-98.8,0.1-148.3,0.1c-7.4,0-12.6-5-12.7-11.9c0-7.1,5.2-12.1,12.9-12.1
		c48.5,0,97.1,0,145.6,0c19.1,0,33.5-12.1,36.7-30.6c0.3-1.6,0.4-4.1,0.4-5.7c0-29,0-38,0-67c0-0.7-0.1-1.5-0.1-2.7
		c-6.6,0-18.9,0-30.4,0C292.9,182,283.1,172.4,282.9,160.3L282.9,160.3z"/>
</g>
</svg>
