<?xml version="1.0" encoding="utf-8"?>
<!-- Generator: Adobe Illustrator 26.3.0, SVG Export Plug-In . SVG Version: 6.00 Build 0)  -->
<svg  width="64" height="64"  version="1.1" id="Layer_1" xmlns="http://www.w3.org/2000/svg" xmlns:xlink="http://www.w3.org/1999/xlink" x="0px" y="0px"
	 viewBox="0 0 69.8 70.4" style="enable-background:new 0 0 69.8 70.4;" xml:space="preserve">
<style type="text/css">
	.st0{opacity:0.81;}
	.st1{fill:url(#SVGID_1_);}
	.st2{fill:url(#SVGID_00000121253972598846975890000013495047671753690045_);stroke:#2764AD;stroke-miterlimit:10;}
	.st3{fill:url(#SVGID_00000156562636900667043660000003290798196013379729_);}
	.st4{opacity:0.63;}
	.st5{fill:#32B97C;}
	.st6{fill:#FDFEFE;}
	.st7{fill:url(#SVGID_00000164492689546051477240000007486714219412681389_);}
	.st8{fill:url(#SVGID_00000155857150464979917870000012887495710427449984_);stroke:#2764AD;stroke-miterlimit:10;}
	.st9{fill:url(#SVGID_00000098908586142286153000000005301766132405488265_);}
</style>
<g>
	<g class="st0">

			<linearGradient id="SVGID_1_" gradientUnits="userSpaceOnUse" x1="13.1926" y1="34.8023" x2="45.562" y2="34.8023" gradientTransform="matrix(0.9714 -0.2375 0.2375 0.9714 -7.5958 8.9541)">
			<stop  offset="0" style="stop-color:#3A5F8C"/>
			<stop  offset="1" style="stop-color:#385A91"/>
		</linearGradient>
		<polygon class="st1" points="51.7,59.8 20.3,67.5 6.7,11.8 38.1,4.1 		"/>

			<linearGradient id="SVGID_00000031189472929692023670000004518288164230809782_" gradientUnits="userSpaceOnUse" x1="11.9606" y1="34.84" x2="48.9544" y2="34.84" gradientTransform="matrix(0.9714 -0.2375 0.2375 0.9714 -7.5958 8.9541)">
			<stop  offset="0" style="stop-color:#3A5F8C"/>
			<stop  offset="1" style="stop-color:#2F45A8"/>
		</linearGradient>
		<path style="fill:url(#SVGID_00000031189472929692023670000004518288164230809782_);stroke:#2764AD;stroke-miterlimit:10;" d="
			M47.2,31.4c1.9,7.8,3.8,15.5,5.7,23.3c1,4.2-1,7.4-5.1,8.4c-7.5,1.8-15,3.7-22.5,5.5c-4,1-7.3-1-8.3-5.1
			C13.2,48,9.3,32.4,5.5,16.9c-1-4.1,1-7.4,5.1-8.4c7.5-1.8,15-3.7,22.5-5.5c4.1-1,7.3,1,8.3,5.1C43.4,15.9,45.3,23.6,47.2,31.4z
			 M44.9,32c-0.1-0.2-0.1-0.5-0.2-0.7C42.9,23.6,41,16,39.2,8.4c-0.5-2.2-2.3-3.5-4.4-3.3c-0.6,0-1.2,0.2-1.8,0.4
			c-1.3,0.3-1.3,0.3-1,1.6c0.5,2-0.5,3.8-2.4,4.3c-4,1-8,2-12,2.9c-1.7,0.4-3.4-0.6-4-2.3c-0.2-0.6-0.1-1.4-0.6-1.6
			c-0.5-0.2-1.2,0.2-1.8,0.4c-2.9,0.7-4.1,2.7-3.4,5.6c3.8,15.6,7.6,31.1,11.4,46.7c0.7,2.9,2.7,4.1,5.6,3.4
			c7.5-1.8,15-3.7,22.4-5.5c2.9-0.7,4.1-2.7,3.4-5.6C48.7,47.5,46.8,39.7,44.9,32z M22.4,8c-2.1,0.5-4.3,1-6.4,1.6
			c-0.2,0.1-0.5,0-0.6,0.3c-0.3,1.3,0.8,2.3,2.1,2c3.6-0.9,7.1-1.7,10.7-2.6C29.9,8.9,30,8.6,29.6,7c-0.1-0.6-0.4-0.6-0.9-0.5
			C26.7,7,24.5,7.5,22.4,8z"/>

			<linearGradient id="SVGID_00000179630458345693145850000008893689174955111567_" gradientUnits="userSpaceOnUse" x1="21.1121" y1="59.1155" x2="37.6326" y2="59.1155" gradientTransform="matrix(0.9714 -0.2375 0.2375 0.9714 -7.5958 8.9541)">
			<stop  offset="0.176" style="stop-color:#355399"/>
			<stop  offset="1" style="stop-color:#2F45A8"/>
		</linearGradient>
		<path style="fill:url(#SVGID_00000179630458345693145850000008893689174955111567_);" d="M34.7,58.3c2.2-0.5,4.4-1.1,6.6-1.6
			c0.9-0.2,1.5,0,1.7,0.7c0.2,0.7-0.2,1.3-1.2,1.5c-4.4,1.1-8.8,2.2-13.2,3.2c-0.5,0.1-1,0.1-1.4-0.3c-0.3-0.3-0.4-0.7-0.2-1.1
			c0.2-0.5,0.6-0.7,1.1-0.8C30.3,59.4,32.5,58.8,34.7,58.3z"/>
	</g>
	<g class="st4">
		<circle class="st5" cx="28.8" cy="36.3" r="9.3"/>
		<g>
			<path class="st6" d="M34.3,31.7c0.3,0.4,0.3,0.8,0.1,1.3c-1.1,2.1-2.2,4.3-3.3,6.5c-0.3,0.5-0.5,1.1-0.8,1.6
				c-0.2,0.5-0.6,0.8-1.2,0.8c-0.2,0-0.4-0.1-0.7-0.3c-1.5-0.8-2.9-1.5-4.4-2.3c-0.7-0.4-0.9-1-0.5-1.7c0.1-0.3,0.3-0.6,0.4-0.8
				c0.4-0.7,1-0.9,1.7-0.5c0.8,0.4,1.6,0.8,2.4,1.3c0.1,0.1,0.2,0.1,0.3-0.1c1-2,2-4,3.1-6c0.3-0.5,0.7-0.8,1.3-0.7
				c0.1,0,0.2,0.1,0.3,0.1c0.3,0.2,0.6,0.3,1,0.5C34,31.5,34.1,31.6,34.3,31.7z"/>
		</g>
	</g>
</g>
<g>
	<g>

			<linearGradient id="SVGID_00000036955822493968904170000000213072086531708572_" gradientUnits="userSpaceOnUse" x1="28.0354" y1="36.6648" x2="60.4049" y2="36.6648">
			<stop  offset="0" style="stop-color:#3A5F8C"/>
			<stop  offset="1" style="stop-color:#385A91"/>
		</linearGradient>
		<rect x="28" y="8" style="fill:url(#SVGID_00000036955822493968904170000000213072086531708572_);" width="32.4" height="57.3"/>

			<linearGradient id="SVGID_00000101067475556625700310000005832280692465501844_" gradientUnits="userSpaceOnUse" x1="26.8034" y1="36.7026" x2="63.7972" y2="36.7026">
			<stop  offset="0" style="stop-color:#3A5F8C"/>
			<stop  offset="1" style="stop-color:#2F45A8"/>
		</linearGradient>
		<path style="fill:url(#SVGID_00000101067475556625700310000005832280692465501844_);stroke:#2764AD;stroke-miterlimit:10;" d="
			M62.7,36.7c0,8,0,16,0,24c0,4.3-2.7,7-6.9,7c-7.7,0-15.5,0-23.2,0c-4.1,0-6.8-2.7-6.8-6.9c0-16,0-32,0-48.1c0-4.2,2.7-6.9,6.9-6.9
			c7.7,0,15.5,0,23.2,0c4.2,0,6.9,2.7,6.9,6.9C62.7,20.7,62.7,28.7,62.7,36.7z M60.4,36.7c0-0.2,0-0.5,0-0.7c0-7.9,0-15.7,0-23.6
			c0-2.2-1.4-3.9-3.5-4.3c-0.6-0.1-1.2-0.1-1.8-0.1c-1.3,0-1.3,0-1.3,1.3c0,2.1-1.4,3.6-3.4,3.6c-4.1,0-8.3,0-12.4,0
			c-1.8,0-3.2-1.4-3.3-3.2c-0.1-0.6,0.3-1.4-0.2-1.7c-0.4-0.3-1.2-0.1-1.9-0.1c-2.9,0-4.6,1.7-4.6,4.6c0,16,0,32,0,48
			c0,2.9,1.7,4.6,4.6,4.6c7.7,0,15.4,0,23.1,0c3,0,4.7-1.6,4.7-4.6C60.4,52.7,60.4,44.7,60.4,36.7z M44.2,8.1c-2.2,0-4.4,0-6.6,0
			c-0.2,0-0.5-0.1-0.7,0.2c-0.6,1.2,0.2,2.5,1.6,2.5c3.7,0,7.3,0,11,0c1.7,0,1.9-0.3,2-2c0-0.6-0.2-0.7-0.7-0.7
			C48.6,8.1,46.4,8.1,44.2,8.1z"/>

			<linearGradient id="SVGID_00000039135402284630325100000000504602610701517447_" gradientUnits="userSpaceOnUse" x1="35.955" y1="60.9781" x2="52.4754" y2="60.9781">
			<stop  offset="0.176" style="stop-color:#355399"/>
			<stop  offset="1" style="stop-color:#2F45A8"/>
		</linearGradient>
		<path style="fill:url(#SVGID_00000039135402284630325100000000504602610701517447_);" d="M44.2,59.8c2.3,0,4.5,0,6.8,0
			c1,0,1.5,0.4,1.5,1.1c0,0.7-0.5,1.2-1.5,1.2c-4.5,0-9.1,0-13.6,0c-0.5,0-1-0.1-1.3-0.6c-0.2-0.4-0.2-0.8,0-1.2
			c0.3-0.5,0.7-0.5,1.2-0.5C39.6,59.8,41.9,59.8,44.2,59.8z"/>
	</g>
	<g>
		<circle class="st5" cx="44.2" cy="36.3" r="9.3"/>
		<g>
			<path class="st6" d="M50.8,33.6c0.1,0.5,0,0.9-0.3,1.2c-1.7,1.7-3.4,3.4-5.1,5.1c-0.4,0.4-0.8,0.8-1.3,1.3
				c-0.4,0.4-0.8,0.5-1.4,0.4c-0.2-0.1-0.4-0.3-0.5-0.4c-1.2-1.2-2.3-2.3-3.5-3.5c-0.6-0.6-0.6-1.2,0-1.8c0.2-0.2,0.4-0.4,0.7-0.7
				c0.5-0.5,1.2-0.5,1.7,0c0.6,0.6,1.3,1.3,1.9,1.9c0.1,0.1,0.2,0.1,0.3,0c1.6-1.6,3.2-3.2,4.8-4.7c0.4-0.4,0.9-0.5,1.4-0.2
				c0.1,0.1,0.2,0.1,0.3,0.2c0.3,0.2,0.5,0.5,0.8,0.8C50.7,33.3,50.8,33.5,50.8,33.6z"/>
		</g>
	</g>
</g>
</svg>
