<?xml version="1.0" encoding="utf-8"?>
<!-- Generator: Adobe Illustrator 26.3.0, SVG Export Plug-In . SVG Version: 6.00 Build 0)  -->
<svg version="1.1" id="Layer_1" xmlns="http://www.w3.org/2000/svg" xmlns:xlink="http://www.w3.org/1999/xlink" x="0px" y="0px"
	 viewBox="0 0 64 64" style="enable-background:new 0 0 64 64;" xml:space="preserve">
<style type="text/css">
	.st0{fill:#E7333E;}
	.st1{fill:#212121;}
</style>
<g>
	<g>
		<polygon class="st0" points="7.4,39.7 19.4,37.8 31.8,40.4 51,34.5 53.8,34.5 55.2,39 52.4,41.7 37.4,45.7 19.4,45.7 10.5,45.7 
			8.4,43.3 		"/>
		<g id="_x39_5_x2C__shoes_x2C__sport_x2C__exercise_x2C__running_x2C__man_x2C_">
			<g>
				<path class="st1" d="M12.8,46.6c20.8,0.5,19.5,0.5,20.5,0.5c4.7,0,9.5-0.8,14-2.4c5.1-1.8,2.8-1,3.9-1.4
					c1.6-0.6,5.1-1.8,5.2-5.1c0.1-2.2-1.1-4.2-2.9-5.3c-0.2-0.1-0.4-0.2-0.7-0.2c-2,0-4.1-0.5-5.9-1.5L27.6,19.6
					c-0.4-0.3-1-0.2-1.4,0.1c-2,1.5-7.9,5.6-11.2,5.6l0,0c-1,0-2.4-1.5-3.7-3.9C10.7,20.5,9.9,20,8.9,20c-1.5,0-2.6,1.1-2.7,2.6
					L5.8,39.3C5.6,43.2,8.8,46.5,12.8,46.6z M50,41.2l-3.6,1.3c-4.5,1.6-9.4,2.3-14.2,2.2l-19.4-0.5c-2.1-0.1-3.7-1.4-4.4-3.2
					l7.2-1.4c3.2-0.6,6.6-0.5,9.6,0.4l2.9,0.9c3.2,1,6.7,1,10.1-0.1l14.9-4.6c0.4,0.6,0.7,1.3,0.7,2.1C53.9,39.9,51.6,40.6,50,41.2z
					 M8.8,22.4c0.1,0,0.1,0,0.1,0.1c1.8,3.4,3.7,5.2,5.9,5.2H15c4,0,10-4,12.1-5.6l5.2,3.1l-2.1,3c-0.4,0.6-0.3,1.3,0.3,1.7
					c0.6,0.4,1.3,0.3,1.7-0.3l2.2-3.2l1.5,0.9l-2.4,3.5c-0.4,0.6-0.3,1.3,0.3,1.7c0.6,0.4,1.3,0.3,1.7-0.3l2.5-3.6l1.4,0.8l-2.1,3
					c-0.4,0.6-0.3,1.3,0.3,1.7c0.6,0.4,1.3,0.3,1.7-0.3l2.2-3.1l4,2.4l0,0c1,0.6,2.1,1,3.2,1.3l-11.3,3.8c-2.8,0.9-5.7,0.9-8.6,0
					l-2.9-0.8c-3.5-1-7.3-1.2-10.9-0.5l-6.9,1.3l0.4-15.8C8.7,22.4,8.8,22.4,8.8,22.4z"/>
				<path class="st1" d="M19.7,33.8l8.7,0.2l-0.1,2.5c0,0.7,0.5,1.3,1.3,1.3c0.7,0,1.2-0.5,1.2-1.2l0.1-3.7c0-0.7-0.5-1.3-1.2-1.3
					l-10-0.3c-0.3,0-0.4-0.2-0.4-0.3c0-0.1,0-0.3,0.1-0.4l8.1-3.1c0.6-0.3,1-1,0.7-1.6c-0.3-0.6-1-1-1.6-0.7
					c-8.6,3.4-8.2,3.2-8.4,3.3c-1.1,0.7-1.5,2-1.1,3.2C17.4,33,18.5,33.8,19.7,33.8z"/>
				<path class="st1" d="M45.9,51c0-0.7-0.6-1.3-1.3-1.3H4.3C3.6,49.6,3,50.2,3,51c0,0.7,0.6,1.3,1.3,1.3h40.3
					C45.3,52.2,45.9,51.6,45.9,51z"/>
				<path class="st1" d="M59.7,54.7H35.8c-0.7,0-1.3,0.6-1.3,1.3c0,0.7,0.6,1.3,1.3,1.3h23.9c0.7,0,1.3-0.6,1.3-1.3
					C61,55.3,60.4,54.7,59.7,54.7z"/>
				<path class="st1" d="M23.2,14.4c2.1,0,3.8-1.7,3.8-3.8c0-2.1-1.7-3.8-3.8-3.8s-3.8,1.8-3.8,3.9C19.4,12.7,21.1,14.4,23.2,14.4z
					 M23.2,9.3c0.7,0,1.3,0.6,1.3,1.3c0,0.7-0.6,1.3-1.3,1.3c-0.7,0-1.3-0.6-1.3-1.3C21.9,9.9,22.5,9.3,23.2,9.3z"/>
				<path class="st1" d="M53.5,20.7c2.8,0,5-2.2,5-5c0-2.8-2.2-5-5-5c-2.8,0-5,2.2-5,5C48.4,18.5,50.7,20.7,53.5,20.7z M53.5,13.1
					c1.4,0,2.5,1.1,2.5,2.5c0,1.4-1.1,2.5-2.5,2.5c-1.4,0-2.5-1.1-2.5-2.5C51,14.3,52.1,13.1,53.5,13.1z"/>
			</g>
		</g>
		<g id="Layer_1_00000089543720452196151620000011409676809005113730_">
		</g>
	</g>
</g>
</svg>
