<?xml version="1.0" encoding="utf-8"?>
<!-- Generator: Adobe Illustrator 26.3.0, SVG Export Plug-In . SVG Version: 6.00 Build 0)  -->
<svg version="1.1" id="Layer_1" xmlns="http://www.w3.org/2000/svg" xmlns:xlink="http://www.w3.org/1999/xlink" x="0px" y="0px"
	 viewBox="0 0 64 64" style="enable-background:new 0 0 64 64;" xml:space="preserve">
<style type="text/css">
	.st0{fill:#E7333E;}
	.st1{fill:#212121;}
</style>
<g>
	<g>
		<rect x="51.2" y="24.2" class="st0" width="6" height="19.1"/>
		<rect x="6.2" y="24.2" class="st0" width="7" height="19.1"/>
		<g id="_x39_3_x2C__dumbell_x2C__fitness_x2C__exercise_x2C__gym_x2C__weight_lifter">
			<g>
				<path class="st1" d="M61,29.5h-2.5v-4.8c0-0.7-0.6-1.3-1.3-1.3h-5v-2.4c0-0.7-0.6-1.3-1.3-1.3h-8.9c-0.7,0-1.3,0.6-1.3,1.3v7.2
					H23.2v-7.2c0-0.7-0.6-1.3-1.3-1.3H13c-0.7,0-1.3,0.6-1.3,1.3v2.4h-5c-0.7,0-1.3,0.6-1.3,1.3v4.8H2.8c-0.7,0-1.3,0.6-1.3,1.3V38
					c0,0.7,0.6,1.3,1.3,1.3h2.5v4.8c0,0.7,0.6,1.3,1.3,1.3h5v2.4c0,0.7,0.6,1.3,1.3,1.3h8.9c0.7,0,1.3-0.6,1.3-1.3v-7.4h17.6v7.2
					c0,0.7,0.6,1.3,1.3,1.3H51c0.7,0,1.3-0.6,1.3-1.3v-2.4h5c0.7,0,1.3-0.6,1.3-1.3v-4.8h2.5c0.7,0,1.3-0.6,1.3-1.3v-7.1
					C62.2,30,61.6,29.5,61,29.5z M4.2,36.8V32h1.3v4.8H4.2z M8.1,42.8c0-4.7,0-11.1,0-16.9h3.8v16.9H8.1z M20.7,46.4h-6.4
					c0-3.7,0-23,0-24.1h6.4C20.7,25.1,20.7,43.5,20.7,46.4z M23.2,37.9v-7.2h17.6v7.2H23.2z M49.6,46.4h-6.4c0-2.9,0-21.2,0-24.1
					h6.4C49.6,23.4,49.6,42.8,49.6,46.4z M55.9,42.8h-3.8V25.9h3.8C55.9,31.7,55.9,37.9,55.9,42.8z M59.7,36.8h-1.3V32h1.3V36.8z"/>
				<path class="st1" d="M59.7,51.2H4.2c-0.7,0-1.3,0.6-1.3,1.3c0,0.7,0.6,1.3,1.3,1.3h55.5c0.7,0,1.3-0.6,1.3-1.3
					C61,51.7,60.4,51.2,59.7,51.2z"/>
				<path class="st1" d="M59.7,56.1H4.2c-0.7,0-1.3,0.6-1.3,1.3c0,0.7,0.6,1.3,1.3,1.3h55.5c0.7,0,1.3-0.6,1.3-1.3
					C61,56.5,60.4,56.1,59.7,56.1z"/>
				<path class="st1" d="M16.8,15.1c2.1,0,3.8-1.6,3.8-3.7c0-2-1.7-3.7-3.8-3.7c-2.1,0-3.8,1.6-3.8,3.7C13,13.4,14.7,15.1,16.8,15.1
					z M16.8,10.3c0.7,0,1.3,0.6,1.3,1.3c0,0.7-0.6,1.3-1.3,1.3c-0.7,0-1.3-0.6-1.3-1.3C15.6,10.7,16.1,10.3,16.8,10.3z"/>
				<path class="st1" d="M55.2,16.2c2.4,0,4.4-1.9,4.4-4.2c0-2.3-2-4.2-4.4-4.2c-2.4,0-4.4,1.9-4.4,4.2
					C50.8,14.3,52.8,16.2,55.2,16.2z M55.2,10.3c1,0,1.9,0.8,1.9,1.8c0,1.1-0.8,1.8-1.9,1.8c-1.1,0-1.9-0.8-1.9-1.8
					C53.3,11,54.2,10.3,55.2,10.3z"/>
			</g>
		</g>
		<g id="Layer_1_00000082356136075085528400000015927133902897161383_">
		</g>
	</g>
</g>
</svg>
