<?xml version="1.0" encoding="utf-8"?>
<!-- Generator: Adobe Illustrator 26.3.0, SVG Export Plug-In . SVG Version: 6.00 Build 0)  -->
<svg version="1.1" id="Layer_1" xmlns="http://www.w3.org/2000/svg" xmlns:xlink="http://www.w3.org/1999/xlink" x="0px" y="0px"
	 viewBox="0 0 64 64" style="enable-background:new 0 0 64 64;" xml:space="preserve">
<style type="text/css">
	.st0{fill:none;stroke:#E7333E;stroke-width:7;stroke-miterlimit:10;}
	.st1{fill:#212121;}
</style>
<g>
	<g>
		<circle class="st0" cx="32.2" cy="31.7" r="13.5"/>
		<g id="_x38_6_x2C__target_x2C__goal_x2C__strategy_x2C__circle_x2C__point">
			<path class="st1" d="M60.2,30.8h-1.8C57.8,17.2,46.7,6.2,33.1,5.6V3.7c0-0.7-0.6-1.3-1.3-1.3c-0.7,0-1.3,0.6-1.3,1.3v1.9
				C17.1,6.3,6.2,17.2,5.6,30.8h-2c-0.7,0-1.3,0.6-1.3,1.3c0,0.7,0.6,1.3,1.3,1.3h2c0.6,13.4,11.5,24.3,25.1,25v1.9
				c0,0.7,0.6,1.3,1.3,1.3c0.7,0,1.3-0.6,1.3-1.3v-1.9C46.9,57.9,58,46.9,58.6,33.3h1.8c0.7,0,1.3-0.6,1.3-1.3
				C61.5,31.3,60.9,30.8,60.2,30.8z M55.9,30.8H51c-0.6-9.6-8.3-17.2-17.8-17.7V8.2C45.4,8.7,55.3,18.5,55.9,30.8z M30.7,30.8h-1.3
				c0.3-0.6,0.7-1.1,1.3-1.3V30.8z M30.7,33.4v1.3c-0.6-0.3-1-0.8-1.3-1.3H30.7z M33.2,33.4h1.5c-0.3,0.7-0.9,1.2-1.5,1.5V33.4z
				 M33.2,30.8v-1.5c0.7,0.3,1.2,0.8,1.5,1.5H33.2z M30.7,26.7c-1.9,0.5-3.5,2.1-3.9,4H23c0.5-3.9,3.7-7.2,7.7-7.8V26.7z M26.7,33.4
				c0.5,2,2,3.5,3.9,4v3.7c-3.9-0.6-7.1-3.7-7.7-7.8H26.7L26.7,33.4z M33.2,37.4c2.1-0.4,3.7-2,4.2-4.1h3.7c-0.6,4-3.8,7.3-7.9,7.8
				L33.2,37.4L33.2,37.4z M37.3,30.8c-0.5-2-2.1-3.6-4.2-4.1v-3.6c4,0.5,7.4,3.7,7.9,7.8H37.3z M30.7,20.5
				c-5.3,0.6-9.6,4.9-10.2,10.3h-4.9c0.6-8.1,7.1-14.5,15.1-15.2V20.5z M20.4,33.4c0.6,5.3,4.8,9.7,10.2,10.3v4.9
				c-8.1-0.7-14.5-7.2-15.1-15.2H20.4z M33.2,43.6c5.4-0.5,9.9-4.8,10.5-10.3h4.8c-0.6,8.2-7.2,14.7-15.3,15.2V43.6z M43.6,30.8
				c-0.6-5.4-4.9-9.8-10.5-10.3v-4.9c8.2,0.6,14.7,7.1,15.3,15.2H43.6L43.6,30.8z M30.7,8.2v4.9c-9.5,0.7-17,8.3-17.6,17.7H8.1
				C8.7,18.6,18.5,8.9,30.7,8.2z M8.1,33.4H13c0.6,9.5,8.2,17,17.6,17.7V56C18.5,55.2,8.7,45.5,8.1,33.4z M33.2,55.9V51
				c9.6-0.6,17.2-8.2,17.8-17.7H56C55.3,45.6,45.4,55.4,33.2,55.9z"/>
		</g>
		<g id="Layer_1_00000160179562079873604340000016355077501790430108_">
		</g>
	</g>
</g>
</svg>
