<?xml version="1.0" encoding="utf-8"?>
<!-- Generator: Adobe Illustrator 26.3.0, SVG Export Plug-In . SVG Version: 6.00 Build 0)  -->
<svg version="1.1" id="Layer_1" xmlns="http://www.w3.org/2000/svg" xmlns:xlink="http://www.w3.org/1999/xlink" x="0px" y="0px"
	 viewBox="0 0 64 64" style="enable-background:new 0 0 64 64;" xml:space="preserve">
<style type="text/css">
	.st0{fill:#E7333E;}
	.st1{fill:#030303;}
</style>
<polygon class="st0" points="31,28.8 33.8,27.7 35,25.9 39.3,26.9 39.4,34.3 39.1,40 37.6,47.4 29.9,46.6 24.3,47 23.7,38.3 
	23.7,35 22.7,25.9 27.3,25.9 "/>
<g>
	<path class="st1" d="M31.9,2c0.1,0.2,0.4,0.1,0.6,0.2c2.6,0.7,4.3,3.3,3.7,6c-0.1,0.4,0,0.6,0.3,0.9c1.4,1.4,2.1,3.1,2.1,5.1
		c0,1.4,0.1,2.9-0.1,4.3c-0.3,2-1.3,3.6-2.9,4.8c-0.5,0.3-0.4,0.7-0.3,1.1c0,0.3,0.3,0.1,0.4,0.1c1.1,0,2.2,0,3.4,0.1
		c2.3,0.2,4.3,1.2,5.7,3c0.5,0.6,0.5,1.3-0.1,1.8c-0.5,0.4-1.2,0.3-1.7-0.3c-0.6-0.7-1.3-1.3-2.2-1.7c-0.1,1.1-0.1,2.1-0.2,3.1
		c0,0.6-0.1,1.3-0.1,1.9c-0.1,0.9,0,1.9,0.3,2.8c0.8,2.4,1.5,4.9,2.2,7.3c0.4,1.2,1,2.2,1.9,2.9c2,1.6,4.1,3.3,6.2,4.9
		c1.1,0.9,2.7,0.4,2.9-1c0.1-0.6-0.2-1.1-0.6-1.6c-2.2-2-4.3-4-6.5-5.9c-0.5-0.4-0.8-0.9-0.9-1.5c-0.1-0.4-0.2-0.9-0.3-1.3
		c-0.1-0.7,0.2-1.3,0.8-1.5c0.7-0.2,1.4,0.2,1.5,1c0.1,1.1,0.7,1.9,1.6,2.6c1.8,1.6,3.6,3.3,5.3,4.9c1.8,1.6,2,3.9,0.4,5.8
		c-0.2,0.2-0.2,0.4,0,0.6c1.4,2.1,1.6,4.3,0.4,6.6c-1.2,2.2-3.1,3.4-5.6,3.4c-12.5,0-25,0-37.5,0c-2.5,0-4.5-1.2-5.6-3.4
		c-1.2-2.2-1-4.5,0.4-6.6c0.1-0.2,0.2-0.3,0-0.6c-1.5-1.9-1.4-4.1,0.4-5.7c2-1.9,4-3.7,6-5.5c0.4-0.4,0.6-0.8,0.7-1.3
		c0.6-2.7,1.2-5.5,1.8-8.2c0.9-3.9,4.1-6.5,8.2-6.5c0.8,0,1.6,0,2.4,0c0.2,0,0.6,0.2,0.6-0.1c0-0.3,0.2-0.8-0.2-1.1
		c-1.6-1.1-2.5-2.5-3-4.4c-0.2-0.8-0.2-1.6-0.2-2.4c0-1.1-0.1-2.3,0.1-3.4c0.2-1.6,0.9-3,2.1-4.1c0.2-0.2,0.3-0.3,0.2-0.6
		c-0.6-3.2,0.9-5.4,4-6.2c0,0,0-0.1,0.1-0.1C30.9,2,31.4,2,31.9,2z M37.8,36.2C37.8,36.2,37.8,36.2,37.8,36.2c0.2-3,0.3-6,0.5-9
		c0-0.3,0-0.4-0.4-0.4c-0.9,0-1.7,0-2.6,0c-0.3,0-0.4,0.1-0.5,0.3c-0.7,1.6-1.9,2.5-3.6,2.5c-1.7,0-3-0.9-3.6-2.5
		c-0.1-0.3-0.2-0.4-0.5-0.4c-0.8,0-1.6,0-2.5,0c-0.4,0-0.4,0.1-0.4,0.5c0.3,6,0.7,12.1,1,18.1c0,0.4,0.2,0.5,0.5,0.5
		c3.7,0,7.3,0,11,0c0.5,0,0.5-0.2,0.6-0.6C37.4,42.3,37.6,39.2,37.8,36.2z M20.9,59.9C20.9,59.9,20.9,59.9,20.9,59.9
		c2.9,0,5.8,0,8.7,0c0.4,0,0.5-0.1,0.5-0.5c0-1.4,0-2.7,0-4.1c0-0.4-0.2-0.5-0.5-0.6c-5.3-0.9-10.6-1.8-15.9-2.7
		c-0.3-0.1-0.5,0-0.8,0.2c-0.8,0.6-1.7,0.9-2.7,0.8c-0.4,0-0.7,0.1-0.9,0.4c-0.9,1.3-1.1,2.7-0.4,4.1c0.7,1.5,1.9,2.3,3.5,2.3
		C15.2,59.9,18,59.9,20.9,59.9z M21.9,27.4c-1.5,0.5-3,2.1-3.4,4c-0.7,3-1.3,6-2,9.1c-0.1,0.5-0.3,0.9-0.7,1.3c-2.2,2-4.3,4-6.5,6
		c-0.3,0.3-0.6,0.6-0.7,1c-0.2,0.7,0.1,1.4,0.8,1.8c0.6,0.4,1.4,0.4,2.1-0.2c2.1-1.6,4.1-3.3,6.2-4.9c0.9-0.8,1.6-1.7,1.9-2.9
		c0.8-2.8,1.7-5.5,2.5-8.3c0-0.1,0.1-0.3,0.1-0.5C22.1,31.6,22,29.5,21.9,27.4z M42.8,59.9c2.5,0,5,0,7.4,0c1.6,0,2.7-0.9,3.4-2.3
		c0.7-1.5,0.5-2.9-0.5-4.1c-0.2-0.3-0.4-0.4-0.7-0.3c-1,0.1-1.9-0.2-2.7-0.8C49.4,52,49.1,52,48.8,52c-1.8,0.3-3.5,0.6-5.3,0.9
		c-1.4,0.2-2.7,0.5-4.2,0.7C42.5,54.3,43.9,57.2,42.8,59.9z M21.4,50.9c0.2,0.1,0.3,0.1,0.3,0.1c2.7,0.4,5.3,0.9,8,1.3
		c0.7,0.1,1.4,0.3,2.2,0.2c2.2-0.4,4.4-0.8,6.7-1.1c0.8-0.1,1.6-0.3,2.6-0.5c-1.2-0.8-2.2-1.6-3.1-2.6c-0.2-0.2-0.4-0.2-0.6-0.2
		c-4.2,0-8.3,0-12.5,0c-0.2,0-0.4,0-0.5,0.2C23.6,49.3,22.6,50.1,21.4,50.9z M31.3,15.3c-1,0-2,0-3.1,0c-0.6,0-1.5-0.2-1.8,0.1
		c-0.4,0.4-0.1,1.3-0.1,1.9c0,2.6,2,4.7,4.5,4.9c2.6,0.2,4.8-1.5,5.3-4c0.2-0.8,0-1.6,0.1-2.4c0-0.4-0.1-0.5-0.4-0.5
		C34.2,15.3,32.8,15.3,31.3,15.3z M35.9,59.9c1,0,2,0,2.9,0c1.1,0,2-0.7,2-1.8c0.1-1-0.6-1.8-1.7-2c-2.1-0.3-4.2-0.6-6.3-0.9
		c-0.4-0.1-0.4,0.1-0.4,0.4c0,1.3,0,2.6,0,3.9c0,0.4,0.1,0.4,0.5,0.4C33.9,59.9,34.9,59.9,35.9,59.9z M36,12.9
		c-0.3-2.2-2.7-3.9-5.2-3.7c-2.1,0.1-4.2,2-4.3,3.7C29.7,12.9,32.8,12.9,36,12.9z M39.8,41.2c-0.1,1.6-0.2,3.3-0.3,4.9
		c0,0.3,0.1,0.6,0.3,0.8c1.2,1.2,2.5,2.1,4,2.9c1,0.5,1.9,0.5,2.9,0.1c-1-0.8-1.9-1.6-2.9-2.3c-1.7-1.3-2.9-2.9-3.4-5
		C40.3,42.1,40.2,41.6,39.8,41.2z M15.6,50c0.9,0.1,1.7,0.4,2.5,0c1.6-0.8,3.1-1.8,4.4-3.1c0.2-0.2,0.3-0.5,0.3-0.8
		c-0.1-1.1-0.1-2.2-0.2-3.3c0-0.4,0-0.9-0.1-1.3c0-0.1,0-0.2-0.1-0.2c-0.1,0-0.2,0.1-0.2,0.2c-0.1,0.4-0.3,0.8-0.4,1.2
		c-0.5,2-1.6,3.6-3.3,4.9C17.7,48.3,16.7,49.1,15.6,50z M28.5,7.3c1.7-0.6,3.4-0.7,5.1-0.1C34,7.3,34,7.2,34,7
		c0-1.4-1.4-2.7-2.9-2.6C29.5,4.5,28.4,5.8,28.5,7.3z M29.7,24.4c0,0.5,0,1,0,1.5c0,0.8,0.7,1.4,1.5,1.4c0.8,0,1.5-0.6,1.5-1.5
		c0-0.4,0-0.7,0-1.1c0-0.3,0-0.4-0.4-0.3C31.5,24.6,30.6,24.6,29.7,24.4z"/>
	<path class="st1" d="M46.8,33.4c0,0.6-0.5,1.2-1.2,1.2c-0.6,0-1.2-0.6-1.2-1.2c0-0.7,0.6-1.2,1.2-1.1
		C46.3,32.2,46.8,32.8,46.8,33.4z"/>
</g>
</svg>
