<?xml version="1.0" encoding="utf-8"?>
<!-- Generator: Adobe Illustrator 26.3.0, SVG Export Plug-In . SVG Version: 6.00 Build 0)  -->
<svg version="1.1" id="Layer_1" xmlns="http://www.w3.org/2000/svg" xmlns:xlink="http://www.w3.org/1999/xlink" x="0px" y="0px"
	 viewBox="0 0 64 64" style="enable-background:new 0 0 64 64;" xml:space="preserve">
<style type="text/css">
	.st0{fill:#E7333E;}
	.st1{fill:#212121;}
</style>
<g>
	<polygon class="st0" points="3,47.7 62,47.7 62,52.8 61.3,55.7 58.3,56.6 58.3,59.2 56.9,54.9 6.9,54.9 6.6,58.3 6.6,56.2 
		2.5,56.4 	"/>
	<path class="st1" d="M1.3,47.7c0.4-0.8,1.1-1.1,2-1.1c0.5,0,1.1,0,1.6,0c0.4,0,0.5-0.1,0.5-0.5c-0.4-1.9-0.7-3.8-1-5.8
		c-0.1-0.5-0.2-0.9-0.2-1.4c0-0.7,0.4-1.2,1.2-1.3c0.8-0.1,1.6,0.2,2.2,0.7c1,0.8,1.7,1.8,2.2,2.9c0.2,0.3,0.4,0.5,0.8,0.5
		c2.5,0,5,0,7.5,0c0.3,0,0.3-0.1,0.3-0.4c0-1.4,0-2.8,0-4.2c0-0.2-0.1-0.3-0.3-0.5c-2.2-1.4-4.5-2-7.1-1.7c-1.5,0.2-2-0.1-2.2-1.6
		c-0.5-2.5-0.9-5.1-1.3-7.6c-0.2-0.9,0.4-1.5,1.3-1.6c0.8,0,1.4,0.2,2,0.7c0.9,0.7,1.6,1.7,2.2,2.7c0.2-0.1,0.3-0.3,0.4-0.5
		c1.6-2.6,3.2-5.1,4.7-7.7c1-1.7,2.4-2.8,4.5-2.7c-0.4-0.5-0.7-0.9-1-1.4c-0.8-1.2-1.2-2.4-1.2-3.8c0-1.5,0-3,0.5-4.4
		c1-2.9,3.8-4.8,6.6-4.7c3.3,0.2,5.8,2.4,6.5,5.5c0.3,1.5,0.3,2.9,0.2,4.4c-0.1,1.5-0.8,2.7-1.8,3.8c-0.1,0.1-0.2,0.2-0.3,0.4
		c0.6,0.1,1,0.1,1.5,0.2c1.9,0.5,3.3,2.2,3.4,4.1c0.1,1.5,0.1,3-0.1,4.5c-0.2,1.9-1.1,3.5-2.6,4.7c-0.3,0.3-0.5,0.5-0.4,1
		c0,1.2,0,2.4,0,3.6c0,0.5,0.2,0.5,0.5,0.5c0.8-0.1,1.5-0.1,2.3-0.1c0.6,0,1,0.3,1,0.8c0,0.5-0.4,0.9-1,0.9c-1.4,0-2.8,0.1-4.1,0.5
		c-0.9,0.2-1.8,0.6-2.6,1c-0.3,0.1-0.4,0.3-0.4,0.6c0,0.8,0,1.6,0,2.3c0,0.5,0.1,0.6,0.6,0.6c3.1,0,6.2,0,9.3,0c0.2,0,0.3,0,0.5,0
		c0.5,0,0.9,0.4,0.9,0.9c0,0.5-0.4,0.9-0.9,0.9c-0.7,0-1.3,0-2,0c-0.3,0-0.4,0.1-0.4,0.4c0,0.7,0,1.4,0,2c0,0.2,0,0.4,0.3,0.4
		c2.8,0,5.5,0,8.4,0c-0.6-0.7-1.1-1.4-1.4-2.2c-0.6-1.5-0.8-3.1-0.3-4.7c0.1-0.3,0.1-0.6-0.3-0.8c-1-0.6-2-1-3.1-1.3
		c-0.2,0-0.3-0.1-0.5-0.1c-0.5-0.2-0.7-0.7-0.6-1.1c0.2-0.5,0.6-0.7,1.1-0.6c1.3,0.3,2.6,0.8,3.8,1.6c0.4,0.2,0.5,0.2,0.8-0.2
		c1.8-2.3,4.6-3.2,7.4-2.4c0.3,0.1,0.5,0,0.7-0.1c1-0.7,2.2-1.1,3.5-1c1.2,0.1,1.9,0.9,2,2c0,0.1,0,0.3,0,0.4
		c-0.4,1.7-0.3,3.4-0.1,5c0.2,2.1-0.4,3.9-1.9,5.4c1.1,0,2.2,0,3.2,0c1.3,0,1.9,0.5,1.9,1.9c0,2.1,0,4.3,0,6.4
		c0,1.1-0.6,1.7-1.7,1.7c-0.5,0-1.1,0-1.6,0c-0.4,0-0.4,0.1-0.4,0.4c0,0.6,0,1.1,0,1.7c-0.2,1.6-1.4,2.8-3,3c-0.3,0-0.5,0-0.8,0
		c-15.4,0-30.7,0-46.1,0c-1.5,0-2.6-0.5-3.4-1.8C5.1,59.4,5,58.6,5,57.8c0-1.1,0-1.1-1.1-1.1c-0.2,0-0.4,0-0.6,0
		c-0.9,0.1-1.6-0.2-2-1.1C1.3,53,1.3,50.4,1.3,47.7z M32,48.5c-9.4,0-18.8,0-28.2,0c-0.5,0-0.6,0.1-0.6,0.6c0,1.7,0,3.4,0,5.1
		c0,0.5,0.1,0.7,0.7,0.7c8.7,0,17.4,0,26.1,0c0.7,0,1.1,0.3,1.1,0.9c0,0.6-0.4,0.9-1.1,0.9c-0.1,0-0.3,0-0.4,0c-7.2,0-14.4,0-21.5,0
		c-1.2,0-1.1,0-1.2,1.2c0,0.6,0,1.2,0.5,1.6C7.7,60,8.3,60,8.9,60c15.4,0,30.7,0,46.1,0c0.1,0,0.2,0,0.2,0c1.2,0,1.8-0.7,1.8-1.9
		c0-0.3,0-0.6,0-0.8c0.1-0.6-0.2-0.6-0.7-0.6c-7.3,0-14.6,0-21.8,0c-0.3,0-0.5,0-0.8-0.1c-0.4-0.2-0.7-0.5-0.6-0.9
		c0-0.5,0.3-0.8,0.8-0.8c0.2,0,0.4,0,0.6,0c8.5,0,17.1,0,25.6,0c0.5,0,0.6-0.1,0.6-0.6c0-1.7,0-3.5,0-5.2c0-0.6-0.2-0.6-0.7-0.6
		C50.7,48.5,41.4,48.5,32,48.5z M14.7,28.5c0.8,0.1,1.5,0.1,2.2,0.3c0.3,0.1,0.5,0,0.6-0.3c0.6-1,1.2-2,1.8-3
		c0.4-0.6,0.9-0.8,1.3-0.4c0.5,0.3,0.5,0.8,0.2,1.4c-0.5,0.8-1,1.7-1.5,2.5c-0.2,0.2-0.2,0.4,0.1,0.4c0.7,0.2,1.3,0.4,1.9,0.8
		c0.2,0.1,0.3,0.1,0.5-0.1c0.4-0.4,0.9-0.7,1.4-0.9c1.7-0.8,3.5-1.5,5.3-2.3c0.6-0.3,1.1-0.7,1.4-1.3c0.2-0.4,0.5-0.8,0.7-1.2
		c0.3-0.4,0.7-0.5,1.1-0.3c0.4,0.2,0.7,0.6,0.4,1c-0.5,1-1,2.1-2,2.8c-0.4,0.2-0.4,0.4-0.2,0.7c0.1,0.1,0.1,0.2,0.2,0.4
		c0.7,1.4,0.7,1.4,2.1,0.6c1.6-1,2.8-2.4,2.9-4.3c0.1-1.2,0.1-2.4,0.1-3.6c0-1.9-1.2-3.1-3.2-3.1c-0.9,0-0.9,0-1,0.9
		c-0.3,2.6-3,4.3-5.3,3.2c-1.5-0.7-2.3-2-2.3-3.6c0-0.4-0.1-0.5-0.5-0.5c-1.6-0.1-2.6,0.6-3.4,1.9c-1.2,2-2.4,4-3.6,6
		C15.6,27.1,15.2,27.7,14.7,28.5z M25.4,46.7c-0.6-2.4,0.1-3.8,2.4-4.5c0.3-0.1,0.3-0.2,0.3-0.5c0-1,0-2,0-2.9c0-0.2,0-0.4-0.2-0.6
		c-0.9-1.1-1.8-2.1-2.8-3c-0.3-0.3-0.6-0.4-1-0.4c-1.5,0-2.7-1-2.9-2.5c0-0.3-0.1-0.5-0.4-0.6c-1.2-0.7-2.6-1-4-1.2
		c-0.3-0.1-0.3,0.2-0.4,0.3c-0.2,0.8-0.4,1.6-0.6,2.4c-0.1,0.4,0,0.5,0.4,0.6c2.7,1,5,2.6,6.8,4.9c0.5,0.7,1,1.5,1.2,2.4
		c0.2,1-0.2,1.7-1.1,2c-0.6,0.2-1.2,0.3-1.9,0.3c-2.6,0.2-5.2,0.1-7.8,0.1c-0.4,0-0.6,0.1-0.5,0.5c0,0.7,0,1.4,0,2.2
		c0,0.3,0.1,0.4,0.4,0.4c1.1,0,2.2,0,3.3,0C19.4,46.7,22.4,46.7,25.4,46.7z M32.5,11.7c0.2-0.5-0.1-0.7-0.7-0.8
		c-2-0.4-3.9-0.8-5.9-1.2c-0.5-0.1-1,0-1.4,0.3c-0.6,0.4-1.2,0.8-1.9,1c-0.3,0.1-0.3,0.3-0.3,0.5c0,2.6,1.5,4.3,3.6,5.4
		c0.6,0.3,1.3,0.5,2,0.3C30.2,16.9,32.5,14.2,32.5,11.7z M46.3,41.9c0.2,1.9,1,3.5,3,4.5c0.2,0.1,0.4,0.2,0.7,0
		c0.9-0.5,1.7-1.1,2.5-1.9c0.8-0.9,1.1-1.8,0.6-3c-0.7-1.4-0.9-3-0.4-4.5c0.2-0.6-0.1-0.7-0.5-0.7C49.1,36,46.2,38.7,46.3,41.9z
		 M32.3,9.1c0.2,0.1,0.2-0.1,0.1-0.4c-0.4-2.4-2.3-4.2-4.8-4.4c-2.2-0.1-4.3,1.4-5,3.7c-0.1,0.3-0.4,0.7-0.2,0.9
		c0.3,0.2,0.6-0.2,0.9-0.4c0.8-0.5,1.5-0.9,2.5-0.7c0.4,0.1,0.8,0.2,1.2,0.3C28.7,8.4,30.4,8.8,32.3,9.1z M57.4,35.5
		c-1.9,0.2-3.1,0.9-3.2,2.9c-0.1,1,0.2,2,0.6,2.9c0.6,1.3,0.4,2.5-0.3,3.6c-0.3,0.5-0.7,0.9-1.2,1.4c-0.1,0-0.2,0.1-0.1,0.2
		c0.1,0.1,0.1,0.1,0.2,0c2.6-0.4,4.5-1.8,4.3-4.8c-0.1-1.9-0.4-3.7,0.1-5.6C57.9,35.7,57.7,35.5,57.4,35.5z M31.9,46.7
		c1.2,0,2.4,0,3.6,0c0.3,0,0.5-0.1,0.4-0.4c0-0.6,0-1.2,0-1.9c0-0.4-0.1-0.5-0.5-0.5c-2.4,0-4.7,0-7.1,0c-0.9,0-1.5,0.6-1.5,1.4
		c0,0.8,0.6,1.4,1.5,1.4C29.6,46.7,30.7,46.7,31.9,46.7z M14.7,30.3c-0.4,0-0.8,0-1.1,0c-0.9,0-1.6-0.4-2-1.3
		c-0.4-0.8-0.9-1.5-1.5-2.2c-0.2-0.2-0.3-0.3-0.5-0.5c-0.1,0-0.2,0-0.3,0c-0.1,0,0,0.1,0,0.2c0.4,2.1,0.8,4.3,1.2,6.5
		c0,0.3,0.1,0.4,0.4,0.3c0.9-0.1,1.7-0.1,2.6,0c0.2,0,0.3,0,0.4-0.2C14.2,32.2,14.5,31.3,14.7,30.3z M6.2,39.6
		C6.1,39.6,6.1,39.7,6.2,39.6c0.3,2.3,0.7,4.6,1.1,6.8c0,0.2,0.2,0.3,0.4,0.3c1,0,2,0,2.9,0c0.3,0,0.4-0.1,0.4-0.4
		c0-0.7,0-1.4,0-2.1c0-0.4-0.1-0.6-0.6-0.6c-1,0-1.7-0.5-2.1-1.5c-0.1-0.3-0.3-0.5-0.4-0.8C7.4,40.7,6.9,40,6.2,39.6z M26.5,34.1
		c1,0.9,1.8,1.8,2.5,2.7c0.2,0.2,0.3,0.2,0.5,0.1c0.8-0.4,1.6-0.8,2.4-1c0.2-0.1,0.3-0.2,0.3-0.4c0-1.1,0-2.3,0-3.4
		c0-0.3-0.1-0.3-0.4-0.2C30.1,32.6,28.4,33.3,26.5,34.1z M24.1,33c0.1,0,0.2,0,0.3-0.1c1.5-0.6,3.1-1.2,4.6-1.8
		c0.3-0.1,0.2-0.2,0.1-0.4c-0.3-0.5-0.5-1-0.8-1.5c-0.1-0.1-0.1-0.3-0.3-0.2c-1.5,0.7-3,1.3-4.5,2c-0.5,0.2-0.6,0.7-0.5,1.2
		C23.1,32.8,23.5,33,24.1,33z M25.4,18.6c0,1,0.3,1.8,1.1,2.4c0.6,0.4,1.3,0.4,2,0c0.8-0.5,1.1-1.3,1-2.3
		C28.1,19.2,26.8,19.2,25.4,18.6z M20.2,38.5c0,0.7,0,1.3,0,1.9c0,1.6,0.1,1.7,1.7,1.3c0.3-0.1,0.4-0.2,0.3-0.5
		C21.8,40.2,21.1,39.3,20.2,38.5z"/>
</g>
<path class="st1" d="M56,11.6c2.5,0,4.5-2,4.5-4.5s-2-4.5-4.5-4.5s-4.5,2-4.5,4.5C51.4,9.6,53.4,11.6,56,11.6z M56,4.7
	c1.3,0,2.3,1,2.3,2.3s-1,2.3-2.3,2.3s-2.3-1-2.3-2.3C53.7,5.8,54.7,4.7,56,4.7z"/>
<path class="st1" d="M47.6,20c2.1,0,3.8-1.7,3.8-3.8s-1.7-3.8-3.8-3.8s-3.8,1.8-3.8,3.9C43.8,18.3,45.5,20,47.6,20z M47.6,14.9
	c0.7,0,1.3,0.6,1.3,1.3c0,0.7-0.6,1.3-1.3,1.3s-1.3-0.6-1.3-1.3C46.3,15.5,46.9,14.9,47.6,14.9z"/>
</svg>
