<?xml version="1.0" encoding="utf-8"?>
<!-- Generator: Adobe Illustrator 26.3.0, SVG Export Plug-In . SVG Version: 6.00 Build 0)  -->
<svg version="1.1" id="Layer_1" xmlns="http://www.w3.org/2000/svg" xmlns:xlink="http://www.w3.org/1999/xlink" x="0px" y="0px"
	 viewBox="0 0 64 64" style="enable-background:new 0 0 64 64;" xml:space="preserve">
<style type="text/css">
	.st0{fill:#040203;}
	.st1{fill:#E30157;}
	.st2{fill:#FB4653;}
</style>
<g>
	<path class="st0" d="M55,37.4c0.5,0,0.9,0.1,1,0.6c0.5,1.8,1.1,3.6,1.3,5.4c0.4,4.1-2.1,7.8-6.1,9c-3.5,1-7,2-10.6,2.8
		c-2.8,0.7-5.3,0-7.6-1.8c-0.1,0-0.1-0.1-0.2-0.2c-0.1,0-0.1-0.1-0.2-0.2c-0.2,0.9-0.5,1.7-0.7,2.5c-1.3,4.9-6,7.5-10.8,6.3
		c-1.3-0.3-2.6-0.7-3.9-1c-0.7-0.2-0.9-0.4-0.9-1.1c0.4-0.6,0.6-0.7,1.3-0.6c0.9,0.2,1.8,0.5,2.7,0.7c1.1,0.3,2.2,0.7,3.4,0.6
		c0.1,0,0.2,0,0.2-0.1l0,0c2.4-0.1,4.2-1.3,5.5-3.3c0.8-1.2,0.9-2.6,1.4-4c0.3-1.1,0.5-2.1-0.2-3.1c-0.2-0.3-0.3-0.7-0.4-1.1
		c-0.3-1.2-0.7-2.4-1-3.7c-0.1-0.5-0.3-0.8-0.8-0.9c-0.3-0.1-0.7-0.3-1-0.5c-1-0.7-1.7-1.6-2-2.7c-0.6-2.2-1.4-4.4-1.3-6.7
		c0.1-1.3,0.1-1.3-1.3-1.5c0,0-0.1-0.1-0.1-0.1c-2.9-0.8-5.8-1.6-8.7-2.3c-0.3-0.1-0.5,0-0.7,0c-2.9,0.9-4.8,2.7-5.7,5.5
		c-0.4,1.2-0.7,2.4-1,3.7c-0.2,0.7-0.1,1.4,0.2,2.2c0.2-0.7,0.4-1.3,0.7-1.8c1.1-1.9,3.2-2.9,5.2-2.4c0.6,0.2,0.9,0.5,0.8,1.1
		c-0.1,0.5-0.5,0.8-1.2,0.6C10.9,39.2,9.4,40,9,41.7c-0.7,2.5-1.3,5-2,7.5c-0.8,3,0.6,6.1,3.2,7.7c1.1,0.6,2.3,0.8,3.4,1.2
		c0.7,0.2,0.8,0.4,0.8,1.1c-0.5,0.7-0.6,0.7-1.5,0.5c-1.7-0.4-3.5-0.9-4.9-2.1c-2.7-2.4-3.7-5.4-2.8-9c0.3-1.3,0.7-2.6,1-3.9
		c0.1-0.3,0.1-0.5-0.2-0.8c-1.1-1.3-1.5-2.9-1.1-4.5c0.3-1.2,0.6-2.4,1-3.6c1.1-3.4,3.3-5.7,6.7-6.8c0.3-0.1,0.5-0.3,0.6-0.6
		c0.4-1.7,0.9-3.3,1.3-5c0.4-1.5,1.4-2.1,2.9-1.7c1.7,0.5,3.5,0.9,5.2,1.4c0.3,0.1,0.5,0.1,0.6-0.3c1.7-4.8,3.4-9.6,5.1-14.4
		c0.1-0.2,0.2-0.3,0.1-0.5c-0.2,0-0.3,0.2-0.4,0.3c-1,1-2.3,1.2-3.5,0.7c-1.2-0.6-1.8-1.6-1.7-3c0.1-1.3,1-2.4,2.3-2.7
		c0.1,0,0.2,0,0.2-0.1c3.7,0,7.3,0,11,0C36.7,3.1,36.9,3,37,3.1c1.1,0.3,2.1,1.5,2.3,2.7c0.1,1.3-0.5,2.4-1.6,3
		c-1.2,0.6-2.5,0.4-3.4-0.4c-0.4-0.4-0.9-0.8-1.4-1.3c0.4,1.6,0.8,3.2,1.2,4.8c0.4,1.6,0.8,3.3,1.2,4.9c0.1,0.5,0.2,0.6,0.7,0.4
		c2-0.6,4-1.1,6.1-1.6c1.6-0.4,2.6,0.1,3.1,1.8c0.5,1.7,0.9,3.3,1.3,5c0.1,0.3,0.1,0.5,0.4,0.6c4.1,2,6.7,5.3,7.7,9.8
		c0.1,0.5,0.2,0.9,0.4,1.4c0.2,0.6,0,1.1-0.5,1.4c-0.8,0-1-0.2-1.2-0.9c-0.2-0.6-0.3-1.3-0.5-2c-0.9-3.4-2.9-6-5.9-7.8
		c-0.7-0.4-1.4-0.5-2.2-0.2c-1,0.2-1.9,0.5-2.9,0.7c-0.3,0.1-0.3,0.2-0.2,0.5c0.4,1.3,0.7,2.5,1,3.8c0.4,1.6-0.4,3-2,3.4
		c-1.5,0.4-2.8-0.4-3.2-2c-0.3-1.2-0.7-2.4-1-3.7c-0.1-0.4-0.2-0.5-0.6-0.4c-2.2,0.6-4.4,1.2-6.6,1.8c-0.2,0.1-0.5,0.2-0.6,0.4
		c-1.9,2-2.7,4.3-2.3,7c0.2,1.6,0.7,3,1.1,4.5c0.3,0.9,0.9,1.6,1.8,2c0.3,0.2,0.7,0.2,1,0.1c1.3-0.3,2.6-0.7,3.8-1
		c1.4-0.4,2-1.5,1.7-2.8c-0.4-1.4-1.6-2.1-2.9-1.7c-0.6,0.1-1.2,0.3-1.7,0.5c-0.5,0.1-1-0.1-1.1-0.6c-0.1-0.5,0.1-0.9,0.6-1.1
		c0.6-0.2,1.3-0.4,1.9-0.5c1.9-0.5,3.8,0.4,4.7,2.2c0.2,0.4,0.4,0.5,0.8,0.4c2.4-0.7,4.9-1.3,7.3-2c0.9-0.2,1.7-0.3,2.6-0.1
		c1.6,0.3,2.9,1.1,3.9,2.3c0.4,0.6,0.7,1.2,0.9,1.9c0.1,0.4,0.1,0.7-0.1,1.1c-0.7,0.4-1.2,0.3-1.5-0.5c0-0.1-0.1-0.1-0.1-0.2
		c-0.8-2.1-2.9-3.3-5.1-2.8c-2.7,0.6-5.3,1.4-8,2.1c-0.3,0.1-0.3,0.3-0.4,0.5c-0.4,1.6-1.4,2.6-2.9,3.1c-1,0.3-2,0.6-3.1,0.8
		c-0.4,0.1-0.4,0.2-0.3,0.6c0.4,1.3,0.7,2.6,1.1,3.9c1,3.2,4.5,5.5,7.8,4.8c2.8-0.6,5.6-1.4,8.4-2.2c0.7-0.2,1.4-0.3,2.1-0.5
		c3.8-1.1,5.9-4.7,5-8.6c-0.3-1.2-0.6-2.3-0.9-3.5C54.3,38,54.4,37.8,55,37.4z M24.4,29.2c-0.8-0.2-1.7-0.5-2.5-0.7
		c-0.4-0.1-0.7-0.3-0.8-0.7c-0.1-0.7,0.5-1.1,1.2-1c1.1,0.3,2.2,0.6,3.3,0.9c0.4,0.1,0.8,0.2,1.2,0.3c0.5,0.1,0.6,0,0.5-0.5
		c-0.1-0.4-0.2-0.8-0.3-1.2c0-0.4-0.2-0.5-0.5-0.6c-2.8-0.7-5.5-1.5-8.3-2.2c-1.8-0.5-1.4-0.7-2,1.2c-0.1,0.3,0,0.4,0.3,0.5
		c0.6,0.1,1.3,0.3,1.9,0.5c0.6,0.2,0.9,0.6,0.8,1c-0.1,0.5-0.6,0.8-1.2,0.6c-0.6-0.2-1.2-0.3-1.8-0.5c-0.4-0.1-0.6,0-0.6,0.4
		c-0.1,0.4-0.1,0.8-0.3,1.1c-0.2,0.4,0,0.6,0.4,0.6c0.9,0.2,1.7,0.5,2.6,0.7c1.8,0.5,3.7,1,5.5,1.4c0.3,0.1,0.7,0.2,1,0.3
		c0.2,0.1,0.3,0,0.4-0.2c0.3-0.6,0.5-1.1,0.8-1.7C25.4,29.5,24.9,29.3,24.4,29.2z M28.9,26.7c0,0.4,0.2,0.4,0.5,0.3
		c3.7-1,7.5-2,11.2-3c0.3-0.1,0.5-0.2,0.3-0.5c-0.1-0.1,0-0.3-0.2-0.4c-0.3-1.6-0.8-3.1-1.2-4.7c-0.1-0.3-0.3-0.2-0.5-0.2
		c-3.7,1-7.4,2-11.1,3c-0.4,0.1-0.6,0.3-0.4,0.7C28,23.4,28.5,25.1,28.9,26.7z M31,6.9c-1.6,4.4-3.1,8.7-4.7,13.1
		c0.5-0.3,0.9-0.5,1.4-0.6c1.9-0.5,3.7-1,5.6-1.5c0.4-0.1,0.4-0.2,0.3-0.6c-0.5-2.1-1.1-4.2-1.6-6.3C31.8,9.6,31.4,8.3,31,6.9z
		 M43,23.3c0.6-0.2,1.1-0.3,1.7-0.5c0.2-0.1,0.1-0.2,0.1-0.3c-0.4-1.7-0.9-3.3-1.3-5c-0.1-0.3-0.3-0.5-0.6-0.4
		c-0.4,0.1-0.8,0.3-1.3,0.3c-0.3,0.1-0.3,0.2-0.2,0.4c0.5,1.7,0.9,3.4,1.4,5.1C42.7,23.2,42.7,23.3,43,23.3z M40.9,30.3
		c-0.2-0.9-0.5-1.9-0.8-2.9c-0.4-1.4-0.4-1.4-1.8-1c0,0,0,0-0.1,0c-0.2,0-0.3,0.1-0.2,0.4c0.4,1.4,0.7,2.7,1.1,4
		c0.1,0.5,0.6,0.7,1.1,0.6C40.7,31.3,40.9,30.9,40.9,30.3z M29.2,4.7c-1.1,0-2,0-2.9,0c-0.2,0-0.4,0-0.6,0.1
		c-0.5,0.3-0.8,0.7-0.8,1.3c0,0.6,0.3,0.9,0.8,1.1c0.5,0.2,1,0.1,1.4-0.3C27.7,6.2,28.4,5.5,29.2,4.7z M33.2,4.7
		c0.7,0.8,1.4,1.4,2,2.1c0.5,0.6,1,0.7,1.7,0.3c0.5-0.3,0.8-0.8,0.7-1.3c-0.1-0.6-0.7-1.1-1.4-1.1C35.2,4.7,34.3,4.7,33.2,4.7z
		 M26.3,23.8c-0.2-0.7-0.3-1.4-0.6-2.2c-0.1,0.4-0.2,0.6-0.3,0.8c-0.4,1.1-0.4,1.1,0.8,1.4C26.2,23.9,26.3,23.9,26.3,23.8z"/>
	<path class="st1" d="M44.7,24.7c0.8-0.4,1.4-0.3,2.2,0.2c3,1.8,5,4.4,5.9,7.8c0.2,0.7,0.3,1.3,0.5,2c0.2,0.7,0.4,0.9,1.2,0.9
		c0.2,0.7,0.3,1.3,0.5,2c-0.7,0.4-0.8,0.6-0.6,1.3c0.3,1.2,0.6,2.3,0.9,3.5c1,3.9-1.1,7.5-5,8.6c-0.7,0.2-1.4,0.4-2.1,0.5
		c0.1-0.2,0.4-0.3,0.6-0.4c3.5-1.8,5.1-6.1,3.6-9.7c0.3-0.3,0.3-0.7,0.1-1.1c-0.2-0.7-0.6-1.3-0.9-1.9c-0.1-0.8-0.4-1.6-0.6-2.4
		c-0.7-2.4-1-4.8-2.3-7C47.7,27.2,46.4,25.8,44.7,24.7z"/>
	<path class="st2" d="M52.5,41.3c1.5,3.7-0.1,8-3.6,9.7c-0.2,0.1-0.4,0.2-0.6,0.4c-2.8,0.8-5.6,1.6-8.4,2.2
		c-3.3,0.7-6.8-1.6-7.8-4.8c-0.4-1.3-0.7-2.6-1.1-3.9c-0.1-0.4,0-0.5,0.3-0.6c1-0.2,2-0.5,3.1-0.8c1.6-0.5,2.6-1.5,2.9-3.1
		c0.1-0.2,0.1-0.4,0.4-0.5c2.7-0.7,5.3-1.5,8-2.1c2.2-0.5,4.3,0.7,5.1,2.8c0,0.1,0.1,0.1,0.1,0.2C51.3,41.5,51.8,41.7,52.5,41.3z"/>
	<path class="st2" d="M44.7,24.7c1.7,1.1,3,2.5,4,4.3c1.3,2.1,1.7,4.6,2.3,7c0.2,0.8,0.5,1.6,0.6,2.4c-1-1.2-2.3-2-3.9-2.3
		c-0.9-0.1-1.7-0.1-2.6,0.1c-2.4,0.7-4.9,1.3-7.3,2c-0.4,0.1-0.6,0-0.8-0.4c-0.9-1.8-2.8-2.7-4.7-2.2c-0.6,0.2-1.3,0.3-1.9,0.5
		c-0.5,0.2-0.8,0.6-0.6,1.1c0.1,0.5,0.6,0.8,1.1,0.6c0.6-0.1,1.2-0.3,1.7-0.5c1.4-0.3,2.6,0.4,2.9,1.7c0.4,1.3-0.3,2.4-1.7,2.8
		c-1.3,0.4-2.6,0.7-3.8,1c-0.4,0.1-0.7,0-1-0.1c-0.9-0.4-1.5-1.1-1.8-2c-0.4-1.5-0.9-3-1.1-4.5c-0.3-2.7,0.5-5.1,2.3-7
		c0.2-0.2,0.4-0.3,0.6-0.4c2.2-0.6,4.4-1.2,6.6-1.8c0.4-0.1,0.5,0,0.6,0.4c0.3,1.2,0.6,2.5,1,3.7c0.4,1.6,1.7,2.4,3.2,2
		c1.6-0.4,2.4-1.8,2-3.4c-0.3-1.3-0.7-2.5-1-3.8c-0.1-0.3-0.1-0.4,0.2-0.5C42.8,25.2,43.8,24.9,44.7,24.7z"/>
	<path class="st1" d="M40.9,30.3c0,0.6-0.2,1-0.7,1.1c-0.5,0.1-0.9-0.1-1.1-0.6c-0.4-1.3-0.7-2.7-1.1-4c-0.1-0.2,0-0.3,0.2-0.4
		c0,0,0,0,0.1,0c1.4-0.5,1.4-0.5,1.8,1C40.4,28.3,40.7,29.4,40.9,30.3z"/>
	<path class="st1" d="M23.8,60.4c0.1-0.1,0.1-0.1,0.2-0.1C24,60.5,23.9,60.5,23.8,60.4z"/>
</g>
</svg>
