<?xml version="1.0" encoding="utf-8"?>
<!-- Generator: Adobe Illustrator 26.3.0, SVG Export Plug-In . SVG Version: 6.00 Build 0)  -->
<svg version="1.1" id="Layer_1" xmlns="http://www.w3.org/2000/svg" xmlns:xlink="http://www.w3.org/1999/xlink" x="0px" y="0px"
	 viewBox="0 0 64 64" style="enable-background:new 0 0 64 64;" xml:space="preserve">
<style type="text/css">
	.st0{fill:#E7333E;}
	.st1{fill:#040404;}
</style>
<polygon class="st0" points="15.4,32 18.7,36 20.5,40.7 24,40.7 25.1,42.9 24.8,48.4 20.3,53.6 13.4,54.7 7.9,52.1 4.6,45.7 
	5.5,40.4 9.4,40.4 11,36.5 "/>
<g>
	<path class="st1" d="M62.6,54.9c-0.4,0.6-0.9,0.7-1.6,0.7c-0.4,0-0.5,0.1-0.5,0.4c0,0.8,0,1.6,0,2.4c0,0.8-0.4,1.2-1.2,1.2
		c-1.2,0-2.5,0-3.7,0c-0.5,0-0.9-0.2-1.1-0.7c-0.5-1-1-2-1.5-3c-0.1-0.3-0.3-0.4-0.6-0.4c-1.9,0-3.7,0-5.6,0c-0.4,0-0.5,0.1-0.5,0.5
		c0,0.8,0,1.6,0,2.4c0,0.8-0.4,1.1-1.2,1.2c-0.1,0-0.2,0-0.4,0c-12.5,0-24.9,0-37.4,0c-0.8,0-1.3-0.3-1.7-1
		c-0.4-0.9-0.9-1.8-1.3-2.7c-0.1-0.3-0.3-0.4-0.6-0.4c-0.6,0-1.1,0-1.7,0c-0.3,0-0.4-0.1-0.3-0.3c0,0,0,0,0-0.1
		c0-0.5-0.2-1.2,0.1-1.5c0.3-0.3,1-0.1,1.5-0.1c1.7,0,3.3,0,5,0c-0.1-0.3-0.3-0.3-0.4-0.4c-3.8-3-5.1-8.1-3.5-12.6
		c0.3-0.7,0.7-1.1,1.4-1.1c0.9,0,1.7,0,2.6,0.1c0.4,0.1,0.4,0,0.5-0.4c0.6-3.3,2.3-5.8,5.1-7.6c0.5-0.4,1-0.4,1.6,0
		c0.8,0.5,1.5,1.1,2.2,1.8c0.2-0.2,0.1-0.5,0.1-0.7c0-3.4,0-6.7,0-10.1c0-1.1,0.2-1.3,1.3-1.5c3.8-0.6,7.6-1.2,11.5-1.8
		c0.3,0,0.4-0.1,0.4-0.4c-0.1-0.4,0.3-0.9-0.4-1c-1.2-0.3-2.1-1-2.8-2c-1.1-1.7-1-3.4-0.5-5.2c0.7-2.4,2.2-4.5,3.9-6.3
		c0.5-0.5,1.1-0.6,1.6-0.1c2,2.1,3.6,4.4,4.2,7.3c0.6,3-0.7,5.3-3.6,6.3c-0.5,0.2-0.3,0.5-0.3,0.8c0,0.4,0.3,0.1,0.5,0.1
		c3.7-0.6,7.5-1.1,11.2-1.7c0.9-0.1,1.4,0.2,1.4,1.2c0,2.1,0,4.2,0,6.3c0,0.5,0.1,0.6,0.6,0.6c2.8,0,5.5,0,8.3,0
		c3.7,0,6.5,2.3,7.2,6c0,0,0.1,0.1,0.1,0.1c0,0.7,0,1.4,0,2.1c-0.2,0.1-0.2,0.4-0.2,0.6c-0.3,1.1-0.8,2-1.5,2.9
		c-0.5,0.6-1.1,1-1.7,1.5c1.2,0.8,2.1,1.8,2.7,3c0.3,0.6,0.4,1.4,0.7,2c0,0.7,0,1.4,0,2.1c-0.2,0-0.1,0.2-0.1,0.3
		c-0.2,1-0.7,2-1.3,2.9c-0.2,0.2-0.4,0.5-0.6,0.8c0.8,0,1.6-0.1,2.1,0.7C62.6,51.8,62.6,53.4,62.6,54.9z M12.2,53.1
		C12.2,53.1,12.2,53.1,12.2,53.1C12.2,53.1,12.2,53,12.2,53.1c-0.5-3-0.1-5.7,1.4-8.2c0.2-0.3,0.1-0.4-0.1-0.6
		c-1.8-1.8-4-2.7-6.6-2.8c-0.4,0-0.5,0.1-0.6,0.5c-0.7,2.7-0.4,5.3,1.2,7.7C8.6,51.3,10.2,52.5,12.2,53.1z M56.8,27.5
		c0,0-0.1,0-0.1,0C56.7,27.5,56.7,27.5,56.8,27.5c-0.1,0.1-0.1,0.2,0,0.2c2,3.3-0.3,7.8-4.7,7.7c-3.2-0.1-6.3,0-9.5,0
		c-0.4,0-0.8,0-1.2-0.2c-1.4-0.5-2.2-1.8-2-3.4c0.2-1.4,1.4-2.5,2.9-2.5c1.9,0,3.8,0,5.8,0c0.5,0,1.1-0.2,1.4,0.1
		c0.3,0.3,0,0.9,0.1,1.4c0.1,0.5-0.1,0.6-0.6,0.5c-2.1,0-4.3,0-6.4,0c-0.7,0-1.1,0.4-1.1,1c0,0.6,0.4,1,1.1,1c3.4,0,6.8,0,10.1,0
		c1.7,0,2.9-1.4,2.9-3c0-1.7-1.3-3-2.9-3c-3.8,0-7.6-0.1-11.4,0c-2.7,0-4.8,2.3-4.8,5c0,2.7,2.1,5,4.9,5.1c4.9,0.1,9.7,0.1,14.6,0
		c2.5,0,4.5-2,4.8-4.6C60.8,30.4,59.2,28.1,56.8,27.5z M36.3,37.4C36.3,37.4,36.3,37.3,36.3,37.4c-0.1-0.2-0.2-0.3-0.3-0.4
		c-1.9-2.2-2.4-4.7-1.2-7.4c1.1-2.7,3.2-4.1,6.1-4.4c1-0.1,2,0,3,0c0.4,0,0.5-0.1,0.5-0.5c0-1.6,0-3.3,0-4.9c0-0.5-0.2-0.5-0.5-0.4
		c-2.4,0.4-4.8,0.8-7.3,1.1c-5.3,0.8-10.7,1.6-16,2.5c-0.4,0.1-0.5,0.2-0.5,0.6c0,4.2,0,8.5,0,12.7c0,0.1,0,0.3,0.1,0.4
		c0.4,0.8,0.6,1.7,0.8,2.5c0.1,0.3,0.2,0.3,0.5,0.3c0.9-0.2,1.9-0.2,2.8-0.1c0.6,0.1,1,0.4,1.2,0.9c1.5,4,0.9,7.7-1.7,11.1
		c-0.6,0.8-1.3,1.4-2.2,2.1c0.3,0,0.5,0,0.7,0c1.6,0,3.2,0,4.7,0c1.3,0,1.2,0,1.3,1.3c0,0.6-0.2,0.9-0.8,0.7
		c-1.3-0.3-2.1,0.3-2.5,1.6c-0.1,0.4-0.1,0.5,0.3,0.5c1.9,0,3.8,0,5.8,0c1.2,0,1.2,0,1.2-1.2c0-0.8,0-0.8-0.8-0.8
		c-0.8,0-1.2-0.4-1.2-1.2c0-1.2,0-2.5,0-3.7c0-0.7,0.4-1.1,1.1-1.1c0.3,0,0.6,0,1,0C28.1,44.9,30.7,38.2,36.3,37.4z M54.5,39.4
		c1.2,1.8,1.3,3.6,0.3,5.4c-1,1.8-2.7,2.7-4.8,2.6c-3.2,0-6.3,0-9.5,0c-0.3,0-0.7,0-1-0.1c-1.5-0.4-2.5-1.7-2.3-3.3
		c0.1-1.5,1.4-2.6,2.9-2.6c1.9,0,3.8,0,5.6,0c0.5,0,1.1-0.2,1.4,0.1c0.3,0.3,0,0.9,0.1,1.4c0,0.4-0.1,0.5-0.5,0.5
		c-2.2,0-4.3,0-6.5,0c-0.7,0-1.1,0.4-1.1,1c0,0.6,0.4,1,1.1,1c3.4,0,6.8,0,10.1,0c1.6,0,2.9-1.4,2.9-3c0-1.7-1.3-3-2.9-3.1
		c-4.5,0-9,0-13.5,0c-2.7,0-4.8,2.3-4.8,5c0,2.7,2.1,5,4.8,5c1.5,0,3,0,4.5,0c4.7,0,9.5,0,14.2,0c2.6,0,4.7-2.2,4.8-4.9
		C60.7,41.8,58.3,39,54.5,39.4z M15.4,53.5c5.5-0.3,9.5-5.1,8.6-10.5c-0.3-2,0-1.8-2.1-1.5c-5.4,0.6-9,5.9-7.7,11.2
		C14.5,53.6,14.3,53.6,15.4,53.5z M46.4,51.5c-4.3,0-8.5,0-12.8,0c-1.4,0-1.3,0-1.4,1.4c0,0.5,0.1,0.7,0.7,0.7c8.8,0,17.5,0,26.3,0
		c0.5,0,1.1,0.2,1.4-0.1c0.2-0.3,0-0.9,0.1-1.3c0.1-0.5-0.1-0.6-0.6-0.6C55.4,51.5,50.9,51.5,46.4,51.5z M19,40c0-0.1,0-0.1,0-0.1
		c-0.4-2.5-1.6-4.6-3.7-6.1c-0.2-0.2-0.4-0.1-0.6,0c-2.1,1.6-3.3,3.6-3.7,6.2c0,0.3,0.1,0.4,0.3,0.4c1.3,0.6,2.5,1.3,3.5,2.3
		c0.2,0.2,0.3,0.2,0.5,0c1-1,2.1-1.8,3.4-2.4C18.9,40.3,19,40.2,19,40z M32.2,14.1c1,0,1,0,1,1.1c0,0.1,0,0.2,0,0.4
		c0,0.4,0.1,0.4,0.4,0.2c1-0.5,1.7-1.7,1.6-2.9c-0.2-2.4-1.4-4.3-2.8-6.1c-0.2-0.2-0.3-0.2-0.4,0c-1.2,1.5-2.3,3.2-2.7,5.1
		c-0.3,1.4-0.1,2.6,1.1,3.6c0.2,0.2,0.5,0.5,0.8,0.3c0.2-0.1,0.1-0.5,0.1-0.7C31.2,14.1,31.2,14.1,32.2,14.1z M6.6,55.6
		c0.3,0.6,0.6,1.2,0.9,1.7c0.1,0.2,0.3,0.3,0.5,0.3c4.7,0,9.5,0,14.2,0c0.2,0,0.3,0,0.4-0.2c0.3-0.6,0.6-1.2,0.9-1.8
		C17.8,55.6,12.2,55.6,6.6,55.6z M38.9,57.6c0.1,0,0.2,0,0.2,0c1.2,0,2.4,0,3.7,0c1.7,0,1.7,0,1.5-1.7c0-0.3-0.1-0.4-0.4-0.4
		c-1.2,0-2.5,0-3.7,0c-0.2,0-0.3,0-0.4,0.2C39.5,56.4,39.3,57,38.9,57.6z M55.1,55.6c0.3,0.7,0.6,1.2,0.9,1.8
		c0.1,0.1,0.1,0.2,0.2,0.3c0.7,0,1.6,0.2,2.2-0.1c0.4-0.2,0.1-1.1,0.1-1.6c0,0,0,0,0-0.1c0-0.2-0.1-0.2-0.3-0.2
		C57.3,55.6,56.2,55.6,55.1,55.6z M36,55.6c-0.4,0-0.9,0-1.3,0c-0.3,0-0.4,0-0.4,0.4c0,0.4,0,0.8,0,1.2c0,0.3,0.1,0.4,0.4,0.4
		c0.6,0,1.1,0,1.7,0c0.2,0,0.3,0,0.4-0.2c0.2-0.5,0.5-1,0.7-1.5c0.1-0.2,0.1-0.3-0.2-0.3C36.9,55.6,36.4,55.6,36,55.6z"/>
	<path class="st1" d="M24.1,29.3c0,1.2,0,2.4,0,3.6c0,0.4-0.1,0.5-0.5,0.5c-0.5-0.1-1.2,0.2-1.5-0.1c-0.3-0.3-0.1-0.9-0.1-1.4
		c0-2,0-4.1,0-6.1c0-0.4,0.1-0.5,0.5-0.5c0.5,0,1.1-0.2,1.4,0.1c0.3,0.3,0.1,0.9,0.1,1.4C24.2,27.6,24.1,28.5,24.1,29.3z"/>
	<path class="st1" d="M24.1,36.4c0,1,0,1-1,1c-1.1,0-1.1,0-1.1-1.1c0-1,0-1,0.9-1C24.1,35.4,24.1,35.4,24.1,36.4z"/>
</g>
</svg>
