<?xml version="1.0" encoding="utf-8"?>
<!-- Generator: Adobe Illustrator 26.3.0, SVG Export Plug-In . SVG Version: 6.00 Build 0)  -->
<svg version="1.1" id="Layer_1" xmlns="http://www.w3.org/2000/svg" xmlns:xlink="http://www.w3.org/1999/xlink" x="0px" y="0px"
	 viewBox="0 0 64 64" style="enable-background:new 0 0 64 64;" xml:space="preserve">
<style type="text/css">
	.st0{fill:#E7333E;}
</style>
<g>
	<polygon class="st0" points="37.8,12.2 40.4,7.9 46.1,8.8 47.9,12.2 47.9,38.4 52.9,38.4 52.9,9.6 49.1,4.2 44.1,2.7 40.5,2.7 
		37,5 33.7,9.2 33.7,12.7 37.6,12.8 	"/>
	<polygon class="st0" points="13,12 15.6,7.7 21.3,8.6 23.1,12 23.1,38.2 28.1,38.2 28.1,9.4 24.3,4 19.2,2.4 15.7,2.4 12.2,4.8 
		8.9,9 8.9,12.4 12.7,12.6 	"/>
	<path d="M2.5,12.1c0.3-0.6,0.9-0.8,1.6-0.8c1.1,0,2.3,0,3.4,0c0.4-2.9,1.7-5.4,4-7.2c1.8-1.5,4-2.3,6.4-2.4
		c5.5-0.2,10.6,4,11.1,9.6c1.2,0,2.4,0,3.6,0c0.4-3.2,1.9-5.8,4.6-7.7c2-1.4,4.2-2,6.6-1.9c4.9,0.2,9.5,4,10.2,9.6
		c0.7,0,1.5,0,2.3,0c1.2,0,2.3,0,3.5,0c0.8,0,1.4,0.4,1.4,1.1c0,0.7-0.5,1.2-1.3,1.2c-1.9,0-3.8,0-5.7,0c0,0.2,0,0.4,0,0.6
		c0,7.8,0,15.6,0,23.4c0,0.4,0.1,0.6,0.4,0.9c1.6,1.4,3.1,1.4,4.8,0.1c0.5-0.4,1.2-0.4,1.6,0c0.5,0.5,0.4,1.2-0.1,1.7
		c-2.1,2-5.4,2.1-7.6,0c-0.9-0.8-1.9-1.3-3.1-1c-0.6,0.1-1.2,0.4-1.6,0.8c-2.5,2.2-5.5,2.2-8,0c-1.4-1.3-3.2-1.3-4.6,0
		c-2.4,2.2-5.4,2.2-7.9,0c-1.5-1.3-3.2-1.3-4.7,0c-2.3,2.1-5.4,2.1-7.7,0c-1.6-1.4-3.3-1.4-4.8,0c-2.1,1.9-5.1,2.1-7.3,0.3
		c-0.3-0.2-0.6-0.6-0.8-0.8c0-0.2,0-0.5,0-0.7c0.6-1,1.2-1.1,2.1-0.4c1.4,1.1,3.1,1.1,4.5-0.1c2.5-2.2,5.4-2.2,7.9,0
		c1.5,1.3,3.3,1.3,4.7-0.1c0.3-0.3,0.4-0.5,0.4-0.9c0-7.8,0-15.6,0-23.4c0-0.2,0-0.4,0-0.6c-0.3,0-0.5,0-0.8,0c-5.8,0-11.5,0-17.3,0
		c-0.7,0-1.2-0.2-1.6-0.8C2.5,12.6,2.5,12.4,2.5,12.1z M29,31.5c1.3,0,2.5,0,3.8,0c0.7,0,1.1,0.3,1.2,0.9c0.2,0.8-0.4,1.4-1.2,1.4
		c-1.3,0-2.5,0-3.8,0c0,1.4,0,2.8,0,4.2c0,0.1,0.1,0.2,0.1,0.3c1.3,1.6,3.4,1.7,5,0.4c2.5-2.2,5.5-2.2,8,0c1.5,1.4,3.7,1.2,5-0.4
		c0.1-0.1,0.1-0.2,0.1-0.2c0-1.4,0-2.8,0-4.3c-0.2,0-0.4,0-0.6,0c-1.1,0-2.2,0-3.3,0c-0.7,0-1.2-0.5-1.2-1.1c0-0.7,0.5-1.1,1.2-1.1
		c0.8,0,1.6,0,2.4,0c0.5,0,1,0,1.5,0c0-0.8,0-1.5,0-2.3c-6,0-12.1,0-18.1,0C29,30,29,30.7,29,31.5z M9.9,11.3c0.6,0,1.2,0,1.8,0
		c0.4,0,0.5-0.1,0.6-0.5c1-3.6,4.8-5.5,8.3-4.1c2.4,1,3.8,3.2,3.8,6c0,7.9,0,15.7,0,23.6c0,0.2,0,0.5,0,0.7c0.8,0,1.5,0,2.3,0
		c0-0.2,0-0.4,0-0.6c0-7.9,0-15.8,0-23.7c0-0.6,0-1.2-0.1-1.8c-0.7-4.1-4.3-7-8.5-7C14,4.1,10.4,7.2,9.9,11.3z M51.7,37
		c0-0.1,0-0.3,0-0.5c0-8,0-16.1,0-24.1c0-3.7-2.4-7-5.9-8.1c-3.5-1.1-7.3,0.2-9.5,3.3c-0.8,1.1-1.3,2.3-1.4,3.6c0.8,0,1.5,0,2.3,0
		c0-0.2,0.1-0.3,0.1-0.5c0.9-3.2,4.2-5.1,7.5-4.3c2.8,0.7,4.7,3.1,4.7,6.2c0,7.9,0,15.8,0,23.7c0,0.2,0,0.4,0,0.6
		C50.2,37,51,37,51.7,37z M29,13.6c0,1.1,0,2.1,0,3.1c6.1,0,12.1,0,18.1,0c0-1.1,0-2.1,0-3.1C41.1,13.6,35.1,13.6,29,13.6z M29,26.9
		c6.1,0,12.1,0,18.1,0c0-1.1,0-2.1,0-3.1c-6.1,0-12.1,0-18.1,0C29,24.8,29,25.8,29,26.9z M29,21.4c6.1,0,12.1,0,18.1,0
		c0-0.8,0-1.5,0-2.2c-6.1,0-12.1,0-18.1,0C29,19.9,29,20.6,29,21.4z M14.6,11.3c1.3,0,2.5,0,3.7,0c1.2,0,2.4,0,3.6,0
		c-0.4-1.6-1.9-2.7-3.5-2.7C16.6,8.5,15.1,9.6,14.6,11.3z M46.9,11.3c-0.5-1.7-2.2-2.9-4-2.7c-1.6,0.1-3.1,1.4-3.3,2.7
		C42.1,11.3,44.5,11.3,46.9,11.3z"/>
	<path d="M2.5,48.3c0.7-1,1.2-1,2.2-0.3c1.3,1.1,3.1,1,4.5-0.2c1.9-1.7,4.3-2.1,6.4-1c0.5,0.3,1,0.6,1.4,1c1.5,1.3,3.2,1.3,4.6,0
		c2.5-2.2,5.4-2.2,7.9,0c1.4,1.3,3.2,1.2,4.7-0.1c2-1.8,4.7-2.1,6.8-0.7c0.3,0.2,0.6,0.4,0.9,0.7c1.6,1.4,3.3,1.4,4.9,0
		c1.8-1.6,4.2-2,6.3-0.9c0.5,0.3,1,0.6,1.4,1c1.5,1.3,3.1,1.3,4.6,0.1c0.6-0.5,1.3-0.5,1.7,0c0.5,0.5,0.4,1.2-0.2,1.7
		c-2.1,1.9-5.4,2-7.5,0c-1-0.9-2.1-1.4-3.4-1c-0.5,0.2-1,0.5-1.4,0.8c-2.5,2.2-5.4,2.2-7.9,0c-1.4-1.3-3.2-1.2-4.6,0
		c-2.4,2.2-5.5,2.2-7.9,0c-1.4-1.3-3.2-1.3-4.6,0c-2.4,2.2-5.4,2.2-7.8,0c-1.5-1.4-3.2-1.3-4.8,0.1c-2.2,2-5.3,2-7.5,0.1
		c-0.2-0.2-0.4-0.5-0.6-0.7C2.5,48.7,2.5,48.5,2.5,48.3z"/>
	<path d="M2.5,57.6c0.6-1,1.2-1.1,2.1-0.3c1.3,1.1,3.1,1.1,4.4-0.1c0.9-0.9,2-1.5,3.3-1.6c1.7-0.2,3.2,0.3,4.5,1.5
		c0.9,0.9,2,1.3,3.3,0.9c0.5-0.2,1.1-0.5,1.5-0.8c2.4-2.1,5.4-2.2,7.8,0c1.5,1.4,3.2,1.3,4.8,0c2.3-2.1,5.4-2.1,7.8,0
		c1.5,1.3,3.2,1.3,4.7,0c2.4-2.1,5.4-2.1,7.8,0c1.5,1.3,3.1,1.4,4.6,0.1c0.6-0.5,1.3-0.5,1.7,0c0.4,0.5,0.4,1.1-0.2,1.7
		c-0.9,0.8-1.9,1.2-3.1,1.5c-0.5,0-1,0-1.5,0c-1.3-0.3-2.5-1-3.5-1.9c-1.1-1-2.9-1-4,0c-1,0.9-2.2,1.6-3.5,1.9c-0.5,0-1,0-1.5,0
		c-1.4-0.3-2.5-1-3.5-1.9c-1.1-1-2.9-1-4,0c-1,0.9-2.2,1.6-3.5,1.9c-0.5,0-1.1,0-1.6,0c-1.4-0.3-2.5-1-3.5-1.9
		c-1.1-1-2.8-0.9-3.9,0.1c-1,0.9-2.2,1.6-3.5,1.9c-0.5,0-1,0-1.5,0c-1.3-0.3-2.5-1-3.5-1.9c-1.1-1-2.9-1-4,0c-1,0.9-2.2,1.6-3.5,1.9
		c-0.5,0-1,0-1.5,0c-0.1,0-0.2-0.1-0.4-0.1c-1.3-0.3-2.4-0.9-3.2-1.9C2.5,58,2.5,57.8,2.5,57.6z"/>
	<path d="M37,32.6c0-0.6,0.5-1.1,1.1-1.1c0.6,0,1.2,0.5,1.2,1.2c0,0.6-0.5,1.1-1.2,1.1C37.5,33.7,37,33.2,37,32.6z"/>
</g>
</svg>
