<?xml version="1.0" encoding="utf-8"?>
<!-- Generator: Adobe Illustrator 25.1.0, SVG Export Plug-In . SVG Version: 6.00 Build 0)  -->
<svg version="1.1" id="Layer_1" xmlns="http://www.w3.org/2000/svg" xmlns:xlink="http://www.w3.org/1999/xlink" x="0px" y="0px"
	 viewBox="0 0 256 256" style="enable-background:new 0 0 256 256;" xml:space="preserve">
<style type="text/css">
	.st0{fill:#282828;}
	.st1{fill:#F4CEAD;}
	.st2{fill:#3AC35A;}
	.st3{fill:#262827;}
</style>
<g>
	<path class="st0" d="M251.95,209.74c-1.13,1.39-0.92,3.16-1.3,4.75c-5.42,22.63-25.13,38.39-48.39,38.53
		c-11.67,0.07-23.34,0.17-35.01-0.02c-20-0.33-35.21-9.19-44.59-26.87c-14.47-27.27-28.55-54.76-42.66-82.22
		c-6.47-12.59,1.14-26.58,15.11-27.72c7.6-0.62,13.52,2.74,17.46,9.26c4.4,7.27,8.64,14.62,12.95,21.94
		c0.45,0.76,0.92,1.51,1.44,2.37c0.71-0.66,0.39-1.41,0.4-2.03c0.04-13.86,0-27.71,0.11-41.57c0.02-1.99-0.42-2.54-2.48-2.54
		c-23.9,0.08-47.81,0.2-71.72,0C34.4,103.45,19.61,95.3,9.91,79.1C-8.28,48.73,10.35,9.98,45.51,4.51c0.43-0.07,1.01,0.16,1.2-0.5
		c34.37,0,68.74,0,103.11,0c0.12,0.54,0.57,0.44,0.95,0.49c24.75,2.94,44.23,25.63,43.08,50.55c-0.9,19.45-10.13,33.88-27.31,43.11
		c-1.38,0.74-1.75,1.51-1.73,2.96c0.07,7.94,0.03,15.87,0.03,23.81c0,0.7,0,1.39,0,2.32c0.56-0.22,0.85-0.31,1.12-0.44
		c9.4-4.6,18.18-2.61,24.48,5.71c0.93,1.23,1.35,0.74,2.18,0.11c9.9-7.45,22.83-4.48,28.3,6.55c0.73,1.47,1.16,1.35,2.39,0.6
		c11.05-6.76,24.77-1.18,28.11,11.37c0.11,0.43-0.12,1.01,0.53,1.2c0,4.86,0,9.73,0,14.59c-0.83,1.87-2.22,2.98-4.3,3.14
		c-3.15-0.9-3.96-1.94-3.98-5.14c-0.02-3.16,0.07-6.32-0.03-9.48c-0.25-7.73-8.12-12.65-14.88-9.28c-3.82,1.91-5.6,5.18-5.93,9.38
		c-0.21,2.57-1.95,4.16-4.22,4.08c-2.24-0.08-3.87-1.83-4.04-4.35c-0.04-0.56-0.01-1.13-0.01-1.7c-0.01-2.27,0.06-4.54-0.03-6.81
		c-0.2-5.31-4.56-9.71-9.79-9.96c-5.41-0.26-10.11,3.74-10.76,9.14c-0.07,0.56-0.1,1.13-0.2,1.69c-0.44,2.3-2.04,3.72-4.13,3.69
		c-2.17-0.03-3.86-1.62-4.08-4.03c-0.21-2.33,0.2-4.72-0.44-7.01c-1.37-4.92-5.95-8-11.08-7.51c-4.92,0.47-8.74,4.4-9.18,9.45
		c-0.27,3.01-1.34,4.49-3.51,4.82c-2.97,0.46-4.82-1.46-4.82-5.09c-0.01-20.74,0-41.49-0.01-62.23c0-6.4,0.06-12.8-0.02-19.2
		c-0.09-6.63-5.1-11.31-11.4-10.8c-5.55,0.45-9.38,5.04-9.38,11.31c-0.03,34.2-0.05,68.39-0.07,102.59c0,0.81,0.06,1.63-0.06,2.43
		c-0.27,1.85-1.32,3.14-3.15,3.62c-1.85,0.48-3.35-0.22-4.43-1.75c-0.56-0.79-1.02-1.65-1.51-2.49
		c-6.94-11.78-13.9-23.55-20.82-35.36c-1.32-2.25-3.05-3.97-5.47-4.95c-3.89-1.57-8.55-0.53-11.4,2.49
		c-3.07,3.26-3.76,7.91-1.61,12.18c3.28,6.5,6.69,12.93,10.04,19.4c10.83,20.9,21.6,41.83,32.51,62.69
		c6.87,13.14,17.75,20.69,32.51,22.53c5.65,0.71,11.33,0.34,17,0.29c9.47-0.09,18.97,0.6,28.42-0.41
		c17.89-1.91,33.53-17.52,35.54-35.39c0.94-8.32,0.26-16.68,0.44-25.01c0.08-3.65,0.59-4.48,3.95-5.75c1.93,0.25,3.29,1.34,4.35,2.9
		C251.95,190.61,251.95,200.17,251.95,209.74z M165.2,89.43c4.09-2.43,7.6-5.43,10.68-9c13.42-15.55,12.88-39.94-1.27-54.83
		c-8.43-8.87-18.8-13.28-30.99-13.3c-29.99-0.04-59.98-0.02-89.97-0.01c-2.02,0-4.03,0.13-6.05,0.38
		c-23.3,2.8-39.83,24.97-35.81,48.11C15.23,80.6,32.41,95.27,52.6,95.35c24.15,0.11,48.31,0,72.46,0.07
		c1.97,0.01,2.42-0.59,2.41-2.47c-0.08-10.94-0.02-21.88-0.03-32.83c0-3.57,0.94-6.9,2.82-9.91c4.4-7.09,13-10.43,20.89-8.19
		c7.93,2.25,13.61,9.66,13.69,18.1c0.08,8.92,0.02,17.83,0.04,26.75C164.87,87.65,164.64,88.47,165.2,89.43z"/>
	<path class="st1" d="M247.65,170.08c-0.02,2.69-0.03,5.38-0.05,8.06c-3.36,1.26-3.87,2.09-3.95,5.75
		c-0.18,8.34,0.5,16.69-0.44,25.01c-2.01,17.86-17.65,33.48-35.54,35.39c-9.45,1.01-18.94,0.32-28.42,0.41
		c-5.66,0.05-11.35,0.42-17-0.29c-14.75-1.84-25.64-9.39-32.51-22.53c-10.91-20.86-21.68-41.79-32.51-62.69
		c-3.35-6.46-6.76-12.9-10.04-19.4c-2.16-4.27-1.46-8.92,1.61-12.18c2.85-3.02,7.52-4.06,11.4-2.49c2.42,0.98,4.15,2.7,5.47,4.95
		c6.91,11.8,13.87,23.57,20.82,35.36c0.49,0.84,0.95,1.7,1.51,2.49c1.08,1.53,2.58,2.23,4.43,1.75c1.83-0.48,2.88-1.76,3.15-3.62
		c0.12-0.79,0.06-1.62,0.06-2.43c0.03-34.2,0.04-68.39,0.07-102.59c0.01-6.27,3.84-10.87,9.38-11.31c6.3-0.51,11.31,4.17,11.4,10.8
		c0.08,6.4,0.02,12.8,0.02,19.2c0,20.74,0,41.49,0.01,62.23c0,3.63,1.85,5.55,4.82,5.09c2.17-0.34,3.24-1.81,3.51-4.82
		c0.44-5.05,4.26-8.98,9.18-9.45c5.13-0.49,9.71,2.59,11.08,7.51c0.64,2.3,0.22,4.68,0.44,7.01c0.22,2.4,1.91,4,4.08,4.03
		c2.09,0.03,3.7-1.39,4.13-3.69c0.11-0.56,0.14-1.12,0.2-1.69c0.64-5.4,5.35-9.4,10.76-9.14c5.23,0.25,9.58,4.64,9.79,9.96
		c0.09,2.27,0.03,4.54,0.03,6.81c0,0.57-0.03,1.14,0.01,1.7c0.16,2.52,1.8,4.27,4.04,4.35c2.27,0.08,4.02-1.51,4.22-4.08
		c0.34-4.2,2.11-7.47,5.93-9.38c6.76-3.37,14.63,1.54,14.88,9.28c0.1,3.16,0.01,6.32,0.03,9.48
		C243.69,168.14,244.5,169.18,247.65,170.08z"/>
	<path class="st2" d="M165.2,89.43c-0.55-0.96-0.33-1.78-0.33-2.55c-0.02-8.92,0.05-17.83-0.04-26.75
		c-0.08-8.43-5.76-15.84-13.69-18.1c-7.89-2.24-16.49,1.1-20.89,8.19c-1.87,3.02-2.82,6.34-2.82,9.91c0,10.94-0.05,21.88,0.03,32.83
		c0.01,1.87-0.44,2.47-2.41,2.47c-24.15-0.07-48.31,0.03-72.46-0.07C32.41,95.27,15.23,80.6,11.79,60.78
		C7.77,37.64,24.3,15.47,47.6,12.67c2.02-0.24,4.03-0.38,6.05-0.38c29.99,0,59.98-0.03,89.97,0.01c12.19,0.02,22.57,4.42,30.99,13.3
		c14.14,14.89,14.69,39.29,1.27,54.83C172.8,84,169.29,87,165.2,89.43z M119.15,37.03c-0.2-1.48-0.83-2.96-2.53-3.6
		c-1.72-0.65-3.38-0.4-4.67,1.01c-0.76,0.83-1.38,1.79-2.06,2.7c-6.36,8.48-12.73,16.94-19.04,25.45c-0.91,1.22-1.54,1.42-2.57,0.2
		c-0.94-1.11-2.03-2.09-3.08-3.1c-2.11-2.03-4.49-2.22-6.22-0.52c-1.75,1.72-1.59,4.36,0.46,6.45c2.38,2.43,4.78,4.83,7.21,7.21
		c2.54,2.49,5.03,2.38,7.19-0.48c8.09-10.72,16.11-21.48,24.16-32.23C118.62,39.26,119.15,38.37,119.15,37.03z"/>
	<path class="st3" d="M119.15,37.03c0,1.34-0.53,2.23-1.17,3.09c-8.05,10.75-16.07,21.51-24.16,32.23
		c-2.15,2.86-4.65,2.97-7.19,0.48c-2.43-2.38-4.83-4.79-7.21-7.21c-2.05-2.09-2.21-4.73-0.46-6.45c1.73-1.7,4.11-1.52,6.22,0.52
		c1.05,1.01,2.14,2,3.08,3.1c1.03,1.22,1.67,1.02,2.57-0.2c6.31-8.51,12.69-16.97,19.04-25.45c0.68-0.91,1.3-1.87,2.06-2.7
		c1.29-1.41,2.95-1.66,4.67-1.01C118.32,34.07,118.95,35.55,119.15,37.03z"/>
</g>
</svg>
