<?xml version="1.0" encoding="utf-8"?>
<!-- Generator: Adobe Illustrator 25.1.0, SVG Export Plug-In . SVG Version: 6.00 Build 0)  -->
<svg version="1.1" id="Layer_1" xmlns="http://www.w3.org/2000/svg" xmlns:xlink="http://www.w3.org/1999/xlink" x="0px" y="0px"
	 viewBox="0 0 256 256" style="enable-background:new 0 0 256 256;" xml:space="preserve">
<style type="text/css">
	.st0{fill:#333275;}
	.st1{fill:#67493F;}
	.st2{fill:#FCAA8A;}
	.st3{fill:#FC555F;}
	.st4{fill:#FDFCFC;}
	.st5{fill:#FDB07F;}
	.st6{fill:#FDCFB9;}
	.st7{fill:#FBCEB8;}
	.st8{fill:#F28D67;}
	.st9{fill:#775348;}
	.st10{fill:#FCF7F5;}
	.st11{fill:#FCDBDB;}
	.st12{fill:#1C1E51;}
	.st13{fill:#FDF6F9;}
	.st14{font-family:'ChunkFive-Roman';}
	.st15{font-size:26.9206px;}
</style>
<g>
	<path class="st0" d="M112.13,159.1c-0.02-2.03-0.03-4.05-0.05-6.08c0.04-0.3,0.08-0.6,0.12-0.9c1.59,0.38,3.19,0.71,4.76,1.14
		c6.96,1.92,13.97,2.42,21.13,1.17c3.74-0.65,7.41-1.6,11.14-2.26c0.08,7.68-0.41,15.32-1.16,22.97
		c-0.85,8.71-2.64,17.24-4.29,25.81c-0.45,2.35-0.33,4.82-0.47,7.23c-0.02,0.63-0.04,1.26-0.06,1.89c-0.19,2.21-0.35,4.43-0.28,6.66
		c-0.28,5.52-0.31,11.05,0.1,16.56c-0.09,0.71-0.63,0.66-1.15,0.69c-1.01,0.08-2.04-0.17-3.04,0.16c-1.26,0.05-0.86-1.01-0.96-1.59
		c-0.81-4.53-1.56-9.07-2.33-13.61c-0.45-2.88-1.35-5.68-1.27-8.66c0.08-3.03-0.13-6.09,1.33-8.9c0.19-0.36,0.18-0.72,0.06-1.07
		c-0.6-1.72-0.58-3.56-0.94-5.33c-0.7-3.41-0.9-6.92-1.38-10.38c-0.47-3.39-1.01-6.77-1.55-10.15c-0.09-0.59,0.2-1.44-0.92-1.51
		c-0.95-0.06-1.37,0.3-1.73,1.17c-2.06,5.05-4.19,10.07-6.3,15.11c-1.37,3.27-2.67,6.57-4.13,9.8c-0.44,0.97-0.49,1.62,0.38,2.25
		c0.21,0.32,0.42,0.64,0.62,0.96c0.42,1.29,1.19,2.46,1.32,3.85c0.43,4.29,0.87,8.58,1.3,12.87c0.02,0.31,0.04,0.61,0.07,0.92
		c-0.07,0.55,0,1.09,0.19,1.61c0.22,3.04,0.44,6.09,0.66,9.13c0.05,0.63,0.21,1.3-0.69,1.47c-1.22,0.3-2.45,0.61-3.67,0.91
		c-0.75-0.46-0.54-1.29-0.67-1.95c-0.91-4.4-1.94-8.76-3.28-13.05c-0.87-2.95-1.74-5.91-2.6-8.86c-0.18-0.8-0.34-1.61-0.79-2.32
		c-1.66-3.93-2.34-8.02-2-12.27c0-0.31,0.01-0.61,0.01-0.92c0.05-1.73,0.09-3.46,0.09-5.19c-0.01-2.53,0.31-5.05,0.58-7.57
		c0.14-1.37,0.39-2.74,0.39-4.15c0-1.36,0.41-2.72,0.51-4.09c0.12-1.64,0.42-3.23,0.77-4.83c0.48-2.25,0.49-4.53,0.22-6.81
		C112.15,160.35,112.14,159.73,112.13,159.1z M137.86,203.74c1.11,0.56,1.02-0.22,0.9-0.87c-0.17-0.88-0.86-1.57-0.94-2.5
		c-0.03-0.31-0.21-0.67-0.6-0.58c-0.42,0.1-0.31,0.49-0.25,0.79C137.18,201.67,137.99,202.58,137.86,203.74
		c-0.56,0.01-1.11,0.07-0.8,0.86c0.14,0.37,0.31,0.99,0.73,0.87c0.83-0.25,0.03-0.83,0.09-1.27
		C137.9,204.06,137.87,203.9,137.86,203.74z M129.03,161.44c0.22,0.98-0.13,2.47-0.47,3.86c-0.41,1.61,0.1,2.26,1.52,2.57
		c0.35,0.08,0.77,0.68,1.04,0.01c0.2-0.49-0.26-0.76-0.66-0.91c-0.89-0.33-1.11-0.83-0.88-1.81c0.58-2.48,0.44-5,0.05-7.5
		c-0.06-0.41-0.05-1-0.6-0.91c-0.56,0.09-0.38,0.71-0.27,1.05C129.12,158.83,128.94,159.88,129.03,161.44z M114.28,157.96
		c2,0.32,3.63,0.26,5.25-0.21c0.42-0.12,0.73-0.44,0.85-0.87c0.1-0.35,0.2-0.8-0.11-1.05c-0.4-0.33-0.67,0.12-0.89,0.37
		c-0.73,0.82-1.66,1.05-2.71,0.99C115.93,157.14,115.22,157.27,114.28,157.96z M146.99,157.9c-2.19-0.9-4.1-1.12-5.94-1.6
		c-0.28-0.08-0.54,0.03-0.58,0.36c-0.06,0.45,0.21,0.74,0.6,0.78c0.73,0.08,1.46,0.16,2.16,0.42
		C144.33,158.26,145.43,158.22,146.99,157.9z M115.26,203.51c1.4-0.93,1.09-2.22,1.24-3.34
		C115.38,201.2,115.25,201.56,115.26,203.51z M139.18,230.52c0.9,0.17,1.64,0.36,2.34-0.1c0.07-0.05,0.08-0.36,0.02-0.41
		c-0.69-0.5-1.34,0.17-2.03,0.11C139.45,230.11,139.39,230.25,139.18,230.52z M117.04,201.72c-0.07,0.82-0.14,1.64-0.2,2.46
		C117.7,203.45,117.73,202.62,117.04,201.72z M139.49,231.99c1.61,0.35,1.61,0.35,2.66-0.2
		C141.21,231.03,140.49,231.65,139.49,231.99z M122.4,229.86c-1.15-0.12-1.97-0.4-2.94,0.33
		C120.52,230.38,121.33,230.55,122.4,229.86z"/>
	<path class="st1" d="M123.31,235.1c0.29,0.87,1.27,1.81-0.65,2.17c-2.48,0.46-4.9,1.21-7.35,1.81c-0.49,0.12-0.97,0.42-1.65,0.16
		c1.22-1.76,3.71-1.88,4.66-3.81c0.34-0.43,0.68-0.85,1.02-1.28c1.11,0,2.24,0.5,3.34-0.08
		C122.88,234.43,123.09,234.77,123.31,235.1z"/>
	<path class="st1" d="M142.95,235.42c1.56,2.11,4.24,2.06,6.29,3.54c-2.42,0-4.83,0-7.25-0.01c-0.14,0-0.32-0.24-0.41-0.2
		c-0.9,0.36-2.07,0.64-2.62,0c-0.51-0.58,0.28-1.67,0.32-2.56c1.18-0.09,2.27-0.5,3.34-0.96
		C142.73,235.3,142.84,235.36,142.95,235.42z"/>
	<path class="st2" d="M142.62,235.24c-1.07,0.46-2.16,0.86-3.34,0.96c-0.06-0.37-0.11-0.73-0.17-1.1c0.02-0.34,0.08-0.68-0.22-0.94
		c1-0.33,2.03-0.08,3.04-0.16c0.52-0.04,1.05,0.01,1.15-0.69C143.64,234.11,142.05,234.42,142.62,235.24z"/>
	<path class="st2" d="M122.67,234.09c-1.1,0.58-2.22,0.08-3.34,0.08c-0.02-0.42-0.1-0.83-0.38-1.17c1.23-0.3,2.45-0.61,3.67-0.91
		C122.64,232.75,122.66,233.42,122.67,234.09z"/>
	<path class="st3" d="M146.77,50.81"/>
	<path class="st4" d="M57.04,94.38c0,0-0.15,0.02-0.14,0.02c0.01-0.19,0.02-0.39,0.03-0.59C57.13,93.97,57.07,94.18,57.04,94.38z"/>
	<path class="st5" d="M106.29,126.76c1.42,0.66,2.73,1.57,4.28,1.9c0.34,0.07,0.8,0.13,0.9-0.37c0.09-0.42-0.28-0.45-0.59-0.56
		c-5.71-2.07-9.03-6.23-10.58-11.99c-0.13-0.49,0.19-1.47-0.57-1.42c-0.81,0.06-0.39,1.04-0.57,1.6c-0.02,0.07-0.15,0.11-0.27,0.19
		c-0.33-0.31-0.66-0.65-1.01-0.95c-0.3-0.25-0.6-0.87-1-0.52c-0.49,0.43-0.11,0.96,0.28,1.36c0.73,0.76,1.55,1.45,2.17,2.29
		c0.22,0.3,1.22,0.7,0.3,1.36c-1.57,0.4-2.96-0.41-4.41-0.7c-1.64-0.32-3.31-0.68-4.85-1.41c2.98-3.57,4.61-7.73,5.32-12.27
		c0.17-1.08,0.04-2.21,0.04-3.32c0-0.32-0.01-0.7-0.42-0.73c-0.55-0.04-0.49,0.43-0.52,0.78c-0.02,0.32,0,0.63-0.01,0.95
		c-0.16,4.52-1.46,8.68-3.96,12.45c-0.22,0.33-0.31,0.82-1.22,0.73c2.6-6.03,3.84-12.28,3.9-18.76c0.15,0.04,0.3,0.09,0.45,0.13
		c0.38,0.37-0.07,1.19,0.62,1.31c0.66,0.12,0.96-0.54,1.34-0.95c1.36-1.42,2.93-2.49,4.8-3.12c3.59-1.21,6.77-0.32,9.74,1.82
		c1.57,1.14,1.81,1.05,2-0.67c3.38-0.68,6.79-1.1,10.22-1.44c-0.4,0.82-1.1,1.26-1.96,1.45c-0.97,0.23-0.91,0.6-0.29,1.24
		c2.72,2.82,6.07,4.36,9.93,4.55c4.12,0.2,7.67-1.41,10.78-4.05c0.86-0.73,0.27-1.19-0.36-1.56c-0.68-0.4-1.51-0.63-1.33-1.69
		c3.44,0.16,6.77,1.09,10.18,1.52c-0.14,1.02-0.85,1.8-1.16,2.75c-0.16,0.48-0.43,1.16,0.25,1.36c0.68,0.2,0.66-0.6,0.75-0.97
		c0.48-1.92,1.65-3.16,3.39-4.07c4.24-2.22,9.99,0.46,12.75,2.67c0.47,0.37,0.5,0.86,0.35,1.43c-1.03,3.98-0.79,7.9,0.57,11.76
		c0.3,0.84,0.72,1.63,1.13,2.42c0.11,0.21,0.35,0.45,0.64,0.35c0.4-0.14,0.32-0.52,0.23-0.8c-0.1-0.35-0.3-0.67-0.44-1.01
		c-1-2.44-1.78-4.9-1.76-7.62c0.02-2.25,0.61-4.36,1.01-6.52c0.14-0.28,0.38-0.31,0.65-0.29c0.12,5.1,0.89,10.07,2.65,14.9
		c0.57,1.56,1.71,2.91,1.77,4.66c-3.57,1.51-7.38,2.14-11.11,3.08c0.61-0.97,1.25-1.92,1.82-2.91c0.21-0.37,0.67-0.86,0.18-1.27
		c-0.56-0.47-0.8,0.43-1.26,0.48c-0.27-0.46,0.24-1.29-0.43-1.38c-0.73-0.1-0.55,0.74-0.68,1.2c-0.43,1.51-0.81,3.05-1.69,4.38
		c-3.09,4.64-7.17,7.58-12.98,7.54c-0.5,0-1.25-0.11-1.23,0.61c0.03,0.83,0.85,0.7,1.36,0.6c1.7-0.31,3.41-0.5,5.08-1.01
		c1.31-0.39,2.36-1.39,3.77-1.49c0.11,0.02,0.21,0.04,0.32,0.06c-0.13,1.13-0.29,2.27-0.18,3.41c-0.01,0.11-0.01,0.22-0.02,0.33
		c-0.47,5.02-1.34,9.96-3.15,14.69c-0.24,0.63-0.35,1.31-0.52,1.97c-0.51,0.73-1.69,1.3-0.58,2.42c0.03,0.29,0.06,0.58,0.09,0.87
		c-0.25,0.14-0.33,0.37-0.31,0.64c-0.11,0.12-0.22,0.24-0.33,0.37c-0.11,0.08-0.23,0.16-0.34,0.24c-0.33,0.13-0.66,0.26-0.98,0.4
		c-3.73,0.65-7.4,1.6-11.14,2.26c-7.16,1.25-14.17,0.74-21.13-1.17c-1.57-0.43-3.17-0.76-4.76-1.14c-0.21,0-0.42,0.01-0.64,0.01
		c-1.57-1.4-1.66-1.84-0.63-2.86c0.05,0.45,0.38,0.52,0.75,0.66c2.48,0.88,5,1.59,7.59,2.05c6.32,1.15,12.63,1.26,18.88-0.44
		c0.36-0.1,1.01,0.02,0.85-0.63c-0.13-0.57-0.66-0.37-1.06-0.26c-3.99,1.19-8.09,1.17-12.19,1.14c-2.5-0.02-4.68-0.99-6.78-2.22
		c-1.6-0.94-3.06-2.04-4.33-3.39c-0.25-0.27-0.62-0.59-0.94-0.24c-0.38,0.4,0.11,0.67,0.35,0.88c0.92,0.86,1.66,1.91,2.79,2.55
		c0.37,0.21,1.09,0.32,0.83,0.91c-0.21,0.47-0.86,0.24-1.3,0.17c-0.46-0.07-0.9-0.3-1.35-0.42c-1.37-0.35-2.62-1.14-4.09-1.1
		c-0.86-0.52-0.92-1.49-1.23-2.29c-1.96-5.07-3.35-10.28-3.5-15.75 M113.21,119.97c0,1.95,0.07,3.91-0.02,5.85
		c-0.1,2.21,0.57,4.13,1.81,5.91c3.06,4.39,7.5,6.98,12.13,9.32c0.51,0.26,0.99,0.22,1.51-0.03c3.82-1.84,7.41-4.04,10.37-7.12
		c1.88-1.96,3.44-4.21,3.5-7.06c0.09-4.75,0.01-9.49,0.04-14.24c0-0.83-0.29-1.23-1.1-1.44c-1.93-0.5-3.87-0.94-5.85-1.27
		c-7.14-1.17-14.16-0.62-21.13,1.14c-1,0.25-1.32,0.79-1.29,1.82C113.26,115.22,113.21,117.59,113.21,119.97z M130.42,103.69
		c2.12-0.15,4.29-0.54,6.37-1.32c0.45-0.17,1.24-0.25,0.93-0.96c-0.26-0.6-0.89-0.14-1.25,0.04c-1.89,0.98-3.99,1.18-5.98,1.15
		c-4.61-0.07-8.53-1.92-11.5-5.57c-0.25-0.31-0.55-0.8-1.02-0.46c-0.66,0.5,0.05,0.84,0.29,1.13
		C121.42,101.42,125.48,103.35,130.42,103.69z M144.54,150.86c0.57-0.16,1.27-0.34,1.96-0.56c0.3-0.1,0.58-0.31,0.44-0.7
		c-0.13-0.37-0.49-0.37-0.79-0.28c-0.65,0.18-1.29,0.4-1.92,0.62c-0.3,0.1-0.62,0.26-0.49,0.65
		C143.84,150.9,144.16,150.83,144.54,150.86z"/>
	<path class="st6" d="M83.08,76.1c0.45-0.02,0.76-0.24,0.93-0.66c0.4,0,0.62-0.21,0.67-0.6c0.05-0.02,0.11-0.04,0.14-0.07
		c2.36-2.3,5.28-2.39,8.3-2.19c1.31,0.09,2.63,0.01,3.95,0.02c0.47,0,0.96-0.02,1.34,0.35c1.32,1.3,0.71,2.85,0.51,4.32
		c-0.14,1.05-0.92,1.75-1.81,1.99c-0.92,0.25-1.65-0.38-2-1.3c0.17-0.32,0.27-0.68,0.64-0.86c0.6-0.28,1.29,1.18,1.7,0.06
		c0.3-0.83-0.99-0.74-1.31-1.33c-0.02-0.05-0.04-0.1-0.05-0.15c-0.12-0.43-0.04-1.08-0.72-1.02c-0.62,0.06-0.5,0.68-0.6,1.13
		c-0.44,1.88-1.96,2.4-3.41,1.13c-0.47-0.41-0.79-0.97-1.21-1.44c-0.27-0.3-0.54-0.77-1.03-0.43c-0.51,0.36-0.16,0.71,0.12,1.05
		c0.49,0.61,0.95,1.25,1.43,1.87c-2.36,4.86-4.79,9.7-6.62,14.8c-0.42,1.17-0.5,1.77,0.98,2.12c2.56,0.59,5.06,1.44,7.58,2.17
		c-0.43,0.55-0.33,1.2-0.32,1.82c0.05,2.05-0.19,4.08-0.5,6.11c-0.63,4.18-2.01,8.12-3.69,11.98c-3.38-0.98-6.58-2.43-9.79-3.84
		c-4.45-1.95-8.4-4.7-12.14-7.76c-1.96-1.6-3.72-3.39-5.46-5.22c-0.92-0.97-0.23-1.68,0.3-2.34c2.42-3.02,4.98-5.92,7.66-8.7
		c3.32-3.44,6.88-6.63,10.46-9.79c0.92-0.82,1.79-1.79,2.98-2.3C82.72,77.01,83,76.67,83.08,76.1z M83.32,94.73
		c0-0.52-0.37-0.63-0.75-0.53c-1.66,0.44-3.33,0.89-4.64,2.11c-0.22,0.2-0.57,0.45-0.37,0.78c0.23,0.37,0.69,0.3,0.98,0.07
		c1.2-0.92,2.63-1.26,4.01-1.74C82.91,95.3,83.24,95.17,83.32,94.73z"/>
	<path class="st6" d="M166.75,78.12c-3.03,1.72-4.19,1-4.19-2.58c0-2.47,0.44-2.92,2.95-2.94c1.95-0.01,3.91,0.12,5.85-0.05
		c1.72-0.15,3.06,0.47,4.32,1.45c6.97,5.42,13.68,11.14,19.67,17.65c1.95,2.12,3.76,4.38,5.63,6.59c0.51,0.6,0.56,1.13-0.02,1.79
		c-2.25,2.59-4.71,4.9-7.49,6.93c-6.04,4.38-12.7,7.45-19.78,9.69c-2.79-5.93-4.7-12.07-4.5-18.72c0.02-0.66-0.24-0.99-0.92-0.94
		c3.24-0.35,6.21-1.85,9.45-2.22c1.88,1.15,3.74,2.34,5.95,2.78c0.41,0.08,0.98,0.27,1.15-0.14c0.27-0.64-0.44-0.82-0.82-0.89
		c-2-0.4-3.7-1.39-5.35-2.52c-0.19-0.13-0.51-0.07-0.76-0.1c-1.95-5.48-4.25-10.8-7.1-15.88c0.47-0.21,0.63-0.69,0.9-1.06
		c0.42-0.58,1.61-1.23,0.74-1.87c-0.89-0.66-1.13,0.74-1.55,1.27c-0.64,0.8-1.49,1.26-2.38,1.21c-0.95-0.05-1.49-0.81-1.61-1.85
		c-0.05-0.39-0.06-1.08-0.68-1.1c-0.6-0.02-0.4,0.62-0.56,0.97c-0.22,0.48-0.72,0.58-1.11,0.82c-0.32,0.19-0.72,0.36-0.54,0.82
		c0.2,0.48,0.65,0.55,1.05,0.3C165.91,76.97,166.4,77.31,166.75,78.12z"/>
	<path class="st7" d="M123.06,91.34c-1.54-0.75-3.29-0.69-4.89-1.49c-2.05-1.03-3.28-2.53-3.62-4.59c-0.29-1.72-0.36-3.55,0.22-5.31
		c0.51-1.54,0.35-3.22,0.91-4.76c0.15-0.41,0.22-0.8,0.64-1c0.28,0.14,0.57,0.28,0.85,0.42c0.39,0.2,0.79,0.83,1.2,0.27
		c0.42-0.57-0.26-0.9-0.6-1.27c-0.45-0.5-0.94-0.33-1.43-0.06c-0.45-1.08,0.02-1.97,0.57-2.84c0,1.15,0.32,2.09,1.61,2.32
		c1.03,0.18,1.7-0.36,2.13-1.22c0.19-0.38,0.69-0.9,0.12-1.23c-0.62-0.36-0.73,0.37-0.94,0.74c-0.29,0.5-0.65,0.84-1.26,0.68
		c-0.56-0.14-0.72-0.58-0.64-1.09c0.13-0.85-0.39-0.81-0.95-0.75c-0.19-0.45-0.46-0.89-0.28-1.41c0.78-1.13,1.56-2.22,3.21-1.86
		c0.66,0.14,1.47,0.3,1.52-0.74c0.05-0.94-0.75-0.97-1.41-1.12c-0.69-0.16-1.71,0.45-2-0.24c-0.26-0.6,0.17-1.51,0.31-2.27
		c0.04-0.26,0.16-0.51,0.16-0.77c0-0.89,0.51-1.17,1.3-1.15c0.1,0,0.21,0,0.31,0c0.31,0.05,0.62,0.1,0.94,0.15
		c1.17,0.16,2.33,0.33,3.5,0.49c3.69,0.88,7.39,1.73,11.03,2.79c1.14,0.33,1.6,0.78,1.2,1.95c-0.21,0.6-0.36,1.24-0.17,1.87
		c0.64,2.08,1.19,4.16,0.73,6.37c-0.07,0.35,0.03,0.62,0.39,0.76c0.34,0.13,0.87,0.39,1.02,0.05c0.71-1.55,2.3-1.27,3.49-1.79
		c1.64,2.21,1.68,3.14,0.23,4.97c-0.26,0.33-0.53,0.76-0.99,0.7c-2.23-0.28-2.23,1.3-2.36,2.78c-0.01,0.16-0.03,0.31-0.04,0.47
		c-0.5,0.02-0.51,0.38-0.59,0.76c-0.22,1.07-0.54,2.1-1.13,3.07c-1.66,2.72-4.4,3.59-7.2,4.37
		C127.84,90.99,125.42,90.92,123.06,91.34z M128.08,66.35c-0.56,0.09-1.47-0.06-1.56,0.96c-0.11,1.23,0.89,0.86,1.55,0.94
		c1.51,0.17,2.85,0.69,3.85,1.9c0.39,0.47,0.86,0.89,1.45,0.38c0.61-0.53,0.39-1.12-0.06-1.66
		C131.98,67.26,130.23,66.55,128.08,66.35z M122.36,76.45c-0.01-0.22-0.02-0.53-0.05-0.85c-0.04-0.48-0.14-1.04-0.64-1.17
		c-0.54-0.14-0.54,0.53-0.79,0.82c-0.5,0.55-1,1.08-1.69,1.38c-0.72,0.32-1.33,0.78-1.02,1.68c0.35,0.98,1.17,1.32,2.15,1.18
		C121.6,79.31,122.35,78.2,122.36,76.45z M122.4,83.52c-0.31-0.03-0.52-0.07-0.73-0.07c-0.43,0.02-1.1-0.32-1.2,0.33
		c-0.1,0.67,0.63,0.59,1.05,0.64c3.06,0.38,5.57-0.65,7.5-3.07c0.29-0.37,0.52-0.81,0.87-1.1c0.29-0.25,0.98-0.29,0.58-0.83
		c-0.38-0.52-0.97-1.11-1.7-0.89c-0.67,0.2-0.12,0.65-0.01,1.01c0.15,0.47-0.23,0.78-0.47,1.1
		C126.81,82.65,124.79,83.58,122.4,83.52z M123.92,85.61c-0.32,0-0.64-0.03-0.95,0.01c-0.38,0.04-0.98-0.23-1.07,0.33
		c-0.09,0.54,0.51,0.56,0.89,0.68c1.74,0.56,3.31-0.04,4.83-0.78c0.34-0.16,0.89-0.41,0.58-0.93c-0.26-0.44-0.76-0.29-1.12-0.04
		C126.12,85.54,125.05,85.67,123.92,85.61z M128.41,74.53c0.91,0,1.42-0.59,1.8-1.3c0.18-0.34,0.6-0.8,0.15-1.12
		c-0.62-0.44-0.75,0.25-0.98,0.61c-0.29,0.45-0.56,0.93-1.21,0.79c-0.64-0.14-0.78-0.62-0.69-1.2c0.06-0.35,0.04-0.66-0.39-0.67
		c-0.38-0.01-0.51,0.29-0.6,0.61C126.17,73.4,127.15,74.57,128.41,74.53z M141.38,74.5c-0.24,0.04-0.57,0.04-0.85,0.15
		c-0.59,0.23-1.32,0.55-1,1.3c0.38,0.9,0.79-0.13,1.22-0.16c0.3-0.02,0.59-0.18,0.89-0.27c0.35-0.12,0.98,0.03,0.86-0.61
		C142.4,74.36,141.83,74.57,141.38,74.5z M129.47,75.18c-0.48,0.16-1.18,0.21-1.28,0.89c-0.08,0.54,0.45,0.67,0.89,0.61
		c0.53-0.06,1.07-0.2,1.15-0.86C130.28,75.35,129.97,75.18,129.47,75.18z"/>
	<path class="st1" d="M121.06,60.74c-0.31-0.05-0.62-0.1-0.94-0.15c-0.04-0.14,0.06-0.38-0.2-0.36c-0.04,0-0.07,0.23-0.11,0.36
		c-0.79-0.03-1.3,0.26-1.3,1.15c0,0.26-0.12,0.51-0.16,0.77c-0.13,0.77-0.57,1.67-0.31,2.27c0.3,0.69,1.31,0.07,2,0.24
		c0.66,0.16,1.46,0.19,1.41,1.12c-0.05,1.05-0.86,0.89-1.52,0.74c-1.66-0.36-2.44,0.73-3.21,1.86c-0.29-1.36-0.63-2.67-0.05-4.11
		c0.28-0.69,0.11-1.64-0.26-2.44c-1.3-2.79-0.86-5.45,0.76-7.95c1.83-2.8,5.88-4.15,9.12-3.11c-0.11,0.55-0.98,0.4-0.97,1.15
		c3.25-0.44,6.48-0.59,9.71,0.05c1.84,0.36,3.74,0.8,4.91,2.31c1.37,1.75,2.5,3.7,3.54,5.67c0.58,1.11,0.59,2.41,0.13,3.68
		c-0.33,0.92-0.28,1.81,0.07,2.84c0.6,1.76,0.14,3.56-0.85,5.15c-0.24,0.4-0.53,0.75-0.59,1.23c-1.2,0.52-2.78,0.24-3.49,1.79
		c-0.15,0.34-0.67,0.08-1.02-0.05c-0.36-0.14-0.46-0.4-0.39-0.76c0.47-2.2-0.08-4.29-0.73-6.37c-0.19-0.63-0.04-1.27,0.17-1.87
		c0.4-1.17-0.06-1.62-1.2-1.95c-3.65-1.06-7.34-1.91-11.03-2.79c0.03-0.75,0.64-1,1.12-1.41c1.02-0.87,2.43-1.01,3.66-1.89
		c-2.48-0.77-3.75,1.28-5.67,1.97c0.55-2.5,2.03-4,3.99-5.17c1.5-0.89,3.07-1.32,4.81-1.14c0.35,0.04,0.84,0.05,0.85-0.45
		c0.01-0.51-0.47-0.5-0.82-0.48c-0.94,0.05-1.88-0.14-2.82,0.16c-3.17,1.02-5.59,2.83-6.7,6.12c-0.12,0.36-0.23,0.93-0.77,0.84
		c-0.42-0.07-0.64-0.49-0.81-0.9c-0.77-1.89-0.23-3.49,1.06-4.93c0.2-0.22,0.54-0.45,0.16-0.78c-0.32-0.28-0.56-0.02-0.82,0.17
		c-1.29,0.96-1.97,3.27-1.53,5.01C120.48,59.18,121.08,59.86,121.06,60.74z M119.09,59.71c0.19-0.93-0.23-1.58-0.93-2.1
		c-0.2-0.15-0.47-0.05-0.49,0.17c-0.12,0.94,0.39,1.54,1.19,1.94C118.9,59.72,118.96,59.71,119.09,59.71z"/>
	<path class="st6" d="M139.44,94.42c-0.18,1.06,0.65,1.29,1.33,1.69c0.63,0.37,1.22,0.82,0.36,1.56c-3.11,2.64-6.66,4.25-10.78,4.05
		c-3.86-0.19-7.21-1.73-9.93-4.55c-0.62-0.64-0.69-1.02,0.29-1.24c0.86-0.2,1.55-0.63,1.96-1.45c0.02-0.12,0.05-0.23,0.07-0.35
		c2.92,1.19,5.71,0.81,8.48-0.57c2.84-1.41,5.14-3.54,7.64-5.41c0.5,1.78,0.2,3.62,0.38,5.43
		C139.26,93.88,139.31,94.15,139.44,94.42z"/>
	<path class="st2" d="M138.85,88.13c-2.5,1.87-4.8,4-7.64,5.41c-2.77,1.38-5.56,1.76-8.48,0.57c-0.08-0.44,0.05-0.84,0.24-1.23
		c0.31-0.19,0.31-0.41,0.06-0.65c0.01-0.3,0.02-0.59,0.03-0.89c2.36-0.42,4.78-0.35,7.1-1c2.8-0.78,5.54-1.65,7.2-4.37
		c0.59-0.97,0.91-1.99,1.13-3.07c0.08-0.39,0.1-0.74,0.59-0.76C138.55,84.12,139.01,86.14,138.85,88.13z"/>
	<path class="st8" d="M167.33,97.68c-0.4,2.16-0.98,4.27-1.01,6.52c-0.03,2.72,0.75,5.18,1.76,7.62c0.14,0.34,0.34,0.66,0.44,1.01
		c0.08,0.29,0.17,0.66-0.23,0.8c-0.3,0.11-0.53-0.14-0.64-0.35c-0.41-0.79-0.83-1.59-1.13-2.42c-1.36-3.86-1.6-7.78-0.57-11.76
		c0.15-0.57,0.11-1.06-0.35-1.43c-2.76-2.21-8.51-4.89-12.75-2.67c-1.74,0.91-2.91,2.15-3.39,4.07c-0.09,0.37-0.07,1.17-0.75,0.97
		c-0.68-0.2-0.41-0.88-0.25-1.36c0.31-0.95,1.03-1.73,1.16-2.75c2.48-2.07,5.34-2.89,8.55-2.72c3.32,0.17,6,1.59,8.29,3.88
		C166.73,97.36,166.9,97.69,167.33,97.68z"/>
	<path class="st8" d="M88.1,116.98c1.68-3.85,3.06-7.8,3.69-11.98c0.31-2.03,0.55-4.05,0.5-6.11c-0.02-0.62-0.11-1.27,0.32-1.82
		c0.3,0.1,0.59,0.21,0.89,0.31c-0.05,6.48-1.3,12.73-3.9,18.76c0.91,0.1,1-0.4,1.22-0.73c2.5-3.77,3.8-7.93,3.96-12.45
		c0.01-0.32-0.01-0.63,0.01-0.95c0.02-0.35-0.03-0.82,0.52-0.78c0.41,0.03,0.42,0.41,0.42,0.73c0,1.11,0.13,2.24-0.04,3.32
		c-0.71,4.54-2.34,8.71-5.32,12.27c-0.26-0.02-0.51-0.07-0.64-0.34c-0.1-0.04-0.19-0.08-0.29-0.13
		C88.95,117.56,88.48,117.74,88.1,116.98z"/>
	<path class="st8" d="M110.95,148.95c1.47-0.03,2.72,0.75,4.09,1.1c0.46,0.12,0.89,0.34,1.35,0.42c0.44,0.07,1.09,0.3,1.3-0.17
		c0.26-0.59-0.46-0.7-0.83-0.91c-1.13-0.64-1.87-1.69-2.79-2.55c-0.24-0.22-0.72-0.49-0.35-0.88c0.33-0.35,0.69-0.03,0.94,0.24
		c1.27,1.36,2.73,2.45,4.33,3.39c2.1,1.24,4.28,2.21,6.78,2.22c4.1,0.03,8.2,0.04,12.19-1.14c0.39-0.12,0.92-0.31,1.06,0.26
		c0.15,0.65-0.49,0.53-0.85,0.63c-6.26,1.71-12.56,1.59-18.88,0.44c-2.58-0.47-5.11-1.17-7.59-2.05c-0.38-0.13-0.7-0.21-0.75-0.66
		C110.94,149.17,110.94,149.06,110.95,148.95z M118.66,150.72c-0.09-0.03-0.15-0.05-0.21-0.07c0.01,0.04,0.02,0.08,0.03,0.12
		C118.53,150.76,118.58,150.74,118.66,150.72z"/>
	<path class="st8" d="M155.22,126.78c-1.41,0.09-2.46,1.09-3.77,1.49c-1.67,0.5-3.38,0.7-5.08,1.01c-0.52,0.09-1.34,0.23-1.36-0.6
		c-0.02-0.72,0.72-0.61,1.23-0.61c5.81,0.04,9.89-2.9,12.98-7.54c0.89-1.33,1.26-2.87,1.69-4.38c0.13-0.46-0.05-1.29,0.68-1.2
		c0.66,0.09,0.16,0.91,0.43,1.38c0.46-0.05,0.7-0.94,1.26-0.48c0.49,0.41,0.04,0.9-0.18,1.27c-0.57,0.99-1.21,1.94-1.82,2.91
		c-0.45,0.11-0.86,0.16-1.12,0.68c-1.07,2.19-2.81,3.85-4.54,5.51C155.34,126.3,155.3,126.55,155.22,126.78z"/>
	<path class="st8" d="M99.64,119.65c0.91-0.65-0.08-1.06-0.3-1.36c-0.62-0.84-1.43-1.54-2.17-2.29c-0.39-0.4-0.77-0.93-0.28-1.36
		c0.4-0.35,0.7,0.27,1,0.52c0.36,0.3,0.68,0.64,1.01,0.95c0.13-0.09,0.25-0.12,0.27-0.19c0.18-0.56-0.24-1.54,0.57-1.6
		c0.76-0.06,0.44,0.93,0.57,1.42c1.55,5.76,4.87,9.92,10.58,11.99c0.3,0.11,0.68,0.14,0.59,0.56c-0.1,0.5-0.57,0.44-0.9,0.37
		c-1.56-0.33-2.87-1.24-4.28-1.9c-1.71-1.42-3.39-2.88-4.6-4.78C101.12,121.09,100.87,119.95,99.64,119.65z"/>
	<path class="st8" d="M168.27,97c0.67-0.05,0.94,0.28,0.92,0.94c-0.2,6.65,1.71,12.79,4.5,18.72c-0.34,0.52-0.82,0.39-1.29,0.28
		c-0.06-1.75-1.2-3.1-1.77-4.66c-1.76-4.83-2.54-9.8-2.65-14.9C168.08,97.26,168.17,97.13,168.27,97z"/>
	<path class="st8" d="M112.44,95.9c-0.18,1.72-0.43,1.81-2,0.67c-2.96-2.15-6.15-3.03-9.74-1.82c-1.87,0.63-3.45,1.7-4.8,3.12
		c-0.39,0.4-0.68,1.07-1.34,0.95c-0.69-0.12-0.24-0.95-0.62-1.31c0.64,0.02,1.03-0.38,1.46-0.79c4.24-4.07,10.13-4.48,15.13-1.39
		C111.15,95.7,111.75,95.89,112.44,95.9z"/>
	<path class="st2" d="M166.75,78.12c-0.35-0.81-0.84-1.15-1.7-0.61c-0.4,0.25-0.86,0.18-1.05-0.3c-0.18-0.45,0.22-0.63,0.54-0.82
		c0.4-0.24,0.89-0.34,1.11-0.82c0.16-0.35-0.04-0.99,0.56-0.97c0.62,0.02,0.63,0.71,0.68,1.1c0.12,1.04,0.67,1.79,1.61,1.85
		c0.89,0.05,1.74-0.41,2.38-1.21c0.43-0.53,0.66-1.93,1.55-1.27c0.86,0.64-0.32,1.29-0.74,1.87c-0.27,0.38-0.43,0.85-0.9,1.06
		C169.46,78.69,168.12,78.88,166.75,78.12z"/>
	<path class="st2" d="M90.66,77.98c-0.47-0.63-0.94-1.26-1.43-1.87c-0.27-0.34-0.63-0.69-0.12-1.05c0.48-0.34,0.76,0.13,1.03,0.43
		c0.41,0.47,0.74,1.04,1.21,1.44c1.46,1.26,2.97,0.75,3.41-1.13c0.11-0.45-0.02-1.07,0.6-1.13c0.67-0.06,0.6,0.59,0.72,1.02
		c0.01,0.05,0.03,0.1,0.05,0.15c0.31,0.59,1.61,0.5,1.31,1.33c-0.41,1.12-1.1-0.34-1.7-0.06c-0.37,0.17-0.47,0.54-0.64,0.86
		C93.63,78.46,92.15,78.99,90.66,77.98z"/>
	<path class="st2" d="M177.89,93.9c0.26,0.03,0.57-0.03,0.76,0.1c1.65,1.12,3.35,2.11,5.35,2.52c0.38,0.08,1.09,0.26,0.82,0.89
		c-0.18,0.41-0.75,0.22-1.15,0.14c-2.21-0.43-4.07-1.63-5.95-2.78C177.78,94.48,177.84,94.19,177.89,93.9z"/>
	<path class="st9" d="M117,70.16c0.56-0.06,1.08-0.1,0.95,0.75c-0.08,0.51,0.09,0.95,0.64,1.09c0.61,0.16,0.97-0.18,1.26-0.68
		c0.21-0.36,0.32-1.1,0.94-0.74c0.57,0.33,0.07,0.85-0.12,1.23c-0.43,0.86-1.1,1.41-2.13,1.22c-1.29-0.23-1.62-1.17-1.61-2.32
		C116.94,70.53,116.97,70.34,117,70.16z"/>
	<path class="st2" d="M116.35,73.56c0.49-0.27,0.98-0.44,1.43,0.06c0.33,0.37,1.02,0.7,0.6,1.27c-0.41,0.56-0.81-0.07-1.2-0.27
		c-0.28-0.15-0.57-0.28-0.85-0.42C116.33,73.98,116.34,73.77,116.35,73.56z"/>
	<path class="st5" d="M151.09,149.67c-1.11-1.12,0.07-1.69,0.58-2.42"/>
	<path class="st10" d="M83.08,76.1c-0.08,0.57-0.36,0.91-0.97,0.91C82.16,76.42,82.48,76.12,83.08,76.1z"/>
	<path class="st10" d="M84.68,74.84c-0.05,0.39-0.26,0.6-0.67,0.6C84.04,75.03,84.26,74.83,84.68,74.84z"/>
	<path class="st11" d="M109.62,193.62c0,0.31-0.01,0.61-0.01,0.92C109.29,194.23,109.3,193.93,109.62,193.62z"/>
	<path class="st11" d="M155.22,126.78c0.07-0.23,0.12-0.48,0.4-0.56c-0.03,0.21-0.05,0.42-0.08,0.63
		C155.44,126.82,155.33,126.8,155.22,126.78z"/>
	<path class="st7" d="M123.03,92.24c0.25,0.24,0.25,0.46-0.06,0.65C122.99,92.67,123.01,92.45,123.03,92.24z"/>
	<path class="st5" d="M89.43,117.09c0.1,0.04,0.19,0.08,0.29,0.13C89.63,117.17,89.53,117.13,89.43,117.09z"/>
	<path class="st11" d="M150.21,151.79c0.11-0.08,0.23-0.16,0.34-0.24C150.43,151.63,150.32,151.71,150.21,151.79z"/>
	<path class="st11" d="M155.35,130.58c0.01-0.11,0.01-0.22,0.02-0.33c0.03,0.08,0.06,0.15,0.08,0.23
		C155.45,130.51,155.38,130.55,155.35,130.58z"/>
	<path class="st12" d="M129.03,161.44c-0.1-1.55,0.08-2.61-0.28-3.64c-0.12-0.34-0.3-0.96,0.27-1.05c0.55-0.09,0.54,0.5,0.6,0.91
		c0.4,2.5,0.54,5.02-0.05,7.5c-0.23,0.98,0,1.48,0.88,1.81c0.4,0.15,0.86,0.42,0.66,0.91c-0.27,0.67-0.7,0.07-1.04-0.01
		c-1.42-0.31-1.93-0.96-1.52-2.57C128.91,163.91,129.26,162.42,129.03,161.44z"/>
	<path class="st12" d="M114.28,157.96c0.93-0.69,1.65-0.81,2.39-0.77c1.05,0.06,1.98-0.16,2.71-0.99c0.22-0.25,0.49-0.7,0.89-0.37
		c0.3,0.25,0.21,0.69,0.11,1.05c-0.12,0.42-0.43,0.74-0.85,0.87C117.91,158.21,116.28,158.28,114.28,157.96z"/>
	<path class="st12" d="M146.99,157.9c-1.56,0.32-2.66,0.36-3.76-0.04c-0.7-0.26-1.43-0.33-2.16-0.42c-0.39-0.04-0.66-0.34-0.6-0.78
		c0.05-0.33,0.3-0.43,0.58-0.36C142.88,156.79,144.8,157,146.99,157.9z"/>
	<path class="st12" d="M137.87,203.75c0.12-1.17-0.68-2.08-0.89-3.16c-0.06-0.29-0.17-0.69,0.25-0.79c0.39-0.09,0.57,0.26,0.6,0.58
		c0.08,0.93,0.77,1.62,0.94,2.5C138.88,203.53,138.97,204.3,137.87,203.75L137.87,203.75z"/>
	<path class="st12" d="M115.26,203.51c-0.01-1.95,0.12-2.31,1.24-3.34C116.36,201.3,116.67,202.58,115.26,203.51z"/>
	<path class="st12" d="M139.18,230.52c0.21-0.27,0.27-0.41,0.33-0.41c0.69,0.06,1.34-0.61,2.03-0.11c0.06,0.05,0.05,0.36-0.02,0.41
		C140.82,230.88,140.08,230.69,139.18,230.52z"/>
	<path class="st12" d="M117.04,201.72c0.69,0.9,0.66,1.73-0.2,2.46C116.9,203.36,116.97,202.54,117.04,201.72z"/>
	<path class="st12" d="M139.49,231.99c0.99-0.35,1.72-0.96,2.66-0.2C141.1,232.35,141.1,232.35,139.49,231.99z"/>
	<path class="st12" d="M122.4,229.86c-1.07,0.7-1.88,0.52-2.94,0.33C120.43,229.46,121.25,229.74,122.4,229.86z"/>
	<path class="st12" d="M137.86,203.74c0.01,0.15,0.04,0.31,0.01,0.46c-0.06,0.43,0.73,1.02-0.09,1.27c-0.42,0.13-0.59-0.5-0.73-0.87
		C136.75,203.81,137.3,203.75,137.86,203.74C137.87,203.75,137.86,203.74,137.86,203.74z"/>
	<path class="st13" d="M122.4,218.96c0.33,0.28,0.33,0.59,0.07,0.92C122.44,219.57,122.42,219.26,122.4,218.96z"/>
	<path class="st10" d="M113.21,119.97c0-2.37,0.05-4.75-0.02-7.12c-0.03-1.02,0.29-1.57,1.29-1.82c6.97-1.75,13.99-2.3,21.13-1.14
		c1.98,0.32,3.91,0.77,5.85,1.27c0.81,0.21,1.1,0.61,1.1,1.44c-0.03,4.75,0.05,9.49-0.04,14.24c-0.05,2.85-1.61,5.1-3.5,7.06
		c-2.96,3.07-6.55,5.27-10.37,7.12c-0.52,0.25-1,0.29-1.51,0.03c-4.63-2.34-9.07-4.93-12.13-9.32c-1.24-1.78-1.91-3.7-1.81-5.91
		C113.28,123.87,113.21,121.92,113.21,119.97z M140.01,120.64c0,0-0.01,0-0.01,0c0-2-0.05-4.01,0.02-6.01
		c0.03-0.98-0.31-1.35-1.27-1.58c-7.26-1.74-14.5-1.7-21.76-0.02c-1.07,0.25-1.3,0.76-1.29,1.74c0.04,3.64,0.08,7.28-0.01,10.91
		c-0.05,2.26,0.77,4.11,2.21,5.75c2.58,2.94,5.79,5.03,9.22,6.83c0.51,0.27,0.96,0.27,1.49,0c3.39-1.76,6.56-3.82,9.13-6.69
		c1.57-1.75,2.49-3.74,2.31-6.18C139.92,123.81,140.01,122.22,140.01,120.64z"/>
	<path class="st8" d="M130.42,103.69c-4.94-0.34-9-2.27-12.16-5.99c-0.24-0.29-0.96-0.63-0.29-1.13c0.46-0.35,0.76,0.14,1.02,0.46
		c2.97,3.64,6.89,5.5,11.5,5.57c1.99,0.03,4.1-0.17,5.98-1.15c0.36-0.19,0.99-0.64,1.25-0.04c0.31,0.71-0.48,0.79-0.93,0.96
		C134.71,103.16,132.54,103.54,130.42,103.69z"/>
	<path class="st8" d="M144.54,150.86c-0.38-0.04-0.7,0.03-0.8-0.27c-0.13-0.39,0.19-0.55,0.49-0.65c0.63-0.22,1.27-0.44,1.92-0.62
		c0.3-0.08,0.65-0.09,0.79,0.28c0.14,0.38-0.14,0.6-0.44,0.7C145.82,150.53,145.12,150.7,144.54,150.86z"/>
	<path class="st2" d="M83.32,94.73c-0.08,0.44-0.4,0.56-0.77,0.69c-1.38,0.47-2.81,0.82-4.01,1.74c-0.29,0.22-0.75,0.3-0.98-0.07
		c-0.2-0.32,0.15-0.57,0.37-0.78c1.31-1.21,2.98-1.66,4.64-2.11C82.94,94.11,83.32,94.22,83.32,94.73z"/>
	<path class="st9" d="M121.06,60.74c0.02-0.88-0.58-1.56-0.78-2.38c-0.44-1.74,0.23-4.05,1.53-5.01c0.26-0.19,0.5-0.45,0.82-0.17
		c0.37,0.32,0.03,0.56-0.16,0.78c-1.29,1.44-1.83,3.04-1.06,4.93c0.17,0.41,0.39,0.83,0.81,0.9c0.54,0.09,0.65-0.49,0.77-0.84
		c1.11-3.29,3.53-5.1,6.7-6.12c0.94-0.3,1.88-0.11,2.82-0.16c0.36-0.02,0.84-0.04,0.82,0.48c-0.01,0.5-0.5,0.49-0.85,0.45
		c-1.74-0.18-3.31,0.25-4.81,1.14c-1.96,1.17-3.44,2.66-3.99,5.17c1.92-0.69,3.19-2.74,5.67-1.97c-1.23,0.88-2.64,1.03-3.66,1.89
		c-0.48,0.41-1.09,0.66-1.12,1.41C123.39,61.07,122.23,60.91,121.06,60.74z"/>
	<path class="st1" d="M128.08,66.35c2.16,0.21,3.91,0.92,5.23,2.51c0.45,0.55,0.67,1.14,0.06,1.66c-0.59,0.52-1.06,0.1-1.45-0.38
		c-1-1.21-2.34-1.72-3.85-1.9c-0.66-0.07-1.67,0.3-1.55-0.94C126.61,66.28,127.51,66.44,128.08,66.35z"/>
	<path class="st8" d="M122.36,76.45c-0.01,1.74-0.76,2.86-2.05,3.05c-0.99,0.14-1.81-0.2-2.15-1.18c-0.31-0.89,0.3-1.36,1.02-1.68
		c0.7-0.31,1.2-0.83,1.69-1.38c0.26-0.29,0.25-0.96,0.79-0.82c0.51,0.13,0.6,0.68,0.64,1.17C122.33,75.92,122.34,76.24,122.36,76.45
		z"/>
	<path class="st9" d="M122.4,83.52c2.39,0.06,4.41-0.87,5.9-2.87c0.24-0.32,0.62-0.63,0.47-1.1c-0.11-0.36-0.66-0.81,0.01-1.01
		c0.73-0.22,1.32,0.37,1.7,0.89c0.4,0.54-0.29,0.58-0.58,0.83c-0.35,0.3-0.58,0.74-0.87,1.1c-1.93,2.42-4.44,3.44-7.5,3.07
		c-0.42-0.05-1.15,0.04-1.05-0.64c0.1-0.65,0.76-0.32,1.2-0.33C121.88,83.45,122.09,83.49,122.4,83.52z"/>
	<path class="st2" d="M123.92,85.61c1.13,0.06,2.2-0.07,3.16-0.73c0.36-0.25,0.86-0.4,1.12,0.04c0.31,0.52-0.25,0.77-0.58,0.93
		c-1.53,0.74-3.09,1.34-4.83,0.78c-0.38-0.12-0.98-0.14-0.89-0.68c0.1-0.56,0.69-0.29,1.07-0.33
		C123.29,85.58,123.61,85.61,123.92,85.61z"/>
	<path class="st9" d="M128.41,74.53c-1.25,0.03-2.23-1.13-1.92-2.28c0.09-0.32,0.22-0.62,0.6-0.61c0.44,0.01,0.45,0.33,0.39,0.67
		c-0.09,0.58,0.05,1.06,0.69,1.2c0.65,0.14,0.92-0.34,1.21-0.79c0.23-0.36,0.36-1.05,0.98-0.61c0.45,0.32,0.03,0.78-0.15,1.12
		C129.83,73.95,129.32,74.54,128.41,74.53z"/>
	<path class="st2" d="M141.38,74.5c0.45,0.08,1.02-0.14,1.12,0.41c0.12,0.64-0.5,0.49-0.86,0.61c-0.3,0.1-0.59,0.26-0.89,0.27
		c-0.43,0.02-0.84,1.06-1.22,0.16c-0.32-0.75,0.41-1.08,1-1.3C140.81,74.54,141.14,74.54,141.38,74.5z"/>
	<path class="st2" d="M129.47,75.18c0.5-0.01,0.8,0.16,0.75,0.64c-0.07,0.67-0.62,0.8-1.15,0.86c-0.44,0.05-0.97-0.07-0.89-0.61
		C128.29,75.39,128.99,75.35,129.47,75.18z"/>
	<path class="st9" d="M119.81,60.59c0.04-0.13,0.07-0.36,0.11-0.36c0.27-0.02,0.16,0.22,0.2,0.36
		C120.02,60.6,119.91,60.6,119.81,60.59z"/>
	<path class="st9" d="M119.09,59.71c-0.13,0-0.19,0.02-0.23,0c-0.8-0.4-1.31-0.99-1.19-1.94c0.03-0.21,0.29-0.32,0.49-0.17
		C118.86,58.13,119.28,58.78,119.09,59.71z"/>
	<path class="st5" d="M118.66,150.72c-0.09,0.03-0.13,0.04-0.18,0.05c-0.01-0.04-0.02-0.08-0.03-0.12
		C118.51,150.67,118.57,150.69,118.66,150.72z"/>
	<path class="st3" d="M140.01,120.64c0,1.58-0.09,3.17,0.02,4.74c0.18,2.44-0.74,4.43-2.31,6.18c-2.57,2.87-5.74,4.93-9.13,6.69
		c-0.53,0.27-0.97,0.27-1.49,0c-3.42-1.81-6.64-3.9-9.22-6.83c-1.43-1.63-2.26-3.49-2.21-5.75c0.08-3.64,0.05-7.28,0.01-10.91
		c-0.01-0.98,0.22-1.49,1.29-1.74c7.26-1.68,14.5-1.72,21.76,0.02c0.96,0.23,1.3,0.6,1.27,1.58c-0.07,2-0.02,4.01-0.02,6.01
		C140,120.64,140.01,120.64,140.01,120.64z"/>
	<text transform="matrix(1 0 0 1 118.9858 132.2422)" class="st10 st14 st15">%</text>
</g>
</svg>
