<?xml version="1.0" encoding="utf-8"?>
<!-- Generator: Adobe Illustrator 25.1.0, SVG Export Plug-In . SVG Version: 6.00 Build 0)  -->
<svg version="1.1" id="Layer_1" xmlns="http://www.w3.org/2000/svg" xmlns:xlink="http://www.w3.org/1999/xlink" x="0px" y="0px"
	 viewBox="0 0 256 256" style="enable-background:new 0 0 256 256;" xml:space="preserve">
<style type="text/css">
	.st0{fill:#3E2F49;}
	.st1{fill:#FEB58C;}
	.st2{fill:#FD8A62;}
	.st3{fill:#FAEACC;}
	.st4{fill:#FDCE8C;}
	.st5{fill:#F7BD69;stroke:#F9893D;stroke-miterlimit:10;}
	.st6{fill:#F2B25F;}
	.st7{fill:none;stroke:#F9893D;stroke-miterlimit:10;}
</style>
<g>
	<path class="st0" d="M98.92,192.85c2.81,0.26,5.64,0.44,8.44,0.79c5.43,0.68,10.89,1.05,16.31,1.84c4.86,0.7,9.76,1.11,14.62,1.82
		c6.92,1.01,13.81,2.18,20.72,3.25c0.96,0.15,1.49,0.43,1.59,1.57c0.54,5.71,1.16,11.41,1.82,17.11c0.22,1.88,0.21,3.8,0.76,5.71
		c0.66-0.3,0.66-0.81,0.8-1.21c2.09-6.47,4.21-12.94,6.23-19.44c0.36-1.15,0.83-1.4,1.95-1.16c1.58,0.34,3.2,0.49,4.81,0.72
		c2.7,1.05,2.63,1.04,2.17,4.14c-1.51,10.33-2.95,20.67-4.43,31.01c-0.55,3.81-1.12,7.62-1.65,11.44c-0.1,0.73-0.46,1.47-0.06,2.22
		H89.53L98.92,192.85"/>
	<path class="st1" d="M174.93,158.08c-0.36,1.85-0.55,3.7-0.67,5.55c-0.45,6.59-0.88,13.19-1.53,19.77c-0.32,3.26-0.6,6.53-0.9,9.8
		c-1.56,0.75-3.12,0.15-4.6-0.19c-3.59-0.81-7.23-1.49-10.84-2.12c-3.42-0.59-6.83-1.3-10.29-1.7c-2.5-0.29-4.97-0.82-7.47-1.17
		c-3.94-0.55-7.9-1.05-11.84-1.56c-2.25-0.3-4.51-0.54-6.75-0.9c-2.58-0.42-5.27-0.11-7.75-1.21c0.39-2.84,1.32-5.54,2.24-8.23
		c0.49-0.08,0.88,0.2,1.3,0.36c3.65,1.36,7.38,2.58,11.26,2.93c7.74,0.69,15.24-0.49,22.36-3.73c0.44-0.2,0.98-0.33,1.04-0.97
		c-0.41-0.17-0.8-0.05-1.2,0.01c-2.45,0.36-4.88,0.85-7.37,0.79c-2.68-0.06-5.35,0.02-8.04-0.26c-5.31-0.54-10.4-1.73-15.27-3.93
		c-0.85-0.39-1.56-1.42-2.73-0.95c-0.73-1.2-2.07-1.59-3.16-2.28c-3.86-2.43-7.47-5.18-10.91-8.17c-2.94-2.56-5.84-5.16-8.82-7.67
		c-2.52-2.11-3.48-5.06-4.37-8c-2.21-7.34-3.19-14.92-4.04-22.51c-0.63-5.62-1.19-11.26-1.76-16.89c-0.16-1.57-0.1-3.15,0.34-4.67
		c0.24-0.83,0.54-1.78,1.42-2.07c1.68-0.55,1.7-1.53,0.99-2.83c0.81,0.19,1.19,0.71,1.16,1.53c-0.01,0.36,0.03,0.69,0.25,1.01
		c2.24,3.2,5.18,5.74,8.48,7.63c2.35,1.34,4.8,3.08,7.85,2.68c0.28-0.04,0.45,0.2,0.52,0.47c-0.71,0.13-1.35,0.07-0.76,1.24
		c1.72,3.43,2.56,7.11,2.93,10.94c0.53,5.57,4.69,10.15,10.12,11.62c3.94,1.07,7.8,0.7,11.72-0.11c4.26-0.88,7.31-3.01,9.11-7.14
		c3.81-8.75,7-17.69,8.83-27.08c0.31-1.57,0.41-3.26-0.32-4.79c-1.97-4.15-3.87-8.35-6.08-12.39c-0.79-1.45-1.35-3.03-2.53-4.39
		c-0.09,0.48-0.15,0.82-0.22,1.15c-0.75-0.28-0.77-1.16-0.68-1.54c0.41-1.74-0.47-3.11-1.03-4.59c-0.87-2.3-2.05-4.44-3.52-6.42
		c-1.94-2.63-4.45-4.56-7.09-6.46c-2.21-1.59-4.64-2.84-7.1-3.41c-3.2-0.74-6.57-1.86-9.97-0.52c-0.38,0.15-0.91,0.18-1.28-0.22
		c2.11-0.82,2.03-0.78,1.04-3.18c-2.03-4.91-2.86-10-1.54-15.24c0.58-2.32,2.59-3.39,4.92-2.84c1.37,0.32,2.77,0.59,4.01,1.34
		c0.74,0.45,1.52,0.55,2.3,0.08c0.32,0.78,0.87,1.22,1.68,1.55c5.24,2.16,10.71,3.62,16.19,4.99c2.72,0.68,5.46,1.4,8.29,1.74
		c3.39,0.4,6.26,1.94,7.95,5.14c1.01,1.9,2.04,3.79,3.1,5.67c1.75,3.11,3.67,6.14,5.25,9.34c1.94,3.94,4.12,7.75,6.27,11.57
		c2.57,4.57,5.49,8.93,7.82,13.65c1.82,3.7,2.84,7.58,2.82,11.65c-0.03,8.52,0.23,17.05-0.22,25.58c-0.26,4.86,0.04,9.76-0.09,14.63
		 M121.01,46c2.95,0.14,4.62-1.47,5.61-4.02c0.17-0.44,0.71-0.98,0.02-1.28c-0.56-0.24-0.76,0.32-0.97,0.85
		c-1.01,2.63-2.75,3.62-5.59,3.19c-4.31-0.65-8.12-2.46-11.52-5.16c-0.38-0.3-0.8-0.85-1.26-0.24c-0.34,0.45,0.08,0.86,0.45,1.15
		C111.68,43.53,116.01,45.58,121.01,46z"/>
	<path class="st2" d="M175.7,140.14c0.13-4.87-0.17-9.77,0.09-14.63c0.45-8.53,0.19-17.05,0.22-25.58c0.01-4.07-1-7.95-2.82-11.65
		c-2.32-4.72-5.25-9.08-7.82-13.65c-1.4-2.49-2.81-4.98-4.16-7.5c-1.82-3.39-4.81-8.93-6.71-12.27c-1.28-2.25-2.53-4.52-3.74-6.81
		c-1.7-3.2-4.56-4.74-7.95-5.14c-2.83-0.33-5.57-1.05-8.29-1.74c-5.47-1.37-10.94-2.83-16.19-4.99c-0.82-0.34-1.36-0.77-1.68-1.55
		c-0.01-0.32-0.02-0.62-0.03-0.95c0.43-1.32,0.42-2.63,0-3.95c-0.1-1.14,0.11-2.24,0.48-3.31c0.3-0.16,0.48-0.34,0.15-0.65
		c0.01-0.58,0.29-1.05,0.55-1.54c0.63-0.04,0.62-0.48,0.58-0.93c1.2-1.51,2.36-1.84,4.43-1.24c2.01,0.59,3.84,1.57,5.66,2.56
		c6.6,3.58,13.53,6.35,20.69,8.58c2.46,0.77,4.94,1.5,7.35,2.4c1.71,0.64,3.28,1.6,4.1,3.39c-0.06,0.71,0.33,1.25,0.69,1.81
		c2.29,3.59,4.32,7.34,6.15,11.18c4.68,9.87,8.62,20.03,11.92,30.44c0.41,1.31,0.86,2.6,1.29,3.9c0.14,0.43,0.27,0.99,0.88,0.8
		c0.56-0.18,0.26-0.67,0.19-1.04c-0.03-0.15-0.05-0.3-0.1-0.45c-3.33-10.6-6.96-21.09-11.8-31.13c-1.49-3.1-2.98-6.19-4.47-9.29
		c1.95,0.57,3.38,1.99,4.95,3.15c4.03,2.98,7.69,6.42,11.52,9.64c1.08,0.91,2.14,1.88,3.32,2.65c3.47,2.24,4.26,5.25,3.27,9.17
		c-1.68,6.73-3.16,13.51-5.46,20.07c-0.11,0.31-0.16,1.51-0.17,3.17c-0.07,11.05-1.12,22.08-3.22,32.93
		c-1.94,10.06-4.07,22.99-4.6,32.97"/>
	<path class="st3" d="M112.28,184.35c2.47,1.1,5.17,0.79,7.75,1.21c2.24,0.36,4.5,0.6,6.75,0.9c3.95,0.52,7.9,1.01,11.84,1.56
		c2.5,0.35,4.97,0.88,7.47,1.17c3.46,0.41,6.87,1.11,10.29,1.7c3.62,0.63,7.25,1.3,10.84,2.12c1.49,0.34,3.04,0.93,4.6,0.19
		c0.6,1.58,2.08,1.53,3.37,1.8c0.44,0.09,0.88,0.13,1.33,0.25c1.57,0.41,1.86,1.28,1.45,2.81c-0.5,1.89-0.69,3.86-1.01,5.79
		c-1.6-0.23-3.23-0.38-4.81-0.72c-1.12-0.24-1.59,0.01-1.95,1.16c-2.02,6.5-4.13,12.96-6.23,19.44c-0.13,0.41-0.14,0.92-0.8,1.21
		c-0.55-1.91-0.54-3.83-0.76-5.71c-0.66-5.7-1.28-11.4-1.82-17.11c-0.11-1.14-0.64-1.42-1.59-1.57c-6.91-1.08-13.8-2.24-20.72-3.25
		c-4.86-0.71-9.76-1.12-14.62-1.82c-5.42-0.78-10.88-1.16-16.31-1.84c-2.8-0.35-5.63-0.53-8.44-0.79c1.39-1.23,1.41-3.03,1.76-4.63
		c0.25-1.17,0.45-2.36,0.65-3.55c0.15-0.89,0.69-1.07,1.43-0.82c2.66,0.9,5.51,0.28,8.18,1.06
		C111.52,185.09,111.84,184.57,112.28,184.35z"/>
	<circle class="st2" cx="109" cy="82" r="28"/>
	<path class="st2" d="M115.86,170.36c1.17-0.46,1.88,0.57,2.73,0.95c4.87,2.2,9.96,3.4,15.27,3.93c2.69,0.27,5.36,0.19,8.04,0.26
		c2.49,0.06,4.92-0.44,7.37-0.79c0.4-0.06,0.79-0.18,1.2-0.01c-0.06,0.64-0.61,0.77-1.04,0.97c-7.12,3.24-14.62,4.42-22.36,3.73
		c-3.87-0.34-7.61-1.56-11.26-2.93c-0.42-0.16-0.81-0.43-1.3-0.36C114.7,174.13,115.3,172.25,115.86,170.36z"/>
	<path class="st0" d="M165.38,45.24c1.49,3.1,2.98,6.19,4.47,9.29c4.84,10.03,8.47,20.52,11.8,31.13c0.05,0.14,0.07,0.3,0.1,0.45
		c0.07,0.38,0.37,0.87-0.19,1.04c-0.61,0.19-0.74-0.36-0.88-0.8c-0.43-1.3-0.87-2.6-1.29-3.9c-3.31-10.41-7.24-20.57-11.92-30.44
		c-1.83-3.85-3.86-7.59-6.15-11.18c-0.35-0.56-0.74-1.09-0.69-1.81c0.89,0.05,1.24,0.73,1.66,1.37
		C163.35,41.98,164.1,43.78,165.38,45.24z"/>
	<path class="st1" d="M116.62,29.75c0.42,1.31,0.43,2.63,0,3.94C116.12,32.38,116.13,31.07,116.62,29.75z"/>
	<path class="st0" d="M121.01,46c-5-0.42-9.33-2.47-13.25-5.51c-0.37-0.29-0.79-0.69-0.45-1.15c0.46-0.62,0.88-0.06,1.26,0.24
		c3.4,2.7,7.21,4.5,11.52,5.16c2.83,0.43,4.58-0.55,5.59-3.19c0.2-0.53,0.4-1.09,0.97-0.85c0.69,0.3,0.15,0.84-0.02,1.28
		C125.62,44.53,123.96,46.14,121.01,46z"/>
	<path class="st4" d="M131.52,75.17c0.11,0.51,0.21,1.02,0.32,1.53c0,0.54,0,1.08-0.01,1.62c-0.02,0.73,0.04,1.52-0.92,1.76
		c-0.26-0.22-0.28-0.52-0.29-0.83c-0.13-3.76-2.21-6.86-3.62-10.15c-1.17-2.72-3.9-3.99-6.24-5.5c-5.02-3.25-10.56-3.93-16.37-2.8
		c-0.19-1.03,1.28-1.07,1.21-2.03c3.35-0.15,6.71-0.26,9.97,0.59c5.17,1.35,9.14,4.47,12.3,8.74c0.81,1.1,1.46,2.27,2.15,3.42
		C130.38,72.78,130.86,74.01,131.52,75.17z"/>
	<path class="st1" d="M105.6,58.75c0.07,0.96-1.4,1-1.21,2.03c-2.09,0.67-4.14,1.42-6.03,2.58c-6.61,4.03-9.96,9.96-10.46,17.61
		c-0.57-0.13-0.86,0.3-1.21,0.61c-0.56-1-0.43-2.13-0.17-3.09c0.66-2.41,0.81-5.05,2.11-7.18c1.94-3.18,3.87-6.44,7.39-8.33
		c1.35-0.72,2.46-1.89,3.93-2.52c0.99-0.42,1.98-0.89,3.04-0.81C104.05,59.74,104.53,58.43,105.6,58.75z"/>
	<path class="st4" d="M86.69,81.58c0.35-0.31,0.64-0.74,1.21-0.61c-0.19,3.98,0.99,7.63,2.82,11.09c1.36,2.56,3.23,4.74,5.43,6.63
		c-0.05,0.77-0.57,0.91-1.21,0.89c-5.1-3.84-7.61-9.13-8.49-15.3C86.33,83.41,86.6,82.48,86.69,81.58z"/>
	<path class="st4" d="M111.73,103.19c-0.01,0.41-0.02,0.83-0.02,1.24c-3.77,0.28-7.45-0.1-10.98-1.52c0-0.5,0-1,0-1.5
		C104.29,102.65,107.95,103.29,111.73,103.19z"/>
	<path class="st1" d="M136.54,86.45c-0.05,0.1-0.1,0.2-0.14,0.3C136.45,86.65,136.5,86.55,136.54,86.45z"/>
	<circle class="st5" cx="108.5" cy="81.5" r="23.5"/>
	<path class="st6" d="M122.05,99.84l-2.15,1.51l11.72-25.49l0.04,5.74l0.03,3.82c-1.78,3.66-2.81,7.34-6.38,11.86L122.05,99.84z"/>
	<path class="st6" d="M85.09,83.15l0.21,2.62l12.2-25.26l-4.45,3.62l-2.97,2.41C88.4,70.23,86.22,73.37,85,79L85.09,83.15z"/>
	
		<rect x="107.84" y="58.86" transform="matrix(0.9485 0.3167 -0.3167 0.9485 31.6857 -30.6451)" class="st6" width="4.55" height="46.59"/>
	<circle class="st7" cx="108.5" cy="81.5" r="23.5"/>
	<path class="st1" d="M103.17,62.4c-0.03,0.4-0.25,0.58-0.65,0.54C102.58,62.57,102.79,62.38,103.17,62.4z"/>
</g>
<circle class="st7" cx="108.91" cy="81.54" r="20.54"/>
</svg>
