<?xml version="1.0" encoding="utf-8"?>
<!-- Generator: Adobe Illustrator 25.1.0, SVG Export Plug-In . SVG Version: 6.00 Build 0)  -->
<svg version="1.1" id="Layer_1" xmlns="http://www.w3.org/2000/svg" xmlns:xlink="http://www.w3.org/1999/xlink" x="0px" y="0px"
	 viewBox="0 0 256 256" style="enable-background:new 0 0 256 256;" xml:space="preserve">
<style type="text/css">
	.st0{fill:#E73A44;}
	.st1{fill:#040404;}
	.st2{fill:#060606;}
	.st3{fill:#050505;}
</style>
<g>
	<path class="st0" d="M129.98,170.45c-3.56,0-7.13,0.01-10.69,0c-4.61-0.01-5.93-1.36-5.93-6.08c-0.01-5.49-0.08-10.98,0.04-16.47
		c0.04-1.92-0.56-2.43-2.43-2.4c-5.68,0.11-11.37,0.06-17.05,0.03c-3.91-0.02-5.47-1.54-5.48-5.38c-0.03-7.61-0.03-15.22,0-22.83
		c0.02-3.53,1.6-5.14,5.11-5.16c5.78-0.05,11.56-0.11,17.34,0.04c2.09,0.05,2.56-0.64,2.52-2.61c-0.13-5.68-0.07-11.37-0.04-17.05
		c0.02-3.73,1.56-5.28,5.26-5.3c7.61-0.03,15.22-0.03,22.83,0c3.85,0.01,5.31,1.55,5.33,5.51c0.02,5.68,0.09,11.37-0.04,17.05
		c-0.04,1.92,0.56,2.43,2.43,2.39c5.68-0.11,11.37-0.06,17.05-0.03c3.93,0.02,5.46,1.52,5.47,5.37c0.02,7.51,0.02,15.03,0,22.54
		c-0.01,3.91-1.51,5.44-5.38,5.46c-5.68,0.03-11.37,0.11-17.05-0.04c-2.08-0.05-2.57,0.61-2.53,2.59
		c0.13,5.68,0.07,11.37,0.04,17.05c-0.02,3.74-1.54,5.28-5.24,5.31C137.69,170.48,133.83,170.45,129.98,170.45z M151.99,137.08
		c2.99,0,5.98-0.11,8.96,0.04c1.95,0.1,2.46-0.65,2.4-2.49c-0.12-3.85-0.15-7.71,0.01-11.56c0.09-2.13-0.74-2.56-2.67-2.52
		c-5.58,0.11-11.17,0.06-16.76,0.03c-4.1-0.02-5.59-1.49-5.61-5.57c-0.03-5.49-0.09-10.98,0.03-16.47c0.05-2.13-0.35-3.12-2.79-2.98
		c-3.74,0.22-7.52,0.19-11.26,0.01c-2.17-0.11-2.52,0.76-2.49,2.66c0.11,5.58,0.06,11.17,0.03,16.76c-0.02,4.08-1.51,5.57-5.58,5.59
		c-5.59,0.02-11.18,0.08-16.76-0.03c-1.92-0.04-2.76,0.35-2.66,2.5c0.17,3.85,0.17,7.71,0,11.55c-0.09,2.12,0.7,2.56,2.65,2.52
		c5.58-0.12,11.17-0.06,16.76-0.04c4.08,0.02,5.58,1.51,5.6,5.57c0.02,5.59,0.07,11.17-0.03,16.76c-0.03,1.87,0.26,2.79,2.46,2.68
		c3.84-0.19,7.71-0.17,11.56-0.01c2.12,0.09,2.56-0.72,2.52-2.65c-0.11-5.78-0.08-11.56-0.02-17.34c0.04-3.38,1.64-4.94,4.99-5.01
		C146.21,137.04,149.1,137.08,151.99,137.08z"/>
	<path class="st1" d="M122.44,245.11c-6.36,0-12.72-0.1-19.08,0.02c-8.77,0.17-16.97-1.95-24.79-5.76c-9-4.38-18-8.75-26.99-13.14
		c-8.19-4-16.81-6.05-25.94-5.96c-5.49,0.06-10.99,0.03-16.48,0c-3.04-0.02-4.93-1.57-5-4.02c-0.07-2.56,1.87-4.28,5.08-4.2
		c9.9,0.25,19.86-0.83,29.7,1.13c5.7,1.14,11.11,3.09,16.32,5.63c9.08,4.42,18.18,8.82,27.27,13.23c6.6,3.2,13.55,4.91,20.9,4.91
		c13.49,0,26.99-0.01,40.48,0.02c1.39,0,2.64-0.29,3.9-0.81c10.67-4.42,21.32-8.87,32.04-13.15c2.16-0.86,2.65-2.06,2.33-4.15
		c-0.55-3.53-2.64-5.88-6.21-6.75c-4.08-0.99-8.07-0.17-11.99,0.82c-4.01,1.01-7.93,2.33-11.89,3.53c-3.16,0.95-5.27,0.08-6.1-2.52
		c-0.76-2.4,0.43-4.32,3.46-5.35c6.74-2.3,13.52-4.53,20.69-5.1c4.39-0.35,8.66,0.1,12.57,2.38c6.07,3.53,9.18,11.24,7.27,17.98
		c-0.81,2.85-2.41,4.97-5.23,6.12c-11.84,4.86-23.67,9.73-35.49,14.63c-1.11,0.46-2.23,0.53-3.39,0.53
		C138.05,245.11,130.24,245.11,122.44,245.11z"/>
	<path class="st1" d="M135.37,12.56c4.72,0,9.46,0.25,14.17-0.05c12.51-0.79,23.97,2.39,34.95,8.21c7.9,4.18,16.04,7.93,24.13,11.74
		c7.16,3.37,14.78,4.89,22.69,4.91c5.78,0.02,11.57-0.01,17.35,0.01c3.02,0.01,4.96,1.58,5.05,3.99c0.1,2.5-1.93,4.31-5.07,4.23
		c-9.81-0.25-19.66,0.8-29.42-1.08c-5.91-1.14-11.48-3.17-16.87-5.79c-8.99-4.39-18-8.73-27-13.11c-6.78-3.3-13.93-4.95-21.48-4.93
		c-13.2,0.03-26.41,0.02-39.61-0.01c-1.47,0-2.83,0.22-4.2,0.79c-10.66,4.43-21.32,8.88-32.04,13.17c-2.13,0.85-2.72,1.99-2.38,4.12
		c0.56,3.53,2.67,5.93,6.2,6.78c4.08,0.99,8.07,0.18,11.99-0.81c4.01-1.01,7.94-2.33,11.9-3.52c3.11-0.94,5.33-0.05,6.13,2.48
		c0.75,2.37-0.47,4.36-3.45,5.39c-5.82,2.03-11.7,3.85-17.82,4.79c-3.74,0.58-7.49,0.66-11.19-0.31
		c-8.9-2.35-14.2-11.85-11.37-20.26c0.88-2.63,2.46-4.49,5.05-5.56c11.84-4.86,23.66-9.74,35.48-14.65c1.21-0.5,2.42-0.55,3.67-0.54
		C119.95,12.57,127.66,12.56,135.37,12.56z"/>
	<path class="st2" d="M128.46,42.06c-1.29,5.83,0.58,10.37,4.68,14.16c3.77,3.48,8.48,5.24,13.1,7.16
		c6.66,2.78,13.33,5.52,20.01,8.24c1.31,0.53,2.33,1.3,2.94,2.59c4.82,10.22,13.29,15.08,24.14,16.35
		c6.52,0.76,12.89-0.11,19.03-2.39c1.75-0.65,3.48-0.97,5.34-0.96c10.31,0.04,20.62,0.04,30.93,0c1.99-0.01,3.58,0.54,4.58,2.38
		c0.84,1.55,0.55,2.97-0.43,4.32c-1.17,1.61-2.9,1.69-4.67,1.69c-9.73-0.01-19.46,0.01-29.2-0.02c-1.56,0-3.02,0.26-4.51,0.75
		c-14.83,4.88-29.01,4.19-42.06-5.25c-3.63-2.63-6.61-5.92-8.84-9.8c-0.97-1.69-2.25-2.69-4.03-3.42c-7.48-3.05-15-6.03-22.35-9.38
		c-7.65-3.49-14.05-8.41-16.61-16.98c-1.72-5.74-0.77-11.25,1.46-16.61c1.14-2.75,3.25-3.29,6.52-1.94
		c11.73,4.86,23.45,9.74,35.18,14.61c3.38,1.4,6.76,2.78,10.13,4.2c3.31,1.4,4.48,3.43,3.48,5.92c-1,2.47-3.37,3.14-6.62,1.8
		c-13.42-5.56-26.83-11.13-40.24-16.7C129.81,42.54,129.19,42.33,128.46,42.06z"/>
	<path class="st2" d="M24.5,162.09c2.02,0,4.05-0.05,6.07,0.01c6.08,0.17,11.94-0.56,17.92-2.09c15.25-3.9,29.25-1.21,40.93,10.07
		c1.17,1.13,2.47,2.32,3.14,3.75c2.03,4.28,5.69,6.12,9.85,7.71c6.38,2.43,12.65,5.17,18.9,7.94c5,2.22,9.37,5.38,12.62,9.85
		c5.42,7.45,5.28,15.43,1.88,23.58c-1,2.39-3.03,3.21-5.49,2.2c-15.75-6.49-31.49-13-47.21-19.57c-2.56-1.07-3.47-3.45-2.46-5.65
		c1.06-2.3,3.26-3.01,6.16-1.81c12.9,5.32,25.78,10.7,38.69,15.99c1.25,0.51,2.82,2.03,3.81,1.07c0.95-0.92,0.64-2.88,0.42-4.45
		c-0.76-5.55-4.16-9.18-8.71-11.9c-6.06-3.62-12.83-5.7-19.25-8.54c-3.34-1.48-6.75-2.81-10.15-4.15c-1.32-0.52-2.34-1.27-2.96-2.57
		c-5.04-10.68-13.96-15.49-25.27-16.51c-6.03-0.55-11.94,0.27-17.61,2.41c-2.02,0.77-4.04,1.08-6.2,1.07
		c-10.12-0.05-20.25-0.04-30.37-0.01c-2.38,0.01-4.17-0.78-4.88-3.19c-0.81-2.73,1.24-5.12,4.55-5.17
		C14.09,162.03,19.3,162.09,24.5,162.09z"/>
	<path class="st2" d="M41.6,128.6c0.24-18.7,5.56-35.76,16.59-50.95c2.05-2.82,4.43-3.48,6.55-1.87c2.09,1.58,2.23,3.87,0.28,6.62
		c-13.17,18.51-17.64,38.95-13.68,61.28c0.07,0.38,0.08,0.77,0.13,1.15c0.4,3.06-0.81,5.05-3.29,5.41c-2.41,0.35-4.3-1.09-4.84-3.86
		c-0.91-4.72-1.5-9.5-1.74-14.3C41.55,130.92,41.6,129.76,41.6,128.6z"/>
	<path class="st3" d="M216.3,127.64c-0.3,20.27-5.73,37.39-16.84,52.64c-2.19,3.01-5.34,3.52-7.2,1.14
		c-1.65-2.11-0.98-4.08,0.46-6.04c7.17-9.77,11.8-20.63,13.96-32.55c1.68-9.28,1.66-18.56,0.01-27.85
		c-0.07-0.38-0.18-0.75-0.24-1.13c-0.55-3.51,0.56-5.59,3.2-6.05c2.61-0.46,4.35,1.16,4.97,4.66c0.37,2.08,0.8,4.16,1.01,6.26
		C215.96,122.17,216.44,125.61,216.3,127.64z"/>
	<path class="st2" d="M74.9,70.92c-2.3-0.06-4.17-2.08-4.05-4.38c0.12-2.32,2.51-4.55,4.82-4.5c2.33,0.05,4.15,2.02,4.04,4.35
		C79.59,68.7,77.17,70.98,74.9,70.92z"/>
	<path class="st2" d="M183.09,195.63c-2.33,0-4.26-1.99-4.17-4.27c0.09-2.33,2.24-4.22,4.7-4.15c2.17,0.06,4.09,1.97,4.09,4.08
		C187.72,193.37,185.32,195.64,183.09,195.63z"/>
</g>
</svg>
