<?xml version="1.0" encoding="utf-8"?>
<!-- Generator: Adobe Illustrator 25.1.0, SVG Export Plug-In . SVG Version: 6.00 Build 0)  -->
<svg version="1.1" id="Layer_1" xmlns="http://www.w3.org/2000/svg" xmlns:xlink="http://www.w3.org/1999/xlink" x="0px" y="0px"
	 viewBox="0 0 256 256" style="enable-background:new 0 0 256 256;" xml:space="preserve">
<style type="text/css">
	.st0{fill:#040303;}
	.st1{fill:#E6AD4D;}
	.st2{fill:#FDDBCD;}
	.st3{fill:#E8BB6A;}
	.st4{fill:#3F6F92;}
</style>
<g>
	<path class="st0" d="M153.94,3.62c2.38,0.84,4.64,1.94,6.83,3.2c1.59,0.92,3.23,0.54,4.88-0.14c7.37-3.02,12.27,0.8,11.43,8.86
		c-0.47,4.47-2.06,8.59-3.96,12.61c-2.07,4.37-4.51,8.55-7.19,12.57c-0.7,1.05-0.74,1.62,0.2,2.57c2.68,2.74,3.83,6.16,3.41,9.96
		c-0.17,1.52,0.36,2.3,1.48,3.18c3.5,2.73,6.92,5.56,10.31,8.42c2.5,2.11,2.64,3.08,1.21,6.08c-2.19,1.59-4.08,1.16-6.05-0.59
		c-3.07-2.72-6.33-5.23-9.48-7.87c-0.84-0.7-1.5-0.92-2.52-0.2c-1.93,1.35-4.18,2-6.45,2.59c-5.81,1.49-11.76,1.76-17.71,2.02
		c-1.86-0.06-3.72-0.07-5.57-0.18c-6.94-0.4-13.89-0.77-20.32-3.84c-1.13-0.54-1.64,0.2-2.31,0.72c-5.87,4.58-11.44,9.5-16.65,14.83
		c-13.2,13.51-23.88,28.63-29.6,46.86c-3,9.57-4.34,19.37-3.38,29.41c0.09,0.93,0,1.92,1.34,2.23c9.02,2.09,16.9,6.68,24.79,11.27
		c4,2.33,8.22,4.21,12.84,4.79c13.3,1.67,26.61,3.27,39.93,4.76c11.48,1.29,18.89,7.8,21.42,19.13c0.12,2.2,0.23,4.4,0.35,6.77
		c0.78-0.29,1.31-0.46,1.82-0.69c12.55-5.52,25-11.27,37.68-16.47c4.64-1.9,7.42-4.89,9.5-9.2c7.91-16.44,8.09-33.34,3.13-50.51
		c-4.73-16.38-13.79-30.31-25.07-42.91c-2.4-2.67-2.52-3.59-0.82-6.38c1.97-1.11,3.8-1.18,5.45,0.64
		c13.92,15.38,24.63,32.53,29.07,53.08c3.42,15.8,2.64,31.29-3.86,46.28c-0.09,0.2-0.09,0.43-0.15,0.78c1.87,0.14,3.24-1,4.75-1.61
		c3.91-1.61,7.9-2.49,12.04-1.26c6.2,1.85,9.79,6.25,10.73,12.47c0.92,6.12-1.04,11.47-6.43,14.91
		c-22.17,14.15-44.42,28.19-66.64,42.27c-7.49,4.75-15.67,7.05-24.55,7.03c-16.01-0.04-32.02-0.2-48.02,0.06
		c-8.96,0.15-17.44-1.29-25.75-4.63c-9.64-3.87-19.46-7.29-29.18-10.97c-1.45-0.55-2.09-0.79-2.33,1.27
		c-0.7,5.9-4.91,9.44-10.91,9.48c-5.26,0.03-10.51,0.03-15.77,0c-6.6-0.04-10.99-4.35-11-10.89c-0.03-27.97-0.03-55.95,0-83.92
		c0.01-6.52,4.46-10.95,10.95-11c5.26-0.04,10.51-0.03,15.77,0c6.39,0.04,10.89,4.32,11.05,10.69c0.04,1.7,0.51,2.17,2.15,2.18
		c2.34,0.03,4.67,0.31,7,0.58c1.1,0.13,1.36-0.16,1.31-1.27c-1.31-30.72,12.11-55.33,32.11-77.17c6.18-6.75,13.01-12.82,20.21-18.46
		c0.48-0.38,0.94-0.78,1.53-1.27c-8-0.9-23.46,2.68-28.88,12.08c-1.32,2.29-3.5,2.74-5.34,1.51c-1.8-1.21-2.12-3.33-0.69-5.55
		c5.13-7.96,12.87-11.95,21.77-14.11c4.22-1.02,8.52-1.51,13.46-1.58c-3.9-4.79-8.23-7.63-14.02-7.63c-4.6-0.01-9.19,0.6-13.76-0.46
		c-4.05-0.94-7.85-2.42-11.32-4.71c-2.08-1.38-2.62-3.34-1.5-5.17c1.1-1.79,3.23-2.29,5.28-1c5.55,3.51,11.56,4.76,18.05,4.12
		c7.69-0.76,14.34,1.58,19.9,6.94c0.72,0.69,1.25,1.09,2.23,0.34c1.14-0.88,0.13-1.45-0.21-2c-4-6.64-7.92-13.32-9.65-21
		c-0.67-2.95-0.86-5.94,0.3-8.82c1.65-4.12,5-5.65,8.95-3.71c3.33,1.63,6.24,1.69,9.24-0.58c1.03-0.78,2.35-1.2,3.54-1.78
		c1.62,0,3.23,0,4.85,0c2.42,0.73,4.64,1.87,6.83,3.11c1.3,0.73,2.76,1,4.17,0.3c2.19-1.08,4.32-2.27,6.47-3.42
		C150.39,3.62,152.16,3.62,153.94,3.62z M138.48,14.61c-1.78-0.5-3.6-0.97-5.12-2.07c-2.95-2.15-5.72-1.96-8.7,0.05
		c-3.09,2.08-6.55,2.6-10.19,1.55c-3.65-1.06-3.94-0.78-3.11,2.96c0.11,0.47,0.24,0.94,0.39,1.4c2.33,7.48,6.38,14.07,10.54,20.61
		c0.52,0.81,1.17,1.04,2.04,0.94c0.37,0.14,0.74,0.32,1.12,0.41c10.63,2.39,21.18,1.77,31.7-0.79c0.83-0.2,1.23-0.65,1.63-1.26
		c3.5-5.34,6.79-10.81,9.19-16.75c0.91-2.25,1.65-4.56,1.89-6.99c0.09-0.98,0.02-1.93-1.39-1.29c-4.81,2.19-9.26,1.36-13.53-1.47
		c-2.19-1.45-4.46-1.31-6.59,0.16C145.35,14.13,142.06,14.91,138.48,14.61z M40.98,175.47c-2.47-0.4-3.59-1.83-3.56-4.35
		c0.05-5.98,0.04-11.96,0.01-17.94c-0.02-3.26-1.19-4.43-4.35-4.45c-4.93-0.02-9.86-0.03-14.79,0c-2.93,0.02-4.11,1.21-4.11,4.13
		c-0.01,27.72-0.01,55.43,0,83.15c0,2.88,1.07,3.93,3.95,3.95c4.77,0.03,9.54,0.01,14.3,0.01c4.05,0,5-0.94,5-4.96
		c0-15.03,0.04-30.06-0.03-45.09c-0.01-2.68,0.88-4.35,3.57-4.89c3.06,0.92,3.72,1.79,3.73,5.02c0.01,11.97,0.05,23.93-0.02,35.9
		c-0.01,1.56,0.48,2.23,1.91,2.75c11.96,4.38,23.9,8.79,35.81,13.28c5.06,1.91,10.22,2.81,15.63,2.79c17.3-0.07,34.6-0.04,51.9-0.02
		c7.38,0.01,14.2-1.87,20.43-5.82c22.09-13.99,44.19-27.98,66.27-41.98c3.42-2.17,4.67-6.27,3.13-9.97c-1.61-3.85-5.1-5.58-9.3-4.51
		c-1.4,0.35-2.77,0.87-4.09,1.45c-21.33,9.36-42.65,18.74-63.96,28.14c-1.66,0.73-3.33,1.07-5.15,1.07
		c-11.56-0.04-23.12-0.02-34.68-0.03c-1.69,0-3.42,0.09-5.07-0.18c-2.03-0.33-3.06-1.75-2.89-3.83c0.16-1.96,1.34-3.05,3.29-3.23
		c0.72-0.07,1.45-0.04,2.18-0.04c10.11,0,20.21,0,30.32,0c5.34,0,5.34,0,5.37-5.24c0.04-7.78-5.6-14.41-13.34-15.41
		c-7.29-0.95-14.6-1.68-21.91-2.52c-6.18-0.71-12.37-1.35-18.53-2.15c-8.44-1.1-15.73-5.14-22.92-9.33
		c-10.01-5.83-20.67-9.39-32.35-9.63c-1.56-0.03-2.14,0.26-2.05,1.91c0.14,2.5,0.06,5.01,0.03,7.52
		C44.64,173.78,43.83,174.73,40.98,175.47z M137.71,59.65c7.8,0.03,14.36-0.74,20.78-2.43c3.14-0.83,4.54-3.58,3.64-6.8
		c-0.78-2.8-2.81-3.93-6-3.23c-4.81,1.05-9.66,1.82-14.59,2.01c-6.82,0.26-13.52-0.59-20.14-2.17c-2.08-0.5-3.67,0.2-4.78,1.94
		c-2.11,3.31-0.5,7.42,3.31,8.37C126.15,58.86,132.46,59.67,137.71,59.65z"/>
	<path class="st1" d="M140.34,66.88c5.95-0.25,11.89-0.52,17.71-2.02c2.27-0.58,4.53-1.24,6.45-2.59c1.02-0.72,1.68-0.5,2.52,0.2
		c3.15,2.64,6.4,5.15,9.48,7.87c1.97,1.75,3.86,2.18,6.05,0.59c2.3,2.18,4.59,4.36,6.89,6.53c-1.7,2.8-1.57,3.71,0.82,6.38
		c11.28,12.59,20.34,26.52,25.07,42.91c4.96,17.17,4.78,34.07-3.13,50.51c-2.08,4.32-4.85,7.3-9.5,9.2
		c-12.68,5.19-25.13,10.94-37.68,16.47c-0.5,0.22-1.03,0.39-1.82,0.69c-0.12-2.37-0.24-4.57-0.35-6.77
		c1.78-1.11,3.18-2.63,4.63-4.14c10.47-10.82,15.28-24.12,16.46-38.77c0.84-10.36-0.75-20.55-4.01-30.45
		c-5.61-17.02-15.21-31.57-27.49-44.45C148.49,74.9,144.38,70.93,140.34,66.88z"/>
	<path class="st2" d="M40.98,175.47c2.85-0.74,3.67-1.69,3.71-4.5c0.04-2.51,0.11-5.02-0.03-7.52c-0.09-1.66,0.49-1.95,2.05-1.91
		c11.68,0.24,22.34,3.8,32.35,9.63c7.2,4.19,14.48,8.23,22.92,9.33c6.17,0.8,12.35,1.45,18.53,2.15c7.3,0.84,14.62,1.57,21.91,2.52
		c7.74,1.01,13.37,7.63,13.34,15.41c-0.02,5.24-0.02,5.24-5.37,5.24c-10.11,0-20.21,0-30.32,0c-0.73,0-1.46-0.03-2.18,0.04
		c-1.96,0.18-3.13,1.27-3.29,3.23c-0.17,2.08,0.86,3.5,2.89,3.83c1.66,0.27,3.38,0.18,5.07,0.18c11.56,0.01,23.12-0.01,34.68,0.03
		c1.82,0.01,3.49-0.33,5.15-1.07c21.31-9.4,42.63-18.78,63.96-28.14c1.32-0.58,2.7-1.1,4.09-1.45c4.2-1.07,7.69,0.67,9.3,4.51
		c1.54,3.69,0.29,7.8-3.13,9.97c-22.08,14-44.18,27.99-66.27,41.98c-6.24,3.95-13.05,5.83-20.43,5.82
		c-17.3-0.03-34.6-0.05-51.9,0.02c-5.4,0.02-10.57-0.88-15.63-2.79c-11.91-4.5-23.86-8.91-35.81-13.28
		c-1.43-0.52-1.92-1.19-1.91-2.75c0.07-11.96,0.04-23.93,0.02-35.9c0-3.23-0.67-4.1-3.73-5.02
		C40.97,181.84,40.97,178.66,40.98,175.47z"/>
	<path class="st3" d="M140.34,66.88c4.04,4.05,8.15,8.02,12.1,12.16c12.27,12.88,21.87,27.43,27.49,44.45
		c3.27,9.91,4.85,20.1,4.01,30.45c-1.18,14.65-5.99,27.95-16.46,38.77c-1.46,1.5-2.85,3.02-4.63,4.14
		c-2.53-11.33-9.94-17.84-21.42-19.13c-13.32-1.49-26.63-3.1-39.93-4.76c-4.62-0.58-8.84-2.47-12.84-4.79
		c-7.89-4.59-15.78-9.18-24.79-11.27c-1.34-0.31-1.25-1.3-1.34-2.23c-0.96-10.04,0.37-19.83,3.38-29.41
		c5.72-18.23,16.4-33.35,29.6-46.86c5.2-5.32,10.78-10.24,16.65-14.83c0.66-0.52,1.18-1.25,2.31-0.72
		c6.43,3.06,13.38,3.43,20.32,3.84C136.62,66.81,138.48,66.82,140.34,66.88z M136.41,137.37c0,4.28-0.07,8.57,0.03,12.85
		c0.04,1.6-0.47,1.86-1.97,1.67c-3.47-0.44-6.43-1.97-9.36-3.73c-1.97-1.18-4.01-0.67-5.1,1.04c-1.1,1.74-0.66,3.77,1.24,5.05
		c2.89,1.94,5.97,3.56,9.42,4.28c1.81,0.38,4.24,0.01,5.33,1.08c1.23,1.21,0.24,3.69,0.43,5.6c0.2,2.06,1.33,3.28,3.4,3.4
		c2.11,0.13,3.36-1.06,3.75-3.03c0.22-1.09,0.23-2.27,0.08-3.38c-0.31-2.25,0.36-3.26,2.77-3.92c8.57-2.34,14.61-10.53,14.92-19.66
		c0.3-8.72-4.36-15.23-13.34-18.65c-0.98-0.37-1.94-0.82-2.94-1.1c-1-0.28-1.41-0.76-1.4-1.86c0.05-6.79,0.05-13.58,0-20.37
		c-0.01-1.35,0.52-1.47,1.61-1.13c1.95,0.6,3.72,1.5,5.39,2.68c2.08,1.48,4.05,1.29,5.36-0.4c1.37-1.76,0.97-3.84-1.09-5.47
		c-1.85-1.46-3.88-2.86-6.17-3.23c-3.87-0.64-6.15-2.13-5.1-6.47c0.05-0.22-0.03-0.49-0.09-0.71c-0.54-1.85-1.78-2.98-3.69-2.88
		c-2,0.1-3.28,1.28-3.44,3.38c-0.08,1.05-0.13,2.11-0.01,3.15c0.21,1.8-0.26,2.74-2.27,3.11c-2.65,0.49-4.92,1.96-6.95,3.75
		c-7.29,6.43-9.25,21.14,2.44,27.37c1.71,0.91,3.38,1.91,5.15,2.67c1.23,0.53,1.66,1.2,1.64,2.54
		C136.36,129.13,136.41,133.25,136.41,137.37z"/>
	<path class="st4" d="M40.98,175.47c0,3.19-0.01,6.37-0.01,9.56c-2.69,0.54-3.58,2.22-3.57,4.89c0.07,15.03,0.04,30.06,0.03,45.09
		c0,4.02-0.95,4.96-5,4.96c-4.77,0-9.54,0.02-14.3-0.01c-2.88-0.02-3.95-1.07-3.95-3.95c-0.01-27.72-0.01-55.43,0-83.15
		c0-2.92,1.18-4.11,4.11-4.13c4.93-0.03,9.86-0.03,14.79,0c3.16,0.01,4.33,1.19,4.35,4.45c0.03,5.98,0.05,11.96-0.01,17.94
		C37.39,173.64,38.5,175.07,40.98,175.47z"/>
	<path class="st1" d="M138.48,14.61c3.59,0.31,6.88-0.47,9.87-2.55c2.12-1.47,4.4-1.61,6.59-0.16c4.27,2.83,8.72,3.66,13.53,1.47
		c1.41-0.64,1.48,0.31,1.39,1.29c-0.23,2.43-0.98,4.74-1.89,6.99c-2.4,5.94-5.69,11.41-9.19,16.75c-0.4,0.61-0.8,1.05-1.63,1.26
		c-10.52,2.56-21.07,3.17-31.7,0.79c-0.38-0.09-0.75-0.27-1.12-0.41c2.05-3.26,4.15-6.5,6.16-9.79
		C133.55,25.24,136.59,20.22,138.48,14.61z"/>
	<path class="st3" d="M137.71,59.65c-5.25,0.02-11.56-0.79-17.77-2.32c-3.81-0.94-5.41-5.06-3.31-8.37
		c1.11-1.74,2.69-2.44,4.78-1.94c6.62,1.58,13.32,2.43,20.14,2.17c4.93-0.19,9.78-0.96,14.59-2.01c3.18-0.69,5.22,0.43,6,3.23
		c0.89,3.23-0.5,5.98-3.64,6.8C152.06,58.91,145.51,59.68,137.71,59.65z"/>
	<path class="st3" d="M138.48,14.61c-1.89,5.61-4.93,10.63-7.98,15.64c-2.01,3.29-4.1,6.53-6.16,9.79c-0.87,0.1-1.53-0.13-2.04-0.94
		c-4.17-6.54-8.21-13.14-10.54-20.61c-0.14-0.46-0.28-0.93-0.39-1.4c-0.83-3.74-0.55-4.01,3.11-2.96c3.64,1.05,7.1,0.53,10.19-1.55
		c2.98-2.01,5.75-2.2,8.7-0.05C134.87,13.64,136.69,14.1,138.48,14.61z"/>
	<path class="st0" d="M136.41,137.37c0-4.12-0.06-8.25,0.03-12.37c0.03-1.34-0.41-2.02-1.64-2.54c-1.77-0.76-3.44-1.77-5.15-2.67
		c-11.7-6.23-9.73-20.94-2.44-27.37c2.04-1.8,4.31-3.26,6.95-3.75c2-0.37,2.48-1.31,2.27-3.11c-0.12-1.04-0.07-2.1,0.01-3.15
		c0.16-2.1,1.44-3.28,3.44-3.38c1.91-0.1,3.16,1.03,3.69,2.88c0.07,0.23,0.14,0.5,0.09,0.71c-1.05,4.34,1.23,5.83,5.1,6.47
		c2.29,0.38,4.32,1.77,6.17,3.23c2.07,1.63,2.46,3.7,1.09,5.47c-1.31,1.69-3.28,1.88-5.36,0.4c-1.66-1.18-3.44-2.08-5.39-2.68
		c-1.09-0.34-1.62-0.21-1.61,1.13c0.05,6.79,0.05,13.58,0,20.37c-0.01,1.11,0.4,1.58,1.4,1.86c1,0.28,1.96,0.73,2.94,1.1
		c8.98,3.42,13.64,9.93,13.34,18.65c-0.31,9.14-6.35,17.33-14.92,19.66c-2.41,0.66-3.07,1.67-2.77,3.92
		c0.15,1.11,0.14,2.29-0.08,3.38c-0.39,1.97-1.65,3.16-3.75,3.03c-2.08-0.12-3.2-1.34-3.4-3.4c-0.19-1.91,0.81-4.39-0.43-5.6
		c-1.08-1.06-3.51-0.7-5.33-1.08c-3.45-0.72-6.52-2.34-9.42-4.28c-1.9-1.28-2.34-3.31-1.24-5.05c1.08-1.71,3.13-2.22,5.1-1.04
		c2.93,1.76,5.9,3.29,9.36,3.73c1.49,0.19,2-0.06,1.97-1.67C136.35,145.94,136.41,141.66,136.41,137.37z M143.7,151.33
		c5.66-1.13,10.1-6.59,10.34-12.57c0.25-6.04-3.05-10.46-8.96-12.18c-1.13-0.33-1.4-0.08-1.4,1.03
		C143.71,135.51,143.7,143.41,143.7,151.33z M136.41,105.29c0-2.59-0.06-5.18,0.02-7.76c0.05-1.53-0.22-2.08-1.86-1.33
		c-3.71,1.69-6.14,5.93-5.91,10.55c0.21,4.21,2.86,5.89,6.64,7.84c1.23,0.63,1.09-0.34,1.1-1.05
		C136.42,110.78,136.41,108.03,136.41,105.29z"/>
	<path class="st3" d="M143.7,151.33c0-7.93,0.01-15.82-0.01-23.71c0-1.11,0.26-1.36,1.4-1.03c5.91,1.71,9.21,6.14,8.96,12.18
		C153.8,144.74,149.36,150.2,143.7,151.33z"/>
	<path class="st3" d="M136.41,105.29c0,2.75,0.01,5.5,0,8.25c0,0.71,0.13,1.69-1.1,1.05c-3.78-1.95-6.43-3.63-6.64-7.84
		c-0.23-4.62,2.2-8.86,5.91-10.55c1.64-0.75,1.91-0.2,1.86,1.33C136.36,100.11,136.41,102.7,136.41,105.29z"/>
</g>
</svg>
