<?xml version="1.0" encoding="utf-8"?>
<!-- Generator: Adobe Illustrator 25.1.0, SVG Export Plug-In . SVG Version: 6.00 Build 0)  -->
<svg version="1.1" id="Layer_1" xmlns="http://www.w3.org/2000/svg" xmlns:xlink="http://www.w3.org/1999/xlink" x="0px" y="0px"
	 viewBox="0 0 256 256" style="enable-background:new 0 0 256 256;" xml:space="preserve">
<style type="text/css">
	.st0{fill:#030303;}
	.st1{fill:#FBDD75;}
	.st2{fill:#C7EEFD;}
	.st3{fill:#98E4F9;}
	.st4{fill:#D8B0ED;}
	.st5{display:none;fill:#030303;}
</style>
<g>
	<path class="st0" d="M129.78,4.05c3.9,1.13,7.91,1.94,11.44,4.15c2.82,1.77,3.28,2.91,2.15,6.03c-2,1.9-3.91,1.45-6.14,0.18
		c-10.7-6.1-24.2-2.67-30.75,7.67c-6.46,10.19-3.89,23.74,5.8,30.82c1.3,0.95,2.59,1.43,4.24,1.41c6.33-0.08,12.66-0.08,18.99,0.01
		c1.48,0.02,2.65-0.42,3.8-1.25c8.21-5.91,11.62-16.41,8.28-26.16c-0.8-2.35-0.81-4.24,1.27-5.83c3.14-0.71,4.47-0.03,5.52,3.06
		c3.68,10.86,1.72,20.75-5.23,29.81c0.57,0.68,1.35,0.32,2,0.32c10.48,0.03,20.97,0,31.45,0.02c9.97,0.02,16.77,6.84,16.84,16.86
		c0.02,3.01,0.04,6.01-0.01,9.02c-0.02,1.12,0.22,1.63,1.47,1.99c5.27,1.5,8.56,5.83,8.65,11.05c0.09,5.25-3.2,9.66-8.59,11.34
		c-1.08,0.34-1.77,0.73-1.51,1.97c0.02,0.08,0,0.16,0,0.24c0.11,8.01-1.14,9.58,8.51,14.43c16.43,8.25,25.18,22.16,25.68,40.59
		c0.43,15.67,0.33,31.37,0.02,47.05c-0.45,22.48-18.48,41.88-40.83,44.49c-2.1,0.25-4.2,0.41-6.32,0.41
		c-40.39,0-80.77,0.03-121.16-0.01c-23-0.02-41.91-15.52-46.54-38.03c-0.62-3.03-0.8-6.11-0.8-9.21c0.01-14.3-0.16-28.61,0.04-42.91
		c0.3-20.62,10.04-35.26,28.73-43.88c3.88-1.79,5.88-4.4,5.57-8.69c-0.03-0.49-0.04-0.98,0-1.46c0.23-2.76,0.08-4.74-3.46-5.8
		c-4.37-1.31-6.91-6.38-6.62-10.91c0.31-5.03,3.47-9.26,8.3-10.56c1.59-0.43,1.79-1.1,1.81-2.47c0.05-3.97-0.37-7.97,0.26-11.92
		c1.26-7.9,7.7-13.51,15.72-13.56c11.37-0.07,22.75-0.02,34.08-0.02c0.37-0.55-0.06-0.79-0.28-1.08
		C87.99,34.71,97.89,8.84,120.76,4.52c0.33-0.06,0.63-0.08,0.73-0.47C124.25,4.05,127.02,4.05,129.78,4.05z M71.74,238.11
		c1.38-2.51,2.76-5.02,4.49-8.18c-3.03,1.46-5.46,2.62-7.89,3.79c-6.6,2.93-13.21,5.87-20.05,8.91c8.19,4.1,16.57,3.97,25.3,3.68
		C71.62,243.73,71.32,240.99,71.74,238.11z M87.39,89.1c-10.89-0.04-21.77-0.1-32.66-0.11c-3.16,0-5.1,1.67-5.15,4.29
		c-0.04,2.74,1.9,4.39,5.24,4.4c4.79,0.01,9.59-0.01,14.38,0.01c3.04,0.01,4.7,1.35,4.67,3.72c-0.03,2.35-1.65,3.58-4.77,3.59
		c-2.44,0.01-4.88,0.1-7.31-0.03c-1.67-0.09-2.26,0.36-2.19,2.12c0.1,2.75,0.35,5.55-0.24,8.27c-1.29,5.98-5.49,9.12-10.79,11.58
		c-13.99,6.49-22.25,17.62-22.98,32.97c-0.79,16.54-0.27,33.15-0.13,49.72c0.04,5.16,1.62,10.05,4.1,14.92
		c1.4-2.95,3.92-4.19,6.53-5.38c8.17-3.72,16.32-7.51,24.47-11.27c4.06-1.79,8.12-3.6,12.2-5.37c5.1-2.21,9.73-0.44,12.15,4.57
		c0.68,1.41,1.12,2.96,2.22,4.31c2.41-4.13,4.7-8.13,7.07-12.09c2.85-4.77,7.72-6.06,12.53-3.38c1.77,0.99,3.46,2.12,5.26,3.04
		c3.44,1.75,5.9,4.11,6.48,8.19c0.3,2.12,2.22,0.78,3.38,1.04c1.27,0.28,1.14-0.71,1.13-1.54c-0.02-2.35-0.01-4.71-0.01-7.06
		c0-3.12,0-3.12-3.18-3.14c-6.39-0.06-9.86-3.56-9.88-10.01c-0.01-2.43-0.05-4.87,0.01-7.3c0.14-5.39,3.69-8.97,9.04-9.12
		c2.59-0.07,5.19,0.01,7.79-0.02c2.58-0.03,4.15,1.11,4.57,3.71c-0.44,2.59-2,3.72-4.6,3.64c-2.35-0.07-4.7,0.03-7.05-0.03
		c-1.77-0.04-2.49,0.74-2.45,2.49c0.06,2.27,0.07,4.54,0,6.81c-0.05,1.72,0.6,2.53,2.4,2.53c13.79-0.02,27.57-0.02,41.36,0.01
		c1.63,0,2.38-0.69,2.35-2.34c-0.05-2.27-0.09-4.54,0.01-6.81c0.09-2.01-0.77-2.74-2.74-2.71c-5.03,0.07-10.06-0.02-15.08,0.04
		c-2.58,0.03-4.18-1-4.59-3.63c0.37-2.65,1.98-3.73,4.54-3.71c5.36,0.02,10.73-0.06,16.09,0.03c5.37,0.1,8.93,3.72,9.07,9.11
		c0.07,2.6,0.18,5.21-0.04,7.79c-0.16,1.94,0.51,2.35,2.27,2.23c3.08-0.23,6.1,0.15,8.26,2.65c0.97,1.13,1.97,1.35,3.35,1.35
		c18.36-0.01,32.47,16.44,29.82,34.61c-0.48,3.28-1.68,6.32-2.83,9.4c0.79,0.2,1.08-0.24,1.43-0.54c8.3-7.46,13.22-16.7,13.44-27.9
		c0.3-15.59,0.42-31.21,0-46.79c-0.45-16.65-8.78-28.53-23.91-35.39c-6.32-2.86-10-7.23-10.39-14.22c0.03-1.54-0.07-3.1,0.14-4.61
		c0.31-2.28-0.59-2.76-2.77-2.75c-33.61,0.07-67.22,0.05-100.82,0.05c-2.98,0-4.43-0.95-4.74-3.07c-0.33-2.2,0.75-3.5,3.58-4.33
		c0.57,0.03,1.13,0.08,1.7,0.08c35.89,0,71.77,0,107.66,0c0.41,0,0.81,0.02,1.22-0.01c2.45-0.18,4.16-1.88,4.22-4.19
		c0.07-2.27-1.57-4.14-3.97-4.45c-0.64-0.08-1.3-0.04-1.95-0.04c-35.48,0-70.96,0-106.44,0C89.01,88.99,88.2,89.06,87.39,89.1z
		 M125.84,81.64c0,0.01,0,0.02,0,0.02c21.2,0,42.39-0.04,63.59,0.06c2.33,0.01,2.86-0.7,2.72-2.84c-0.18-2.67-0.01-5.36-0.05-8.04
		c-0.09-5.64-3.71-9.25-9.37-9.25c-37.93-0.01-75.85,0-113.78,0.02c-5.54,0-9.16,3.58-9.26,9.1c-0.05,2.76,0.13,5.53-0.06,8.28
		c-0.14,2.09,0.39,2.72,2.62,2.7C83.45,81.6,104.64,81.64,125.84,81.64z M161.35,223.19c-0.13,12.65,10.08,23.09,22.68,23.2
		c12.62,0.11,23.11-10.11,23.26-22.67c0.15-12.76-10.08-23.19-22.85-23.27C171.72,200.36,161.48,210.46,161.35,223.19z
		 M81.86,218.17c-1.35-2.87-2.42-6.03-4.22-8.83c-0.47-0.73-1.29-0.38-1.99-0.06c-12.68,5.77-25.36,11.53-38.05,17.29
		c-1.35,0.61-1.81,1.45-1.11,2.89c1.07,2.18,2.08,4.39,3.02,6.64c0.64,1.54,1.51,1.87,3.04,1.17c12.6-5.76,25.21-11.48,37.82-17.2
		C81.15,219.7,81.78,219.26,81.86,218.17z M87.61,246.35c1.2,0.1,1.58-0.55,1.95-1.19c7.02-12.03,14.02-24.06,21.05-36.08
		c0.8-1.37,0.38-2.25-0.9-2.97c-1.98-1.11-3.97-2.2-5.86-3.44c-1.81-1.19-2.8-0.69-3.83,1.1c-6.66,11.58-13.37,23.13-20.16,34.63
		c-1.15,1.95-1.17,3.15,1.04,4.21c1.89,0.9,3.64,2.11,5.47,3.15C86.84,246.05,87.36,246.24,87.61,246.35z M134.98,227.34
		c5.84,0,11.68-0.03,17.52,0.02c1.18,0.01,1.77-0.16,1.64-1.57c-0.28-2.92-0.17-5.84,0.52-8.7c0.28-1.17-0.03-1.56-1.28-1.55
		c-12.09,0.04-24.17,0.05-36.26,0.01c-1.75-0.01-2.26,0.84-2.23,2.4c0.04,2.19,0.09,4.38-0.02,6.57c-0.1,2.08,0.69,2.89,2.83,2.86
		C123.46,227.27,129.22,227.34,134.98,227.34z M169.41,196.47c-12.46,0-24.92-0.01-37.38,0.01c-1.36,0-1.75,0.89-1.74,2.12
		c0.03,2.35,0.08,4.71-0.02,7.06c-0.08,1.91,0.73,2.6,2.59,2.59c7.87-0.04,15.73-0.02,23.6,0c0.93,0,1.66-0.09,2.24-1.02
		C161.38,202.86,165.05,199.5,169.41,196.47z M164.56,246.4c-3.62-3.3-6.15-6.65-7.88-10.56c-0.39-0.88-0.87-1.2-1.81-1.2
		c-7.46,0.03-14.93,0.04-22.39,0.01c-1.57-0.01-2.21,0.65-2.19,2.18c0.04,2.43,0.05,4.87,0,7.3c-0.04,1.68,0.75,2.3,2.37,2.28
		c4.38-0.04,8.76-0.01,13.14-0.01C151.85,246.4,157.91,246.4,164.56,246.4z M107.87,228.31c-3.6,6.18-6.98,11.99-10.53,18.08
		c6.64,0,12.86,0.04,19.08-0.02c2.16-0.02,5.04,0.94,6.27-0.43c1.05-1.16,0.27-3.99,0.28-6.09c0.01-5.18,0-5.25-5.22-5.18
		C113.25,234.74,109.92,233.05,107.87,228.31z"/>
	<path class="st1" d="M148.85,21.06c-2.08,1.59-2.07,3.48-1.27,5.83c3.33,9.75-0.07,20.25-8.28,26.16c-1.15,0.83-2.32,1.27-3.8,1.25
		c-6.33-0.08-12.66-0.09-18.99-0.01c-1.64,0.02-2.94-0.46-4.24-1.41c-9.7-7.08-12.27-20.63-5.8-30.82
		c6.56-10.34,20.06-13.76,30.75-7.67c2.23,1.27,4.14,1.73,6.14-0.18C145.52,16.24,147.52,18.38,148.85,21.06z M134.1,24.02
		c-0.01-1.44-0.92-2.79-2.75-3.72c-1.1-0.55-1.99-1.04-2.4-2.4c-0.43-1.41-1.72-2.14-3.24-2.11c-1.6,0.03-2.84,0.8-3.33,2.36
		c-0.34,1.06-0.9,1.73-1.83,2.36c-5.45,3.73-5.24,11.16,0.43,14.47c1.8,1.05,3.8,1.79,5.75,2.58c1.09,0.44,1.88,0.99,1.68,2.29
		c-0.2,1.37-0.98,2.17-2.39,2.33c-1.77,0.21-3.31-0.31-4.87-1.13c-1.86-0.99-3.55-0.41-4.61,1.34c-1.05,1.74-0.77,3.47,0.88,4.75
		c0.82,0.64,1.77,1.2,2.74,1.53c1.14,0.39,1.9,0.88,2.33,2.13c0.51,1.53,1.84,2.18,3.48,2.1c1.55-0.08,2.83-0.88,3.08-2.3
		c0.27-1.53,1.22-2.06,2.3-2.8c3.28-2.26,4.78-5.46,4.35-9.43c-0.41-3.76-2.64-6.14-6.06-7.53c-1.65-0.67-3.28-1.38-4.9-2.12
		c-0.43-0.2-0.88-0.5-0.76-1.11c0.12-0.59,0.42-1.02,1.05-1.2c1.28-0.37,2.34,0.08,3.46,0.66C131.21,28.47,134.13,26.83,134.1,24.02
		z"/>
	<path class="st2" d="M192,112.32c0.4,6.98,4.08,11.35,10.39,14.22c15.13,6.86,23.46,18.74,23.91,35.39c0.42,15.59,0.3,31.2,0,46.79
		c-0.22,11.2-5.14,20.44-13.44,27.9c-0.34,0.31-0.64,0.75-1.43,0.54c1.15-3.08,2.35-6.12,2.83-9.4
		c2.66-18.18-11.46-34.62-29.82-34.61c-1.38,0-2.37-0.22-3.35-1.35c-2.16-2.51-5.18-2.88-8.26-2.65c-1.76,0.13-2.43-0.29-2.27-2.23
		c0.22-2.58,0.11-5.2,0.04-7.79c-0.14-5.39-3.7-9.01-9.07-9.11c-5.36-0.1-10.72-0.01-16.09-0.03c-2.57-0.01-4.18,1.07-4.54,3.71
		c-3.2,0-6.4,0-9.6-0.01c-0.41-2.6-1.99-3.74-4.57-3.71c-2.6,0.03-5.2-0.05-7.79,0.02c-5.36,0.15-8.9,3.74-9.04,9.12
		c-0.06,2.43-0.02,4.87-0.01,7.3c0.03,6.45,3.49,9.95,9.88,10.01c3.19,0.03,3.19,0.03,3.18,3.14c0,2.35-0.01,4.71,0.01,7.06
		c0.01,0.84,0.14,1.83-1.13,1.54c-1.16-0.26-3.08,1.09-3.38-1.04c-0.58-4.08-3.05-6.44-6.48-8.19c-1.8-0.92-3.49-2.05-5.26-3.04
		c-4.81-2.68-9.68-1.39-12.53,3.38c-2.37,3.96-4.66,7.97-7.07,12.09c-1.1-1.35-1.53-2.9-2.22-4.31c-2.42-5.01-7.05-6.77-12.15-4.57
		c-4.08,1.76-8.13,3.58-12.2,5.37c-0.01-15.03-0.15-30.07,0.05-45.1c0.08-6.21,1.08-12.37,3.36-18.26
		c3.48-8.97,8.82-16.4,17.36-21.14c2.99-1.66,5.14-3.77,6.26-7.06c1-2.97,2.77-4.04,5.92-4.04
		C126.34,112.31,159.17,112.31,192,112.32z"/>
	<path class="st3" d="M192,112.32c-32.83-0.01-65.66-0.02-98.49-0.02c-3.15,0-4.92,1.08-5.92,4.04c-1.11,3.29-3.27,5.41-6.26,7.06
		c-8.55,4.74-13.88,12.17-17.36,21.14c-2.28,5.89-3.28,12.05-3.36,18.26c-0.2,15.03-0.06,30.07-0.05,45.1
		c-8.15,3.76-16.3,7.55-24.47,11.27c-2.61,1.19-5.13,2.43-6.53,5.38c-2.48-4.87-4.06-9.76-4.1-14.92
		c-0.13-16.58-0.66-33.18,0.13-49.72c0.74-15.35,9-26.48,22.98-32.97c5.3-2.46,9.51-5.6,10.79-11.58c0.59-2.72,0.34-5.51,0.24-8.27
		c-0.06-1.76,0.52-2.21,2.19-2.12c2.43,0.14,4.87,0.04,7.31,0.03c3.12-0.01,4.74-1.24,4.77-3.59c0.03-2.37-1.63-3.71-4.67-3.72
		c-4.79-0.01-9.59,0.01-14.38-0.01c-3.33-0.01-5.28-1.66-5.24-4.4c0.04-2.61,1.99-4.29,5.15-4.29c10.89,0.01,21.77,0.07,32.66,0.11
		c-1.06,2.83-1.4,5.66-0.01,8.49c-2.83,0.83-3.91,2.13-3.58,4.33c0.32,2.12,1.76,3.07,4.74,3.07c33.61,0,67.22,0.02,100.82-0.05
		c2.18,0,3.08,0.47,2.77,2.75C191.94,109.22,192.04,110.78,192,112.32z"/>
	<path class="st4" d="M125.84,81.64c-21.2,0-42.39-0.04-63.59,0.06c-2.22,0.01-2.76-0.61-2.62-2.7c0.19-2.75,0-5.52,0.06-8.28
		c0.11-5.52,3.72-9.09,9.26-9.1c37.93-0.02,75.85-0.03,113.78-0.02c5.66,0,9.28,3.61,9.37,9.25c0.04,2.68-0.13,5.37,0.05,8.04
		c0.14,2.14-0.39,2.85-2.72,2.84c-21.2-0.1-42.39-0.06-63.59-0.06C125.84,81.65,125.84,81.65,125.84,81.64z"/>
	<path class="st1" d="M161.35,223.19c0.13-12.73,10.37-22.83,23.09-22.75c12.77,0.08,23.01,10.51,22.85,23.27
		c-0.15,12.57-10.63,22.79-23.26,22.67C171.43,246.28,161.22,235.84,161.35,223.19z M192.49,213.17c0.04-1.51-0.77-2.84-2.64-3.77
		c-1.2-0.6-2.07-1.25-2.56-2.61c-0.5-1.4-1.8-2-3.34-1.93c-1.56,0.07-2.81,0.83-3.11,2.26c-0.3,1.41-1.23,1.91-2.2,2.62
		c-4.98,3.6-4.73,10.86,0.46,14.12c1.79,1.12,3.75,1.9,5.74,2.61c1.2,0.43,2.34,0.96,1.97,2.56c-0.33,1.44-1.3,2.16-2.78,2.26
		c-1.52,0.11-2.84-0.39-4.17-1.08c-2.04-1.06-4.08-0.47-5.06,1.31c-0.98,1.78-0.41,3.76,1.53,5.02c0.74,0.48,1.55,0.9,2.38,1.2
		c1.02,0.37,1.75,0.78,2.12,1.97c0.47,1.54,1.78,2.31,3.39,2.26c1.73-0.05,3.01-0.99,3.36-2.66c0.25-1.2,0.91-1.68,1.83-2.27
		c3.43-2.2,5.11-5.41,4.72-9.49c-0.36-3.86-2.67-6.31-6.19-7.72c-1.5-0.6-3-1.23-4.47-1.89c-0.58-0.26-1.22-0.59-1.03-1.43
		c0.19-0.85,0.85-1.13,1.61-1.24c1.13-0.17,2.01,0.45,2.95,0.92C189.61,217.48,192.41,215.91,192.49,213.17z"/>
	<path class="st2" d="M87.38,97.6c-1.39-2.83-1.05-5.66,0.01-8.49c0.81-0.04,1.62-0.11,2.42-0.11c35.48-0.01,70.96-0.01,106.44,0
		c0.65,0,1.31-0.04,1.95,0.04c2.4,0.32,4.04,2.18,3.97,4.45c-0.07,2.31-1.78,4.01-4.22,4.19c-0.4,0.03-0.81,0.01-1.22,0.01
		c-35.89,0-71.77,0-107.66,0C88.51,97.68,87.95,97.63,87.38,97.6z"/>
	<path class="st1" d="M131.31,173.7c3.2,0,6.4,0,9.6,0.01c0.41,2.63,2.01,3.66,4.59,3.63c5.03-0.06,10.06,0.03,15.08-0.04
		c1.97-0.03,2.83,0.69,2.74,2.71c-0.1,2.27-0.06,4.54-0.01,6.81c0.03,1.65-0.72,2.34-2.35,2.34c-13.79-0.02-27.57-0.03-41.36-0.01
		c-1.8,0-2.45-0.81-2.4-2.53c0.07-2.27,0.06-4.54,0-6.81c-0.05-1.75,0.67-2.54,2.45-2.49c2.35,0.06,4.7-0.04,7.05,0.03
		C129.32,177.41,130.87,176.29,131.31,173.7z"/>
	<path class="st1" d="M81.86,218.17c-0.08,1.1-0.71,1.53-1.49,1.89c-12.61,5.72-25.23,11.44-37.82,17.2
		c-1.53,0.7-2.4,0.37-3.04-1.17c-0.93-2.24-1.95-4.45-3.02-6.64c-0.71-1.44-0.25-2.28,1.11-2.89c12.69-5.75,25.37-11.52,38.05-17.29
		c0.7-0.32,1.52-0.67,1.99,0.06C79.44,212.13,80.51,215.29,81.86,218.17z"/>
	<path class="st1" d="M87.61,246.35c-0.25-0.11-0.77-0.31-1.25-0.58c-1.82-1.05-3.57-2.25-5.47-3.15c-2.21-1.05-2.19-2.25-1.04-4.21
		c6.79-11.5,13.5-23.05,20.16-34.63c1.03-1.79,2.02-2.29,3.83-1.1c1.89,1.24,3.89,2.33,5.86,3.44c1.28,0.72,1.71,1.59,0.9,2.97
		c-7.03,12.02-14.03,24.05-21.05,36.08C89.19,245.8,88.81,246.46,87.61,246.35z"/>
	<path class="st1" d="M134.98,227.34c-5.76,0-11.52-0.07-17.28,0.03c-2.14,0.04-2.93-0.77-2.83-2.86c0.11-2.19,0.05-4.38,0.02-6.57
		c-0.03-1.56,0.48-2.4,2.23-2.4c12.09,0.04,24.17,0.03,36.26-0.01c1.25,0,1.56,0.38,1.28,1.55c-0.69,2.87-0.79,5.79-0.52,8.7
		c0.13,1.42-0.46,1.58-1.64,1.57C146.66,227.32,140.82,227.34,134.98,227.34z"/>
	<path class="st1" d="M169.41,196.47c-4.36,3.03-8.03,6.39-10.72,10.75c-0.58,0.94-1.3,1.03-2.24,1.02c-7.87-0.02-15.73-0.04-23.6,0
		c-1.85,0.01-2.67-0.68-2.59-2.59c0.1-2.35,0.04-4.7,0.02-7.06c-0.02-1.23,0.38-2.12,1.74-2.12
		C144.49,196.47,156.95,196.47,169.41,196.47z"/>
	<path class="st1" d="M164.56,246.4c-6.64,0-12.7,0-18.76,0c-4.38,0-8.76-0.03-13.14,0.01c-1.62,0.02-2.41-0.6-2.37-2.28
		c0.05-2.43,0.04-4.87,0-7.3c-0.02-1.53,0.62-2.18,2.19-2.18c7.46,0.04,14.93,0.03,22.39-0.01c0.95,0,1.43,0.32,1.81,1.2
		C158.4,239.75,160.93,243.1,164.56,246.4z"/>
	<path class="st2" d="M107.87,228.31c2.05,4.74,5.38,6.43,9.88,6.37c5.22-0.07,5.23,0,5.22,5.18c0,2.09,0.78,4.92-0.28,6.09
		c-1.24,1.37-4.11,0.41-6.27,0.43c-6.22,0.06-12.44,0.02-19.08,0.02C100.89,240.3,104.27,234.49,107.87,228.31z"/>
	<path class="st3" d="M71.74,238.11c-0.41,2.88-0.11,5.62,1.84,8.2c-8.73,0.29-17.11,0.42-25.3-3.68
		c6.84-3.04,13.45-5.97,20.05-8.91C69.26,235.34,70.2,236.96,71.74,238.11z"/>
	<path class="st2" d="M71.74,238.11c-1.54-1.15-2.48-2.76-3.4-4.39c2.43-1.17,4.86-2.33,7.89-3.79
		C74.49,233.08,73.12,235.6,71.74,238.11z"/>
	<path class="st5" d="M134.1,24.02c0.03,2.81-2.89,4.45-5.6,3.06c-1.12-0.58-2.19-1.03-3.46-0.66c-0.63,0.18-0.93,0.61-1.05,1.2
		c-0.12,0.6,0.32,0.91,0.76,1.11c1.62,0.73,3.25,1.45,4.9,2.12c3.42,1.39,5.65,3.78,6.06,7.53c0.43,3.97-1.07,7.17-4.35,9.43
		c-1.08,0.74-2.02,1.27-2.3,2.8c-0.25,1.42-1.53,2.22-3.08,2.3c-1.64,0.08-2.96-0.57-3.48-2.1c-0.42-1.26-1.18-1.74-2.33-2.13
		c-0.98-0.34-1.92-0.89-2.74-1.53c-1.64-1.28-1.93-3.01-0.88-4.75c1.06-1.75,2.75-2.33,4.61-1.34c1.56,0.82,3.1,1.34,4.87,1.13
		c1.41-0.17,2.19-0.96,2.39-2.33c0.19-1.3-0.6-1.85-1.68-2.29c-1.95-0.79-3.94-1.53-5.75-2.58c-5.67-3.31-5.88-10.74-0.43-14.47
		c0.93-0.64,1.49-1.31,1.83-2.36c0.5-1.56,1.73-2.33,3.33-2.36c1.52-0.03,2.81,0.7,3.24,2.11c0.41,1.36,1.3,1.85,2.4,2.4
		C133.19,21.22,134.09,22.57,134.1,24.02z"/>
	<path class="st5" d="M192.49,213.17c-0.08,2.75-2.89,4.31-5.48,3.01c-0.95-0.47-1.82-1.09-2.95-0.92c-0.76,0.11-1.42,0.4-1.61,1.24
		c-0.19,0.84,0.45,1.17,1.03,1.43c1.48,0.66,2.97,1.28,4.47,1.89c3.52,1.41,5.82,3.86,6.19,7.72c0.39,4.08-1.29,7.29-4.72,9.49
		c-0.92,0.59-1.58,1.08-1.83,2.27c-0.35,1.66-1.63,2.6-3.36,2.66c-1.62,0.05-2.93-0.72-3.39-2.26c-0.36-1.19-1.1-1.6-2.12-1.97
		c-0.83-0.3-1.64-0.71-2.38-1.2c-1.94-1.26-2.51-3.24-1.53-5.02c0.98-1.78,3.02-2.37,5.06-1.31c1.33,0.69,2.64,1.18,4.17,1.08
		c1.48-0.11,2.45-0.82,2.78-2.26c0.36-1.6-0.77-2.13-1.97-2.56c-1.99-0.71-3.95-1.48-5.74-2.61c-5.2-3.26-5.44-10.51-0.46-14.12
		c0.97-0.7,1.9-1.21,2.2-2.62c0.31-1.43,1.56-2.2,3.11-2.26c1.54-0.07,2.84,0.53,3.34,1.93c0.49,1.36,1.36,2.01,2.56,2.61
		C191.72,210.33,192.54,211.66,192.49,213.17z"/>
</g>
<circle class="st1" cx="125.5" cy="33.5" r="19.5"/>
<circle class="st1" cx="184.5" cy="223.5" r="19.5"/>
</svg>
