<?xml version="1.0" encoding="utf-8"?>
<!-- Generator: Adobe Illustrator 25.1.0, SVG Export Plug-In . SVG Version: 6.00 Build 0)  -->
<svg version="1.1" id="Layer_1" xmlns="http://www.w3.org/2000/svg" xmlns:xlink="http://www.w3.org/1999/xlink" x="0px" y="0px"
	 viewBox="0 0 256 256" style="enable-background:new 0 0 256 256;" xml:space="preserve">
<style type="text/css">
	.st0{fill:#FCECED;}
	.st1{fill:none;}
	.st2{fill:#55B1B1;}
	.st3{fill:#95D1D5;}
	.st4{fill:#3F9FD2;}
	.st5{fill:#F8CDCA;}
	.st6{fill:#D95C56;}
	.st7{fill:#ED766A;}
	.st8{fill:#F2978A;}
	.st9{fill:#F4AAA4;}
	.st10{fill:#FBCB88;}
	.st11{fill:#5ABEC6;}
	.st12{fill:#75160D;}
	.st13{fill:#F6B6A9;}
	.st14{fill:#FDE6C9;}
	.st15{fill:#8ECFDB;}
	.st16{fill:#A0D6DF;}
</style>
<path class="st0" d="M35.36,133.06c0,0-16.76-52.91,34.38-57.11c0,0,17.12,0.32,24.51-20.77c4.8-13.7,25.3-29.09,55.86-4.4
	c14.93,12.06,33.91,8.9,33.91,8.9s47.23-15.21,36.7,54.8c-15.4,102.32-84.28,56.4-84.28,56.4s-18.57-14.83-50.88-4.48
	C61.5,174.1,41.08,152.84,35.36,133.06z"/>
<g>
	<path class="st1" d="M68.7,184.29c-0.01-0.28-0.02-0.56-0.04-0.83c0.66,1.47,1.42,2.67,2.26,3.63
		C70.05,188.15,68.79,187.56,68.7,184.29z"/>
	<path class="st2" d="M62.53,159.03c-1.94-1.34-3.66-2.22-5.18-2.77c-0.6-1.63-0.9-3.57-0.78-5.93c0.52-10.22-4.35-7.94-9.13-16.33
		c-4.78-8.39-2.76-12.93-0.9-15.02c1.29,2.47,7.98,14.73,19.46,27.77c2.43,2.76,4.73,5.27,6.96,7.69c1.94,2.12,3.8,4.15,5.6,6.17
		C71.35,159.86,69.96,164.15,62.53,159.03z"/>
	<path class="st2" d="M79.72,160.78c-1.97-2.25-4.03-4.5-6.19-6.85c-2.22-2.42-4.52-4.93-6.95-7.68
		c-11.84-13.44-18.54-26.04-19.47-27.84c0.68-0.62,1.23-0.89,1.23-0.89s3.65-2.2,8.27,1.36c0,0,4.86,2.43,8.62,10.33
		c3.76,7.9,18.09,6.83,21.53,15.55c2.89,7.32,2.54,15.1,7.43,22.3c-6.36-4.26-12.12-5.77-12.85-5.95
		C80.77,160.98,80.24,160.87,79.72,160.78z"/>
	<path class="st3" d="M75.41,175.29c-15.78-6.74-26.77-14.88-28.31-16.05c0.33-0.82,0.7-1.28,0.7-1.28s2.76-4.16,9.55-1.7
		c1.52,0.55,3.24,1.43,5.18,2.77c7.43,5.12,8.82,0.83,16.02,1.59c0.37,0.04,0.76,0.09,1.17,0.16c0.51,0.09,1.05,0.2,1.63,0.34
		c0.73,0.18,6.5,1.68,12.85,5.95c4.15,2.78,8.55,6.73,11.98,12.27l-10.69,4.23c-3.37-1.43-8.18-3.4-10.9-4.5
		C81.67,177.89,78.65,176.67,75.41,175.29z"/>
	<path class="st3" d="M77.48,179.59c-3.45-5.48-6.32-0.94-5.82,3.61c0.2,1.8-0.19,3.19-0.75,3.88c-0.84-0.96-1.6-2.16-2.26-3.63
		c-0.29-4.96-1.77-8.46-1.77-8.46l0,0c-0.16-0.43-0.43-0.84-0.84-1.18c-0.74-0.6-1.77-0.76-2.65-0.4c-1.15,0.46-1.75,1.57-1.67,2.68
		c-2.08-0.64-4.58-1.17-7.92-3.5c-7.59-5.28-7.71-10.05-6.96-12.62c2.14,1.6,12.97,9.46,28.28,16c3.24,1.38,6.26,2.61,9.19,3.79
		c2.94,1.19,6.96,2.82,10.18,4.21l-15.7,6.21C79.27,186.9,79.37,182.6,77.48,179.59z"/>
	<path class="st4" d="M42.95,172.88c1.33-0.8,3.06-0.38,3.87,0.96c0.09,0.14,0.16,0.29,0.22,0.45l0,0c0,0,0,0,0,0.01
		c0.08,0.21,0.13,0.41,0.16,0.63c0.32,1.11,1.1,3.25,2.32,2.76c1.03-0.42,1.65-1.43,1.96-2.11c0.05-0.23,0.14-0.46,0.26-0.67
		c0,0,0,0,0,0l0,0c0.25-0.46,0.64-0.86,1.16-1.12c1.13-0.56,2.54-0.24,3.3,0.76c0.41,0.53,0.58,1.15,0.55,1.76l0,0
		c0.15,3.17,2.3,6.4,4.18,5.64c1.89-0.76,0.83-5.55,0.83-5.55l0,0c-0.02-0.1-0.02-0.19-0.03-0.29c-0.08-1.1,0.52-2.21,1.67-2.68
		c0.88-0.36,1.91-0.2,2.65,0.4c0.42,0.34,0.69,0.75,0.84,1.18l0,0c0,0,1.47,3.5,1.77,8.46c0.02,0.27,0.03,0.55,0.04,0.83
		c0.1,3.28,1.36,3.86,2.22,2.79c0.56-0.69,0.95-2.08,0.75-3.88c-0.51-4.55,2.36-9.09,5.82-3.61c1.89,3,1.79,7.31,1.31,10.59
		c0,0,0,0,0,0l-23.87,9.45c-0.08-0.04-0.16-0.07-0.24-0.11c-0.34-0.17-0.53-0.27-0.53-0.27v0c-0.55-0.25-1.03-0.7-1.31-1.31
		c-0.52-1.11-0.18-2.47,0.78-3.22c0.53-0.41,1.15-0.59,1.75-0.56l0,0c0,0,0.01,0,0.01,0c0.01,0,0.03,0,0.04,0
		c3.99,0.28,6.25-0.26,7.38-1.09c1.14-0.83,0.33-2.88-6.4-1.49c-6.73,1.39-9.62-0.74-9.62-0.74c-0.23-0.14-0.44-0.34-0.59-0.59
		c-0.16-0.27-0.21-0.59-0.16-0.9c0.14-1.02,0.56-1.35,1-1.52c1.67-0.98,6.61,0.44,7.21-0.44c0.6-0.88-0.44-2.51-5.69-4.76
		c-4.42-1.89-6.21-5.11-6.67-6.08c-0.02-0.04-0.04-0.09-0.06-0.14c-0.04-0.1-0.06-0.15-0.06-0.15l0,0
		C41.31,175.01,41.78,173.58,42.95,172.88z"/>
</g>
<path class="st4" d="M210.83,178.2c0.09-0.15,0.18-0.29,0.26-0.45c0.36-0.65,0.53-1.02,0.53-1.02l0,0c0.6-1.03,0.86-2.27,0.62-3.56
	c-0.42-2.35-2.47-4.14-4.85-4.25c-1.3-0.06-2.49,0.35-3.42,1.07l0,0c0,0-0.01,0.01-0.01,0.01c-0.02,0.02-0.04,0.03-0.06,0.05
	c-6.05,4.91-10.24,6.58-12.98,6.53c-2.75-0.04-3.75-4.22,8.52-9.55c12.27-5.34,14.49-11.96,14.49-11.97
	c0.21-0.49,0.32-1.03,0.27-1.6c-0.05-0.61-0.34-1.17-0.75-1.62c-1.37-1.46-2.4-1.52-3.3-1.3c-3.75,0.32-10.03,8.11-11.97,7.39
	c-1.94-0.72-2.12-4.49,3.74-13.96c4.93-7.96,4.17-15.09,3.8-17.15c-0.01-0.1-0.03-0.19-0.05-0.28c-0.04-0.2-0.07-0.31-0.07-0.31l0,0
	c-0.67-2.48-3.02-4.22-5.67-4.03c-3.02,0.21-5.3,2.83-5.09,5.86c0.02,0.33,0.08,0.64,0.16,0.95l0,0c0,0,0,0.01,0.01,0.02
	c0.11,0.41,0.25,0.81,0.45,1.18c0.74,2.13,1.89,6.4-0.6,6.98c-2.11,0.5-4.22-0.43-5.48-1.17c-0.35-0.31-0.74-0.58-1.16-0.79
	c0,0,0,0,0,0l0,0c-0.92-0.45-1.98-0.65-3.09-0.48c-2.43,0.37-4.31,2.47-4.4,4.92c-0.05,1.3,0.37,2.48,1.09,3.41l0,0
	c3.32,5.22,3.52,12.76-0.35,13.66c-3.87,0.9-7.54-7.92-7.54-7.92l-0.01,0c-0.99-2.14-3.38-3.47-5.93-2.88
	c-1.8,0.42-3.27,1.83-3.78,3.61c-0.29,1.01-0.26,1.96-0.02,2.82l0,0c0,0,1.75,8.04,7.55,16.83c5.8,8.79-1.62,9.46-5.94,1.59
	c-4.29-7.81-13.95-11.83-13.3,0.77c0.35,6.9,5.34,13.64,9.77,18.33L210.83,178.2z"/>
<g>
	<path class="st5" d="M217.72,180.11c-1.08-1.65-3.38-2.35-6.49-2.2c2.48-1.98,5.39-2.5,7.16-1.06c2.18,1.77,1.79,5.86-0.84,9.17
		C218.56,183.63,218.68,181.58,217.72,180.11z"/>
	<path class="st5" d="M203.73,160.1c-1.43-1.01-3.6-0.75-6.17,0.52c2.6-2.57,5.83-3.49,7.63-2.03c1.59,1.29,1.57,4.07,0.17,6.82
		C205.55,162.9,205.04,161.02,203.73,160.1z"/>
	<path class="st5" d="M175.82,157.52c-0.84-0.11-1.66,0.14-2.45,0.69c0.98-1.75,2.42-2.78,3.8-2.52c1.89,0.36,3,3.02,2.61,6.1
		C178.87,159.32,177.51,157.74,175.82,157.52z"/>
	<path class="st6" d="M175.35,188.35c-7.12,0.06-16.44,1.22-26.47,3.47c-2.3,0.52-4.54,1.07-6.71,1.66
		c-4.53-0.93-9.87-1.49-15.66-1.57c-1.87-0.87-3.78-1.7-5.74-2.48c2.09-1.06,4-2.13,5.66-3.18c0.01-0.01,0.02-0.01,0.03-0.02
		c4.26,0.13,8.2,0.57,11.58,1.27c1.79-0.48,3.64-0.94,5.53-1.37c8.13-1.83,15.69-2.78,21.52-2.86c0.08-2.43,0.53-5.69,1.49-10.09
		c1.55-7.07,3.94-12.99,6.78-14.97c0.78-0.55,1.6-0.8,2.45-0.69c1.68,0.22,3.05,1.8,3.97,4.27c1.21,3.25,1.63,8.02,0.95,13.23
		c-0.17,1.31-0.4,2.58-0.69,3.79C178,182.15,176.41,185.41,175.35,188.35z"/>
	<path class="st7" d="M173.82,198.75c-8.13,0.48-18.03,1.84-28.67,4.06c-5-3.67-11.44-7.55-18.64-10.9
		c5.78,0.08,11.13,0.64,15.66,1.57c2.17-0.58,4.41-1.14,6.71-1.66c10.03-2.26,19.35-3.41,26.47-3.47c1.06-2.94,2.65-6.21,4.71-9.55
		c0.77-1.25,1.6-2.52,2.49-3.78c4.95-6.98,10.57-12.21,15.01-14.41c2.57-1.27,4.74-1.53,6.17-0.52c1.31,0.93,1.82,2.81,1.62,5.31
		c-0.31,4.05-2.48,9.74-6.11,15.69c-3.79,1.59-7.85,3.75-11.92,6.41C181.86,191.08,177.22,195.01,173.82,198.75z"/>
	<path class="st8" d="M39.69,254.12l63.73,0c-16.12-8.65-20.85-25.38-20.85-25.38c10.79,2.23,27.28,1.11,27.28,1.11v0
		c9.64-0.28,22.38-1.98,36.13-5.07c15.21-3.42,28.58-7.85,37.52-12.12c4.67-1.62,9.96-4.23,15.25-7.69
		c9.49-6.2,16.48-13.48,18.8-18.96c1.01-2.39,1.13-4.45,0.18-5.91c-1.08-1.65-3.38-2.35-6.49-2.2c-3.27,0.16-7.43,1.26-11.99,3.18
		c-3.79,1.59-7.85,3.75-11.92,6.41c-5.47,3.57-10.11,7.51-13.5,11.25c-8.13,0.48-18.03,1.84-28.67,4.06
		c-5-3.67-11.44-7.55-18.64-10.9c-1.87-0.87-3.78-1.7-5.74-2.48c2.09-1.06,4-2.13,5.66-3.18c0.01-0.01,0.02-0.01,0.03-0.02
		c2.39-1.37,4.88-3.19,7.27-5.39c2.7-2.48,4.93-5.12,6.56-7.65c-2.5,2.02-5.44,2.56-7.22,1.11c-2.2-1.79-1.79-5.95,0.92-9.28
		c2.55-3.13,6.22-4.42,8.48-3.08c-0.04-0.05-0.08-0.1-0.12-0.15c-3.06-3.33-11.88-0.21-19.7,6.97c-1.68,1.54-3.18,3.15-4.46,4.75
		c-7.01,0.56-15.73,2.23-24.97,4.95c-8.03,2.37-15.29,5.2-21.12,8.08c-18.35,7.47-27.03,24.49-26.92,29.96L39.69,254.12z
		 M84.68,213.7c0-2.97,5.29-5.37,11.82-5.37c6.53,0,11.82,2.41,11.82,5.37c0,2.97-5.29,5.37-11.82,5.37
		C89.97,219.08,84.68,216.67,84.68,213.7z"/>
	<path class="st7" d="M82.56,228.74c10.79,2.23,27.28,1.11,27.28,1.11v24.26h-6.43C87.3,245.47,82.56,228.74,82.56,228.74z"/>
	<path class="st5" d="M133.08,174.3c-2.2-1.79-1.79-5.95,0.92-9.28c2.55-3.13,6.22-4.42,8.48-3.08c0.14,0.09,0.28,0.18,0.42,0.29
		c2.2,1.79,1.79,5.95-0.92,9.28c-0.52,0.64-1.08,1.2-1.67,1.67C137.8,175.21,134.86,175.75,133.08,174.3z"/>
	<path class="st9" d="M84.68,213.7c0-2.97,5.29-5.37,11.82-5.37c6.53,0,11.82,2.41,11.82,5.37c0,2.97-5.29,5.37-11.82,5.37
		C89.97,219.08,84.68,216.67,84.68,213.7z"/>
</g>
<g>
	<path class="st1" d="M143.56,118.84c0.02-0.06,0.03-0.12,0.05-0.18c0,0-0.01,0-0.01,0c0.34-1.17,0.65-2.42,0.92-3.73
		c0,0,0.01,0,0.01,0c0.06-0.3,0.12-0.59,0.18-0.89c0,0-0.01,0-0.01,0c0.24-1.21,0.45-2.46,0.63-3.72c0,0,0.01,0,0.01,0
		c0.04-0.3,0.09-0.59,0.13-0.89c0,0-0.01,0-0.01,0c0.17-1.22,0.32-2.45,0.45-3.67c0.79,0.84,1.63,1.72,2.56,2.67
		c0.38,0.43,1.19,0.42,2.21,0.06c3.71,3.06,8.21,5.13,13.08,5.86c-7.96,1.78-14.87,3.51-20.36,4.97
		C143.51,119.16,143.56,119,143.56,118.84z"/>
	<path class="st1" d="M106.52,108.42C106.52,108.42,106.52,108.42,106.52,108.42L106.52,108.42c0.94-0.96,1.8-1.85,2.6-2.7
		c0.99,7.79,2.36,13.12,2.36,13.12c0,0.21,0.09,0.41,0.25,0.61c-5.54-1.48-12.58-3.26-20.72-5.08c4.96-0.69,9.54-2.79,13.3-5.89
		C105.33,108.84,106.14,108.85,106.52,108.42z"/>
	<path class="st10" d="M127.51,122.3c7.71,0,14.16-1.18,15.69-2.74c0,0,0.01,0,0.01,0c0.08-0.08,0.14-0.16,0.19-0.25
		c5.49-1.46,12.4-3.2,20.36-4.97c0.7,0.1,1.41,0.18,2.12,0.23c-2.48,0.87-24.56,8.67-34.98,13.58c-1.02,0.48-1.66,1.5-1.66,2.63
		l0,0.01h0c0,0.47,0.09,0.94,0.22,1.58l-2.15,0.76l-2.17-0.77c0.15-0.76,0.21-1.37,0.21-1.86c0-0.13,0-0.26-0.01-0.37
		c-0.05-0.81-0.54-1.51-1.27-1.86c-10.27-4.88-32.52-12.75-35.19-13.69c0.72-0.04,1.43-0.11,2.14-0.21
		c8.14,1.82,15.18,3.6,20.72,5.08C113.07,121.07,119.62,122.3,127.51,122.3z"/>
	<path class="st10" d="M83.65,114.36c1.61,0.23,3.2,0.3,4.77,0.24c-0.01,0.07,0.02,0.14,0.09,0.16c0,0,0.38,0.13,1.07,0.38
		c0.69,0.24,1.69,0.6,2.93,1.04c2.47,0.89,5.88,2.12,9.62,3.52c7.5,2.79,16.36,6.24,21.81,8.83c0.63,0.3,1.06,0.91,1.1,1.61
		c0.01,0.11,0.01,0.23,0.01,0.35c0,0.47-0.06,1.07-0.21,1.83c0,0,0,0.01,0,0.01c-0.08,0.55-0.19,1.14-0.33,1.76l-4.61,1.63l0,0
		l-3.74,1.32c-1.51-0.9-3.39-1.15-5.18-0.52c-0.43,0.15-0.82,0.35-1.19,0.58c-0.43,0.05-0.86,0.15-1.29,0.3
		c-0.65,0.23-1.24,0.56-1.75,0.97l0-0.01c0,0-0.26,0.22-0.76,0.5c-0.2,0.04-0.41,0.07-0.63,0.1c-7.14-1.71-16.11-3.92-25.48-6.41
		c-0.37-0.09-0.75-0.19-1.12-0.28l0-0.01c-0.2-0.05-0.41-0.1-0.61-0.16c-5.24-1.7-8.1-7.36-6.39-12.65c1.03-3.19,3.5-5.5,6.44-6.47
		C79.94,113.62,81.75,114.09,83.65,114.36z"/>
	<path class="st10" d="M127.8,141.56c-0.1,0-0.2,0.01-0.3,0.01c-0.1,0-0.19-0.01-0.29-0.01l0.27-0.11L127.8,141.56z"/>
	<path class="st11" d="M140.72,84.82c-0.11-0.03-0.22-0.05-0.33-0.08C140.5,84.76,140.61,84.79,140.72,84.82z"/>
	<path class="st11" d="M143.09,85.51c-0.41-0.14-0.84-0.28-1.3-0.42C142.25,85.23,142.69,85.37,143.09,85.51z"/>
	<path class="st11" d="M141.49,85.02c-0.13-0.03-0.25-0.07-0.38-0.1C141.24,84.95,141.37,84.98,141.49,85.02z"/>
	<path class="st11" d="M118.56,84.02c0.31-0.04,0.63-0.08,0.95-0.12C119.19,83.94,118.88,83.98,118.56,84.02z"/>
	<path class="st11" d="M119.6,83.89c0.33-0.04,0.66-0.07,0.99-0.11C120.26,83.82,119.93,83.85,119.6,83.89z"/>
	<path class="st11" d="M120.74,90.03c-0.69,0.01-1.37,0.02-2.06,0.03c-0.79-1.21-1.33-2.58-1.56-4.06c0.53-0.01,1.07-0.02,1.6-0.02
		C119.03,87.51,119.75,88.89,120.74,90.03z"/>
	<path class="st11" d="M118.53,84.15c0,0.32,0.02,0.63,0.05,0.94c-0.52,0.01-1.05,0.02-1.57,0.02c-0.02-0.26-0.04-0.52-0.04-0.78
		c0-0.02-0.01-0.04-0.02-0.06c0.51-0.09,1.04-0.17,1.59-0.24L118.53,84.15z"/>
	<path class="st11" d="M120.63,83.78c0.7-0.07,1.43-0.13,2.17-0.18C122.05,83.65,121.33,83.71,120.63,83.78z"/>
	<path class="st11" d="M138.01,84.33c0,0.14-0.02,0.27-0.02,0.4c-0.52,0.01-1.04,0.02-1.55,0.03c0.01-0.2,0.03-0.41,0.03-0.62
		l-0.01-0.12c-1.35-0.18-2.79-0.33-4.3-0.43l0,0c2.12,0.14,4.09,0.37,5.87,0.67C138.03,84.29,138.01,84.3,138.01,84.33z"/>
	<path class="st11" d="M138.29,84.73c0-0.13,0.02-0.26,0.02-0.4h0c0-0.01-0.01-0.01-0.01-0.02c0.65,0.12,1.28,0.24,1.87,0.38
		C139.54,84.7,138.91,84.71,138.29,84.73z"/>
	<path class="st11" d="M127.5,93.12c2.47,0,4.7-1,6.32-2.61c0.75-0.03,1.5-0.07,2.24-0.1c-0.34,0.48-0.72,0.94-1.14,1.36
		c-1.41,1.41-3.22,2.42-5.24,2.85c-1.62-0.04-3.24-0.08-4.86-0.12c-1.83-0.48-3.47-1.43-4.77-2.73c-0.26-0.26-0.51-0.54-0.74-0.83
		c0.77-0.01,1.53-0.02,2.3-0.03C123.19,92.28,125.24,93.12,127.5,93.12z"/>
	<path class="st11" d="M136.33,85.66c0.53-0.01,1.06-0.02,1.59-0.03c-0.17,1.39-0.61,2.7-1.27,3.87c-0.68,0.03-1.35,0.06-2.03,0.09
		C135.49,88.46,136.08,87.12,136.33,85.66z"/>
	<path class="st12" d="M127.5,80.14c-0.12-0.16-0.23-0.32-0.33-0.48c0.11,0.01,0.22,0.02,0.33,0.02c1.39,0,2.67-0.47,3.7-1.26
		l0.7,3.79C130.24,82.44,128.5,81.44,127.5,80.14z"/>
	<path class="st12" d="M137.2,68.11c0.36,0,0.7,0.11,0.94,0.36c0.24,0.24,0.36,0.58,0.36,0.94c0,0.17-0.02,0.35-0.07,0.53
		c-0.02,0.08-0.1,0.13-0.18,0.11c-0.08-0.02-0.13-0.1-0.11-0.18l0,0c0.04-0.16,0.06-0.31,0.06-0.46c0-0.3-0.09-0.55-0.27-0.73
		c-0.18-0.18-0.43-0.27-0.73-0.27c-0.21,0-0.45,0.06-0.7,0.15c0.16,0.24,0.53,0.88,0.53,1.89c0,0.39-0.06,0.84-0.2,1.34
		c-0.02,0.08-0.1,0.12-0.18,0.1c-0.08-0.02-0.12-0.11-0.1-0.18c0.14-0.47,0.19-0.89,0.19-1.25c0-0.59-0.14-1.05-0.27-1.36
		c-0.07-0.15-0.14-0.27-0.19-0.35l-0.05-0.07c-0.29,0.15-0.58,0.35-0.84,0.61c-0.58,0.58-0.89,1.27-0.88,1.82
		c0,0.3,0.09,0.55,0.27,0.73c0.06,0.06,0.06,0.15,0,0.21c-0.06,0.06-0.15,0.06-0.21,0c-0.24-0.24-0.36-0.58-0.35-0.94
		c0-0.65,0.35-1.4,0.97-2.03C135.79,68.46,136.55,68.11,137.2,68.11z"/>
	<path class="st12" d="M120.45,72.05c-0.06,0.06-0.15,0.06-0.21,0c-0.06-0.06-0.06-0.15,0-0.21c0.18-0.18,0.27-0.43,0.27-0.73
		c0-0.55-0.31-1.24-0.88-1.82c-0.26-0.26-0.55-0.47-0.84-0.61c-0.1,0.14-0.51,0.75-0.51,1.77c0,0.37,0.05,0.78,0.19,1.25
		c0.02,0.08-0.02,0.16-0.1,0.18c-0.08,0.02-0.16-0.02-0.18-0.1c-0.15-0.5-0.2-0.94-0.2-1.34c0-1.01,0.36-1.65,0.53-1.89
		c-0.24-0.09-0.48-0.15-0.7-0.15c-0.3,0-0.55,0.09-0.73,0.27c-0.18,0.18-0.27,0.43-0.27,0.73c0,0.14,0.02,0.3,0.06,0.46
		c0.02,0.08-0.03,0.16-0.11,0.18c-0.08,0.02-0.16-0.03-0.18-0.11l0,0c-0.05-0.18-0.07-0.36-0.07-0.53c0-0.36,0.11-0.7,0.36-0.94
		c0.24-0.24,0.58-0.36,0.94-0.36c0.65,0,1.4,0.35,2.03,0.97c0.62,0.62,0.97,1.38,0.97,2.03C120.8,71.47,120.69,71.81,120.45,72.05z"
		/>
	<path class="st12" d="M130.38,70.12c-0.83,0-1.55-0.51-1.86-1.23c-0.03-0.07,0-0.16,0.08-0.19c0.07-0.03,0.16,0,0.19,0.08
		c0.27,0.62,0.88,1.05,1.59,1.05c0.71,0,1.32-0.43,1.59-1.05c0.03-0.07,0.12-0.11,0.19-0.08c0.07,0.03,0.11,0.12,0.08,0.19l0,0
		C131.93,69.62,131.22,70.12,130.38,70.12z"/>
	<path class="st12" d="M126.4,68.7c0.07,0.03,0.11,0.12,0.08,0.19l0,0c-0.31,0.72-1.03,1.23-1.86,1.23c-0.83,0-1.55-0.51-1.86-1.23
		c-0.03-0.07,0-0.16,0.08-0.19c0.07-0.03,0.16,0,0.19,0.08c0.27,0.62,0.88,1.05,1.59,1.05c0.71,0,1.32-0.43,1.59-1.05
		C126.24,68.7,126.33,68.67,126.4,68.7z"/>
	<path class="st12" d="M126.27,76.97c0,0.08-0.07,0.15-0.15,0.15v0c-1.07,0-1.94-0.87-1.94-1.94c0-0.08,0.07-0.15,0.15-0.15
		c0.08,0,0.15,0.07,0.15,0.15c0,0.91,0.74,1.64,1.64,1.64C126.21,76.82,126.27,76.89,126.27,76.97z"/>
	<path class="st12" d="M127.19,74c-0.13-0.12-0.22-0.32-0.29-0.65c-0.01,0.01-0.02,0.02-0.04,0.03c-0.07,0.05-0.14,0.09-0.21,0.13
		c-0.08,0.04-0.15,0.07-0.24,0.07c-0.06,0-0.15-0.02-0.2-0.09c-0.05-0.07-0.07-0.14-0.07-0.22c0.01-0.27,0.16-0.7,0.6-1.54
		c0.04-0.07,0.13-0.1,0.2-0.06c0.07,0.04,0.1,0.13,0.06,0.2c-0.43,0.82-0.57,1.25-0.56,1.4l0,0.01c0.02-0.01,0.05-0.01,0.08-0.03
		c0.08-0.04,0.18-0.11,0.26-0.17c0.07-0.06,0.12-0.1,0.13-0.1l0.15-0.03l0.1,0.11c0.05,0.31,0.11,0.51,0.17,0.62
		c0.03,0.05,0.05,0.08,0.07,0.1l0.01,0.01l0,0l0.03-0.01c0.07-0.04,0.2-0.23,0.28-0.41c0.04-0.09,0.08-0.17,0.1-0.23
		c0.02-0.06,0.04-0.1,0.04-0.1l0.1-0.09l0.13,0.03c0.17,0.14,0.3,0.23,0.39,0.29l0.07,0.03c-0.02-0.06-0.05-0.15-0.1-0.25
		c-0.11-0.24-0.28-0.53-0.42-0.76c-0.14-0.23-0.25-0.4-0.25-0.4c-0.05-0.07-0.03-0.16,0.04-0.2c0.07-0.05,0.16-0.03,0.2,0.04l0,0
		c0,0,0.2,0.31,0.41,0.66c0.1,0.18,0.2,0.36,0.28,0.54c0.08,0.17,0.14,0.32,0.14,0.46c0,0.05-0.01,0.11-0.05,0.16
		c-0.04,0.06-0.12,0.08-0.18,0.08c-0.1,0-0.19-0.04-0.3-0.11c-0.08-0.05-0.17-0.11-0.27-0.19c-0.03,0.07-0.07,0.16-0.12,0.25
		c-0.06,0.11-0.13,0.23-0.21,0.32c-0.08,0.09-0.18,0.18-0.33,0.18C127.32,74.08,127.25,74.05,127.19,74z"/>
	<path class="st12" d="M141.53,148.4L141.53,148.4c0,0,1.46-0.05,3.38,0.97c-0.56-0.1-0.91-0.09-0.91-0.09l0-0.01
		c-0.66-0.01-1.32-0.11-1.97-0.34c-0.43-0.15-0.82-0.35-1.19-0.58C141.07,148.39,141.3,148.4,141.53,148.4z"/>
	<path class="st12" d="M159.47,148.61c1.19-3.36-0.25-7-3.23-8.71c0.43,0.07,0.86,0.17,1.28,0.32c3.78,1.33,5.76,5.48,4.43,9.26
		c-1.33,3.78-5.48,5.76-9.26,4.43c-0.42-0.15-0.82-0.34-1.2-0.56C154.88,153.9,158.29,151.97,159.47,148.61z"/>
	<path class="st11" d="M139.2,144.95c-0.02,0.1-0.03,0.2-0.03,0.3c0,0.36,0.13,0.71,0.39,0.99c0.29,0.3,0.67,0.46,1.06,0.46
		c0.36,0,0.71-0.13,0.99-0.39c0.06-0.06,0.15-0.15,0.24-0.26c0.51,0.18,1.09,0.35,1.76,0.5c0.08,0.35,0.17,0.69,0.29,1.01
		c0.01,0.04,0.03,0.08,0.07,0.1c0.07,0.04,0.16,0.01,0.2-0.06c0,0,0.04-0.07,0.11-0.2c0.07-0.13,0.18-0.32,0.31-0.55
		c0.02-0.03,0.04-0.06,0.05-0.09c0.69,0.13,1.36,0.24,1.99,0.31c0.07,0.29,0.15,0.58,0.24,0.86c0.02,0.04,0.05,0.07,0.09,0.08
		c0,0,0,0,0,0c0.07,0.04,0.16,0.01,0.2-0.06c0,0,0.03-0.06,0.09-0.17c0.06-0.11,0.15-0.27,0.26-0.46c0.03-0.05,0.07-0.11,0.1-0.17
		c0.55,0.03,1.05,0.02,1.51-0.03c0.07,0.38,0.16,0.76,0.28,1.1c0.03,0.08,0.11,0.12,0.19,0.09c0.08-0.03,0.12-0.11,0.09-0.19
		c-0.11-0.33-0.2-0.68-0.26-1.04c1.05-0.16,1.79-0.56,2.05-1.3c0.28-0.78-0.12-1.58-0.93-2.39c0.36-0.33,0.74-0.63,1.12-0.87
		c0.07-0.04,0.09-0.13,0.05-0.2c-0.04-0.07-0.13-0.09-0.2-0.05c-0.41,0.25-0.8,0.57-1.18,0.92c-0.28-0.26-0.6-0.51-0.95-0.77
		c0.05-0.44,0.11-0.8,0.15-1.04c0.03-0.2,0.06-0.31,0.06-0.31l0,0c0.02-0.08-0.04-0.16-0.11-0.17c0,0,0,0-0.01,0
		c-0.04-0.01-0.08-0.01-0.12,0.01c-0.36,0.22-0.71,0.48-1.04,0.77c-0.46-0.3-0.96-0.6-1.48-0.9c0.05-0.39,0.1-0.73,0.14-0.95
		c0.03-0.17,0.05-0.29,0.06-0.34c0.72-0.17,1.45-0.34,2.21-0.53c0.65,0.08,1.38,0.11,2.19,0.06c0.28-0.05,0.57-0.08,0.86-0.09
		c0.03,0,0.05-0.01,0.08-0.01l0,0.01c0.88-0.03,1.78,0.09,2.66,0.41c0.42,0.15,0.82,0.34,1.2,0.56c2.98,1.71,4.41,5.35,3.23,8.71
		c-1.19,3.36-4.59,5.29-7.98,4.75c-0.43-0.07-0.86-0.17-1.28-0.32c-0.88-0.31-1.66-0.78-2.33-1.36l0,0.01
		c-0.02-0.02-0.03-0.03-0.05-0.05c-0.23-0.2-0.44-0.41-0.64-0.63c-0.79-0.73-1.57-1.26-2.29-1.64c-1.92-1.02-3.39-0.96-3.39-0.96
		l0,0c-0.23,0-0.45-0.02-0.68-0.04c-0.43-0.05-0.86-0.15-1.29-0.3c-1.79-0.63-3.1-2.01-3.7-3.66l1.21,0.43
		C137.78,145.08,138.52,145.11,139.2,144.95z"/>
	<path class="st11" d="M141.56,145.94c-0.05,0.06-0.1,0.11-0.14,0.15c-0.22,0.21-0.51,0.31-0.79,0.31c-0.31,0-0.62-0.12-0.84-0.37
		c-0.21-0.22-0.31-0.51-0.31-0.79c0-0.13,0.03-0.26,0.07-0.39c0.02-0.01,0.05-0.01,0.07-0.02
		C140.05,145.23,140.68,145.6,141.56,145.94z"/>
	<path class="st11" d="M144.34,146.7c-0.1,0.17-0.18,0.32-0.25,0.43c-0.05-0.17-0.1-0.34-0.15-0.52c0.08,0.02,0.16,0.04,0.24,0.05
		C144.23,146.68,144.28,146.69,144.34,146.7z"/>
	<path class="st11" d="M147.07,147.52c-0.04-0.14-0.08-0.28-0.12-0.42c0.11,0.01,0.23,0.02,0.34,0.03
		C147.2,147.28,147.13,147.41,147.07,147.52z"/>
	<path class="st11" d="M145.21,139.93c0.35-0.08,0.71-0.17,1.08-0.25c-0.21,0.15-0.41,0.31-0.61,0.48
		C145.52,140.07,145.36,140,145.21,139.93z"/>
	<path class="st11" d="M145.96,140.3c0.24-0.19,0.48-0.37,0.73-0.54c-0.04,0.21-0.08,0.51-0.13,0.87c-0.07-0.04-0.13-0.08-0.2-0.11
		C146.22,140.44,146.09,140.38,145.96,140.3z"/>
	<path class="st11" d="M149.25,141.34c-0.04,0.21-0.08,0.51-0.13,0.88c-0.18-0.12-0.36-0.25-0.54-0.37
		C148.79,141.67,149.02,141.5,149.25,141.34z"/>
	<path class="st13" d="M129.59,140.58l2.26-0.8c0.28,0.67,0.56,1.24,0.83,1.69l-0.57,1.61l-4.31-1.52l-0.32-0.11L129.59,140.58z"/>
	<path class="st14" d="M139.61,144.84c-0.02,0.01-0.05,0.02-0.07,0.02c0.01-0.02,0.01-0.05,0.02-0.07
		C139.58,144.81,139.6,144.82,139.61,144.84z"/>
	<path class="st14" d="M133.82,142.55c0,0,1.94-0.43,5.27-1.19c-0.01,0.02-0.01,0.03-0.02,0.05c-0.34,0.96-0.64,2.12,0.28,3.17
		c-0.06,0.12-0.12,0.25-0.14,0.38c-0.69,0.15-1.42,0.13-2.14-0.13l-1.21-0.43l-3.74-1.32l0,0l0.57-1.61
		C133.13,142.22,133.53,142.63,133.82,142.55z"/>
	<path class="st15" d="M143.54,142.8c0.72-0.91,1.54-1.79,2.42-2.5c0.13,0.07,0.26,0.13,0.4,0.21c0.07,0.04,0.13,0.08,0.2,0.11
		c-0.11,0.81-0.23,1.94-0.24,3.15c-0.88,1.11-1.57,2.21-1.98,2.92c-0.05-0.01-0.1-0.02-0.15-0.03c-0.08-0.02-0.16-0.04-0.24-0.05
		c-0.29-1.17-0.4-2.45-0.4-3.7C143.54,142.88,143.54,142.84,143.54,142.8z"/>
	<path class="st15" d="M143.27,143.87c0.04,0.91,0.14,1.82,0.34,2.68c-0.67-0.15-1.25-0.32-1.76-0.5c0.42-0.49,1.05-1.38,1.4-2.14
		C143.26,143.9,143.26,143.88,143.27,143.87z"/>
	<path class="st15" d="M143.37,142.52l-0.12,0.07l-0.02,0c-0.08,0.01-0.26-0.11-0.44-0.37c-0.18-0.25-0.37-0.6-0.53-0.97
		c-0.09-0.19-0.17-0.39-0.24-0.58c0.6-0.14,1.23-0.29,1.89-0.44c-0.02,0.33-0.06,0.68-0.11,1.01
		C143.71,141.83,143.54,142.35,143.37,142.52z"/>
	<path class="st15" d="M148.49,145.81c0.14-0.2,0.3-0.41,0.46-0.63c0.01,0.65,0.07,1.3,0.19,1.94c-0.46,0.05-0.96,0.05-1.51,0.03
		C147.85,146.78,148.14,146.31,148.49,145.81z"/>
	<path class="st15" d="M145.74,145.06c0.18-0.26,0.38-0.53,0.59-0.8c0.02,0.94,0.1,1.91,0.31,2.81c-0.63-0.07-1.3-0.17-1.99-0.31
		C144.91,146.31,145.28,145.71,145.74,145.06z"/>
	<path class="st15" d="M143.98,141.82c0.02-0.09,0.05-0.18,0.07-0.28c0.09-0.44,0.14-0.94,0.16-1.38c0.33-0.08,0.66-0.16,1.01-0.24
		c0.15,0.07,0.3,0.14,0.46,0.22C145.07,140.66,144.5,141.22,143.98,141.82z"/>
	<path class="st15" d="M146.62,143.42c0.03-1,0.12-1.93,0.21-2.63c0.52,0.3,1.01,0.6,1.48,0.9
		C147.7,142.2,147.14,142.8,146.62,143.42z"/>
	<path class="st15" d="M149.24,144.34c0.02-0.71,0.08-1.38,0.15-1.92c0.35,0.26,0.67,0.51,0.95,0.77
		C149.95,143.55,149.58,143.94,149.24,144.34z"/>
	<path class="st15" d="M146.61,143.95c0-0.02,0-0.04,0-0.06c0.59-0.73,1.25-1.45,1.96-2.04c0.19,0.12,0.37,0.25,0.54,0.37
		c-0.09,0.66-0.17,1.54-0.18,2.49c-0.72,0.91-1.3,1.82-1.65,2.42c-0.11-0.01-0.23-0.02-0.34-0.03
		C146.71,146.11,146.61,145,146.61,143.95z"/>
	<path class="st15" d="M149.23,144.85c0-0.01,0-0.03,0-0.04c0.4-0.5,0.84-0.99,1.31-1.42c0.81,0.81,1.21,1.61,0.93,2.39
		c-0.26,0.74-1,1.14-2.05,1.3C149.29,146.36,149.23,145.6,149.23,144.85z"/>
	<path class="st15" d="M139.56,144.79c0.06-0.14,0.15-0.27,0.27-0.38c0.2-0.19,0.79-0.6,1.42-0.94c0.62-0.34,1.31-0.63,1.67-0.63
		c0.12,0,0.19,0.03,0.22,0.06l0.03-0.03c0,0,0,0,0,0l-0.03,0.03c0.03,0.03,0.05,0.08,0.05,0.17c0,0.16-0.08,0.42-0.21,0.71
		c-0.13,0.29-0.31,0.61-0.51,0.92c-0.32,0.5-0.68,0.97-0.91,1.24c-0.88-0.34-1.51-0.71-1.95-1.1
		C139.6,144.82,139.58,144.81,139.56,144.79z"/>
	<path class="st15" d="M142.55,142.4c0.05,0.06,0.1,0.12,0.14,0.18c-0.46,0.07-1.03,0.33-1.59,0.63c-0.65,0.35-1.23,0.75-1.48,0.98
		c-0.12,0.11-0.21,0.24-0.28,0.38c-0.92-1.05-0.62-2.21-0.28-3.17c0.01-0.02,0.01-0.03,0.02-0.05c0.8-0.18,1.69-0.39,2.64-0.61
		C141.95,141.34,142.24,141.98,142.55,142.4z"/>
	<path class="st12" d="M139.63,144.19c-0.12,0.11-0.21,0.24-0.28,0.38c-0.06,0.12-0.12,0.25-0.14,0.38c-0.02,0.1-0.03,0.2-0.03,0.3
		c0,0.36,0.13,0.71,0.39,0.99c0.29,0.3,0.67,0.46,1.06,0.46c0.36,0,0.71-0.13,0.99-0.39c0.06-0.06,0.15-0.15,0.24-0.26
		c0.42-0.49,1.05-1.38,1.4-2.14c0.01-0.02,0.01-0.03,0.02-0.04c0.04,0.91,0.14,1.82,0.34,2.68c0.08,0.35,0.17,0.69,0.29,1.01
		c0.01,0.04,0.03,0.08,0.07,0.1c0.07,0.04,0.16,0.01,0.2-0.06c0,0,0.04-0.07,0.11-0.2c0.07-0.13,0.18-0.32,0.31-0.55
		c0.02-0.03,0.04-0.06,0.05-0.09c0.27-0.45,0.64-1.05,1.09-1.7c0.18-0.26,0.38-0.53,0.59-0.8c0.02,0.94,0.1,1.91,0.31,2.81
		c0.07,0.29,0.15,0.58,0.24,0.86c0.02,0.04,0.05,0.07,0.09,0.08c0,0,0,0,0,0c0.07,0.04,0.16,0.01,0.2-0.06c0,0,0.03-0.06,0.09-0.17
		c0.06-0.11,0.15-0.27,0.26-0.46c0.03-0.05,0.07-0.11,0.1-0.17c0.22-0.37,0.51-0.83,0.86-1.34c0.14-0.2,0.3-0.41,0.46-0.63
		c0.01,0.65,0.07,1.3,0.19,1.94c0.07,0.38,0.16,0.76,0.28,1.1c0.03,0.08,0.11,0.12,0.19,0.09c0.08-0.03,0.12-0.11,0.09-0.19
		c-0.11-0.33-0.2-0.68-0.26-1.04c-0.14-0.72-0.19-1.49-0.19-2.23c0-0.01,0-0.03,0-0.04c0.4-0.5,0.84-0.99,1.31-1.42
		c0.36-0.33,0.74-0.63,1.12-0.87c0.07-0.04,0.09-0.13,0.05-0.2c-0.04-0.07-0.13-0.09-0.2-0.05c-0.41,0.25-0.8,0.57-1.18,0.92
		c-0.39,0.36-0.76,0.75-1.09,1.15c0.02-0.71,0.08-1.38,0.15-1.92c0.05-0.44,0.11-0.8,0.15-1.04c0.03-0.2,0.06-0.31,0.06-0.31l0,0
		c0.02-0.08-0.04-0.16-0.11-0.17c0,0,0,0-0.01,0c-0.04-0.01-0.08-0.01-0.12,0.01c-0.36,0.22-0.71,0.48-1.04,0.77
		c-0.61,0.52-1.18,1.12-1.69,1.73c0.03-1,0.12-1.93,0.21-2.63c0.05-0.39,0.1-0.73,0.14-0.95c0.03-0.17,0.05-0.29,0.06-0.34
		c-0.25,0.06-0.5,0.12-0.75,0.18c-0.21,0.15-0.41,0.31-0.61,0.48c-0.6,0.5-1.17,1.07-1.7,1.67c0.02-0.09,0.05-0.18,0.07-0.28
		c0.09-0.44,0.14-0.94,0.16-1.38c-0.1,0.02-0.2,0.05-0.3,0.07c-0.02,0.33-0.06,0.68-0.11,1.01c-0.09,0.58-0.26,1.11-0.43,1.28
		l-0.12,0.07l-0.02,0c-0.08,0.01-0.26-0.11-0.44-0.37c-0.18-0.25-0.37-0.6-0.53-0.97c-0.09-0.19-0.17-0.39-0.24-0.58
		c-0.1,0.02-0.19,0.04-0.29,0.07c0.22,0.6,0.52,1.23,0.83,1.66c0.05,0.06,0.1,0.12,0.14,0.18c-0.46,0.07-1.03,0.33-1.59,0.63
		C140.46,143.56,139.88,143.96,139.63,144.19z M146.95,147.1c-0.24-0.99-0.34-2.1-0.34-3.15c0-0.02,0-0.04,0-0.06
		c0.59-0.73,1.25-1.45,1.96-2.04c0.22-0.18,0.45-0.35,0.68-0.51c-0.04,0.21-0.08,0.51-0.13,0.88c-0.09,0.66-0.17,1.54-0.18,2.49
		c-0.72,0.91-1.3,1.82-1.65,2.42c-0.09,0.15-0.16,0.28-0.22,0.39C147.03,147.38,146.99,147.24,146.95,147.1z M143.54,142.92
		c0-0.04,0-0.08,0-0.12c0.72-0.91,1.54-1.79,2.42-2.5c0.24-0.19,0.48-0.37,0.73-0.54c-0.04,0.21-0.08,0.51-0.13,0.87
		c-0.11,0.81-0.23,1.94-0.24,3.15c-0.88,1.11-1.57,2.21-1.98,2.92c-0.1,0.17-0.18,0.32-0.25,0.43c-0.05-0.17-0.1-0.34-0.15-0.52
		C143.65,145.45,143.54,144.17,143.54,142.92z M139.54,144.86c0.01-0.02,0.01-0.05,0.02-0.07c0.06-0.14,0.15-0.27,0.27-0.38
		c0.2-0.19,0.79-0.6,1.42-0.94c0.62-0.34,1.31-0.63,1.67-0.63c0.12,0,0.19,0.03,0.22,0.06l0.03-0.03c0,0,0,0,0,0l-0.03,0.03
		c0.03,0.03,0.05,0.08,0.05,0.17c0,0.16-0.08,0.42-0.21,0.71c-0.13,0.29-0.31,0.61-0.51,0.92c-0.32,0.5-0.68,0.97-0.91,1.24
		c-0.05,0.06-0.1,0.11-0.14,0.15c-0.22,0.21-0.51,0.31-0.79,0.31c-0.31,0-0.62-0.12-0.84-0.37c-0.21-0.22-0.31-0.51-0.31-0.79
		C139.47,145.12,139.49,144.99,139.54,144.86z"/>
	<path class="st12" d="M109.24,137.5c0,0-1.1,0.96-3.24,1.38c0.5-0.28,0.76-0.5,0.76-0.5l0,0.01c0.51-0.41,1.1-0.74,1.75-0.97
		c0.43-0.15,0.86-0.25,1.29-0.3C109.61,137.23,109.42,137.36,109.24,137.5L109.24,137.5z"/>
	<path class="st12" d="M95.15,148.61c1.18,3.36,4.59,5.29,7.98,4.75c-0.38,0.22-0.77,0.41-1.2,0.56c-3.78,1.33-7.93-0.65-9.26-4.43
		s0.65-7.93,4.43-9.26c0.42-0.15,0.85-0.25,1.28-0.32C95.4,141.61,93.96,145.25,95.15,148.61z"/>
	<path class="st12" d="M113.1,148.41L113.1,148.41c0.22-0.01,0.45-0.02,0.68-0.05c-0.37,0.23-0.77,0.42-1.19,0.58
		c-0.65,0.23-1.32,0.34-1.97,0.34l0,0.01c0,0-0.34-0.01-0.9,0.09C111.63,148.35,113.1,148.41,113.1,148.41z"/>
	<path class="st11" d="M115.08,144.86c0.04,0.13,0.07,0.26,0.07,0.39c0,0.28-0.1,0.57-0.31,0.79c-0.23,0.24-0.53,0.36-0.84,0.37
		c-0.28,0-0.57-0.1-0.79-0.31c-0.04-0.04-0.09-0.09-0.15-0.15c0.88-0.34,1.51-0.71,1.95-1.1
		C115.03,144.85,115.06,144.85,115.08,144.86z"/>
	<path class="st11" d="M110.69,139.41c0-0.16,0.01-0.3,0.02-0.38c0.08-0.58,0.58-1,1.14-1c0.05,0,0.11,0,0.16,0.01
		c0.52,0.07,0.91,0.49,0.98,0.99c-0.02,0.03-0.04,0.06-0.06,0.09C112.33,139.05,111.59,139.12,110.69,139.41z"/>
	<path class="st11" d="M110.68,146.62c-0.04,0.18-0.09,0.35-0.15,0.52c-0.07-0.12-0.15-0.26-0.25-0.43c0.05-0.01,0.1-0.02,0.15-0.03
		C110.52,146.66,110.6,146.64,110.68,146.62z"/>
	<path class="st11" d="M107.55,147.52c-0.06-0.11-0.13-0.23-0.22-0.39c0.11-0.01,0.23-0.02,0.34-0.03
		C107.63,147.24,107.59,147.38,107.55,147.52z"/>
	<path class="st11" d="M109.24,137.5L109.24,137.5c0.18-0.13,0.37-0.27,0.56-0.39c0.37-0.23,0.77-0.43,1.19-0.58
		c1.79-0.63,3.67-0.38,5.18,0.52l-1.21,0.43c-0.71,0.25-1.3,0.69-1.74,1.23c-0.17-0.5-0.61-0.89-1.17-0.96
		c-0.07-0.01-0.13-0.01-0.2-0.01c-0.71,0-1.34,0.53-1.44,1.25c-0.02,0.13-0.03,0.31-0.03,0.53c-0.45,0.16-0.93,0.37-1.45,0.63
		c-0.37-0.3-0.74-0.59-1.14-0.83c-0.03-0.03-0.07-0.04-0.12-0.03c-0.08,0.02-0.13,0.09-0.11,0.17c0,0,0.03,0.13,0.07,0.36
		c0.04,0.23,0.09,0.56,0.14,0.95c-0.52,0.3-1.01,0.6-1.48,0.9c-0.34-0.29-0.68-0.55-1.04-0.77c-0.04-0.02-0.08-0.02-0.12-0.01
		c0,0,0,0-0.01,0c-0.08,0.02-0.13,0.09-0.11,0.17c0,0,0.02,0.11,0.06,0.31c0.03,0.2,0.08,0.48,0.12,0.83
		c0.01,0.06,0.02,0.14,0.02,0.21c-0.35,0.26-0.67,0.51-0.95,0.77c-0.38-0.35-0.77-0.66-1.18-0.92c-0.07-0.04-0.16-0.02-0.2,0.05
		c-0.04,0.07-0.02,0.16,0.05,0.2c0.39,0.24,0.76,0.54,1.12,0.87c-0.81,0.81-1.21,1.61-0.93,2.39c0.26,0.74,1,1.14,2.05,1.3
		c-0.07,0.36-0.15,0.71-0.26,1.04c-0.03,0.08,0.01,0.16,0.09,0.19c0.08,0.03,0.16-0.01,0.19-0.09c0.12-0.35,0.21-0.72,0.28-1.1
		c0.46,0.05,0.96,0.05,1.51,0.03c0.16,0.27,0.29,0.49,0.36,0.63c0.06,0.11,0.09,0.17,0.09,0.17l0,0c0.04,0.07,0.13,0.1,0.2,0.06
		c0,0,0,0,0,0c0.04-0.01,0.07-0.04,0.09-0.08c0.1-0.27,0.17-0.56,0.24-0.86c0.63-0.07,1.3-0.17,1.99-0.31
		c0.16,0.27,0.28,0.49,0.36,0.63c0.07,0.13,0.11,0.2,0.11,0.2l0,0c0.04,0.07,0.13,0.1,0.2,0.06c0.04-0.02,0.06-0.06,0.07-0.1
		c0.11-0.33,0.21-0.67,0.29-1.01c0.67-0.15,1.25-0.32,1.76-0.5c0.09,0.11,0.17,0.2,0.24,0.26c0.28,0.26,0.64,0.39,0.99,0.39
		c0.39,0,0.77-0.15,1.06-0.46c0.26-0.28,0.39-0.64,0.39-0.99c0-0.1-0.01-0.2-0.03-0.3c0.69,0.15,1.42,0.13,2.14-0.13l1.21-0.43
		c-0.61,1.65-1.92,3.03-3.7,3.66c-0.43,0.15-0.86,0.25-1.29,0.3c-0.23,0.03-0.46,0.04-0.68,0.04l0,0c0,0-1.46-0.05-3.39,0.96
		c-0.72,0.38-1.49,0.91-2.29,1.64c-0.2,0.22-0.41,0.43-0.64,0.63c-0.01,0.02-0.03,0.03-0.04,0.04l0-0.01
		c-0.67,0.58-1.45,1.05-2.33,1.36c-0.42,0.15-0.85,0.25-1.28,0.32c-3.39,0.54-6.8-1.39-7.98-4.75c-1.19-3.36,0.25-7,3.23-8.71
		c0.38-0.22,0.77-0.41,1.2-0.56c0.88-0.31,1.78-0.44,2.66-0.41l0-0.01c0.03,0,0.05,0.01,0.08,0.01c0.29,0.01,0.58,0.04,0.86,0.09
		c0.81,0.06,1.54,0.03,2.19-0.06c0.22-0.03,0.43-0.06,0.63-0.1C108.14,138.45,109.24,137.5,109.24,137.5z"/>
	<path class="st11" d="M108.06,140.63c-0.05-0.36-0.1-0.66-0.13-0.87c0.25,0.17,0.49,0.35,0.73,0.54c-0.13,0.07-0.26,0.13-0.4,0.21
		C108.19,140.55,108.13,140.59,108.06,140.63z"/>
	<path class="st11" d="M105.37,141.34c0.23,0.16,0.46,0.32,0.68,0.51c-0.19,0.13-0.37,0.25-0.55,0.37
		C105.46,141.85,105.41,141.55,105.37,141.34z"/>
	<path class="st13" d="M119.91,135.74l4.61-1.63l2.45-0.87c0.55,2.47,1.23,4.88,2.45,7.08l-2.64,1.08
		c-0.07,0.03-0.11,0.11-0.08,0.18l-4.2,1.48L119.91,135.74z"/>
	<path class="st14" d="M115.42,144.95c-0.03-0.13-0.08-0.26-0.14-0.38c0.92-1.05,0.62-2.21,0.28-3.17
		c-0.32-0.92-0.95-1.93-2.25-2.22c0-0.16-0.03-0.32-0.08-0.46c0.44-0.55,1.03-0.98,1.74-1.23l1.21-0.43l3.74-1.32l0,0l2.59,7.34l0,0
		l-3.74,1.32l-1.21,0.43C116.84,145.08,116.1,145.11,115.42,144.95z"/>
	<path class="st14" d="M115.06,144.79c0.01,0.02,0.02,0.05,0.02,0.07c-0.02-0.01-0.05-0.01-0.07-0.02
		C115.02,144.82,115.04,144.81,115.06,144.79z"/>
	<path class="st14" d="M112.94,139.12c0.02-0.03,0.04-0.06,0.06-0.09c0,0.03,0.01,0.06,0.01,0.09
		C112.99,139.12,112.96,139.12,112.94,139.12z"/>
	<path class="st15" d="M111.35,143.87c0.01,0.02,0.01,0.03,0.02,0.04c0.14,0.31,0.33,0.64,0.53,0.95c0.3,0.47,0.62,0.9,0.87,1.19
		c-0.51,0.18-1.09,0.35-1.76,0.5C111.21,145.69,111.31,144.78,111.35,143.87z"/>
	<path class="st15" d="M111.08,142.93c0,1.25-0.11,2.53-0.4,3.69c-0.08,0.02-0.16,0.04-0.24,0.05c-0.05,0.01-0.1,0.02-0.15,0.03
		c-0.41-0.71-1.11-1.81-1.98-2.92c-0.01-1.22-0.13-2.35-0.24-3.16c0.07-0.04,0.13-0.08,0.2-0.11c0.14-0.08,0.27-0.14,0.4-0.21
		c0.88,0.72,1.69,1.59,2.42,2.5C111.08,142.85,111.08,142.89,111.08,142.93z"/>
	<path class="st15" d="M111.45,142.88C111.45,142.88,111.45,142.88,111.45,142.88l0.03,0.03c0.03-0.03,0.1-0.06,0.22-0.06
		c0.36,0,1.05,0.28,1.67,0.63c0.63,0.34,1.21,0.75,1.42,0.94c0.12,0.11,0.21,0.24,0.27,0.38c-0.02,0.02-0.03,0.03-0.05,0.05
		c-0.43,0.39-1.06,0.77-1.95,1.1c-0.38-0.43-1.08-1.4-1.42-2.15c-0.13-0.29-0.21-0.55-0.21-0.71c0-0.09,0.02-0.15,0.05-0.17
		L111.45,142.88z"/>
	<path class="st15" d="M110.53,141.29c0.03,0.19,0.07,0.36,0.11,0.53c-0.53-0.6-1.09-1.17-1.7-1.67c0.52-0.27,1-0.47,1.45-0.63
		c0,0.01,0,0.01,0,0.02C110.39,140.03,110.43,140.69,110.53,141.29z"/>
	<path class="st15" d="M112.94,139.12c0.02,0,0.05,0,0.07,0.01c0,0.02,0.01,0.04,0.01,0.06c0,0.05,0,0.11-0.01,0.16
		c-0.06,0.48-0.62,2.14-1.17,2.88c-0.18,0.25-0.36,0.38-0.44,0.37l-0.02,0l-0.12-0.07c-0.05-0.05-0.1-0.13-0.15-0.23
		c-0.1-0.2-0.18-0.49-0.24-0.81c-0.13-0.64-0.18-1.42-0.18-1.95c0-0.05,0-0.08,0-0.13C111.59,139.12,112.33,139.05,112.94,139.12z"
		/>
	<path class="st15" d="M105.67,145.18c0.56,0.73,1.01,1.44,1.32,1.96c-0.55,0.03-1.05,0.02-1.51-0.03
		C105.6,146.49,105.66,145.83,105.67,145.18z"/>
	<path class="st15" d="M108.29,144.26c0.73,0.95,1.31,1.87,1.68,2.5c-0.69,0.13-1.36,0.24-1.99,0.31
		C108.19,146.17,108.28,145.2,108.29,144.26z"/>
	<path class="st15" d="M108,143.41c-0.51-0.61-1.08-1.21-1.69-1.73c0.46-0.3,0.96-0.6,1.48-0.9c0,0.01,0,0.02,0,0.03
		C107.88,141.51,107.97,142.43,108,143.41z"/>
	<path class="st15" d="M105.38,144.34c-0.34-0.4-0.7-0.79-1.09-1.15c0.28-0.26,0.6-0.51,0.95-0.77
		C105.3,142.96,105.35,143.62,105.38,144.34z"/>
	<path class="st15" d="M105.39,144.82c0,0.01,0,0.02,0,0.04c0,0.74-0.06,1.51-0.19,2.23c-1.05-0.16-1.79-0.56-2.05-1.3
		c-0.28-0.78,0.12-1.58,0.93-2.39C104.55,143.83,104.99,144.32,105.39,144.82z"/>
	<path class="st15" d="M108.01,143.95c0,1.06-0.09,2.16-0.34,3.15c-0.11,0.01-0.23,0.02-0.34,0.03c-0.35-0.6-0.92-1.51-1.65-2.42
		c-0.01-0.94-0.09-1.82-0.18-2.49c0.18-0.12,0.36-0.25,0.55-0.37c0.71,0.59,1.37,1.31,1.95,2.04
		C108.01,143.91,108.01,143.93,108.01,143.95z"/>
	<path class="st15" d="M113.51,143.21c-0.56-0.3-1.13-0.56-1.59-0.63c0.05-0.05,0.1-0.11,0.14-0.18c0.2-0.28,0.39-0.64,0.56-1.02
		c0.34-0.77,0.61-1.61,0.66-1.99c0.01-0.07,0.01-0.14,0.01-0.2c0,0,0-0.01,0-0.01c1.29,0.3,1.92,1.31,2.25,2.22
		c0.34,0.96,0.64,2.12-0.28,3.17c-0.07-0.14-0.16-0.27-0.28-0.38C114.74,143.96,114.16,143.56,113.51,143.21z"/>
	<path class="st12" d="M113.31,139.18c0-0.16-0.03-0.32-0.08-0.46c-0.17-0.5-0.61-0.89-1.17-0.96c-0.07-0.01-0.13-0.01-0.2-0.01
		c-0.71,0-1.34,0.53-1.44,1.25c-0.02,0.13-0.03,0.31-0.03,0.53c0,0.01,0,0.01,0,0.02c0,0.49,0.04,1.15,0.14,1.75
		c0.03,0.19,0.07,0.36,0.11,0.53c-0.53-0.6-1.09-1.17-1.7-1.67c-0.37-0.3-0.74-0.59-1.14-0.83c-0.03-0.03-0.07-0.04-0.12-0.03
		c-0.08,0.02-0.13,0.09-0.11,0.17c0,0,0.03,0.13,0.07,0.36c0.04,0.23,0.09,0.56,0.14,0.95c0,0.01,0,0.02,0,0.03
		c0.09,0.7,0.18,1.61,0.2,2.6c-0.51-0.61-1.08-1.21-1.69-1.73c-0.34-0.29-0.68-0.55-1.04-0.77c-0.04-0.02-0.08-0.02-0.12-0.01
		c0,0,0,0-0.01,0c-0.08,0.02-0.13,0.09-0.11,0.17c0,0,0.02,0.11,0.06,0.31c0.03,0.2,0.08,0.48,0.12,0.83
		c0.01,0.06,0.02,0.14,0.02,0.21c0.07,0.54,0.12,1.2,0.15,1.92c-0.34-0.4-0.7-0.79-1.09-1.15c-0.38-0.35-0.77-0.66-1.18-0.92
		c-0.07-0.04-0.16-0.02-0.2,0.05c-0.04,0.07-0.02,0.16,0.05,0.2c0.39,0.24,0.76,0.54,1.12,0.87c0.47,0.43,0.91,0.93,1.31,1.42
		c0,0.01,0,0.02,0,0.04c0,0.74-0.06,1.51-0.19,2.23c-0.07,0.36-0.15,0.71-0.26,1.04c-0.03,0.08,0.01,0.16,0.09,0.19
		c0.08,0.03,0.16-0.01,0.19-0.09c0.12-0.35,0.21-0.72,0.28-1.1c0.12-0.63,0.17-1.29,0.19-1.94c0.56,0.73,1.01,1.44,1.32,1.96
		c0.16,0.27,0.29,0.49,0.36,0.63c0.06,0.11,0.09,0.17,0.09,0.17l0,0c0.04,0.07,0.13,0.1,0.2,0.06c0,0,0,0,0,0
		c0.04-0.01,0.07-0.04,0.09-0.08c0.1-0.27,0.17-0.56,0.24-0.86c0.21-0.9,0.29-1.87,0.31-2.81c0.73,0.95,1.31,1.87,1.68,2.5
		c0.16,0.27,0.28,0.49,0.36,0.63c0.07,0.13,0.11,0.2,0.11,0.2l0,0c0.04,0.07,0.13,0.1,0.2,0.06c0.04-0.02,0.06-0.06,0.07-0.1
		c0.11-0.33,0.21-0.67,0.29-1.01c0.2-0.86,0.3-1.77,0.34-2.68c0.01,0.02,0.01,0.03,0.02,0.04c0.14,0.31,0.33,0.64,0.53,0.95
		c0.3,0.47,0.62,0.9,0.87,1.19c0.09,0.11,0.17,0.2,0.24,0.26c0.28,0.26,0.64,0.39,0.99,0.39c0.39,0,0.77-0.15,1.06-0.46
		c0.26-0.28,0.39-0.64,0.39-0.99c0-0.1-0.01-0.2-0.03-0.3c-0.03-0.13-0.08-0.26-0.14-0.38c-0.07-0.14-0.16-0.27-0.28-0.38
		c-0.25-0.23-0.83-0.63-1.48-0.98c-0.56-0.3-1.13-0.56-1.59-0.63c0.05-0.05,0.1-0.11,0.14-0.18c0.2-0.28,0.39-0.64,0.56-1.02
		c0.34-0.77,0.61-1.61,0.66-1.99C113.3,139.32,113.31,139.26,113.31,139.18C113.31,139.19,113.31,139.18,113.31,139.18z
		 M111.43,143.08c0-0.09,0.02-0.15,0.05-0.17l-0.03-0.03c0,0,0,0,0,0l0.03,0.03c0.03-0.03,0.1-0.06,0.22-0.06
		c0.36,0,1.05,0.28,1.67,0.63c0.63,0.34,1.21,0.75,1.42,0.94c0.12,0.11,0.21,0.24,0.27,0.38c0.01,0.02,0.02,0.05,0.02,0.07
		c0.04,0.13,0.07,0.26,0.07,0.39c0,0.28-0.1,0.57-0.31,0.79c-0.23,0.24-0.53,0.36-0.84,0.37c-0.28,0-0.57-0.1-0.79-0.31
		c-0.04-0.04-0.09-0.09-0.15-0.15c-0.38-0.43-1.08-1.4-1.42-2.15C111.51,143.5,111.43,143.24,111.43,143.08z M108.01,143.89
		c0,0.02,0,0.04,0,0.05c0,1.06-0.09,2.16-0.34,3.15c-0.04,0.14-0.08,0.28-0.12,0.42c-0.06-0.11-0.13-0.23-0.22-0.39
		c-0.35-0.6-0.92-1.51-1.65-2.42c-0.01-0.94-0.09-1.82-0.18-2.49c-0.05-0.37-0.1-0.67-0.13-0.88c0.23,0.16,0.46,0.32,0.68,0.51
		C106.76,142.44,107.42,143.16,108.01,143.89z M111.08,142.8c0,0.04,0,0.08,0,0.12c0,1.25-0.11,2.53-0.4,3.69
		c-0.04,0.18-0.09,0.35-0.15,0.52c-0.07-0.12-0.15-0.26-0.25-0.43c-0.41-0.71-1.11-1.81-1.98-2.92c-0.01-1.22-0.13-2.35-0.24-3.16
		c-0.05-0.36-0.1-0.66-0.13-0.87c0.25,0.17,0.49,0.35,0.73,0.54C109.54,141.02,110.36,141.9,111.08,142.8z M113,139.03
		c0,0.03,0.01,0.06,0.01,0.09c0,0.02,0.01,0.04,0.01,0.06c0,0.05,0,0.11-0.01,0.16c-0.06,0.48-0.62,2.14-1.17,2.88
		c-0.18,0.25-0.36,0.38-0.44,0.37l-0.02,0l-0.12-0.07c-0.05-0.05-0.1-0.13-0.15-0.23c-0.1-0.2-0.18-0.49-0.24-0.81
		c-0.13-0.64-0.18-1.42-0.18-1.95c0-0.05,0-0.08,0-0.13c0-0.16,0.01-0.3,0.02-0.38c0.08-0.58,0.58-1,1.14-1c0.05,0,0.11,0,0.16,0.01
		C112.54,138.12,112.93,138.53,113,139.03z"/>
	<path class="st10" d="M147.04,139.5c-0.25,0.06-0.5,0.12-0.75,0.18c-0.37,0.09-0.72,0.17-1.08,0.25c-0.34,0.08-0.68,0.16-1.01,0.24
		c-0.1,0.02-0.2,0.05-0.3,0.07c-0.66,0.15-1.29,0.3-1.89,0.44c-0.1,0.02-0.19,0.04-0.29,0.07c-0.95,0.22-1.84,0.43-2.64,0.61
		c-3.33,0.76-5.27,1.19-5.27,1.19c-0.29,0.08-0.69-0.33-1.14-1.08c-0.27-0.45-0.55-1.02-0.83-1.69c-0.44-1.06-0.89-2.35-1.28-3.76
		c-0.38-1.36-0.65-2.65-0.81-3.76l-0.02,0.01c-0.13-0.62-0.21-1.06-0.21-1.48l0,0c0-1.01,0.58-1.93,1.49-2.36
		c9.64-4.55,29.35-11.59,34.13-13.28c0.68-0.24,1.06-0.37,1.06-0.37l0,0c0.07-0.03,0.11-0.1,0.09-0.18
		c1.65,0.08,3.34,0.01,5.04-0.23c1.83-0.26,3.59-0.7,5.26-1.31c2.85,1.01,5.23,3.29,6.23,6.4c1.71,5.29-1.15,10.95-6.39,12.65
		c-0.2,0.07-0.4,0.11-0.61,0.16l0,0.01c-0.36,0.09-0.73,0.19-1.11,0.28c-9.38,2.49-18.35,4.71-25.49,6.42
		C148.49,139.15,147.75,139.33,147.04,139.5z"/>
	<path class="st12" d="M126.79,141.41l2.64-1.08c-1.22-2.2-1.9-4.62-2.45-7.08l-2.45,0.87c0.14-0.62,0.24-1.21,0.33-1.76
		c0,0,0-0.01,0-0.01c0.15-0.76,0.21-1.36,0.21-1.83c0-0.13,0-0.24-0.01-0.35c-0.05-0.7-0.47-1.31-1.1-1.61
		c-5.45-2.59-14.31-6.04-21.81-8.83c-3.75-1.4-7.15-2.63-9.62-3.52c-1.23-0.44-2.24-0.8-2.93-1.04c-0.69-0.24-1.07-0.38-1.07-0.38
		c-0.07-0.02-0.1-0.09-0.09-0.16c0.15-0.01,0.3-0.01,0.45-0.02c2.68,0.94,24.93,8.8,35.19,13.69c0.73,0.35,1.22,1.05,1.27,1.86
		c0.01,0.12,0.01,0.24,0.01,0.37c0,0.49-0.06,1.1-0.21,1.86l2.17,0.77l2.15-0.76c-0.13-0.64-0.22-1.11-0.22-1.58h0l0-0.01
		c0-1.13,0.64-2.15,1.66-2.63c10.42-4.92,32.5-12.71,34.98-13.58c0.14,0.01,0.28,0.01,0.42,0.02c0.02,0.07-0.02,0.15-0.09,0.18l0,0
		c0,0-0.38,0.13-1.06,0.37c-4.77,1.69-24.48,8.73-34.13,13.28c-0.92,0.43-1.49,1.35-1.49,2.36l0,0c0,0.42,0.08,0.86,0.21,1.48
		l0.02-0.01c0.16,1.11,0.43,2.4,0.81,3.76c0.39,1.41,0.84,2.71,1.28,3.76l-2.26,0.8l-2.11,0.87l-0.27,0.11l-0.31,0.13
		c-0.08,0.03-0.16-0.01-0.19-0.08c0,0,0-0.01,0-0.01C126.68,141.52,126.72,141.44,126.79,141.41z"/>
	<path class="st12" d="M133.12,63.16c0,0-5.55,2.5-10.99,2.94c-0.4,1.47-1.73,2.52-1.73,2.52c-0.02-0.07-0.03-0.13-0.05-0.2
		c-0.23-0.85-0.33-1.61-0.33-2.27c-1.19-0.04-2.33-0.22-3.37-0.58c-6.28-2.19-6.16-11.54,0.45-12.27c6.61-0.73,6.81,5.51,6.81,5.51
		s4.03-1.05,7.33-0.19c0.01-1.43,0.39-2.52,0.95-2.57c0.62-0.05,1.24,1.19,1.45,2.84c0.96-1.15,2-1.79,2.48-1.46
		c0.54,0.39,0.12,1.91-0.94,3.41c-0.11,0.15-0.21,0.29-0.32,0.42c0.78,1.54,0.88,3.83-0.2,7.18c-0.02,0.06-0.03,0.11-0.05,0.16
		C134.6,68.61,131.39,66.36,133.12,63.16z"/>
	<path class="st8" d="M166.31,114.59c-0.14-0.01-0.28-0.01-0.42-0.02c-0.71-0.05-1.42-0.13-2.12-0.23
		c-4.87-0.72-9.37-2.8-13.08-5.86c1.18-0.42,2.64-1.31,4.06-2.54c0.16-0.14,0.32-0.28,0.47-0.42c0,0,0.01,0,0.01,0
		c0.13-0.12,0.24-0.24,0.36-0.36c0.06-0.06,0.12-0.11,0.17-0.17c0.11-0.12,0.24-0.23,0.35-0.35c0,0-0.01,0-0.01,0
		c0.62-0.67,1.13-1.34,1.5-1.96c3.53,2.41,7.91,3.58,12.49,2.92c9.45-1.36,15.91-9.92,15.3-19.21c-0.54-0.02-1.08-0.13-1.6-0.34
		c-1.22-0.49-2.18-1.42-2.7-2.63c-0.52-1.21-0.54-2.54-0.05-3.77c0.24-0.61,0.93-0.9,1.53-0.66c0.61,0.24,0.9,0.93,0.66,1.53
		c-0.25,0.64-0.24,1.33,0.03,1.96c0.27,0.63,0.77,1.11,1.4,1.37c0.64,0.25,1.33,0.24,1.96-0.03c0.63-0.27,1.11-0.77,1.37-1.4
		c0.25-0.64,0.24-1.33-0.03-1.96c-0.27-0.63-0.77-1.11-1.4-1.37c-0.61-0.24-0.9-0.93-0.66-1.53c0.24-0.61,0.93-0.9,1.53-0.66
		c1.22,0.49,2.18,1.42,2.7,2.63c0.4,0.93,0.5,1.94,0.3,2.92c0,0,0.01-0.01,0.01-0.01c0.59-0.94,0.78-2.05,0.53-3.14
		c-0.25-1.08-0.9-2-1.84-2.59c-0.55-0.35-0.72-1.07-0.37-1.63c0.35-0.55,1.08-0.72,1.63-0.37c1.47,0.92,2.5,2.37,2.89,4.06
		c0.23,0.99,0.21,1.99-0.01,2.95c0.34-0.46,0.58-0.99,0.7-1.57c0.22-1.06,0.01-2.15-0.59-3.05c-0.36-0.54-0.21-1.28,0.34-1.64
		c0.54-0.36,1.28-0.21,1.64,0.34c0.94,1.43,1.27,3.15,0.93,4.83c-0.3,1.45-1.07,2.72-2.19,3.65c1.46,12.55-5.88,24.57-17.47,28.78
		c-1.67,0.61-3.43,1.05-5.26,1.31C169.65,114.6,167.96,114.67,166.31,114.59z"/>
	<path class="st11" d="M98.68,104.36c0.26,0.3,0.54,0.59,0.84,0.89c18.57,0,37.13,0.14,55.7,0.27c-0.15,0.14-0.31,0.28-0.47,0.42
		c-1.42,1.24-2.88,2.12-4.06,2.54c-1.02,0.36-1.83,0.37-2.21-0.06c-0.93-0.94-1.78-1.83-2.56-2.67c-0.13,1.22-0.28,2.45-0.45,3.67
		c-11.92,0.16-23.85,0.34-35.77,0.28c0.05,0.3,0.1,0.59,0.14,0.89c11.83,0.06,23.67-0.12,35.5-0.28c-0.19,1.27-0.4,2.51-0.63,3.72
		c-5.97,0.11-11.94,0.26-17.9,0.35c-5.41,0.08-10.83,0.17-16.24,0.25c0.06,0.31,0.12,0.6,0.18,0.88c5.35-0.08,10.71-0.17,16.06-0.25
		c5.9-0.09,11.81-0.24,17.72-0.35c-0.27,1.31-0.58,2.57-0.92,3.73c-6.2,0.25-12.39,0.62-18.54,0.74c-4.41,0.08-8.81,0.13-13.22,0.18
		c0.31,0.31,0.8,0.6,1.46,0.87c3.92-0.04,7.84-0.09,11.77-0.16c6.01-0.11,12.07-0.47,18.13-0.72c-1.53,1.57-7.98,2.74-15.69,2.74
		c-7.89,0-14.45-1.23-15.78-2.85c-0.16-0.2-0.25-0.4-0.25-0.61c0,0-1.37-5.34-2.36-13.12c-0.8,0.85-1.65,1.74-2.6,2.7l0,0
		c0,0,0,0,0,0c-0.38,0.43-1.19,0.42-2.21,0.06c-1.18-0.42-2.64-1.31-4.06-2.54c-1.25-1.09-2.23-2.25-2.85-3.27
		c-0.68-1.14-0.9-2.11-0.47-2.6c0,0,6.16-8.03,10.28-11.69c0.34-0.32,0.7-0.62,1.06-0.88c0,0,0.01,0,0.01-0.01l0,0
		c0.24-0.17,0.48-0.33,0.72-0.47c1.32-1.11,4.07-2.06,7.68-2.7c0,0-0.01,0.01-0.01,0.01c0,0.27,0.02,0.53,0.04,0.79
		c-1.24,0.02-2.49,0.04-3.73,0.06c-0.95,0.28-1.77,0.59-2.46,0.92c2.1-0.03,4.2-0.07,6.3-0.1c0.23,1.48,0.75,2.85,1.52,4.07
		c-4.34,0.06-8.68,0.11-13.02,0.15c-0.28,0.29-0.56,0.59-0.85,0.89c4.83-0.04,9.65-0.1,14.48-0.17c1.23,1.59,2.89,2.82,4.81,3.52
		c-7.26-0.18-14.52-0.38-21.77-0.57c-0.25,0.29-0.5,0.58-0.74,0.87c17.86,0.48,35.72,0.97,53.59,1.27c1.87,2.26,3.23,4.04,3.23,4.04
		c0.01,0.01,0.01,0.02,0.02,0.02c-20.17-0.32-40.35-0.65-60.52-0.81c-0.39,0.5-0.61,0.79-0.61,0.79v0l-0.06,0.09
		c20.46,0.16,40.92,0.5,61.38,0.82c-0.06,0.48-0.29,1.06-0.67,1.69c-0.37,0.62-0.88,1.29-1.5,1.96
		C136.96,104.5,117.82,104.36,98.68,104.36z"/>
	<path class="st11" d="M155.59,105.15c0.06-0.06,0.12-0.11,0.17-0.17C155.71,105.04,155.65,105.1,155.59,105.15z"/>
	<path class="st11" d="M130.75,94.64c2.34-0.74,4.34-2.26,5.69-4.25c4.32-0.2,8.64-0.4,12.96-0.46c1.55,1.57,3.22,3.47,4.68,5.21
		C146.31,95,138.53,94.83,130.75,94.64z"/>
	<path class="st11" d="M137,89.48c0.64-1.17,1.05-2.48,1.22-3.86c1.63-0.03,3.26-0.07,4.88-0.1c1.28,0.45,2.27,0.97,2.92,1.52
		c0.23,0.14,0.46,0.29,0.69,0.45l0,0c0,0,0.01,0,0.01,0.01c0.37,0.26,0.72,0.56,1.06,0.88c0.24,0.21,0.49,0.44,0.74,0.68
		C144.68,89.13,140.84,89.3,137,89.48z"/>
	<path class="st8" d="M59.66,75.8c0.36-0.54,1.09-0.69,1.64-0.34c0.54,0.36,0.69,1.09,0.34,1.64c-0.6,0.91-0.81,1.99-0.59,3.05
		c0.12,0.58,0.36,1.11,0.7,1.57c-0.23-0.96-0.24-1.96-0.01-2.95c0.39-1.7,1.42-3.14,2.89-4.06c0.55-0.35,1.28-0.18,1.63,0.37
		c0.35,0.55,0.18,1.28-0.37,1.63c-0.94,0.59-1.6,1.51-1.84,2.59c-0.25,1.08-0.06,2.19,0.53,3.14c0,0,0.01,0.01,0.01,0.01
		c-0.2-0.97-0.1-1.99,0.3-2.92c0.52-1.21,1.48-2.14,2.7-2.63c0.61-0.24,1.29,0.05,1.53,0.66c0.24,0.61-0.05,1.29-0.66,1.53
		c-0.64,0.25-1.13,0.74-1.4,1.37c-0.27,0.63-0.28,1.32-0.03,1.96c0.25,0.64,0.74,1.13,1.37,1.4c0.63,0.27,1.32,0.28,1.96,0.03
		c0.64-0.25,1.13-0.74,1.4-1.37c0.27-0.63,0.28-1.32,0.03-1.96c-0.24-0.61,0.05-1.29,0.66-1.53c0.61-0.24,1.29,0.05,1.53,0.66
		c0.49,1.22,0.47,2.56-0.05,3.77c-0.52,1.21-1.48,2.14-2.7,2.63c-0.52,0.21-1.06,0.31-1.6,0.34c-0.62,9.3,5.84,17.86,15.3,19.21
		c4.58,0.66,8.96-0.51,12.49-2.92c0.61,1.02,1.6,2.18,2.85,3.27c1.42,1.24,2.88,2.12,4.06,2.54c-3.77,3.11-8.35,5.2-13.3,5.89
		c-0.7,0.1-1.42,0.17-2.14,0.21c-0.15,0.01-0.3,0.02-0.45,0.02c-1.56,0.06-3.16-0.01-4.77-0.24c-1.9-0.27-3.71-0.74-5.44-1.38
		c-11.48-4.27-18.75-16.22-17.29-28.71c-1.12-0.93-1.89-2.2-2.19-3.65C58.39,78.95,58.72,77.23,59.66,75.8z"/>
	<path class="st16" d="M127.49,94.85c-0.92,0-1.81-0.13-2.67-0.35c1.62,0.04,3.24,0.08,4.86,0.12
		C128.98,94.76,128.25,94.85,127.49,94.85z"/>
	<path class="st16" d="M101.24,94.76c0.24-0.29,0.49-0.58,0.74-0.87c7.26,0.19,14.51,0.39,21.77,0.57c1.17,0.43,2.42,0.68,3.74,0.68
		c1.14,0,2.23-0.18,3.26-0.5c7.78,0.19,15.55,0.36,23.33,0.49c0,0,0.01,0,0.01,0c0.26,0.31,0.51,0.61,0.75,0.9c0,0-0.01,0-0.01,0
		C136.97,95.73,119.11,95.24,101.24,94.76z"/>
	<path class="st16" d="M96.89,100.16l0.06-0.09v0c0,0,0.22-0.29,0.61-0.79c20.17,0.16,40.35,0.49,60.52,0.81c0,0,0.01,0,0.01,0
		c0.18,0.22,0.23,0.52,0.19,0.89c0,0-0.01,0-0.01,0C137.81,100.66,117.35,100.32,96.89,100.16z"/>
	<path class="st16" d="M99.52,105.25c-0.3-0.3-0.58-0.59-0.84-0.89c19.14-0.01,38.28,0.14,57.42,0.27c0,0,0.01,0,0.01,0
		c-0.11,0.12-0.23,0.23-0.35,0.35c-0.06,0.06-0.11,0.12-0.17,0.17c-0.12,0.12-0.23,0.24-0.36,0.36c0,0-0.01,0-0.01,0
		C136.65,105.39,118.09,105.25,99.52,105.25z"/>
	<path class="st16" d="M145.35,110.31c0,0-0.01,0-0.01,0c-11.83,0.16-23.67,0.34-35.5,0.28c-0.05-0.29-0.1-0.58-0.14-0.89
		c11.92,0.06,23.85-0.12,35.77-0.28c0,0,0.01,0,0.01,0C145.44,109.72,145.4,110.02,145.35,110.31z"/>
	<path class="st16" d="M144.54,114.92c0,0-0.01,0-0.01,0c-5.91,0.11-11.82,0.26-17.72,0.35c-5.35,0.08-10.71,0.17-16.06,0.25
		c-0.06-0.28-0.12-0.57-0.18-0.88c5.41-0.08,10.83-0.17,16.24-0.25c5.96-0.09,11.93-0.25,17.9-0.35c0,0,0.01,0,0.01,0
		C144.66,114.33,144.6,114.63,144.54,114.92z"/>
	<path class="st16" d="M143.56,118.84c0,0.16-0.06,0.32-0.16,0.47c-0.05,0.08-0.11,0.16-0.19,0.25c0,0-0.01,0-0.01,0
		c-6.06,0.25-12.12,0.61-18.13,0.72c-3.92,0.07-7.84,0.12-11.77,0.16c-0.66-0.27-1.15-0.56-1.46-0.87c4.41-0.04,8.82-0.1,13.22-0.18
		c6.15-0.11,12.34-0.48,18.54-0.74c0,0,0.01,0,0.01,0C143.6,118.72,143.58,118.78,143.56,118.84z"/>
	<path class="st16" d="M118.72,85.97c-0.53,0.01-1.07,0.02-1.6,0.02c-0.05-0.29-0.08-0.59-0.11-0.88c0.52-0.01,1.05-0.02,1.57-0.02
		C118.61,85.39,118.66,85.68,118.72,85.97z"/>
	<path class="st16" d="M110.52,86.1c0.69-0.33,1.52-0.64,2.46-0.92c1.24-0.02,2.49-0.04,3.73-0.06c0.02,0.3,0.06,0.59,0.1,0.88
		C114.72,86.03,112.62,86.07,110.52,86.1z"/>
	<path class="st16" d="M136.44,84.77c0.52-0.01,1.04-0.02,1.55-0.03c-0.01,0.3-0.03,0.6-0.07,0.89c-0.53,0.01-1.06,0.02-1.59,0.03
		C136.38,85.36,136.42,85.07,136.44,84.77z"/>
	<path class="st16" d="M138.22,85.62c0.03-0.29,0.05-0.59,0.06-0.89c0.63-0.01,1.26-0.03,1.88-0.04c0,0,0.01,0,0.01,0
		c0.07,0.02,0.14,0.03,0.21,0.05c0.11,0.03,0.22,0.05,0.33,0.08c0.13,0.03,0.26,0.06,0.39,0.1c0.13,0.03,0.26,0.07,0.38,0.1
		c0.1,0.03,0.2,0.05,0.3,0.08c0.46,0.13,0.9,0.27,1.3,0.42c0,0,0.01,0,0.01,0.01c0,0,0,0,0,0
		C141.48,85.55,139.85,85.58,138.22,85.62z"/>
	<path class="st16" d="M118.95,90.94c-4.83,0.07-9.65,0.12-14.48,0.17c0.29-0.31,0.57-0.6,0.85-0.89c4.34-0.04,8.68-0.09,13.02-0.15
		C118.53,90.37,118.73,90.66,118.95,90.94z"/>
	<path class="st16" d="M121.61,90.9c-0.77,0.01-1.53,0.02-2.3,0.03c-0.23-0.28-0.44-0.57-0.63-0.88c0.69-0.01,1.37-0.02,2.06-0.03
		C121.01,90.34,121.3,90.63,121.61,90.9z"/>
	<path class="st16" d="M134.62,89.59c0.68-0.03,1.35-0.06,2.03-0.09c-0.18,0.31-0.37,0.62-0.58,0.91c-0.75,0.03-1.5,0.07-2.24,0.1
		C134.11,90.22,134.37,89.91,134.62,89.59z"/>
	<path class="st16" d="M136.45,90.39c0.2-0.29,0.38-0.6,0.55-0.91c3.84-0.18,7.68-0.35,11.52-0.42c0,0,0.01,0,0.01,0
		c0.29,0.28,0.59,0.57,0.89,0.87c0,0-0.01,0-0.01,0C145.09,89.99,140.77,90.19,136.45,90.39z"/>
	<path class="st8" d="M132.16,83.6L132.16,83.6l-0.96-5.19c1.1-0.85,1.9-2.05,2.22-3.45l0.01,0l0.01-0.07
		c0.02-0.08,0.03-0.16,0.04-0.23l0.37-2.01c0,0,0,0,0,0c0.91,0.91,2.72,0.59,4.03-0.73c1.31-1.31,1.64-3.12,0.73-4.03
		c-0.91-0.91-2.7-0.59-4.01,0.71l0.03-0.14c-0.02,0.06-0.03,0.11-0.05,0.16c0,0-3.2-2.25-1.48-5.46c0,0-5.55,2.5-10.99,2.94
		c-0.4,1.47-1.73,2.52-1.73,2.52c-0.02-0.07-0.03-0.13-0.05-0.2l0.03,0.19c-1.31-1.3-3.1-1.62-4.01-0.71
		c-0.91,0.91-0.59,2.72,0.73,4.03c1.31,1.31,3.12,1.64,4.03,0.73c0,0,0,0,0,0l0.36,1.95l0.01,0c0.26,1.55,1.1,2.9,2.3,3.82
		l-0.94,5.18c-0.02,0-0.05,0-0.07,0c-0.74,0.05-1.46,0.11-2.17,0.18c-0.01,0-0.02,0-0.04,0c-0.33,0.03-0.66,0.07-0.99,0.11
		c-0.03,0-0.06,0.01-0.08,0.01c-0.32,0.04-0.64,0.08-0.95,0.12c-0.01,0-0.02,0-0.02,0v0l-0.01,0.12c0,0.32,0.02,0.63,0.05,0.94
		c0.03,0.3,0.08,0.59,0.14,0.88c0.32,1.53,1.03,2.92,2.02,4.06c0.27,0.31,0.56,0.6,0.87,0.87c1.58,1.38,3.63,2.21,5.89,2.21
		c2.47,0,4.7-1,6.32-2.61c0.29-0.29,0.55-0.6,0.8-0.92c0.86-1.13,1.46-2.47,1.71-3.93c0.05-0.29,0.08-0.59,0.11-0.89
		c0.01-0.2,0.03-0.41,0.03-0.62l-0.01-0.12C135.11,83.84,133.67,83.7,132.16,83.6z M119.83,69.08c0.62,0.62,0.97,1.38,0.97,2.03
		c0,0.36-0.11,0.7-0.36,0.94c-0.06,0.06-0.15,0.06-0.21,0c-0.06-0.06-0.06-0.15,0-0.21c0.18-0.18,0.27-0.43,0.27-0.73
		c0-0.55-0.31-1.24-0.88-1.82c-0.26-0.26-0.55-0.47-0.84-0.61c-0.1,0.14-0.51,0.75-0.51,1.77c0,0.37,0.05,0.78,0.19,1.25
		c0.02,0.08-0.02,0.16-0.1,0.18c-0.08,0.02-0.16-0.02-0.18-0.1c-0.15-0.5-0.2-0.94-0.2-1.34c0-1.01,0.36-1.65,0.53-1.89
		c-0.24-0.09-0.48-0.15-0.7-0.15c-0.3,0-0.55,0.09-0.73,0.27c-0.18,0.18-0.27,0.43-0.27,0.73c0,0.14,0.02,0.3,0.06,0.46
		c0.02,0.08-0.03,0.16-0.11,0.18c-0.08,0.02-0.16-0.03-0.18-0.11l0,0c-0.05-0.18-0.07-0.36-0.07-0.53c0-0.36,0.11-0.7,0.36-0.94
		c0.24-0.24,0.58-0.36,0.94-0.36C118.46,68.11,119.21,68.46,119.83,69.08z M134.2,71.11c0-0.65,0.35-1.4,0.97-2.03
		c0.62-0.62,1.38-0.97,2.03-0.97c0.36,0,0.7,0.11,0.94,0.36c0.24,0.24,0.36,0.58,0.36,0.94c0,0.17-0.02,0.35-0.07,0.53
		c-0.02,0.08-0.1,0.13-0.18,0.11c-0.08-0.02-0.13-0.1-0.11-0.18l0,0c0.04-0.16,0.06-0.31,0.06-0.46c0-0.3-0.09-0.55-0.27-0.73
		c-0.18-0.18-0.43-0.27-0.73-0.27c-0.21,0-0.45,0.06-0.7,0.15c0.16,0.24,0.53,0.88,0.53,1.89c0,0.39-0.06,0.84-0.2,1.34
		c-0.02,0.08-0.1,0.12-0.18,0.1c-0.08-0.02-0.12-0.11-0.1-0.18c0.14-0.47,0.19-0.89,0.19-1.25c0-0.59-0.14-1.05-0.27-1.36
		c-0.07-0.15-0.14-0.27-0.19-0.35l-0.05-0.07c-0.29,0.15-0.58,0.35-0.84,0.61c-0.58,0.58-0.89,1.27-0.88,1.82
		c0,0.3,0.09,0.55,0.27,0.73c0.06,0.06,0.06,0.15,0,0.21c-0.06,0.06-0.15,0.06-0.21,0C134.31,71.81,134.2,71.47,134.2,71.11z
		 M130.38,70.12c-0.83,0-1.55-0.51-1.86-1.23c-0.03-0.07,0-0.16,0.08-0.19c0.07-0.03,0.16,0,0.19,0.08
		c0.27,0.62,0.88,1.05,1.59,1.05c0.71,0,1.32-0.43,1.59-1.05c0.03-0.07,0.12-0.11,0.19-0.08c0.07,0.03,0.11,0.12,0.08,0.19l0,0
		C131.93,69.62,131.22,70.12,130.38,70.12z M126.21,68.78c0.03-0.07,0.12-0.11,0.19-0.08c0.07,0.03,0.11,0.12,0.08,0.19l0,0
		c-0.31,0.72-1.03,1.23-1.86,1.23c-0.83,0-1.55-0.51-1.86-1.23c-0.03-0.07,0-0.16,0.08-0.19c0.07-0.03,0.16,0,0.19,0.08
		c0.27,0.62,0.88,1.05,1.59,1.05C125.33,69.83,125.94,69.4,126.21,68.78z M127.4,74.08c-0.07,0-0.15-0.03-0.2-0.08
		c-0.13-0.12-0.22-0.32-0.29-0.65c-0.01,0.01-0.02,0.02-0.04,0.03c-0.07,0.05-0.14,0.09-0.21,0.13c-0.08,0.04-0.15,0.07-0.24,0.07
		c-0.06,0-0.15-0.02-0.2-0.09c-0.05-0.07-0.07-0.14-0.07-0.22c0.01-0.27,0.16-0.7,0.6-1.54c0.04-0.07,0.13-0.1,0.2-0.06
		c0.07,0.04,0.1,0.13,0.06,0.2c-0.43,0.82-0.57,1.25-0.56,1.4l0,0.01c0.02-0.01,0.05-0.01,0.08-0.03c0.08-0.04,0.18-0.11,0.26-0.17
		c0.07-0.06,0.12-0.1,0.13-0.1l0.15-0.03l0.1,0.11c0.05,0.31,0.11,0.51,0.17,0.62c0.03,0.05,0.05,0.08,0.07,0.1l0.01,0.01l0,0
		l0.03-0.01c0.07-0.04,0.2-0.23,0.28-0.41c0.04-0.09,0.08-0.17,0.1-0.23c0.02-0.06,0.04-0.1,0.04-0.1l0.1-0.09l0.13,0.03
		c0.17,0.14,0.3,0.23,0.39,0.29l0.07,0.03c-0.02-0.06-0.05-0.15-0.1-0.25c-0.11-0.24-0.28-0.53-0.42-0.76
		c-0.14-0.23-0.25-0.4-0.25-0.4c-0.05-0.07-0.03-0.16,0.04-0.2c0.07-0.05,0.16-0.03,0.2,0.04l0,0c0,0,0.2,0.31,0.41,0.66
		c0.1,0.18,0.2,0.36,0.28,0.54c0.08,0.17,0.14,0.32,0.14,0.46c0,0.05-0.01,0.11-0.05,0.16c-0.04,0.06-0.12,0.08-0.18,0.08
		c-0.1,0-0.19-0.04-0.3-0.11c-0.08-0.05-0.17-0.11-0.27-0.19c-0.03,0.07-0.07,0.16-0.12,0.25c-0.06,0.11-0.13,0.23-0.21,0.32
		C127.64,73.98,127.55,74.07,127.4,74.08z M126.13,76.82c0.08,0,0.15,0.07,0.15,0.15c0,0.08-0.07,0.15-0.15,0.15v0
		c-1.07,0-1.94-0.87-1.94-1.94c0-0.08,0.07-0.15,0.15-0.15c0.08,0,0.15,0.07,0.15,0.15C124.49,76.09,125.22,76.82,126.13,76.82z
		 M131.89,82.2c-1.65,0.23-3.4-0.77-4.4-2.06c-0.12-0.16-0.23-0.32-0.33-0.48c0.11,0.01,0.22,0.02,0.33,0.02
		c1.39,0,2.67-0.47,3.7-1.26L131.89,82.2z"/>
	<path class="st12" d="M138.31,84.33L138.31,84.33c0,0.13-0.02,0.26-0.02,0.4c-0.01,0.3-0.03,0.6-0.06,0.89
		c-0.16,1.38-0.58,2.69-1.22,3.86c-0.17,0.31-0.36,0.62-0.55,0.91c-1.35,1.99-3.35,3.51-5.69,4.25c-1.03,0.33-2.12,0.5-3.26,0.5
		c-1.32,0-2.57-0.25-3.74-0.68c-1.92-0.71-3.58-1.94-4.81-3.52c-0.22-0.28-0.42-0.57-0.61-0.88c-0.76-1.21-1.29-2.59-1.52-4.07
		c-0.05-0.29-0.08-0.59-0.1-0.88c-0.02-0.26-0.04-0.52-0.04-0.79c0-0.01,0-0.01,0.01-0.01c0.01-0.07,0.07-0.13,0.14-0.13
		c0.06,0,0.1,0.04,0.12,0.09c0.01,0.02,0.02,0.04,0.02,0.06c0,0.26,0.02,0.52,0.04,0.78c0.02,0.3,0.06,0.59,0.11,0.88
		c0.24,1.48,0.78,2.86,1.56,4.06c0.2,0.3,0.41,0.6,0.63,0.88c0.23,0.29,0.48,0.57,0.74,0.83c1.3,1.3,2.94,2.25,4.77,2.73
		c0.85,0.22,1.74,0.35,2.67,0.35c0.75,0,1.49-0.08,2.19-0.23c2.02-0.43,3.83-1.44,5.24-2.85c0.42-0.42,0.79-0.88,1.14-1.36
		c0.21-0.29,0.4-0.6,0.58-0.91c0.66-1.17,1.1-2.48,1.27-3.87c0.04-0.29,0.06-0.59,0.07-0.89c0.01-0.14,0.02-0.27,0.02-0.4
		c0-0.02,0.02-0.04,0.03-0.06c0.02-0.05,0.06-0.09,0.12-0.09c0.07,0,0.13,0.06,0.14,0.13C138.3,84.32,138.31,84.32,138.31,84.33z"/>
</g>
</svg>
